<?xml version="1.0" encoding="utf-8"?>
<!-- Generator: Adobe Illustrator 16.0.0, SVG Export Plug-In . SVG Version: 6.00 Build 0)  -->
<!DOCTYPE svg PUBLIC "-//W3C//DTD SVG 1.1//EN" "http://www.w3.org/Graphics/SVG/1.1/DTD/svg11.dtd">
<svg version="1.1" id="图形" xmlns="http://www.w3.org/2000/svg" xmlns:xlink="http://www.w3.org/1999/xlink" x="0px" y="0px"
	 width="1000.637px" height="1000.678px" viewBox="15.167 -16.333 1000.637 1000.678"
	 enable-background="new 15.167 -16.333 1000.637 1000.678" xml:space="preserve">
<path fill-rule="evenodd" clip-rule="evenodd" fill="#272636" d="M818.672,443.937H554.995V180.302l76.234,76.19L909.232,89.743
	L742.438,367.702L818.672,443.937z M261.9,230.498c-106.25,106.207-131.604,262.524-76.449,392.929l-46.22,83.889
	C39.183,539.24,60.945,318.832,205.591,174.145C350.235,29.543,570.686,7.736,738.719,107.786l-83.887,46.263
	C524.467,98.894,368.15,124.205,261.9,230.498z M211.704,523.548h263.679v263.723l-76.234-76.277L121.147,877.827l166.792-278
	L211.704,523.548z M768.478,737.073c106.719-106.719,131.775-263.891,75.721-394.554l46.263-83.461
	c100.863,168.204,79.271,389.341-65.673,534.285c-144.987,144.941-366.082,166.578-534.285,65.675l83.418-46.265
	C504.628,868.85,661.799,843.793,768.478,737.073z"/>
</svg>
