<?xml version="1.0" encoding="utf-8"?>
<!-- Generator: Adobe Illustrator 16.0.0, SVG Export Plug-In . SVG Version: 6.00 Build 0)  -->
<!DOCTYPE svg PUBLIC "-//W3C//DTD SVG 1.1//EN" "http://www.w3.org/Graphics/SVG/1.1/DTD/svg11.dtd">
<svg version="1.1" id="图形" xmlns="http://www.w3.org/2000/svg" xmlns:xlink="http://www.w3.org/1999/xlink" x="0px" y="0px"
	 width="1000.637px" height="1000.678px" viewBox="15.167 -16.333 1000.637 1000.678"
	 enable-background="new 15.167 -16.333 1000.637 1000.678" xml:space="preserve">
<g>
	<g>
		<path fill="#333333" d="M872.808,46.22H157.209c-43.922,0-79.519,35.619-79.519,79.521v715.596
			c0,43.902,35.596,79.521,79.519,79.521h715.599c43.923,0,79.518-35.618,79.518-79.521V125.741
			C952.326,81.839,916.731,46.22,872.808,46.22z M872.808,841.337H157.209V125.741h715.599V841.337z M323.874,430.882v298.777
			h27.162V376.815c17.253-36.899,34.592-80.632,52.017-131.196l-26.905-6.661c-28.013,90.367-66.793,172.022-116.333,244.964
			c5.81,8.201,11.019,16.402,15.631,24.602C293.53,482.385,309.695,456.507,323.874,430.882z M563.205,372.713H440.72v316.97
			h-51.248v24.089h371.55v-24.089h-47.404v-316.97H590.878v-57.14h160.15v-24.087h-160.15v-52.528h-27.674v52.528H413.045v24.087
			h150.159V372.713z M685.942,689.683H468.651V634.08h217.291V689.683z M685.942,611.018H468.651v-56.115h217.291V611.018z
			 M685.942,531.84H468.651v-56.372h217.291V531.84z M685.942,396.289v56.116H468.651v-56.116H685.942z"/>
	</g>
</g>
</svg>
