<?xml version="1.0" encoding="utf-8"?>
<!-- Generator: Adobe Illustrator 16.0.0, SVG Export Plug-In . SVG Version: 6.00 Build 0)  -->
<!DOCTYPE svg PUBLIC "-//W3C//DTD SVG 1.1//EN" "http://www.w3.org/Graphics/SVG/1.1/DTD/svg11.dtd">
<svg version="1.1" id="图形" xmlns="http://www.w3.org/2000/svg" xmlns:xlink="http://www.w3.org/1999/xlink" x="0px" y="0px"
	 width="1000.637px" height="1000.678px" viewBox="15.167 -16.333 1000.637 1000.678"
	 enable-background="new 15.167 -16.333 1000.637 1000.678" xml:space="preserve">
<g>
	<path fill="#333333" d="M851.754,209.71H447.857c0-55.747-45.229-100.975-100.975-100.975H178.592
		c-55.747,0-100.975,45.228-100.975,100.975v100.974v33.658v437.555c0,55.747,45.228,100.976,100.975,100.976h673.162
		c55.746,0,100.975-45.229,100.975-100.976V310.684C952.729,254.937,907.5,209.71,851.754,209.71z M885.414,781.897
		c0,18.573-15.087,33.659-33.659,33.659H178.592c-18.572,0-33.658-15.086-33.658-33.659V310.684
		c0-18.571,15.086-33.658,33.658-33.658h673.162c18.572,0,33.659,15.087,33.659,33.658V781.897z"/>
</g>
</svg>
