<?xml version="1.0" encoding="utf-8"?>
<!-- Generator: Adobe Illustrator 17.0.0, SVG Export Plug-In . SVG Version: 6.00 Build 0)  -->
<!DOCTYPE svg PUBLIC "-//W3C//DTD SVG 1.1//EN" "http://www.w3.org/Graphics/SVG/1.1/DTD/svg11.dtd">
<svg version="1.1" id="图形" xmlns="http://www.w3.org/2000/svg" xmlns:xlink="http://www.w3.org/1999/xlink" x="0px" y="0px"
	 width="1000.637px" height="1000.678px" viewBox="15.167 -16.333 1000.637 1000.678"
	 enable-background="new 15.167 -16.333 1000.637 1000.678" xml:space="preserve">
<g>
	<path fill="#272636" d="M743.263,632.956v-72.887h-36.941v-90.856h-90.855V359.389h-35.944v-72.885h-36.94v-54.915h-72.885v54.915
		h-35.945v72.885h-54.91v200.68h-90.854v72.887h-54.916v35.939h45.135h36.444h72.896h236.91h54.668h18.227h18.222h63.634v-35.939
		H743.263z M514.626,585.027h-35.944v-35.938h35.944V585.027z M514.626,530.118h-35.944v-35.944h35.944V530.118z M514.626,476.203
		h-35.944v-36.94h35.944V476.203z M514.626,421.289h-35.944v-36.942h35.944V421.289z M587.511,585.027h-35.944v-35.938h35.944
		V585.027z M587.511,530.118h-35.944v-35.944h35.944V530.118z M587.511,476.203h-35.944v-36.94h35.944V476.203z M587.511,421.289
		h-35.944v-36.942h35.944V421.289z M661.392,585.027h-18.97v-17.969h18.97V585.027z M661.392,549.089h-18.97v-18.971h18.97V549.089z
		 M661.392,512.143h-18.97v-17.97h18.97V512.143z M697.337,585.027h-17.976v-17.969h17.976V585.027z M697.337,549.089h-17.976
		v-18.971h17.976V549.089z M697.337,512.143h-17.976v-17.97h17.976V512.143z"/>
</g>
<g>
	<path fill="#272636" d="M515.483,46.476c-241.644,0-437.527,195.899-437.527,437.528c0,241.632,195.883,437.532,437.527,437.532
		c241.632,0,437.531-195.899,437.531-437.532C953.014,242.375,757.115,46.476,515.483,46.476 M515.483,831.954
		c-192.165,0-347.946-155.763-347.946-347.95c0-192.183,155.781-347.946,347.946-347.946c192.187,0,347.949,155.763,347.949,347.946
		C863.432,676.191,707.669,831.954,515.483,831.954"/>
</g>
</svg>
