<?xml version="1.0" encoding="utf-8"?>
<!-- Generator: Adobe Illustrator 17.0.0, SVG Export Plug-In . SVG Version: 6.00 Build 0)  -->
<!DOCTYPE svg PUBLIC "-//W3C//DTD SVG 1.1//EN" "http://www.w3.org/Graphics/SVG/1.1/DTD/svg11.dtd">
<svg version="1.1" id="图形" xmlns="http://www.w3.org/2000/svg" xmlns:xlink="http://www.w3.org/1999/xlink" x="0px" y="0px"
	 width="1000.637px" height="1000.678px" viewBox="15.167 -16.333 1000.637 1000.678"
	 enable-background="new 15.167 -16.333 1000.637 1000.678" xml:space="preserve">
<g>
	<path fill="#333333" d="M382.903,589.948v33.646c0,18.532,15.114,33.645,33.645,33.645h82.109
		c9.596-37.491,27.011-71.86,50.798-100.936H416.548C398.017,556.302,382.903,571.416,382.903,589.948z"/>
	<path fill="#333333" d="M181.03,756.17c-18.566,0-33.646-15.08-33.646-33.646V150.551c0-18.566,15.08-33.646,33.646-33.646h605.619
		c18.566,0,33.646,15.08,33.646,33.646v318.155c23.952,6.339,46.525,15.935,67.291,28.353V150.551
		c0-55.724-45.209-100.937-100.937-100.937H181.03c-55.724,0-100.937,45.213-100.937,100.937v571.974
		c0,55.727,45.213,100.936,100.937,100.936h329.258c-8.805-21.16-14.75-43.766-17.741-67.291H181.03z"/>
	<path fill="#333333" d="M753.003,253.493c0-18.532-15.114-33.646-33.646-33.646h-302.81c-18.532,0-33.645,15.114-33.645,33.646
		v33.646c0,18.532,15.114,33.646,33.645,33.646h302.81c18.532,0,33.646-15.114,33.646-33.646V253.493z"/>
	<path fill="#333333" d="M281.966,556.302h-33.646c-18.532,0-33.646,15.114-33.646,33.646v33.646
		c0,18.532,15.114,33.645,33.646,33.645h33.646c18.532,0,33.646-15.114,33.646-33.645v-33.646
		C315.612,571.416,300.498,556.302,281.966,556.302z"/>
	<path fill="#333333" d="M315.612,251.488c0-18.532-15.114-33.646-33.646-33.646h-33.646c-18.532,0-33.646,15.114-33.646,33.646
		v33.646c0,18.532,15.114,33.645,33.646,33.645h33.646c18.532,0,33.646-15.114,33.646-33.645V251.488z"/>
	<path fill="#333333" d="M315.612,421.72c0-18.532-15.114-33.646-33.646-33.646h-33.646c-18.532,0-33.646,15.114-33.646,33.646
		v33.646c0,18.532,15.114,33.646,33.646,33.646h33.646c18.532,0,33.646-15.114,33.646-33.646V421.72z"/>
	<path fill="#333333" d="M719.358,388.075h-302.81c-18.532,0-33.645,15.114-33.645,33.646v33.646
		c0,18.532,15.114,33.646,33.645,33.646H632.68c35.816-18.498,76.362-29.144,119.435-29.309c0.199-1.48,0.888-2.793,0.888-4.337
		V421.72C753.003,403.188,737.89,388.075,719.358,388.075z"/>
	<path fill="#333333" d="M753.003,526.96c-108.002,0-195.564,87.562-195.564,195.564c0,108.032,87.562,195.564,195.564,195.564
		s195.564-87.532,195.564-195.564C948.568,614.522,861.006,526.96,753.003,526.96z M853.94,756.17h-67.291v67.291h-67.291V756.17
		h-67.291v-67.291h67.291v-67.291h67.291v67.291h67.291V756.17z"/>
</g>
</svg>
