<?xml version="1.0" encoding="utf-8"?>
<!-- Generator: Adobe Illustrator 16.0.0, SVG Export Plug-In . SVG Version: 6.00 Build 0)  -->
<!DOCTYPE svg PUBLIC "-//W3C//DTD SVG 1.1//EN" "http://www.w3.org/Graphics/SVG/1.1/DTD/svg11.dtd">
<svg version="1.1" id="图形" xmlns="http://www.w3.org/2000/svg" xmlns:xlink="http://www.w3.org/1999/xlink" x="0px" y="0px"
	 width="1000.637px" height="1000.678px" viewBox="15.167 -16.333 1000.637 1000.678"
	 enable-background="new 15.167 -16.333 1000.637 1000.678" xml:space="preserve">
<g>
	<g>
		<path fill-rule="evenodd" clip-rule="evenodd" d="M93.37,376.277c0,0,843.13,0,844.413,0c20.364-8.539,19.426-26.769,0.385-38.938
			C919.081,325.215,514.85,46.248,514.85,46.248S113.735,325.215,93.37,337.34C73.046,349.509,71.766,367.738,93.37,376.277z
			 M514.85,183.981c33.686,0,61.054,26.13,61.054,58.363c0,32.235-27.368,58.363-61.054,58.363
			c-33.73,0-61.055-26.128-61.055-58.363C453.795,210.111,481.12,183.981,514.85,183.981z M114.417,809.711h802.315v-32.617H114.417
			V809.711z M288.141,743.023V445.698h34.115v-36.802H147.89v33.515h34.113v300.611H288.141z M79.579,876.401h871.992v-30.527
			H79.579V876.401z M846.969,743.023V443.65h34.155v-32.661H706.718v31.423h34.156v300.611H846.969z M568.643,743.023V443.65h34.158
			v-32.661H428.394v31.423h34.156v300.611H568.643z"/>
	</g>
</g>
</svg>
