<?xml version="1.0" encoding="utf-8"?>
<!-- Generator: Adobe Illustrator 17.0.0, SVG Export Plug-In . SVG Version: 6.00 Build 0)  -->
<!DOCTYPE svg PUBLIC "-//W3C//DTD SVG 1.1//EN" "http://www.w3.org/Graphics/SVG/1.1/DTD/svg11.dtd">
<svg version="1.1" id="图形" xmlns="http://www.w3.org/2000/svg" xmlns:xlink="http://www.w3.org/1999/xlink" x="0px" y="0px"
	 width="1000.637px" height="1000.678px" viewBox="15.167 -16.333 1000.637 1000.678"
	 enable-background="new 15.167 -16.333 1000.637 1000.678" xml:space="preserve">
<g>
	
		<rect x="523.618" y="656.22" transform="matrix(-0.7071 -0.7071 0.7071 -0.7071 520.1934 1527.9299)" fill="none" width="105.888" height="0.005"/>
	<g>
		<path fill="#272636" d="M889.654,278.064c-15.198,0-29.719,5.803-40.887,16.34l-10.29,10.136l-34.155,33.457
			c-17.146,16.741-41.913,26.343-67.949,26.343c-23.865,0-47.251-10.058-65.873-28.326c-18.381-18.731-28.5-42.179-28.5-66.047
			c0-26.04,9.6-50.806,26.311-67.921l33.435-34.132l9.813-9.956l0.365-0.379c10.542-11.164,16.348-25.687,16.348-40.893
			c0-32.283-25.968-58.547-57.886-58.547h-2.874l-1.437,0.042c-61.785,3.623-120.431,30.737-165.153,76.368
			c-32.178,32.909-55.304,73.907-66.877,118.562c-10.062,38.826-11.249,79.623-3.549,118.84l-10.463,10.465L288.414,250.67v-47.817
			l-130.898-65.449l-75.773,75.773l65.45,130.898h47.634l131.767,131.629L128.087,674.361
			c-26.071,26.07-41.023,63.228-41.023,101.943c0,38.224,14.862,74.136,41.848,101.123c26.987,26.986,62.899,41.849,101.123,41.849
			c38.712,0,75.87-14.954,101.951-41.034l198.508-198.658l31.243,31.246c-4.333,33.374,7.065,67.599,31.42,92.134l83.947,83.946
			c20.964,20.873,48.685,32.368,78.054,32.368c29.021,0,56.271-11.268,76.73-31.727c20.63-20.627,31.896-48.102,31.728-77.362
			c-0.169-29.124-11.662-56.619-32.404-77.463l-83.973-83.972c-20.962-20.808-48.625-32.267-77.896-32.267
			c-4.758,0-9.502,0.31-14.2,0.926l-31.204-31.125l10.286-10.286c16.922,3.317,34.185,4.994,51.492,4.995c0.004,0,0.001,0,0.006,0
			c70.138,0,136.222-26.845,186.086-75.604c45.608-44.702,72.724-103.345,76.35-165.127l0.043-4.313
			C948.201,304.032,921.936,278.064,889.654,278.064z M613.996,693.664l-74.871-74.878l74.873,74.873
			C613.998,693.659,613.996,693.663,613.996,693.664z M899.107,338.086c-3.074,49.327-24.955,96.269-61.642,132.226
			c-40.62,39.72-94.512,61.594-151.748,61.592c-18.005,0-35.941-2.221-53.312-6.599l-13.507-3.405l-63.886,63.884l-24.526,24.362
			l-0.006-0.006l-0.93,0.931L297.264,843.533c-16.936,16.936-41.44,26.648-67.23,26.648c-51.764,0-93.878-42.113-93.878-93.878
			c0-25.793,9.711-50.297,26.651-67.235l233.219-233.395l23.991-23.813l64.589-64.597l-3.413-13.512
			c-8.944-35.411-8.815-72.869,0.374-108.326c9.427-36.374,28.257-69.763,54.435-96.536c35.978-36.708,82.92-58.587,132.248-61.659
			h2.135c4.849,0,8.792,4.241,8.792,9.454c0,3.405-1.711,5.834-2.821,7.051l-9.628,9.768l-33.517,34.215
			c-25.614,26.234-40.306,63.501-40.306,102.247c0,36.893,15.18,72.628,42.741,100.622l0.271,0.271
			c27.886,27.454,63.561,42.574,100.455,42.574c38.742,0,76.009-14.692,102.274-40.337l34.239-33.539l9.711-9.573
			c1.222-1.112,3.655-2.826,7.057-2.826c5.213,0,9.453,3.946,9.453,8.796V338.086z"/>
		<path fill="#272636" d="M238.492,701.004c-36.857,0-66.842,29.985-66.842,66.843c0,36.854,29.985,66.838,66.842,66.838
			c36.854,0,66.838-29.983,66.838-66.838C305.33,730.99,275.346,701.004,238.492,701.004z"/>
	</g>
	<path fill="#272636" d="M238.492,701.004c-36.857,0-66.842,29.985-66.842,66.843c0,36.854,29.985,66.838,66.842,66.838
		c36.854,0,66.838-29.983,66.838-66.838C305.33,730.99,275.346,701.004,238.492,701.004z"/>
</g>
</svg>
