<?xml version="1.0" encoding="utf-8"?>
<!-- Generator: Adobe Illustrator 17.0.0, SVG Export Plug-In . SVG Version: 6.00 Build 0)  -->
<!DOCTYPE svg PUBLIC "-//W3C//DTD SVG 1.1//EN" "http://www.w3.org/Graphics/SVG/1.1/DTD/svg11.dtd">
<svg version="1.1" id="图形" xmlns="http://www.w3.org/2000/svg" xmlns:xlink="http://www.w3.org/1999/xlink" x="0px" y="0px"
	 width="1000.637px" height="1000.678px" viewBox="15.167 -16.333 1000.637 1000.678"
	 enable-background="new 15.167 -16.333 1000.637 1000.678" xml:space="preserve">
<g>
	<path fill="#272636" d="M519.442,420.653c-34.987,0-63.348,28.364-63.348,63.354c0,34.987,28.361,63.351,63.348,63.351
		c34.993,0,63.354-28.364,63.354-63.351C582.796,449.017,554.435,420.653,519.442,420.653z"/>
	<path fill="#272636" d="M515.483,46.485c-241.633,0-437.519,195.886-437.519,437.519c0,241.636,195.886,437.522,437.519,437.522
		c241.636,0,437.522-195.886,437.522-437.522C953.005,242.371,757.12,46.485,515.483,46.485z M732.42,815.468
		C615.702,893.789,516.775,880.9,516.775,880.9l-0.113-286.309c-39.501-0.997-73.557-22.653-92.389-54.571L182.229,686.598
		c0,0-60.712-67.971-60.712-208.53c0-140.562,63.351-202.597,63.351-202.597l239.069,153.141
		c18.75-32.251,52.976-54.189,92.727-55.192l0.11-282.35c0,0,98.927-12.889,215.645,65.432s140.518,161.569,140.518,161.569
		L619.855,437.639c6.545,14.149,10.457,29.756,10.457,46.368c0,18.368-4.896,35.435-12.804,50.691l250.15,121.837
		C867.657,656.535,849.138,737.147,732.42,815.468z"/>
</g>
</svg>
