<?xml version="1.0" encoding="utf-8"?>
<!-- Generator: Adobe Illustrator 16.0.0, SVG Export Plug-In . SVG Version: 6.00 Build 0)  -->
<!DOCTYPE svg PUBLIC "-//W3C//DTD SVG 1.1//EN" "http://www.w3.org/Graphics/SVG/1.1/DTD/svg11.dtd">
<svg version="1.1" id="图形" xmlns="http://www.w3.org/2000/svg" xmlns:xlink="http://www.w3.org/1999/xlink" x="0px" y="0px"
	 width="1000.637px" height="1000.678px" viewBox="15.167 -16.333 1000.637 1000.678"
	 enable-background="new 15.167 -16.333 1000.637 1000.678" xml:space="preserve">
<path fill-rule="evenodd" clip-rule="evenodd" d="M506.082,582.624c-20.423-25.398-38.281-37.938-82.629-42.21
	c-7.99-1.453-13.843-8.246-13.843-16.301c0-5.916,19.739-23.626,19.525-23.797c20.422-20.23,31.36-52.979,31.36-78.229
	c0-39.178-35.333-71.584-82.031-71.584c-47.595,0-82.031,32.407-82.031,71.584c0,25.421,10.745,58.341,31.167,78.593
	c0,0,19.717,17.517,19.717,23.433c0,8.396-6.601,15.574-15.338,16.642c-43.408,4.293-60.904,16.833-81.113,41.869
	c-5.661,7.351-8.952,21.833-9.122,29.546v33.646c0,14.846,12.561,26.852,28.07,26.852h217.298c15.508,0,28.07-12.006,28.07-26.852
	V612.17C515.011,604.457,511.892,589.975,506.082,582.624z M724.832,386.284h-91.174c-25.122,0-45.545,20.059-45.545,44.754
	c0,24.694,20.423,44.753,45.545,44.753h91.174c25.122,0,45.545-20.059,45.545-44.753
	C770.376,406.343,749.954,386.284,724.832,386.284z M724.832,547.377h-91.174c-25.122,0-45.545,20.06-45.545,44.733
	c0,24.693,20.423,44.753,45.545,44.753h91.174c25.122,0,45.545-20.06,45.545-44.753
	C770.376,567.437,749.954,547.377,724.832,547.377z M77.682,762.155c0,39.541,32.62,71.585,72.91,71.585h729.16
	c40.332,0,72.931-32.044,72.931-71.585V189.409c0-39.542-32.599-71.585-72.931-71.585h-218.75V85.61
	c0-21.811-17.86-39.371-40.077-39.371H409.438c-22.217,0-40.075,17.56-40.075,39.371v32.214H150.592
	c-40.29,0-72.91,32.043-72.91,71.585V762.155z M208.932,207.311h160.431v32.214c0,21.833,17.858,39.393,40.075,39.393h211.486
	c22.217,0,40.077-17.561,40.077-39.393v-32.214h160.43c22.26,0,40.119,17.56,40.119,39.392v458.18
	c0,21.812-17.859,39.37-40.119,39.37H208.932c-22.238,0-40.097-17.559-40.097-39.37v-458.18
	C168.835,224.871,186.694,207.311,208.932,207.311z"/>
</svg>
