<?xml version="1.0" encoding="utf-8"?>
<!-- Generator: Adobe Illustrator 16.0.0, SVG Export Plug-In . SVG Version: 6.00 Build 0)  -->
<!DOCTYPE svg PUBLIC "-//W3C//DTD SVG 1.1//EN" "http://www.w3.org/Graphics/SVG/1.1/DTD/svg11.dtd">
<svg version="1.1" id="图形" xmlns="http://www.w3.org/2000/svg" xmlns:xlink="http://www.w3.org/1999/xlink" x="0px" y="0px"
	 width="1000.637px" height="1000.678px" viewBox="15.167 -16.333 1000.637 1000.678"
	 enable-background="new 15.167 -16.333 1000.637 1000.678" xml:space="preserve">
<g>
	<g>
		<path d="M284.535,497.518h94.689v118.078c-23.285,12.754-51.572,19.164-84.826,19.164c-48.295,0-86.622-15.217-114.979-45.654
			c-28.393-30.436-42.553-72.99-42.553-127.66c0-53.191,15.394-96.027,46.216-128.507c30.824-32.514,69.961-48.753,117.517-48.753
			c48.295,0,89.897,10.992,124.841,32.973v-60.873c-32.689-15.041-72.601-22.544-119.769-22.544
			c-66.684,0-121.355,21.7-164.014,65.099c-42.66,43.399-63.972,98.811-63.972,166.27c0,66.684,19.305,119.98,57.912,159.928
			c38.607,39.912,89.476,59.885,152.602,59.885c54.847,0,104.059-12.4,147.669-37.199V447.636H284.535V497.518z M493.076,288.694
			h41.99V629.97h-41.99v47.624h140.342V629.97h-41.989V288.694h41.989v-47.625H493.076V288.694z M927.069,496.954
			c-17.087-20.502-47.063-40.97-89.899-61.435c-38.891-19.164-64.184-34.312-75.808-45.373
			c-11.659-11.096-17.473-25.468-17.473-43.117c0-19.938,8.384-35.472,25.222-46.639c16.804-11.204,38.574-16.77,65.239-16.77
			c40.194,0,73.448,9.09,99.762,27.337v-61.435c-20.29-10.534-52.135-15.782-95.533-15.782c-44.354,0-81.057,10.603-110.188,31.845
			c-29.132,21.207-43.682,49.95-43.682,86.234c0,24.024,6.939,45.407,20.855,64.112c13.878,18.669,42.729,38.925,86.515,60.73
			c31.564,15.57,53.087,27.124,64.535,34.664c11.449,7.503,20.468,16.132,27.055,25.927c6.554,9.756,9.862,20.748,9.862,32.972
			c0,43.573-30.646,65.379-91.871,65.379c-20.113,0-41.318-3.768-63.688-11.272c-22.37-7.539-40.194-17.12-53.544-28.744v64.252
			c10.53,7.115,27.265,13.104,50.304,17.896c23.001,4.791,43.151,7.187,60.446,7.187c49.39,0,88.033-10.252,115.825-30.717
			c27.795-20.502,41.708-49.881,41.708-88.207C952.711,540.422,944.153,517.42,927.069,496.954z"/>
	</g>
</g>
</svg>
