<?xml version="1.0" encoding="utf-8"?>
<!-- Generator: Adobe Illustrator 16.0.0, SVG Export Plug-In . SVG Version: 6.00 Build 0)  -->
<!DOCTYPE svg PUBLIC "-//W3C//DTD SVG 1.1//EN" "http://www.w3.org/Graphics/SVG/1.1/DTD/svg11.dtd">
<svg version="1.1" id="图形" xmlns="http://www.w3.org/2000/svg" xmlns:xlink="http://www.w3.org/1999/xlink" x="0px" y="0px"
	 width="1000.637px" height="1000.678px" viewBox="15.167 -16.333 1000.637 1000.678"
	 enable-background="new 15.167 -16.333 1000.637 1000.678" xml:space="preserve">
<g>
	<path fill-rule="evenodd" clip-rule="evenodd" fill="#272636" d="M941.776,696.546L821.465,581.337
		c60.305-56.677,97.729-135.579,97.729-222.85c0-172.392-146.131-312.251-326.338-312.251
		c-180.207,0-326.291,139.859-326.291,312.251c0,172.483,146.084,312.341,326.291,312.341c61.918,0,119.811-16.512,169.139-45.184
		l126.936,121.429c14.586,13.995,38.261,13.995,52.845,0C956.362,733.169,956.362,710.448,941.776,696.546z M589.449,605.851
		c-142.947,0-258.814-110.869-258.814-247.636c0-136.768,115.867-247.638,258.814-247.638c142.993,0,258.861,110.87,258.861,247.638
		C848.31,494.982,732.442,605.851,589.449,605.851z M369.393,675.554h58.892c-32.706-19.225-62.143-43.044-87.335-70.521h-52.371
		l-83.854-173.209H77.68l83.852,173.209h-46.456v70.521h108.28v69.067h-108.28v70.428h108.28v69.885h146.037v-69.885h110.234
		v-70.428H369.393V675.554z M432.87,490.62c0,0,24.219,35.17,61.659,55.617c39.168,21.264,73.246,27.808,73.246,27.808
		L727.99,394.837H503.57L432.87,490.62z"/>
</g>
</svg>
