<?xml version="1.0" encoding="utf-8"?>
<!-- Generator: Adobe Illustrator 17.0.0, SVG Export Plug-In . SVG Version: 6.00 Build 0)  -->
<!DOCTYPE svg PUBLIC "-//W3C//DTD SVG 1.1//EN" "http://www.w3.org/Graphics/SVG/1.1/DTD/svg11.dtd">
<svg version="1.1" id="图形" xmlns="http://www.w3.org/2000/svg" xmlns:xlink="http://www.w3.org/1999/xlink" x="0px" y="0px"
	 width="1000.637px" height="1000.678px" viewBox="15.167 -16.333 1000.637 1000.678"
	 enable-background="new 15.167 -16.333 1000.637 1000.678" xml:space="preserve">
<path fill="#333333" d="M851.94,198.019H448.194c0-55.724-45.209-100.937-100.936-100.937H179.03
	c-55.724,0-100.937,45.213-100.937,100.937v100.936v33.646v437.392c0,55.727,45.213,100.936,100.937,100.936h672.91
	c55.727,0,100.936-45.209,100.936-100.936V298.956C952.876,243.232,907.667,198.019,851.94,198.019z M885.585,769.993
	c0,18.566-15.08,33.645-33.646,33.645H179.03c-18.566,0-33.646-15.08-33.646-33.645V298.956c0-18.566,15.08-33.646,33.646-33.646
	h672.91c18.566,0,33.646,15.08,33.646,33.646V769.993z"/>
<path fill="#333333" d="M515.485,339.248c-110.188,0-199.522,89.334-199.522,199.522s89.334,199.522,199.522,199.522
	c110.188,0,199.522-89.334,199.522-199.522S625.672,339.248,515.485,339.248z M647.36,458.151c0.233-0.237,0.367-0.539,0.47-0.838
	c0.065-0.302,0.1-0.673,0.1-1.006l0.134-2.115c0.1,0.134,0.268,0.302,0.436,0.47c3.251,2.949,3.251,2.949,4.057,2.949
	c0.302,0,0.535-0.031,0.769-0.199c0.302-0.1,0.505-0.302,0.704-0.505c0.302-0.467,0.604-0.872,0.838-1.239
	c0.137,0.1,0.271,0.233,0.436,0.367l5.102,3.514c0.344,0.627,0.68,1.259,1.016,1.891l-1.12,0.163c-2.214-1.51-2.313-1.61-2.952-1.61
	c-0.168,0-0.47,0.1-0.635,0.134c-1.04,0.402-2.248,0.838-3.453,1.308c-1.04,0.367-2.046,0.738-2.983,1.105l-1.006-0.069
	l-1.878-2.111c-0.069-0.065-0.103-0.168-0.134-0.233c0.134-0.268,0.199-0.604,0.233-1.006L647.36,458.151z M646.89,474.879
	c-0.034-0.237-0.099-0.436-0.268-0.638l-0.302-0.436c0.168,0.237,0.402,0.436,0.57,0.673c0.371,0.402,0.738,0.803,0.872,0.868
	l1.644,3.388c-0.872-0.069-1.778-0.103-2.65-0.134l-0.803-0.069l0.669-0.669c0.336-0.268,0.505-0.704,0.505-1.14
	C647.126,475.884,647.023,475.414,646.89,474.879z M607.806,428.147l0.635-0.199c0.669-0.203,1.14-0.838,1.105-1.576l-0.165-3.453
	l0.57-1.373l0.838-3.656c0.031-0.168,0.031-0.302,0.031-0.436l2.784,1.208c0.302,0.1,0.638,0.134,1.006,0.034
	c0.268,1.037,0.669,1.641,1.071,2.345c0.103,0.168,0.237,0.302,0.371,0.436c0.168,0.1,0.336,0.233,0.535,0.336
	c-0.134,0.333-0.134,0.704,0,1.006l1.14,3.251c-1.174-0.336-2.78,0-4.054,0.302c-0.336,0.134-0.707,0.199-1.04,0.268
	c-0.069,0.034-0.268,0.069-0.371,0.099l-3.886,1.51c-0.168,0.065-0.271,0.134-0.405,0.233l-0.769-0.134
	C607.401,428.284,607.603,428.215,607.806,428.147z M473.514,378.986c0.001,0.169,0.023,0.326,0.062,0.472l0.042,0.32
	c-0.2-0.259-0.453-0.411-0.949-0.562C472.95,379.139,473.231,379.06,473.514,378.986z M462.186,395.063
	c0.635,0.233,1.339,0.467,2.176,0.738l-2.176,1.874c-0.069,0.069-0.268,0.237-0.371,0.302l-1.071,1.442l-3.354,0.034
	L462.186,395.063z M458.531,410.953l-3.652-4.057c-0.103-0.065-0.268-0.203-0.336-0.268l-1.407-0.738
	c0.937,0.47,1.342,0.268,4.792-0.268l0.505,0.302l-0.302,0.402c-1.04,1.61-0.604,1.912,4.627,5.465c0.031,0,0.065,0.034,0.1,0.065
	l-5.197,2.818l-0.402-0.371l1.208-1.205C459.035,412.528,459.066,411.553,458.531,410.953z M450.821,401.564
	c0.034-0.199,0.034-0.367,0-0.57l5.063-0.971c-0.237,0.168-0.57,0.371-1.006,0.638c0,0-0.302,0.268-0.336,0.302l-2.046,2.344
	c-0.165,0.268-0.669,1.074-0.165,1.946c0.099,0.165,0.299,0.367,0.57,0.536l-2.18-1.174c-0.134-0.034-0.237-0.1-0.402-0.134
	L450.821,401.564z M420.047,415.981c0.336-0.271,0.539-0.673,0.57-1.109l0.069-0.738l5.094-3.687
	c1.709-0.669,3.721-1.473,5.698-2.245l4.459-1.744c0.203-0.065,0.402-0.203,0.536-0.336c0.103-0.134,0.271-0.268,0.371-0.333
	c0.302-0.237,0.47-0.536,0.57-0.906h2.616l-0.069,0.505c-0.134,0.769,0.336,1.507,1.074,1.74c1.037,0.302,1.74,0.302,2.31,0.302
	c0.203,0,0.638-0.1,0.772-0.168l1.105-0.402l0.268,0.103c-1.105,1.071-2.077,2.344-3.017,3.553
	c-0.601,0.838-1.205,1.606-1.775,2.279l-3.251,1.174c-0.336,0.134-0.604,0.367-0.807,0.669l-3.652,5.866l-7.442,2.616
	c-0.402,0.065-0.772,0.333-0.971,0.669c-0.134,0.233-0.268,0.47-0.405,0.704c-0.031-0.034-0.031-0.069-0.065-0.1l-2.111-3.285
	l-1.174-4.023c-0.1-0.436-0.47-0.807-0.906-1.006L420.047,415.981z M350.902,552.921l0.16,0.095c0,0,0.031,0.134,0.065,0.237
	l3.82,11.496c0.034,0.069,0.237,0.405,0.302,0.47l0.906,1.105c0.436,0.505,1.208,0.704,1.843,0.405l0.402-0.168l1.545,1.775v0.034
	c0.1,0.402,0.367,0.738,0.704,0.937c0.333,0.203,0.57,0.336,0.769,0.436c0.203,0.069,0.336,0.137,0.47,0.168l2.046,2.849
	c0.402,0.604,1.205,0.838,1.909,0.57l2.145-0.971c0.336-0.1,0.604-0.402,0.772-0.704l0.803,1.273
	c0.604,4.325,1.407,8.681,2.279,13.006l-0.57,2.883l-0.838,2.883l-1.273,6.337c-0.034,0.165-0.034,0.402,0,0.57
	c0,0,0.099,0.402,0.099,0.467c0.405,1.442,0.807,2.952,1.243,4.359l0.168,0.47c0.065,0.233,0.199,0.436,0.367,0.635
	c0.134,0.1,0.268,0.237,0.635,0.57c0,0,0.069,0.069,0.137,0.1l-0.168,0.336c-0.168,0.302-0.237,0.669-0.168,1.04
	c0,0.134,0.134,0.604,0.199,0.738l3.151,6.903c0.069,0.134,0.137,0.271,0.237,0.371l6.234,5.331l3.052,4.624
	c0.065,0.103,0.336,0.402,0.402,0.47c0.134,0.134,0.233,0.302,0.233,0.302c4.727,6.168,11.534,14.348,12.773,15.217l8.582,4.627
	c0.134,0,0.203,0.069,0.302,0.069c0.803,0.536,1.644,1.037,4.459,2.647l0.838,0.872c3.419,5.163,8.379,12.67,12.436,18.303
	c6.786,8.602,9.854,12.461,15.854,18.742C390.851,660.42,355.845,610.888,350.902,552.921z M359.509,527.137
	c0.233,0.738,0.535,1.006,1.14,1.377c0.402,0.199,0.868,0.233,1.273,0.099c0.1-0.069,0.402-0.134,0.501-0.203
	c-0.168,1.812,0.535,3.621,1.843,4.562c0.638,0.436,1.376,0.704,2.115,0.704c2.145,0,3.989-1.912,4.291-4.359
	c0.1-0.838,0-1.675-0.237-2.413l0.772,0.704c0,0.336,0,0.638-0.034,0.937l-0.034,1.376c0.103,0.838,0.536,1.442,1.308,1.809
	c0.1,0.069,0.234,0.103,0.402,0.134c0.134,0.034,0.436,0.034,0.639,0.034l4.826-0.738c0,0.168,0,0.237,0,0.336
	s0.034,0.168,0.034,0.233c-0.402,0.505-0.436,1.105-0.436,1.644c-0.268-0.268-0.604-0.47-0.906-0.539
	c-1.105-0.333-2.478-0.57-3.755-0.803l-1.675-0.302l-0.034,0.069c-0.268-0.069-0.536-0.069-0.669-0.069
	c-0.772,0.134-0.906,0.336-2.379,2.08c-0.371,0.536-0.505,1.14-0.402,1.775c0.1,0.57,0.402,1.074,0.769,1.308
	c0.772,0.669,1.812,1.273,2.75,1.778l1.006,0.57c0.168,0.134,0.336,0.168,0.536,0.199l0.237,0.069c0.165,0.034,0.333,0.034,0.535,0
	c0.134-0.034,0.467-0.1,0.57-0.134l2.647-1.04c0.134-0.065,0.302-0.168,0.402-0.233c0.57-0.402,0.872-0.975,0.941-1.843
	c0-0.302,0-0.638,0-1.074c0.704,0.536,2.413,0.772,6.906,1.541c0.099,0,0.402,0.069,0.501,0.069c0.069,0,0.371,0.034,0.436,0.034
	h0.069c0.099,0,0.099-0.034,0.165-0.034h7.576c0.069,0,0.103-0.034,0.168-0.034c0.371,0.604,1.006,0.971,1.812,1.006h4.861
	c0.031,0,0.065,0,0.065,0c0.604-0.034,1.074-0.268,1.407-0.57c0.103,0.069,0.203,0.168,0.237,0.233
	c0.333,0.271,0.601,0.505,0.971,0.872c0.436,0.302,0.906,0.505,1.407,0.505c0.069,0,0.638-0.103,0.738-0.134l0.937-0.302v0.402
	c0.103,0.803,0.57,1.442,1.342,1.809c-0.203,0.302-0.268,0.704-0.302,1.14c0,1.006,0,2.012,0.034,3.052l0.034,1.04
	c0.134,1.174,0.903,1.61,1.442,1.809v1.04c0,0.034,0,0.034,0.031,0.065c-0.199,0.302-0.333,0.704-0.333,1.174
	c0,0.838,0.031,1.709,0.099,2.616c0.034,0.604,0.336,1.14,0.803,1.507c0,0.505,0.034,1.006,0.069,1.476c0,0.069,0,0.1,0.034,0.134
	c-0.271,0.371-0.436,0.838-0.47,1.442c0.065,0.638,0.1,1.308,0.134,1.977l0.034,0.505c0.1,0.872,0.769,1.775,1.909,1.943
	c0,0,0,0.034,0.034,0.1l0.069,1.074l-3.12-2.784c-0.1-0.1-0.268-0.199-0.402-0.233l-5.832-1.274c-0.203-0.034-0.402-0.034-0.604,0
	l-0.467,0.1c-0.168,0.034-0.271,0.1-0.436,0.168l-1.04,0.536l-6-1.507l-3.687-4.459c-0.134-0.168-0.336-0.302-0.539-0.402
	l-0.436-0.203c-0.57-0.333-1.304-0.199-1.775,0.268l-1.14,1.074l-0.872-0.47c-0.402-0.233-0.872-0.47-1.239-0.669
	c-0.505-0.268-1.074-0.268-1.545,0l-7.14,3.954c-0.134,0.1-0.536,0.436-0.604,0.535c-0.134,0.168-0.233,0.302-0.299,0.47
	l-2.249,5.231l-2.111-1.442c-0.168-0.134-0.436-0.237-0.669-0.268l-0.436-0.034c-0.069,0-0.134-0.034-0.134-0.034
	c-0.134,0-0.237,0.034-0.302,0.034l-4.39,0.704l-1.476-2.715l0.436-13.377c0.034-0.333,0.034-0.738,0.034-1.037
	c0-0.271-0.069-0.57-0.203-0.807c-0.772-1.273-1.977-2.681-2.949-3.855l-0.436-0.535c-0.069-0.134-0.539-0.436-0.673-0.536
	c-0.168-0.103-0.333-0.168-0.536-0.203l-3.652-0.738v-0.065v-3.254l4.39-11.297c0.134,0.134,0.336,0.203,0.501,0.302l-0.302,0.704
	C359.207,525.16,359.207,525.362,359.509,527.137z M616.387,617.312l-2.046,10.861l-3.285,2.918l-1.812,4.356l-0.971,0.367
	c-0.1,0.069-0.57,0.371-0.704,0.47c-0.199,0.168-0.367,0.402-0.501,0.638c-0.838,2.077-1.61,3.889-2.382,5.763
	c-0.065,0.137-0.1,0.604-0.1,0.772c-0.034,0.134,0,0.336,0,0.505l1.006,4.02c-1.744,6.405-3.954,13.679-5.733,18.639
	c-0.034,0.069-0.099,0.268-0.099,0.371l-0.203,1.239l-1.407,3.652c-0.604,1.308-0.872,1.812-2.012,3.958l-1.575,1.507
	c-0.906,1.04-1.641,2.482-2.314,3.79l-0.535,1.037c-0.203,0.371-0.233,0.838-0.1,1.273c0.168,0.405,0.501,0.738,0.903,0.906
	c0.213,0.081,0.412,0.138,0.607,0.187c-23.16,12.387-49.593,19.423-77.638,19.423c-15.317,0-30.151-2.105-44.237-6.025
	c-0.588-0.716-1.169-1.43-1.754-2.155c-0.134-0.168-0.271-0.333-0.47-0.402l-0.436-0.268c0.402-0.47,0.436-1.14,0.134-1.675
	c-0.099-0.237-0.202-0.405-0.302-0.57l2.011-1.442c0.336-0.203,0.604-0.807,0.669-1.208c0.034-0.199,0.034-0.367,0-0.535
	l-0.501-3.285c-0.034-0.336-0.202-0.638-0.436-0.872c-0.336-0.336-0.669-0.57-1.074-0.803l0.336-0.137
	c0.302-0.065,0.772-0.467,0.937-0.769c0.137-0.134,0.237-0.302,0.271-0.47l0.735-2.513l0.336-0.436
	c0.168-0.203,0.268-0.436,0.336-0.638l0.669-3.185l0.268-0.268c0.134-0.165,0.336-0.57,0.402-0.769
	c0.069-0.168,0.069-0.371,0.069-0.57l-0.069-1.644l0.069-0.1c0.402-0.436,0.57-1.105,0.336-1.644l-3.086-7.943
	c3.553-1.977,7.947-4.359,11.297-6.1c0.436-0.271,0.738-0.673,0.807-1.174l0.367-2.447c0.57-3.621,1.174-7.809,1.744-11.129
	c0.034-0.203,0-0.539-0.034-0.738l-2.111-9.151l0.903-1.105l1.51-0.57c0.199-0.103,0.367-0.203,0.536-0.336l0.302-0.336
	c0.134-0.1,0.233-0.268,0.302-0.367l2.715-5.097c0.034-0.031,0.034-0.065,0.065-0.1l3.052-5.465
	c0.099-0.165,0.203-0.735,0.203-0.937c0.031-0.168,0-0.336,0-0.47l-1.709-8.582c-0.103-0.467-0.371-0.872-0.807-1.071
	c-4.49-2.279-10.425-5.231-15.251-7.545c-0.034-0.031-0.402-0.1-0.47-0.134l-12.134-1.641l-4.222-1.61l-4.727-3.453
	c-0.069-0.031-0.371-0.199-0.47-0.233l-1.04-0.436l0.134-0.268c0.237-0.436,0.103-1.174-0.1-1.61
	c-0.1-0.268-0.233-0.535-0.402-0.704c-0.268-0.402-0.872-0.803-1.274-0.669l-0.168,0.031l-3.553-2.949l-4.425-6.302
	c-0.069-0.233-0.168-0.47-0.371-0.635l-0.47-0.539c-0.165-0.199-0.367-0.333-0.601-0.436l-7.61-3.45l-2.379-1.878
	c-0.302-0.268-0.738-0.405-1.174-0.336l-4.661,0.638l-5.698-5.365c0.336,0.034,0.436,0,0.669-0.1l0.405-0.134
	c0.535-0.237,0.903-0.738,0.971-1.308c0.134-1.174,0.134-2.046,0.1-2.815l1.61-1.51c0.302-0.336,0.47-0.738,0.47-1.174v-0.803
	c0-0.803-0.638-1.51-1.442-1.541c-2.011-0.134-3.755-0.203-5.4-0.237c0-0.065,0-0.165,0-0.233c0-0.367,0-0.402-0.635-2.214
	c0.604-0.402,0.971-1.037,0.971-1.809c0-0.336,0-0.367-0.937-2.918c-0.034-0.432-0.203-1.071-0.604-2.245
	c0.233-0.134,0.436-0.333,0.604-0.604c0.467-0.868,0.268-1.507-0.604-4.123c-0.034-0.1-0.069-0.168-0.099-0.233
	c0.099-0.371,0.134-0.803,0-1.174c0.769-0.367,1.304-1.071,1.373-1.977c0-0.371,0-0.371-0.838-3.086
	c-0.336-0.704-0.872-1.037-1.376-1.205c0-0.034,0-0.1,0.034-0.134c0.069-0.604-0.134-1.239-0.536-1.709s-0.937-0.704-1.644-0.738
	h-0.535c-0.168-0.738-0.669-1.476-1.641-1.744c-1.342-0.367-3.017-0.635-4.627-0.937c-0.803-0.134-1.541-0.268-2.011-0.336
	c-0.233-0.1-0.738-0.134-1.006-0.1c-0.57,0.134-1.006,0.402-1.308,0.803c-0.604-0.47-1.239-0.906-1.809-1.339l-1.308-1.006
	c-0.336-0.302-1.14-0.638-1.576-0.539c-0.669,0.069-1.239,0.402-1.641,1.074c0,0,0-0.034-0.034-0.069l-4.593-2.581l-2.111-0.769
	c-0.268-0.134-0.505-0.203-1.109-0.371c-0.199-0.065-0.57-0.065-0.803,0h-0.065h-1.208c-0.168,0-0.336,0.034-0.536,0.103
	c-0.069,0.031-0.436,0.165-0.505,0.199l-0.168,0.1c0-0.031,0.034-0.031,0.034-0.031c0.034-0.103,0.034-0.168,0.069-0.268
	c0,0,0.031-0.103,0.031-0.134h1.61c0,0,0.1,0,0.134,0c1.174-0.069,1.912-1.04,1.977-1.744c0.134-0.704,0.134-0.704-1.239-4.057
	c-0.402-0.906-1.442-1.442-2.344-1.174c-0.371,0.069-0.906,0.268-1.411,1.04c-0.333,0.57-0.704,1.342-1.037,2.012l-0.168,0.367
	c-1.644-1.14-3.488-2.379-5.297-3.618c-2.547-1.744-5.163-3.453-7.274-5.029c-0.237-0.168-0.872-0.336-1.14-0.336
	c-0.203,0-0.336,0-0.47,0.034l-4.493,0.937c-0.1,0.034-0.302,0.069-0.436,0.134c-0.803,0.302-0.838,0.302-3.017,5.163
	c-0.233-0.199-0.501-0.367-0.769-0.467c-0.233-0.069-0.47-0.103-0.704-0.069l-6.089,0.895c0.895-8.354,2.415-16.523,4.513-24.46
	h0.501l3.453,3.319c0.505,0.467,1.274,0.57,1.878,0.233c1.407-0.803,1.977-2.447,2.379-3.855l4.425,1.476l-0.535,12.605
	c-0.034,0.601,0.302,1.205,0.838,1.438c1.342,0.707,2.279,0.707,2.952,0.707c0.402,0,0.803-0.137,1.071-0.436l0.604-0.539
	c0.034,0.134,0.069,0.371,0.069,0.436l0.704,1.946c0.134,0.535,0.536,1.239,1.909,1.473h2.046c0.065,0,0.134,0,0.168,0
	c0.937-0.134,1.675-0.769,1.843-1.576c0.199-0.535,0.199-0.535-0.536-4.49c-0.237-0.971-1.006-1.576-1.981-1.576h-1.576l1.174-4.023
	c0.402-2.65,0.807-5.297,1.308-7.878l3.821-6.604h0.336c0.233,0,0.436-0.065,0.669-0.168l4.661-3.048
	c2.647-1.843,5.496-3.79,7.878-5.4c0.168-0.1,0.302-0.233,0.436-0.402c0.367-0.604,0.535-0.838,0.601-1.205
	c0.405-1.778,0.807-3.553,1.277-5.266c0.099,0.034,0.165,0.137,0.333,0.237c0.639,0.535,1.541,0.47,2.111-0.1l6.707-6.707
	c0.1-0.1,0.299-0.299,0.367-0.436l0.906-1.438l7.174-0.772c0.402-0.034,0.735-0.203,1.002-0.47l2.012-2.245
	c0.405-0.436,0.539-1.04,0.336-1.61l-0.168-0.402l1.407-1.943h1.442c0.168,0,0.302-0.034,0.436-0.069
	c0.103-0.034,0.539-0.168,0.604-0.203l5.197-2.513l-0.336,1.273c-0.099,0.47,0,0.971,0.336,1.342l0.402,0.536
	c0.436,0.501,1.174,0.704,1.744,0.47c2.581-0.975,5.698-2.18,8.613-3.254l3.12-1.205c0.233-0.1,0.436-0.233,0.601-0.402l0.505-0.57
	c0.099-0.103,0.168-0.237,0.233-0.405h1.778c0.034,0,0.065,0,0.1,0c0.704,0,0.872-0.1,2.983-1.607
	c0.134-0.168,0.436-0.604,0.505-0.807c0.402-0.903,0.134-1.541-0.505-2.211l0.47-2.18c0.069-0.436-0.134-1.239-0.436-1.576
	c-0.402-0.436-0.906-0.635-1.775-0.669c-0.872,0.034-0.941,0.034-5.599,4.96l-1.14-1.308c0.134-0.635,0.302-1.239,0.467-1.843
	c0.405,0,0.807-0.168,1.109-0.436l2.245-2.145c0.336-0.336,0.47-1.105,0.436-1.61l-0.034-0.402c-0.065-0.333-0.199-0.669-0.47-0.937
	h7.174l-0.065,0.034c-0.302,0.199-0.941,0.635-1.006,1.473c-0.069,0.505,0.065,0.941,0.367,1.308l-0.838,1.342
	c-0.233,0.436-0.302,1.308-0.069,1.744c0.436,0.903,0.772,1.037,5.365,1.809l0.367,0.937c0.203,0.203,0.638,0.872,1.812,0.906h1.576
	c0.436-0.069,0.669-0.134,1.105-0.47c0.302,0.237,0.738,0.402,1.274,0.47h1.373c0.103,0,0.203,0,0.302,0
	c0.704-0.134,0.704-0.134,3.79-2.314c0.168-0.134,0.604-0.536,0.738-1.174c0.031-0.367,0.099-0.735,0.199-1.308
	c0-0.838-0.302-1.304-1.006-1.709l0.405-0.669c0.165-0.402,0.234-1.105,0.065-1.476c-0.233-0.601-0.47-0.838-1.709-1.407
	l2.547-2.077c0.638-0.604,0.872-1.476,0.57-2.245c-0.199-0.47-0.535-0.841-1.04-1.04l1.61-2.279
	c0.034-0.069,0.069-0.103,0.103-0.168c0.233-0.371,0.299-0.838,0.199-1.273c-0.168-0.536-0.604-0.971-1.14-1.074l-3.319-0.838
	c0.103-0.134,0.134-0.268,0.203-0.402c0.436-1.239,0.704-2.18,0.937-3.083l0.134-0.405c0.134-0.669-0.1-1.373-0.704-1.74
	l-0.57-0.371c0.069-0.1,0.069-0.233,0.103-0.336l0.367-1.239c0.704-4.658,1.239-7.04,1.239-7.205
	c0.168-0.673-0.099-1.308-0.704-1.679l-0.333-0.233c0.635-0.203,0.838-0.436,2.176-2.815c0.134,0.065,0.271,0.134,0.405,0.165
	c0.1,0,0.536,0.103,0.669,0.103h1.006c0.937-0.034,0.971-0.034,4.895-4.123c0.302,0.165,0.669,0.299,0.937,0.299
	c0.772,0,1.006-0.134,7.407-3.553c0.103-0.034,0.237-0.168,0.336-0.199c0.302-0.268,0.669-0.838,0.704-1.208
	c0.134-0.803,0.168-0.838-3.354-5.128l1.709-1.977c0.573-1.074,0.573-1.074-2.815-5.966c-0.099-0.168-0.367-0.371-0.501-0.47
	c-0.103-0.103-0.237-0.168-0.371-0.203l-0.199-0.1c0.436-0.268,0.937-0.872,2.077-2.08c0.034-0.065,0.1-0.134,0.134-0.165
	c0.268,0.065,0.505,0.065,0.738,0c1.576-0.336,3.117-1.342,4.459-2.248c0.367-0.233,0.738-0.501,1.105-0.704h0.57
	c0.134,0,0.402-0.034,0.505-0.065l2.547-0.604c0.367-0.168,0.704-0.436,1.04-0.941l0.031,0.336c0,0.268,0.103,0.535,0.203,0.738
	c0,0.034,0,0.034,0.034,0.069c-0.103,0.333-0.203,0.669-0.302,1.002c-0.069,0.168-0.069,0.505-0.069,0.673
	c0,0.134,0.069,0.333,0.103,0.47l0.367,1.071c0.134,0.336,0.638,0.803,0.937,1.006c0.203,0.1,0.47,0.203,0.738,0.203
	c1.476,0,2.883,0.031,3.989,0l1.442,0.268l0.371,0.903L497.549,390c-0.1,0.237-0.065,0.772-0.031,1.006
	c0.031,0.336,0.199,0.669,0.436,0.941c-0.168,0.402-0.168,0.838,0.031,1.273c0.134,0.302,0.371,0.669,0.539,1.006l0.268,0.536
	c0.099,0.168,0.199,0.336,0.367,0.436l-2.279,0.034c-0.803,0.1-0.803,0.1-4.222,2.983c-0.202,0.168-0.47,0.604-0.57,0.838
	c-0.034,0.1-0.103,0.233-0.103,0.367l-0.57,3.151c-0.065,0.268-0.031,0.539,0.069,0.807c0.099,0.333,0.302,0.601,0.501,0.838
	c0,0.065,0,0.134-0.031,0.199l-0.673,0.237c-0.134,0.065-0.302,0.168-0.436,0.233c-0.199,0.134-0.704,0.47-0.903,1.14
	c-0.069,0.268-0.069,0.57,0,0.838l1.775,7.006c0.069,0.371,0.268,0.638,0.535,0.838c0.302,0.271,0.539,0.405,0.772,0.539
	c0.202,0.065,0.436,0.134,0.638,0.134h1.675l1.006,1.744c0.099,0.199,0.233,0.367,0.436,0.501c0.501,0.367,1.205,0.638,1.977,0.47
	l3.251-0.772c0.203-0.034,0.371-0.134,0.505-0.233l2.379-2.279c2.214-2.314,4.727-4.929,6.738-7.075l4.861-1.744
	c0.1,0,0.501-0.233,0.57-0.302l0.704-0.467l0.803,0.233c0.137,0.034,0.405,0.069,0.539,0.069c0.803,0,1.037-0.168,3.721-2.145
	l4.826-2.715l2.581,0.501c0.134,0.034,0.302,0.034,0.436,0l0.769-0.134c3.052-1.105,7.109-2.616,10.126-3.786
	c0.1-0.034,0.233-0.103,0.333-0.203c0.638,0,1.14-0.336,1.407-0.872l0.604-1.208c0.336-0.735,0.704-1.473,1.006-2.111
	c0.103-0.268,0.134-0.536,0.103-0.838c-0.034-0.436-0.069-0.704-0.371-1.006c0.371-0.233,0.604-0.635,0.704-1.071l0.807-5.197
	c0.031-0.233,0-0.57-0.137-0.838c0.203-0.402,0.203-0.872,0-1.308c-0.535-1.074-1.002-2.08-1.507-3.017
	c0.268-0.1,0.535-0.336,0.738-0.635l0.669,0.199c0.536,0.203,1.105,0.134,1.541-0.268l1.376-1.105
	c0.199-0.199,0.347-0.443,0.439-0.709c8.533,1.781,16.823,4.229,24.821,7.275c0.352,0.274,0.993,0.514,3.183,1.249
	c5.523,2.236,10.899,4.76,16.108,7.558l-0.236,0.581l-1.507,0.336c-0.371,0.1-0.807,0.47-1.04,0.769
	c-0.103,0.168-0.203,0.405-0.268,0.638l-0.539,0.937c-0.199,0.203-0.367,0.505-0.436,0.807l-0.769,1.04
	c-0.134,0.199-0.302,0.669-0.371,0.937c-0.031,0.203-0.031,0.367,0,0.57l0.203,0.937l-0.604,6.103c0,0.1,0.034,0.302,0.069,0.501
	c-0.168,0.103-0.268,0.203-0.402,0.336l-3.422,4.222c-0.402,0.505-0.432,1.274-0.031,1.843l4.727,7.04l0.669,1.576
	c0.1,0.203,0.268,0.402,0.436,0.57c1.105,0.94,2.75,1.174,4.057,1.407c0.165,0,0.333,0.034,0.501,0.034l-0.302,2.65
	c-0.065,0.436,0.034,0.872,0.371,1.205l1.407,1.644c0.065,0.168,0.134,0.367,0.233,0.535l-2.482,0.838
	c-0.199,0.1-0.402,0.203-0.57,0.371c-0.065,0.031-0.268,0.268-0.333,0.333l-1.14,1.476c-0.336,0-0.704,0.168-0.971,0.402
	l-0.94,0.872c-0.1,0.134-0.336,0.436-0.402,0.536c-0.034,0.069-0.168,0.371-0.168,0.371l-0.501,1.171l0.233-1.473
	c0.034-0.069,0-0.536,0-0.638c-0.134-0.704-0.134-0.704-8.949-8.849l-0.103-2.011c-0.034-0.1-0.134-0.536-0.134-0.635l-0.199-0.47
	c-0.034-0.1-0.168-0.47-0.237-0.57c-0.367-0.638-0.367-0.669-3.217-2.011l-0.371-0.906c-0.436-0.803-1.037-1.174-2.042-1.239h-2.214
	c-1.507,0.168-1.507,0.168-2.815,6.738c0,0.1,0,0.367,0,0.47c0,0.233,0.034,0.467,0.134,0.669c0.134,0.268,0.268,0.535,0.436,0.803
	h-0.268c-0.268-0.065-0.505-0.065-0.604-0.065c-0.134,0-0.669,0.065-0.772,0.1c-0.367,0.099-0.704,0.233-1.037,0.535
	c-0.103,0.069-0.237,0.134-0.405,0.168c-0.199,0.1-0.402,0.168-0.803,0.367c-0.1,0.069-0.302,0.237-0.367,0.271l-0.137,0.134
	c-0.903,0-1.239,0.333-2.578,1.675c-0.237,0.402-0.405,1.14-0.271,1.576l0.436,1.809c0.168,0.47,0.371,0.704,0.975,1.174
	c-0.103,0.069-0.168,0.203-0.168,0.268c-0.103,0.168-0.168,0.302-0.203,0.47l-0.57,2.849c-0.034,0.57,0.168,1.14,0.57,1.576
	c0.336,0.336,1.14,0.872,2.18,0.669l4.222-0.872c0.069-0.031,0.302-0.1,0.405-0.1l3.618-1.675c0.168-0.1,0.302-0.168,0.436-0.302
	c0.034,0.233,0.099,0.436,0.168,0.704c0.034,0.069,0.034,0.069,0.069,0.134l-0.539,0.402c-0.134,0.134-0.302,0.268-0.402,0.436
	c-0.065,0.103-0.233,0.371-0.268,0.47l-0.803,2.077c-0.103,0.57,0,1.174,0.367,1.679c0.402,0.501,1.006,0.872,1.912,0.937h1.373
	c0.034,0,0.099-0.034,0.099-0.034l-0.57,1.878c0,0.168-0.031,0.336-0.031,0.505c0,0.065,0,0.402,0.031,0.501
	c0.103,0.604,0.268,1.308,0.405,1.912c0.1,0.233,0.635,0.906,0.803,1.071c0.302,0.336,0.704,0.505,1.14,0.539
	c0.937,0.031,1.744,0.031,2.513,0.031l3.052,2.581l-0.233,1.243c0,0.134,0.031,0.635,0.031,0.769l0.405,1.778
	c-1.442-0.268-1.61-0.302-7.377-1.04c-0.065-0.034-0.134-0.034-0.134-0.034c-0.536-0.065-0.838-0.134-2.815-0.501
	c-0.203-0.034-0.436-0.034-0.638,0.034l-0.704,0.199c-0.47,0.1-0.838,0.436-1.04,0.906c-0.065,0.168-0.199,0.402-0.299,0.635
	l-1.074,0.237c-0.402,0.034-0.704,0.268-0.937,0.604c-0.103,0.1-0.237,0.233-0.336,0.367c-0.302,0.336-0.436,0.838-0.402,1.273
	c0.333,2.012,0.704,4.658,1.006,6.704l-1.208,5.866c0,0.1,0,0.402,0,0.505c0.034,0.199,0.034,0.402,0.1,0.872
	c0.034,0.367,0.237,0.735,0.505,1.006l0.937,0.868l1.476,4.057c0.402,0.941,1.61,1.51,2.681,1.308l2.784-0.536l1.239,1.373
	l-9.519,8.214c-0.168,0.134-0.436,0.57-0.505,0.738c-0.1,0.134-0.134,0.268-0.168,0.402l-1.541,6.57l-6.769,4.861l-3.12,1.239
	c-0.367,0.168-0.704,0.436-0.872,0.803c-1.274,2.883-3.385,6.371-5.228,9.423c-0.803,1.339-1.541,2.612-2.348,4.02l-3.721,8.115
	c-0.1,0.199-0.165,0.467-0.134,0.704c0.069,0.937,0.069,1.407,0.069,1.909c0,0.203,0.034,0.436,0.168,0.638
	c0,0.1,0.168,0.47,0.233,0.505l0.971,1.576l1.074,7.675l-4.727,9.351c-0.336,0.604-0.203,1.342,0.268,1.812l1.977,2.012
	c0,0.937-0.034,1.878-0.065,2.849c-0.034,0.134-0.069,0.333-0.034,0.501l0.034,0.738c0,0.268,0.099,0.57,0.268,0.838l1.473,2.279
	l2.249,2.75l4.895,6.972c0.134,0.168,0.268,0.302,0.433,0.436l2.952,2.279l2.314,2.849c0.031,0.069,0.199,0.237,0.268,0.302
	l0.803,0.673c0.034,0,0.302,0.233,0.302,0.233l0.436,0.367c0.099,0.103,0.336,0.168,0.505,0.203l6.937,4.088l2.245,1.946
	c0.237,0.199,0.539,0.336,0.807,0.367c0.1,0.034,0.436,0.034,0.536,0.034c1.105,0,2.245-0.47,3.151-0.872l5.163-0.872h8.012
	c0.065,0,0.47-0.034,0.536-0.065l7.04-0.738c0.168,0.034,0.367,0.034,0.501,0l0.975-0.168c0.165-0.034,0.299-0.1,0.467-0.168
	l2.952-1.641l3.117-0.069l2.046-0.436l1.675,4.662c0.233,0.669,0.903,1.17,1.61,1.037l5.496-0.436l2.214,3.086l0.333,0.906
	l-4.256,9.048c-0.168,0.402-0.203,0.838-0.034,1.243l3.656,9.217l0.738,2.012l0.165,1.878c0,0.034,0.034,0.367,0.034,0.367
	c0.034,0.268,0.203,0.673,0.302,0.872c0.1,0.237,0.203,0.505,0.268,0.704c0.099,0.268,0.203,0.539,0.268,0.872l0.237,1.174
	L616.387,617.312z M620.911,479.269c-0.069-0.336-0.268-0.669-0.57-0.906l-1.273-1.006l-2.616-1.507
	c-0.367-0.203-0.738-0.268-1.14-0.268c-0.203,0-0.638,0.065-0.772,0.134l-2.379,0.803l-14.482,0.872
	c-0.099,0-0.402,0.069-0.535,0.099l-9.419,3.453h-3.453c0.099-0.134,0.168-0.268,0.233-0.367l3.488-0.536
	c0.134,0,0.268-0.069,0.436-0.134l0.336-0.134c0.134-0.069,0.268-0.168,0.367-0.271l2.983-2.581l0.704-0.769
	c0.436-0.505,0.872-1.006,1.342-1.442c0.436-0.436,0.604-1.04,0.402-1.644l-1.239-3.786l0.268-0.838l1.407-0.604h0.505
	c0.199,0,0.402-0.034,0.57-0.069c0.031,0,0.402-0.165,0.436-0.199l1.74-0.838c0.505-0.237,0.807-0.704,0.872-1.208l0.336-2.883
	l0.233-0.367l4.459,0.635c0.302,0,0.639-0.1,0.872-0.268l2.214-1.442h0.467c-0.134,0.134-0.268,0.302-0.402,0.47
	c-0.203,0.233-0.233,0.233-0.302,0.505c-0.034,0.165-0.168,0.57,0,1.541c0.134,0.536,0.268,1.14,0.402,1.675
	c0,0.134,0.069,0.268,0.134,0.367c0.134,0.302,0.271,0.505,0.47,0.673c-0.1,0.302-0.134,0.669-0.065,1.14l0.233,0.937
	c0.203,1.006,0.436,2.011,0.669,3.086c0.336,1.308,1.376,1.576,1.843,1.675c0.271,0.069,0.539,0.069,0.772,0
	c0.069-0.034,0.367-0.069,0.367-0.069l2.279-0.937c0.807-0.268,1.342-1.006,1.342-1.843c0-0.336,0-0.336-1.105-3.79
	c-0.203-0.635-0.669-1.105-1.342-1.339c0.103-0.402,0.237-0.872,0.402-1.442c0.034-0.069,0.034-0.099,0.034-0.168l2.815,2.784
	c0.103,0.1,0.405,0.299,0.539,0.367l5.866,3.251l0.57,0.436l0.536,1.274l-3.821-0.601c-0.302-0.069-1.109,0.233-1.407,0.367
	c-0.638,0.268-1.006,0.937-0.94,1.641c0.069,0.505,0.168,0.872,0.302,1.576c0.034,0.237,0.168,0.505,0.336,0.673
	c1.105,1.407,2.88,2.513,4.456,3.518c0.168,0.069,0.302,0.168,0.436,0.268c0,0-0.031,0-0.065,0c-1.04,0.168-1.744,0.971-1.744,2.08
	C621.145,480.611,621.045,479.938,620.911,479.269z M661.104,490.967c-0.639-0.199-1.377,0.069-1.744,0.604l-1.105,1.675
	l-5.935-2.279c-0.199-0.065-0.402-0.134-0.601-0.1c-0.94,0.034-1.744,0.034-2.482,0.034l-0.505-0.772
	c-0.233-0.367-0.635-0.635-1.071-0.704c-2.046-0.336-3.488-0.336-5.029-0.336c-0.203,0-0.402,0.034-0.57,0.103
	c-0.069,0.031-0.402,0.165-0.47,0.233l-1.541,0.937c-0.402,0.237-0.635,0.604-0.704,1.04l-0.536,2.815l-6.807-3.92
	c-0.065-0.034-0.501-0.203-0.57-0.233l-7.373-1.778l-2.348-0.838c0.168-0.268,0.268-0.604,0.237-0.941
	c-0.069-1.576-0.268-3.017-0.47-4.291c0.168,0.539,0.436,1.174,0.738,1.778c0.168,0.302,0.333,0.669,0.535,1.14
	c0.536,0.971,1.407,1.14,1.644,1.208l0.333-1.545l-0.302,1.545c0.203,0.031,0.371,0.031,0.539,0c0.971-0.134,1.14-0.371,2.746-2.852
	c0.103-0.134,0.203-0.299,0.203-0.467c0.099-0.268,0.134-0.673,0.099-0.906c-0.065-0.367-0.134-0.669-0.333-0.937
	c0.704-0.268,1.205-0.941,1.239-1.843v-2.684c0.402-0.1,0.769-0.436,0.971-0.838l1.476-3.052c0.199-0.433,0.199-0.937,0-1.373
	l-0.402-0.803h0.233c0.367,0,0.738-0.103,0.971-0.336l0.47,0.838c0.1,0.168,0.168,0.302,0.302,0.436
	c0.168,0.134,0.302,0.237,0.57,0.436c0.234,0.203,0.501,0.302,0.838,0.371l1.912,2.578c0.199,0.302,0.535,0.539,0.903,0.604
	c0.203,0.069,0.402,0.103,0.57,0.103c0.034,0.065,0.034,0.134,0.069,0.199c0.367,0.638,0.803,1.442,1.205,2.18l0.604,1.071
	c0.134,0.271,0.436,0.539,0.704,0.707l0.371,0.199c0.268,0.203,0.536,0.268,0.872,0.268H643c-0.031,0.203,0,0.402,0,0.638
	c0.103,0.367,0.103,0.367,1.04,2.145c0.57,0.872,0.57,0.872,7.075,2.18h0.065c0.069,0,0.103,0,0.134,0
	c1.878-0.168,1.812-1.545,1.61-4.26l0.536,0.505c0.405,0.402,0.941,0.57,1.476,0.402l3.151-0.803
	c0.203-0.034,0.402-0.103,0.57-0.237l0.234,0.103c-0.234,0.268-0.402,0.536-0.436,0.803c-0.134,0.738,0.168,1.576,0.807,2.145
	c0.134,0.168,0.134,0.168,2.513,1.541c0.134,0.069,0.268,0.1,0.371,0.134l0.165,0.069c0.336,0.065,0.906-0.034,1.243-0.134
	c0.233-0.134,0.467-0.302,0.604-0.47l0.803-1.04c0.203,0.673,0.367,1.308,0.535,1.946l-0.268,6.333L661.104,490.967z"/>
</svg>
