<?xml version="1.0" encoding="utf-8"?>
<!-- Generator: Adobe Illustrator 17.0.0, SVG Export Plug-In . SVG Version: 6.00 Build 0)  -->
<!DOCTYPE svg PUBLIC "-//W3C//DTD SVG 1.1//EN" "http://www.w3.org/Graphics/SVG/1.1/DTD/svg11.dtd">
<svg version="1.1" id="图形" xmlns="http://www.w3.org/2000/svg" xmlns:xlink="http://www.w3.org/1999/xlink" x="0px" y="0px"
	 width="1000.637px" height="1000.678px" viewBox="15.167 -16.333 1000.637 1000.678"
	 enable-background="new 15.167 -16.333 1000.637 1000.678" xml:space="preserve">
<g>
	<path fill="#333333" d="M915.48,483.64c0-366.945,24.511-373.616-1.248-399.278c-25.628-25.497-30.819-1.312-398.817-1.312
		s-373.418-24.053-399.049,1.575c-25.628,25.628-0.491,29.968-0.491,399.015c0,369.051-24.642,374.505,1.709,400.23
		c25.53,24.938,28.784,1.413,397.831,1.413c369.051,0,373.388,23.034,399.049-2.594C940.091,857.027,915.48,850.588,915.48,483.64z
		 M195.782,110.912c29.309,0,53.096,23.787,53.096,53.096s-23.787,53.096-53.096,53.096s-53.096-23.787-53.096-53.096
		S166.474,110.912,195.782,110.912z M195.782,856.368c-29.309,0-53.096-23.787-53.096-53.096s23.787-53.096,53.096-53.096
		s53.096,23.787,53.096,53.096S225.091,856.368,195.782,856.368z M515.414,853.74c-204.437,0-370.1-165.664-370.1-370.1
		s165.664-370.101,370.1-370.101S885.515,279.203,885.515,483.64S719.851,853.74,515.414,853.74z M835.047,856.368
		c-29.309,0-53.096-23.787-53.096-53.096s23.787-53.096,53.096-53.096s53.096,23.787,53.096,53.096S864.355,856.368,835.047,856.368
		z M835.047,217.104c-29.309,0-53.096-23.787-53.096-53.096s23.787-53.096,53.096-53.096s53.096,23.787,53.096,53.096
		S864.355,217.104,835.047,217.104z"/>
	<path fill="#333333" d="M515.414,187.566c-163.497,0-296.107,132.577-296.107,296.074s132.61,296.074,296.107,296.074
		S811.522,647.137,811.522,483.64S678.911,187.566,515.414,187.566z M515.414,382.703c55.727,0,100.937,45.213,100.937,100.937
		c0,55.727-45.209,100.936-100.937,100.936c-55.724,0-100.936-45.209-100.936-100.936
		C414.478,427.916,459.691,382.703,515.414,382.703z M515.414,718.109c-129.522,0-234.465-105.078-234.465-234.469h62.523
		c0,94.89,76.954,171.908,171.942,171.908S687.356,578.53,687.356,483.64h62.527C749.883,613.03,644.936,718.109,515.414,718.109z"
		/>
</g>
</svg>
