<?xml version="1.0" encoding="utf-8"?>
<!-- Generator: Adobe Illustrator 16.0.0, SVG Export Plug-In . SVG Version: 6.00 Build 0)  -->
<!DOCTYPE svg PUBLIC "-//W3C//DTD SVG 1.1//EN" "http://www.w3.org/Graphics/SVG/1.1/DTD/svg11.dtd">
<svg version="1.1" id="图形" xmlns="http://www.w3.org/2000/svg" xmlns:xlink="http://www.w3.org/1999/xlink" x="0px" y="0px"
	 width="1000.637px" height="1000.678px" viewBox="15.167 -16.333 1000.637 1000.678"
	 enable-background="new 15.167 -16.333 1000.637 1000.678" xml:space="preserve">
<g>
	<g>
		<path fill-rule="evenodd" clip-rule="evenodd" d="M740.919,597.233c-21.326,2.952-45.291,7.071-70.697,9.247
			c0,0-63.668,74.581-168.313,105.732c12.352,12.896,36.434,27.579,54.188,36.048c0,0,61.686-34.105,110.59-71.317
			C714.779,640.352,740.919,597.233,740.919,597.233z M486.604,478.369c22.841,0,41.371-17.792,41.371-39.777
			c0-21.986-18.529-39.777-41.371-39.777h-25.209c-22.879,0-41.408,17.792-41.408,39.777c0,21.985,18.529,39.777,41.408,39.777
			H486.604z M730.857,671.193c-46.066,44.206-122.438,90.975-122.438,90.975c150.871,0,231.67-54.46,224.754-124.612
			c-3.34-33.329-21.48-43.273-49.254-43.974C783.919,593.581,772.265,631.415,730.857,671.193z M571.48,599.488
			c-63.939-17.481-61.57-93.384-92.373-96.879c-30.804-3.419-33.834,17.323-33.834,51.896c0,35.503,8.042,85.847,33.873,128.03
			c6.447,10.489,141.393-75.203,141.393-75.203C604.341,606.4,587.91,603.992,571.48,599.488z M445.196,378.073L268.802,205.06
			l-71.978,79.552l140.384,245.654C362.379,443.797,445.196,378.073,445.196,378.073z M610.751,530.266l140.383-245.654
			l-71.979-79.552L502.763,378.073C502.763,378.073,585.58,443.797,610.751,530.266z M873.224,46.418H157.242
			c-43.934,0-79.553,35.613-79.553,79.624v715.612c0,43.932,35.619,79.623,79.553,79.623h715.982
			c43.934,0,79.553-35.691,79.553-79.623V126.041C952.777,82.031,917.158,46.418,873.224,46.418z M873.224,841.654H157.242V126.041
			h715.982V841.654z M628.775,205.06H315.61l158.37,159.105L628.775,205.06z"/>
	</g>
</g>
</svg>
