<?xml version="1.0" encoding="utf-8"?>
<!-- Generator: Adobe Illustrator 17.0.0, SVG Export Plug-In . SVG Version: 6.00 Build 0)  -->
<!DOCTYPE svg PUBLIC "-//W3C//DTD SVG 1.1//EN" "http://www.w3.org/Graphics/SVG/1.1/DTD/svg11.dtd">
<svg version="1.1" id="图形" xmlns="http://www.w3.org/2000/svg" xmlns:xlink="http://www.w3.org/1999/xlink" x="0px" y="0px"
	 width="1000.637px" height="1000.678px" viewBox="15.167 -16.333 1000.637 1000.678"
	 enable-background="new 15.167 -16.333 1000.637 1000.678" xml:space="preserve">
<g>
	<path fill="#333333" d="M313.612,214.842c18.532,0,33.646-15.114,33.646-33.646V80.26c0-18.566-15.114-33.646-33.646-33.646
		c-18.532,0-33.646,15.08-33.646,33.646v100.937C279.966,199.728,295.08,214.842,313.612,214.842z"/>
	<path fill="#333333" d="M851.94,113.905h-67.291v67.291c0,37.094-30.163,67.291-67.291,67.291s-67.291-30.197-67.291-67.291
		v-67.291H380.903v67.291c0,37.094-30.163,67.291-67.291,67.291s-67.291-30.197-67.291-67.291v-67.291H179.03
		c-55.724,0-100.936,45.179-100.936,100.937v605.619c0,55.727,45.213,100.937,100.936,100.937h672.91
		c55.727,0,100.936-45.209,100.936-100.937V214.842C952.876,159.085,907.667,113.905,851.94,113.905z M885.585,820.461
		c0,18.532-15.114,33.646-33.645,33.646H179.03c-18.532,0-33.645-15.114-33.645-33.646V349.424h740.201V820.461z"/>
	<path fill="#333333" d="M717.358,214.842c18.532,0,33.646-15.114,33.646-33.646V80.26c0-18.566-15.114-33.646-33.646-33.646
		s-33.646,15.08-33.646,33.646v100.937C683.712,199.728,698.826,214.842,717.358,214.842z"/>
	<path fill="#333333" d="M229.498,786.816h571.973c9.291,0,16.823-7.532,16.823-16.823V433.537c0-9.291-7.532-16.823-16.823-16.823
		H229.498c-9.291,0-16.823,7.532-16.823,16.823v336.455C212.675,779.283,220.207,786.816,229.498,786.816z M650.068,652.233h-67.292
		V551.297h67.292V652.233z M683.712,450.36h100.936v67.291H683.712V450.36z M683.712,551.297h100.936v100.936H683.712V551.297z
		 M683.712,685.879h100.936v67.29H683.712V685.879z M549.13,450.36h100.938v67.291H579.89c-5.071-14.331-16.429-25.688-30.76-30.759
		V450.36z M549.13,716.639c14.331-5.071,25.689-16.429,30.76-30.759h70.178v67.29H549.13V716.639z M380.903,450.36h134.583v33.646
		H380.903V450.36z M515.485,551.297v100.936H380.903V551.297H515.485z M380.903,719.524h134.583v33.645H380.903V719.524z
		 M246.321,450.36h100.937v36.532c-14.331,5.071-25.689,16.428-30.759,30.759h-70.177V450.36z M246.321,551.297h67.291v100.936
		h-67.291V551.297z M246.321,685.879h70.177c5.071,14.331,16.429,25.689,30.76,30.759v36.531H246.321V685.879z"/>
</g>
</svg>
