<?xml version="1.0" encoding="utf-8"?>
<!-- Generator: Adobe Illustrator 16.0.0, SVG Export Plug-In . SVG Version: 6.00 Build 0)  -->
<!DOCTYPE svg PUBLIC "-//W3C//DTD SVG 1.1//EN" "http://www.w3.org/Graphics/SVG/1.1/DTD/svg11.dtd">
<svg version="1.1" id="图形" xmlns="http://www.w3.org/2000/svg" xmlns:xlink="http://www.w3.org/1999/xlink" x="0px" y="0px"
	 width="1000.637px" height="1000.678px" viewBox="15.167 -16.333 1000.637 1000.678"
	 enable-background="new 15.167 -16.333 1000.637 1000.678" xml:space="preserve">
<path fill-rule="evenodd" clip-rule="evenodd" d="M873.164,824.727c0,0-636.401,0-715.952,0s-79.55-79.553-79.55-79.553V466.749
	l198.875-357.976h477.301l198.875,357.976c0,0,0,198.875,0,278.425C952.713,824.727,873.164,824.727,873.164,824.727z
	 M714.063,188.324H316.312L177.099,466.749h676.176L714.063,188.324z M873.164,546.299H157.212v198.875h715.952V546.299z
	 M594.738,665.624H435.637V625.85h159.101V665.624z M694.175,347.424l19.888,39.775H316.312l19.888-39.775H694.175z
	 M375.975,267.874H654.4l19.889,39.775H356.087L375.975,267.874z"/>
</svg>
