<?xml version="1.0" encoding="utf-8"?>
<!-- Generator: Adobe Illustrator 16.0.0, SVG Export Plug-In . SVG Version: 6.00 Build 0)  -->
<!DOCTYPE svg PUBLIC "-//W3C//DTD SVG 1.1//EN" "http://www.w3.org/Graphics/SVG/1.1/DTD/svg11.dtd">
<svg version="1.1" id="图形" xmlns="http://www.w3.org/2000/svg" xmlns:xlink="http://www.w3.org/1999/xlink" x="0px" y="0px"
	 width="1000.637px" height="1000.678px" viewBox="15.167 -16.333 1000.637 1000.678"
	 enable-background="new 15.167 -16.333 1000.637 1000.678" xml:space="preserve">
<path fill-rule="evenodd" clip-rule="evenodd" d="M77.472,786.114c0,40.084,32.606,72.564,72.949,72.564h729.315
	c40.3,0,72.949-32.48,72.949-72.564V181.309c0-40.085-32.649-72.564-72.949-72.564H314.522c-40.341,0-72.949,32.479-72.949,72.564
	v544.36c0,19.957-16.41,36.281-36.453,36.281c-20.087,0-36.498-16.324-36.498-36.281V244.813c0-24.999-20.426-45.342-45.554-45.342
	c-25.171,0-45.598,20.343-45.598,45.342V786.114z M588.027,239.387v137.906c0,22.136-17.862,39.913-40.127,39.913H372.856
	c-22.266,0-40.13-17.777-40.13-39.913V239.387c0-22.137,17.864-39.916,40.13-39.916H547.9
	C570.165,199.471,588.027,217.25,588.027,239.387z M825.035,562.378H369.224c-20.087,0-36.497-16.368-36.497-36.324
	c0-19.914,16.41-36.283,36.497-36.283h455.811c20.085,0,36.496,16.369,36.496,36.283C861.531,546.01,845.12,562.378,825.035,562.378
	z M825.035,707.504H369.224c-20.087,0-36.497-16.324-36.497-36.28c0-19.957,16.41-36.281,36.497-36.281h455.811
	c20.085,0,36.496,16.324,36.496,36.281C861.531,691.18,845.12,707.504,825.035,707.504z M825.035,272.035H697.429
	c-20.086,0-36.496-16.324-36.496-36.281s16.41-36.283,36.496-36.283h127.605c20.085,0,36.496,16.326,36.496,36.283
	S845.12,272.035,825.035,272.035z M825.035,417.206H697.429c-20.086,0-36.496-16.324-36.496-36.28
	c0-19.959,16.41-36.283,36.496-36.283h127.605c20.085,0,36.496,16.324,36.496,36.283
	C861.531,400.883,845.12,417.206,825.035,417.206z"/>
</svg>
