<?xml version="1.0" encoding="utf-8"?>
<!-- Generator: Adobe Illustrator 17.0.0, SVG Export Plug-In . SVG Version: 6.00 Build 0)  -->
<!DOCTYPE svg PUBLIC "-//W3C//DTD SVG 1.1//EN" "http://www.w3.org/Graphics/SVG/1.1/DTD/svg11.dtd">
<svg version="1.1" id="图形" xmlns="http://www.w3.org/2000/svg" xmlns:xlink="http://www.w3.org/1999/xlink" x="0px" y="0px"
	 width="1000.637px" height="1000.678px" viewBox="15.167 -16.333 1000.637 1000.678"
	 enable-background="new 15.167 -16.333 1000.637 1000.678" xml:space="preserve">
<g>
	<path fill="#333333" d="M851.94,198.019H448.194c0-55.724-45.209-100.937-100.936-100.937H179.03
		c-55.724,0-100.937,45.213-100.937,100.937v100.936v33.646v437.392c0,55.727,45.213,100.936,100.937,100.936h672.91
		c55.727,0,100.936-45.209,100.936-100.936V298.956C952.876,243.232,907.667,198.019,851.94,198.019z M885.585,769.993
		c0,18.566-15.08,33.645-33.646,33.645H179.03c-18.566,0-33.646-15.08-33.646-33.645V298.956c0-18.566,15.08-33.646,33.646-33.646
		h672.91c18.566,0,33.646,15.08,33.646,33.646V769.993z"/>
	<path fill="#333333" d="M673.102,414.195h-78.716c0-14.452-11.786-26.239-26.239-26.239H463.193
		c-14.452,0-26.239,11.786-26.239,26.239h-78.716c-14.452,0-26.239,11.786-26.239,26.239v209.909
		c0,14.452,11.786,26.239,26.239,26.239h314.863c14.452,0,26.239-11.786,26.239-26.239V440.434
		C699.34,425.981,687.554,414.195,673.102,414.195z M515.67,652.88c-59.396,0-107.492-48.095-107.492-107.492
		c0-59.396,48.095-107.492,107.492-107.492c59.396,0,107.492,48.095,107.492,107.492C623.162,604.784,575.066,652.88,515.67,652.88z
		"/>
	<path fill="#333333" d="M515.67,470.209c-41.562,0-75.179,33.617-75.179,75.179s33.617,75.179,75.179,75.179
		s75.179-33.617,75.179-75.179S557.232,470.209,515.67,470.209z M515.67,594.328c-26.981,0-48.94-21.959-48.94-48.94
		c0-26.981,21.959-48.94,48.94-48.94c26.981,0,48.94,21.959,48.94,48.94C564.61,572.369,542.651,594.328,515.67,594.328z"/>
</g>
</svg>
