<?xml version="1.0" encoding="utf-8"?>
<!-- Generator: Adobe Illustrator 16.0.0, SVG Export Plug-In . SVG Version: 6.00 Build 0)  -->
<!DOCTYPE svg PUBLIC "-//W3C//DTD SVG 1.1//EN" "http://www.w3.org/Graphics/SVG/1.1/DTD/svg11.dtd">
<svg version="1.1" id="图形" xmlns="http://www.w3.org/2000/svg" xmlns:xlink="http://www.w3.org/1999/xlink" x="0px" y="0px"
	 width="1000.637px" height="1000.678px" viewBox="15.167 -16.333 1000.637 1000.678"
	 enable-background="new 15.167 -16.333 1000.637 1000.678" xml:space="preserve">
<path d="M426.384,815.285h-21.963H128.058V98.566h714.874V635.46c16.726,4.504,32.744,9.85,47.934,15.938V46.333H77.57v812.814
	H478.7c-20.355-13.119-25.99-27.871-40.315-43.862 M469.519,776.69c93.339,142.65,233.347,142.545,233.347,142.545
	c196.284,0,249.813-142.545,249.813-142.545C723.453,474.948,469.519,776.69,469.519,776.69 M711.101,866.373
	c-48.434,0-87.689-38.263-87.689-85.468c0-47.198,39.256-85.467,87.689-85.467c48.429,0,87.687,38.269,87.687,85.467
	c0,47.205-39.258,31.468-87.687,31.468 M688.522,800.582c-0.134-9.063-4.071-18.014-10.718-24.349
	c-6.646-6.339-15.909-9.983-25.201-9.918c-9.293,0.064-18.492,3.843-25.033,10.273c-6.54,6.43-10.344,15.434-10.344,24.495
	c0,9.057,3.804,18.065,10.344,24.498c6.541,6.428,15.74,10.202,25.033,10.269c9.292,0.067,18.555-3.576,25.201-9.914
	c6.646-6.341,10.584-15.292,10.718-24.348V800.582z M204.828,229.775h66.494v64.808h-66.494V229.775z M204.828,376.381h66.494
	v64.808h-66.494V376.381z M204.828,518.043h66.494v64.809h-66.494V518.043z M336.27,230.782h388.132v67.82H336.27V230.782z
	 M336.27,374.873h388.132v67.819H336.27V374.873z M336.27,516.535h388.132v67.82H336.27V516.535z"/>
</svg>
