<?xml version="1.0" encoding="utf-8"?>
<!-- Generator: Adobe Illustrator 16.0.0, SVG Export Plug-In . SVG Version: 6.00 Build 0)  -->
<!DOCTYPE svg PUBLIC "-//W3C//DTD SVG 1.1//EN" "http://www.w3.org/Graphics/SVG/1.1/DTD/svg11.dtd">
<svg version="1.1" id="图形" xmlns="http://www.w3.org/2000/svg" xmlns:xlink="http://www.w3.org/1999/xlink" x="0px" y="0px"
	 width="1000.637px" height="1000.678px" viewBox="15.167 -16.333 1000.637 1000.678"
	 enable-background="new 15.167 -16.333 1000.637 1000.678" xml:space="preserve">
<g>
	<path fill="#333333" d="M313.917,214.981c-18.589,0-33.751-15.161-33.751-33.748V79.982c0-18.586,15.162-33.748,33.751-33.748
		c18.586,0,33.749,15.161,33.749,33.748v101.252C347.666,199.82,332.503,214.981,313.917,214.981"/>
	<path fill="#333333" d="M651.416,214.981c-18.59,0-33.752-15.161-33.752-33.748V79.982c0-18.586,15.162-33.748,33.752-33.748
		c18.586,0,33.748,15.161,33.748,33.748v101.252C685.164,199.82,670.001,214.981,651.416,214.981"/>
	<path fill="#333333" d="M820.164,780.623v8.107c0,18.591-15.162,33.753-33.748,33.753H178.917
		c-18.589,0-33.751-15.162-33.751-33.753V316.233h674.998v41.843l67.499,61.189V214.981c0-55.897-45.349-101.248-101.247-101.248
		h-67.499v67.5c0,37.259-30.259,67.5-67.501,67.5c-37.245,0-67.499-30.241-67.499-67.5v-67.5h-202.5v67.5
		c0,37.259-30.241,67.5-67.5,67.5c-37.262,0-67.499-30.241-67.499-67.5v-67.5h-67.5c-55.881,0-101.251,45.35-101.251,101.248v573.75
		c0,55.899,45.37,101.252,101.251,101.252h607.499c55.898,0,101.247-45.353,101.247-101.252v-69.245L820.164,780.623z"/>
	<path fill="#333333" d="M752.664,750.729c0,0-33.747,9.492-33.747-33.747v-63.25H550.165c-18.619,0-33.747-15.162-33.747-33.748
		V518.733c0-18.59,15.128-33.748,33.747-33.748h168.752v-64.32c0-45.37,33.747-32.711,33.747-32.711l200.062,181.403
		L752.664,750.729z"/>
</g>
</svg>
