<?xml version="1.0" encoding="utf-8"?>
<!-- Generator: Adobe Illustrator 16.0.0, SVG Export Plug-In . SVG Version: 6.00 Build 0)  -->
<!DOCTYPE svg PUBLIC "-//W3C//DTD SVG 1.1//EN" "http://www.w3.org/Graphics/SVG/1.1/DTD/svg11.dtd">
<svg version="1.1" id="图形" xmlns="http://www.w3.org/2000/svg" xmlns:xlink="http://www.w3.org/1999/xlink" x="0px" y="0px"
	 width="1000.637px" height="1000.678px" viewBox="15.167 -16.333 1000.637 1000.678"
	 enable-background="new 15.167 -16.333 1000.637 1000.678" xml:space="preserve">
<path fill-rule="evenodd" clip-rule="evenodd" d="M886.022,921.32H144.407c-36.885,0-66.743-35.616-66.743-79.563V125.78
	c0-43.947,29.858-79.563,66.743-79.563h741.615c36.883,0,66.74,35.615,66.74,79.563v715.978
	C952.762,885.703,922.905,921.32,886.022,921.32z M886.022,125.78H144.407v715.978h741.615V125.78z M542.818,694.839l120-211.071
	l174,277.071l-625.704,1.376l133.485-198.886L542.818,694.839z M344.599,384.839c-36.849,0-66.743-31.28-66.743-69.859
	c0-38.598,29.895-69.878,66.743-69.878c36.848,0,66.743,31.28,66.743,69.878C411.342,353.559,381.447,384.839,344.599,384.839z"/>
</svg>
