<?xml version="1.0" encoding="utf-8"?>
<!-- Generator: Adobe Illustrator 16.0.0, SVG Export Plug-In . SVG Version: 6.00 Build 0)  -->
<!DOCTYPE svg PUBLIC "-//W3C//DTD SVG 1.1//EN" "http://www.w3.org/Graphics/SVG/1.1/DTD/svg11.dtd">
<svg version="1.1" id="图形" xmlns="http://www.w3.org/2000/svg" xmlns:xlink="http://www.w3.org/1999/xlink" x="0px" y="0px"
	 width="1000.637px" height="1000.678px" viewBox="15.167 -16.333 1000.637 1000.678"
	 enable-background="new 15.167 -16.333 1000.637 1000.678" xml:space="preserve">
<path fill="#272636" d="M843.332,56.312v71.976c0,45.284-36.749,82.033-82.033,82.033s-82.033-36.749-82.033-82.033V46.25H351.119
	v82.033c0,45.284-36.748,82.038-82.033,82.038c-45.283,0-82.035-36.754-82.035-82.038V56.312
	c-63.605,22.587-109.38,82.692-109.38,154.009v546.902c0,90.618,73.449,164.07,164.071,164.07h546.901
	c90.619,0,164.069-73.452,164.069-164.07V210.321C952.713,139.004,906.882,78.899,843.332,56.312 M843.332,757.223
	c0,30.185-24.501,54.688-54.688,54.688H241.743c-30.193,0-54.687-24.503-54.687-54.688V319.699h656.275V757.223z M624.574,593.153
	h109.379v109.378H624.574V593.153z M624.574,429.082h109.379v109.379H624.574V429.082z M460.503,593.153h109.379v109.378H460.503
	V593.153z M460.503,429.082h109.379v109.379H460.503V429.082z M296.432,593.153h109.38v109.378h-109.38V593.153z M296.432,429.082
	h109.38v109.379h-109.38V429.082z M761.298,155.629c-15.094,0-27.346-12.248-27.346-27.347V46.25h54.688v82.033
	C788.644,143.381,776.392,155.629,761.298,155.629 M269.086,155.629c-15.092,0-27.344-12.248-27.344-27.347V46.25h54.685v82.033
	C296.432,143.381,284.181,155.629,269.086,155.629"/>
</svg>
