<?xml version="1.0" encoding="utf-8"?>
<!-- Generator: Adobe Illustrator 17.0.0, SVG Export Plug-In . SVG Version: 6.00 Build 0)  -->
<!DOCTYPE svg PUBLIC "-//W3C//DTD SVG 1.1//EN" "http://www.w3.org/Graphics/SVG/1.1/DTD/svg11.dtd">
<svg version="1.1" id="图形" xmlns="http://www.w3.org/2000/svg" xmlns:xlink="http://www.w3.org/1999/xlink" x="0px" y="0px"
	 width="1000.637px" height="1000.678px" viewBox="15.167 -16.333 1000.637 1000.678"
	 enable-background="new 15.167 -16.333 1000.637 1000.678" xml:space="preserve">
<path fill="#333333" d="M567.479,575.829c8.358-6.081,13.812-15.93,13.812-27.018v-33.403c0-18.398-15.005-33.403-33.403-33.403
	h-66.806c-18.398,0-33.403,15.005-33.403,33.403v33.403c0,11.088,5.454,20.937,13.812,27.018
	c-22.538,51.017-41.897,114.081-41.897,142.865c0,52.422,42.472,94.894,94.891,94.894c52.419,0,94.891-42.472,94.891-94.894
	C609.375,689.91,590.017,626.846,567.479,575.829z M514.485,772.487c-29.715,0-53.822-24.073-53.822-53.792
	c0-29.749,24.107-53.789,53.822-53.789s53.822,24.04,53.822,53.789C568.307,748.413,544.2,772.487,514.485,772.487z"/>
<path fill="#333333" d="M848.513,147.978H447.679c0-55.322-44.883-100.208-100.208-100.208H180.457
	c-55.322,0-100.208,44.887-100.208,100.208v100.208v33.403v534.445c0,55.325,44.887,100.208,100.208,100.208h668.056
	c55.325,0,100.208-44.883,100.208-100.208V248.186C948.721,192.864,903.838,147.978,848.513,147.978z M881.916,816.034
	c0,18.432-14.971,33.403-33.403,33.403H180.457c-18.432,0-33.403-14.971-33.403-33.403V248.186
	c0-18.432,14.971-33.403,33.403-33.403h300.625v33.403c0,18.448,14.955,33.403,33.403,33.403c18.448,0,33.402-14.955,33.402-33.403
	v-33.403h300.626c18.432,0,33.403,14.971,33.403,33.403V816.034z"/>
<path fill="#333333" d="M514.485,448.603c-18.448,0-33.403-14.955-33.403-33.403v-66.806c0-18.448,14.955-33.403,33.403-33.403
	c18.448,0,33.402,14.955,33.402,33.403V415.2C547.887,433.648,532.933,448.603,514.485,448.603z"/>
</svg>
