<?xml version="1.0" encoding="utf-8"?>
<!-- Generator: Adobe Illustrator 17.0.0, SVG Export Plug-In . SVG Version: 6.00 Build 0)  -->
<!DOCTYPE svg PUBLIC "-//W3C//DTD SVG 1.1//EN" "http://www.w3.org/Graphics/SVG/1.1/DTD/svg11.dtd">
<svg version="1.1" id="图形" xmlns="http://www.w3.org/2000/svg" xmlns:xlink="http://www.w3.org/1999/xlink" x="0px" y="0px"
	 width="1000.637px" height="1000.678px" viewBox="15.167 -16.333 1000.637 1000.678"
	 enable-background="new 15.167 -16.333 1000.637 1000.678" xml:space="preserve">
<g>
	<path fill="#333333" d="M882.182,132.158H147.32c-36.837,0-66.805,29.969-66.805,66.806v567.847
		c0,36.837,29.968,66.806,66.805,66.806h734.862c36.837,0,66.805-29.969,66.805-66.806V198.963
		C948.987,162.127,919.019,132.158,882.182,132.158z M280.93,566.395v-66.807H614.96v66.807H280.93z M147.32,566.395
		c-0.003,0-0.006,0-0.008,0l-0.003-66.807c0.004,0,0.007,0,0.011,0h66.806v66.807H147.32z M614.96,365.978v66.805H280.93v-66.805
		H614.96z M882.182,365.978c0.002,0,0.005,0,0.007,0l0.003,66.806c-0.003,0-0.006,0-0.01,0H681.764v-66.805H882.182z
		 M214.126,432.783H147.32c-0.005,0-0.009,0-0.014,0l-0.003-66.806c0.006,0,0.011,0,0.017,0h66.806V432.783z M681.764,499.588
		h200.418c0.004,0,0.008,0,0.012,0l0.003,66.807c-0.005,0-0.01,0-0.015,0H681.764V499.588z M147.32,198.963l734.791-0.024
		c0.025,0.014,0.067,0.104,0.071,0.024l0.004,100.209c-0.001,0-0.003,0-0.004,0H147.32c-0.006,0-0.013,0-0.019,0l-0.004-100.138
		C147.31,199.009,147.348,198.97,147.32,198.963z M882.182,766.812l-734.79,0.023c-0.021-0.011-0.054-0.04-0.066-0.04
		c-0.003,0-0.005,0.001-0.006,0.016l-0.005-133.611c0.002,0,0.004,0,0.005,0h734.862c0.006,0,0.012,0,0.018,0l0.005,133.54
		C882.192,766.766,882.152,766.807,882.182,766.812z"/>
	<path fill="#333333" d="M815.377,666.604H648.362c-18.448,0-33.402,14.954-33.402,33.402s14.954,33.402,33.402,33.402h167.015
		c18.448,0,33.403-14.954,33.403-33.402S833.825,666.604,815.377,666.604z"/>
</g>
</svg>
