<?xml version="1.0" encoding="utf-8"?>
<!-- Generator: Adobe Illustrator 16.0.0, SVG Export Plug-In . SVG Version: 6.00 Build 0)  -->
<!DOCTYPE svg PUBLIC "-//W3C//DTD SVG 1.1//EN" "http://www.w3.org/Graphics/SVG/1.1/DTD/svg11.dtd">
<svg version="1.1" id="图形" xmlns="http://www.w3.org/2000/svg" xmlns:xlink="http://www.w3.org/1999/xlink" x="0px" y="0px"
	 width="1000.637px" height="1000.678px" viewBox="15.167 -16.333 1000.637 1000.678"
	 enable-background="new 15.167 -16.333 1000.637 1000.678" xml:space="preserve">
<g>
	<path fill="#272636" d="M859.564,46.245H170.71c-16.877,0-30.564,14.059-30.564,31.391v818.122
		c0,17.337,13.688,31.394,30.564,31.394h576.084c16.896,0,30.564-14.061,30.564-31.394V313.307h82.205
		c16.877,0,30.578-14.021,30.578-31.391V77.636C890.146,60.304,876.441,46.245,859.564,46.245 M829,250.519h-82.205
		c-16.896,0-30.564,14.022-30.564,31.392v582.458H201.29V109.031H829V250.519z M284.593,778.087h348.242
		c6.76,0,12.232-5.599,12.232-12.579c0-6.923-5.473-12.522-12.232-12.522H284.593c-6.722,0-12.207,5.6-12.207,12.522
		C272.386,772.484,277.872,778.087,284.593,778.087 M284.593,655.374h348.242c6.76,0,12.232-5.604,12.232-12.561
		c0-6.924-5.473-12.522-12.232-12.522H284.593c-6.722,0-12.207,5.599-12.207,12.522
		C272.386,649.771,277.872,655.374,284.593,655.374 M378.725,321.832c0,7.859,5.829,14.265,13.066,14.265
		c0.085,0,0.175-0.032,0.241-0.032c2.69,37.592,31.508,75.15,66.686,75.15c35.195,0,64.008-37.558,66.717-75.15
		c0.066,0,0.156,0.032,0.227,0.032c7.219,0,13.086-6.411,13.086-14.265c0-5.815-3.189-10.78-7.756-13.001
		c2.641-8.456,4.121-17.474,4.121-26.882c0-45.943-34.205-83.182-76.395-83.182c-42.158,0-76.363,37.239-76.363,83.182
		c0,9.408,1.461,18.427,4.101,26.882C381.895,311.052,378.725,316.017,378.725,321.832 M296.5,544.532h324.453
		c3.928,0,7.121-3.312,7.121-7.325v-26.146c0-1.972-0.775-3.874-2.16-5.25c-31.182-31.073-69.26-53.041-110.221-63.488
		c-1.027-0.596-2.193-0.915-3.391-0.915h-3.691c-1.184,0-2.33,0.314-3.379,0.883C492.884,449.088,475.937,453,458.718,453
		c-17.182,0-34.13-3.913-46.517-10.709c-1.028-0.564-2.193-0.883-3.358-0.883h-2.692c-0.568,0-1.118,0.07-1.63,0.177
		c-42.02,10.217-81.091,32.449-112.994,64.226c-1.353,1.376-2.147,3.278-2.147,5.25v26.146
		C289.379,541.221,292.555,544.532,296.5,544.532 M859.564,359.813h-54.027v253.742h54.027c16.877,0,30.582-14.021,30.582-31.393
		V391.238C890.146,373.905,876.441,359.813,859.564,359.813 M859.564,660.095h-54.027v267.057h54.027
		c16.877,0,30.582-14.061,30.582-31.394V691.484C890.146,674.151,876.441,660.095,859.564,660.095"/>
</g>
</svg>
