<?xml version="1.0" encoding="utf-8"?>
<!-- Generator: Adobe Illustrator 16.0.0, SVG Export Plug-In . SVG Version: 6.00 Build 0)  -->
<!DOCTYPE svg PUBLIC "-//W3C//DTD SVG 1.1//EN" "http://www.w3.org/Graphics/SVG/1.1/DTD/svg11.dtd">
<svg version="1.1" id="图形" xmlns="http://www.w3.org/2000/svg" xmlns:xlink="http://www.w3.org/1999/xlink" x="0px" y="0px"
	 width="1000.637px" height="1000.678px" viewBox="15.167 -16.333 1000.637 1000.678"
	 enable-background="new 15.167 -16.333 1000.637 1000.678" xml:space="preserve">
<g>
	<path fill="#333333" d="M851.759,209.702H447.881c0-55.744-45.225-100.97-100.969-100.97H178.629
		c-55.744,0-100.97,45.226-100.97,100.97v100.969v33.658v437.534c0,55.744,45.226,100.969,100.97,100.969h673.13
		c55.745,0,100.969-45.225,100.969-100.969V310.671C952.728,254.928,907.504,209.702,851.759,209.702z M885.416,781.863
		c0,18.57-15.085,33.656-33.656,33.656h-673.13c-18.57,0-33.657-15.086-33.657-33.656V310.671c0-18.57,15.086-33.656,33.657-33.656
		h673.13c18.571,0,33.656,15.086,33.656,33.656V781.863z"/>
	<path fill="#333333" d="M506.772,685.378c-42.136,0-80.033-17.797-106.901-46.104l51.584-36.877l-129.08-55.326v147.52
		l47.288-33.789c33.749,37.609,82.582,61.447,137.108,61.447c86.943,0,159.631-60.215,179.104-141.184l-34.396-14.74
		C638.226,634.156,578.514,685.378,506.772,685.378z"/>
	<path fill="#333333" d="M506.772,353.452c-86.804,0-159.425,60.078-179.014,140.859l34.429,14.257
		c13.583-67.432,73.131-118.237,144.585-118.237c42.137,0,80.025,17.797,106.893,46.138l-51.576,36.85l129.088,55.307V381.115
		l-47.297,33.784C610.132,377.278,561.299,353.452,506.772,353.452z"/>
</g>
</svg>
