<?xml version="1.0" encoding="utf-8"?>
<!-- Generator: Adobe Illustrator 17.0.0, SVG Export Plug-In . SVG Version: 6.00 Build 0)  -->
<!DOCTYPE svg PUBLIC "-//W3C//DTD SVG 1.1//EN" "http://www.w3.org/Graphics/SVG/1.1/DTD/svg11.dtd">
<svg version="1.1" id="图形" xmlns="http://www.w3.org/2000/svg" xmlns:xlink="http://www.w3.org/1999/xlink" x="0px" y="0px"
	 width="1000.637px" height="1000.678px" viewBox="15.167 -16.333 1000.637 1000.678"
	 enable-background="new 15.167 -16.333 1000.637 1000.678" xml:space="preserve">
<g>
	<path fill="#333333" d="M851.94,198.019H448.194c0-55.724-45.209-100.937-100.936-100.937H179.03
		c-55.724,0-100.937,45.213-100.937,100.937v100.936v33.646v437.392c0,55.727,45.213,100.936,100.937,100.936h672.91
		c55.727,0,100.936-45.209,100.936-100.936V298.956C952.876,243.232,907.667,198.019,851.94,198.019z M885.585,769.993
		c0,18.566-15.08,33.645-33.646,33.645H179.03c-18.566,0-33.646-15.08-33.646-33.645V298.956c0-18.566,15.08-33.646,33.646-33.646
		h672.91c18.566,0,33.646,15.08,33.646,33.646V769.993z"/>
	<path fill="#333333" d="M661.667,370.955H374.97c-15.791,0-28.67,12.878-28.67,28.67v258.027c0,15.791,12.878,28.67,28.67,28.67
		h286.696c15.791,0,28.67-12.878,28.67-28.67V399.625C690.336,383.834,677.458,370.955,661.667,370.955z M403.64,657.651h-28.67
		v-28.67h28.67V657.651z M403.64,600.312h-28.67v-28.67h28.67V600.312z M403.64,542.973h-28.67v-28.67h28.67V542.973z
		 M403.64,485.634h-28.67v-28.67h28.67V485.634z M403.64,428.295h-28.67v-28.67h28.67V428.295z M604.327,657.651H432.31V542.973
		h172.018V657.651z M604.327,514.303H432.31V399.625h172.018V514.303z M661.667,657.651h-28.67v-28.67h28.67V657.651z
		 M661.667,600.312h-28.67v-28.67h28.67V600.312z M661.667,542.973h-28.67v-28.67h28.67V542.973z M661.667,485.634h-28.67v-28.67
		h28.67V485.634z M661.667,428.295h-28.67v-28.67h28.67V428.295z"/>
</g>
</svg>
