<?xml version="1.0" encoding="utf-8"?>
<!-- Generator: Adobe Illustrator 16.0.0, SVG Export Plug-In . SVG Version: 6.00 Build 0)  -->
<!DOCTYPE svg PUBLIC "-//W3C//DTD SVG 1.1//EN" "http://www.w3.org/Graphics/SVG/1.1/DTD/svg11.dtd">
<svg version="1.1" id="图形" xmlns="http://www.w3.org/2000/svg" xmlns:xlink="http://www.w3.org/1999/xlink" x="0px" y="0px"
	 width="1000.637px" height="1000.678px" viewBox="15.167 -16.333 1000.637 1000.678"
	 enable-background="new 15.167 -16.333 1000.637 1000.678" xml:space="preserve">
<g>
	<g>
		<path fill="#333333" d="M920.329,657.295H549.906c-5.935,23.01-14.844,44.754-26.476,64.82h396.898
			c17.883,0,32.408-14.525,32.408-32.41C952.737,671.791,938.211,657.295,920.329,657.295z M920.329,754.526H501.354
			c-21.094,26.271-47.127,48.395-76.8,64.82h495.774c17.883,0,32.408-14.527,32.408-32.41
			C952.737,769.022,938.211,754.526,920.329,754.526z M401.767,235.964h518.562c17.883,0,32.408-14.528,32.408-32.41
			c0-17.916-14.525-32.411-32.408-32.411H401.767c-17.916,0-32.41,14.495-32.41,32.411
			C369.356,221.436,383.851,235.964,401.767,235.964z M531.407,592.475c0-125.303-101.583-226.871-226.871-226.871
			c-125.305,0-226.872,101.567-226.872,226.871c0,125.307,101.567,226.871,226.872,226.871
			C429.824,819.346,531.407,717.781,531.407,592.475z M418.804,500.847l-94.192,107.865v7.597h80.519V631.5h-80.519v88.115
			c0,14.213,18.23,20.762,54.692,19.75v12.154H247.131v-10.635c32.394,0,48.616-7.596,48.616-22.789V631.5h-82.039v-15.191h82.039
			v-12.154l-91.154-103.308c-8.119-7.057-24.83-10.635-50.134-10.635v-10.634h130.653v10.634c-38.502,0-54.202,3.578-47.096,10.635
			L318.534,592l79-91.153c7.074-7.057-2.548-10.635-28.865-10.635v-10.634h97.23v10.634
			C441.592,489.232,425.877,492.745,418.804,500.847z M920.329,462.835H523.43c11.632,20.066,20.541,41.811,26.476,64.819h370.423
			c17.883,0,32.408-14.527,32.408-32.409C952.737,477.331,938.211,462.835,920.329,462.835z M920.329,268.374H401.767
			c-17.916,0-32.41,14.496-32.41,32.41c0,17.882,14.495,32.41,32.41,32.41h518.562c17.883,0,32.408-14.528,32.408-32.41
			C952.737,282.87,938.211,268.374,920.329,268.374z M920.329,560.066H556.172c1.33,10.634,2.231,21.396,2.231,32.409
			c0,10.983-0.901,21.776-2.231,32.41h364.156c17.883,0,32.408-14.525,32.408-32.41
			C952.737,574.562,938.211,560.066,920.329,560.066z M920.329,365.604H424.554c29.673,16.427,55.706,38.551,76.8,64.82h418.975
			c17.883,0,32.408-14.528,32.408-32.41C952.737,380.101,938.211,365.604,920.329,365.604z"/>
	</g>
</g>
</svg>
