<?xml version="1.0" encoding="utf-8"?>
<!-- Generator: Adobe Illustrator 17.0.0, SVG Export Plug-In . SVG Version: 6.00 Build 0)  -->
<!DOCTYPE svg PUBLIC "-//W3C//DTD SVG 1.1//EN" "http://www.w3.org/Graphics/SVG/1.1/DTD/svg11.dtd">
<svg version="1.1" id="图形" xmlns="http://www.w3.org/2000/svg" xmlns:xlink="http://www.w3.org/1999/xlink" x="0px" y="0px"
	 width="1000.637px" height="1000.678px" viewBox="15.167 -16.333 1000.637 1000.678"
	 enable-background="new 15.167 -16.333 1000.637 1000.678" xml:space="preserve">
<g>
	<path fill="#333333" d="M683.712,853.006h-67.399c-1.754-42.093-29.258-77.498-67.183-90.9V368.243
		c17.787-11.188,29.605-30.977,29.605-53.565H549.13h-67.291h-29.605c0,22.581,11.825,42.366,29.605,53.555v393.872
		c-37.926,13.403-65.429,48.807-67.183,90.9h-67.399c-18.532,0-33.645,15.114-33.645,33.646v33.646h403.746v-33.646
		C717.358,868.12,702.244,853.006,683.712,853.006z"/>
	<path fill="#333333" d="M914.042,583.842L800.388,282.588c-2.47-6.55-8.739-10.885-15.739-10.885
		c-7.001,0.001-13.269,4.336-15.739,10.885L655.257,583.842h-38.836c24.676,69.428,90.325,119.532,168.228,119.532
		s143.552-50.105,168.228-119.532H914.042z M691.216,583.842l93.433-247.658l93.434,247.658H691.216z"/>
	<path fill="#333333" d="M246.321,247.717c15.356,0,28.322-10.198,32.528-24.185c10.97-4.218,22.176-9.879,33.701-15.703
		c25.724-12.999,54.88-27.733,85.176-27.733c28.7,0,47.001,13.147,57.462,24.492c-0.45,2.986-0.686,6.042-0.686,9.154
		c0,33.679,27.303,60.982,60.982,60.982c33.679,0,60.982-27.303,60.982-60.982c0-3.113-0.236-6.17-0.686-9.157
		c10.45-11.322,28.759-24.489,57.463-24.489c30.298,0,59.454,14.735,85.18,27.735c11.524,5.823,22.729,11.483,33.697,15.7
		c4.206,13.987,17.173,24.186,32.528,24.186c18.761,0,33.975-15.215,33.975-33.975c0-18.761-15.215-33.975-33.975-33.975
		c-9.723,0-18.47,4.109-24.664,10.658c-8.272-3.478-17.205-7.983-26.387-12.623c-29.079-14.695-62.039-31.35-100.354-31.35
		c-33.309,0-56.895,12.525-72.723,26.178c-6.888-7.542-15.651-13.332-25.544-16.669c12.16-6.837,20.396-19.845,20.396-34.777
		c0-22.044-39.887-73.468-39.887-73.468s-39.887,51.424-39.887,73.468c0,14.934,8.222,27.944,20.386,34.781
		c-9.889,3.337-18.648,9.126-25.534,16.665c-15.828-13.652-39.414-26.177-72.724-26.177c-38.315,0-71.273,16.655-100.353,31.349
		c-9.182,4.64-18.116,9.146-26.388,12.624c-6.194-6.549-14.941-10.658-24.664-10.658c-18.761,0-33.975,15.215-33.975,33.975
		C212.346,232.502,227.56,247.717,246.321,247.717z"/>
	<path fill="#333333" d="M414.548,583.842h-38.836L262.06,282.588c-2.47-6.55-8.739-10.885-15.739-10.885
		c-7.001,0-13.269,4.336-15.739,10.885L116.929,583.842H78.093c24.676,69.428,90.325,119.532,168.227,119.532
		C324.224,703.375,389.873,653.27,414.548,583.842z M152.888,583.842l93.433-247.657l93.432,247.657H152.888z"/>
</g>
</svg>
