<?xml version="1.0" encoding="utf-8"?>
<!-- Generator: Adobe Illustrator 16.0.0, SVG Export Plug-In . SVG Version: 6.00 Build 0)  -->
<!DOCTYPE svg PUBLIC "-//W3C//DTD SVG 1.1//EN" "http://www.w3.org/Graphics/SVG/1.1/DTD/svg11.dtd">
<svg version="1.1" id="图形" xmlns="http://www.w3.org/2000/svg" xmlns:xlink="http://www.w3.org/1999/xlink" x="0px" y="0px"
	 width="1000.637px" height="1000.678px" viewBox="15.167 -16.333 1000.637 1000.678"
	 enable-background="new 15.167 -16.333 1000.637 1000.678" xml:space="preserve">
<g>
	<path fill="#333333" d="M851.718,209.721H447.85c0-55.747-45.225-100.973-100.967-100.973H178.604
		c-55.743,0-100.968,45.226-100.968,100.973v100.967v33.655v437.523c0,55.744,45.225,100.969,100.968,100.969h673.115
		c55.743,0,100.969-45.225,100.969-100.969V310.688C952.687,254.946,907.461,209.721,851.718,209.721z M885.375,781.866
		c0,18.572-15.085,33.658-33.656,33.658H178.604c-18.57,0-33.656-15.086-33.656-33.658V310.688c0-18.57,15.086-33.656,33.656-33.656
		h673.115c18.571,0,33.656,15.086,33.656,33.656V781.866z"/>
	<path fill="#333333" d="M545.933,372.411c-23.491-23.5-28.192-15.529-28.192,9.22v87.048H376.257
		c-24.732,0-44.724,20-44.724,44.699v59.555c0,24.717,19.992,44.717,44.724,44.717h141.484v86.111
		c0,27.428,4.701,32.867,28.192,9.398L673.711,585.29c42.761-42.758,42.891-42.266,0-85.125L545.933,372.411z"/>
</g>
</svg>
