<?xml version="1.0" encoding="utf-8"?>
<!-- Generator: Adobe Illustrator 17.0.0, SVG Export Plug-In . SVG Version: 6.00 Build 0)  -->
<!DOCTYPE svg PUBLIC "-//W3C//DTD SVG 1.1//EN" "http://www.w3.org/Graphics/SVG/1.1/DTD/svg11.dtd">
<svg version="1.1" id="图形" xmlns="http://www.w3.org/2000/svg" xmlns:xlink="http://www.w3.org/1999/xlink" x="0px" y="0px"
	 width="1000.637px" height="1000.678px" viewBox="15.167 -16.333 1000.637 1000.678"
	 enable-background="new 15.167 -16.333 1000.637 1000.678" xml:space="preserve">
<g>
	<path fill="#333333" d="M328.507,318.749c0.009-0.304,0.023-0.606,0.023-0.912c0-11.836-6.449-22.199-16.039-27.695l-3.809-95.188
		c-0.296-3.879-3.745-10.78-11.927-10.78c-8.411,0-11.796,6.901-11.958,10.78l-4.614,95.684c-9.179,5.611-15.331,15.715-15.331,27.2
		c0,17.546,14.357,31.872,31.936,31.872c1.059,0,2.105-0.055,3.136-0.156l56.598,49.571c2.759,2.466,10.777,3.977,18.465-3.681
		c7.688-7.688,5.982-15.571,3.55-18.367L328.507,318.749z"/>
	<path fill="#333333" d="M927.117,502.231L851.94,401.95c-15.376-18.532-25.759-33.646-50.468-33.646H650.067
		c-18.532,0-33.646,15.114-33.646,33.646v336.455c0,18.465,15.016,33.481,33.447,33.612c8.28-57.958,57.763-102.807,117.958-102.807
		c60.225,0,109.708,44.88,117.958,102.841h33.447c18.532,0,33.646-15.114,33.646-33.646c0,0,0-136.355,0-168.228
		S927.117,502.231,927.117,502.231z M717.358,570.178V435.596h82.307c5.42,0,12.947,7.95,12.947,7.95l70.837,98.046
		c6.275,9.232,13.078,20.174,13.078,28.585H717.358z"/>
	<path fill="#333333" d="M364.08,711.068c-42.975,0-77.805,34.83-77.805,77.805c0,42.975,34.83,77.805,77.805,77.805
		s77.805-34.83,77.805-77.805C441.885,745.898,407.056,711.068,364.08,711.068z"/>
	<path fill="#333333" d="M767.826,711.068c-42.975,0-77.805,34.83-77.805,77.805c0,42.975,34.83,77.805,77.805,77.805
		s77.805-34.83,77.805-77.805C845.631,745.898,810.802,711.068,767.826,711.068z"/>
	<path fill="#333333" d="M549.13,301.014h-36.857c-8.592-111.508-101.871-199.309-215.484-199.309
		c-119.468,0-216.132,96.761-216.132,216.132c0,60.421,24.775,115.038,64.727,154.258v266.311c0,18.532,15.114,33.646,33.646,33.646
		h67.092c8.25-57.961,57.732-102.841,117.958-102.841s109.708,44.88,117.958,102.841h67.092c18.532,0,33.646-15.114,33.646-33.646
		V334.659C582.776,316.128,567.662,301.014,549.13,301.014z M296.789,486.821c-93.151,0-169.082-75.803-169.082-168.985
		s75.931-168.984,169.082-168.984c93.181,0,169.082,75.803,169.082,168.984S389.97,486.821,296.789,486.821z"/>
</g>
</svg>
