<?xml version="1.0" encoding="utf-8"?>
<!-- Generator: Adobe Illustrator 17.0.0, SVG Export Plug-In . SVG Version: 6.00 Build 0)  -->
<!DOCTYPE svg PUBLIC "-//W3C//DTD SVG 1.1//EN" "http://www.w3.org/Graphics/SVG/1.1/DTD/svg11.dtd">
<svg version="1.1" id="图形" xmlns="http://www.w3.org/2000/svg" xmlns:xlink="http://www.w3.org/1999/xlink" x="0px" y="0px"
	 width="1000.637px" height="1000.678px" viewBox="15.167 -16.333 1000.637 1000.678"
	 enable-background="new 15.167 -16.333 1000.637 1000.678" xml:space="preserve">
<g>
	<polygon fill="#272636" points="515.16,205.326 435.607,523.535 316.28,523.535 515.16,722.416 714.041,523.535 594.712,523.535 	
		"/>
	<path fill="#272636" d="M515.16,46.222c-241.647,0-437.537,195.85-437.537,437.537c0,241.607,195.89,437.537,437.537,437.537
		c241.646,0,437.537-195.93,437.537-437.537C952.697,242.072,756.806,46.222,515.16,46.222z M515.16,841.745
		c-197.714,0-357.984-160.272-357.984-357.986c0-197.715,160.27-357.984,357.984-357.984s357.986,160.269,357.986,357.984
		C873.146,681.473,712.874,841.745,515.16,841.745z"/>
</g>
</svg>
