<?xml version="1.0" encoding="utf-8"?>
<!-- Generator: Adobe Illustrator 17.0.0, SVG Export Plug-In . SVG Version: 6.00 Build 0)  -->
<!DOCTYPE svg PUBLIC "-//W3C//DTD SVG 1.1//EN" "http://www.w3.org/Graphics/SVG/1.1/DTD/svg11.dtd">
<svg version="1.1" id="图形" xmlns="http://www.w3.org/2000/svg" xmlns:xlink="http://www.w3.org/1999/xlink" x="0px" y="0px"
	 width="1000.637px" height="1000.678px" viewBox="15.167 -16.333 1000.637 1000.678"
	 enable-background="new 15.167 -16.333 1000.637 1000.678" xml:space="preserve">
<g>
	<path fill="#333333" d="M179.37,724.205c-18.671,0-33.899-15.227-33.899-33.899V249.627c0-18.737,15.228-33.899,33.899-33.899
		h644.12c18.671,0,33.899,15.162,33.899,33.899v230.006c24.694,10.328,47.5,24.233,67.799,41.114v-271.12
		c0-56.145-45.589-101.695-101.697-101.695H450.573c0-56.145-45.566-101.695-101.695-101.695H179.386
		c-56.127,0-101.695,45.551-101.695,101.695v100.422c-0.005,0.425-0.016,0.848-0.016,1.273v440.679
		c0,56.146,45.551,101.697,101.695,101.697h320.546c-5.728-21.718-9.088-44.36-9.088-67.798H179.37z"/>
	<path fill="#333333" d="M755.659,527.171c-108.812,0-197.067,88.188-197.067,197.034c0,108.846,88.256,196.968,197.067,196.968
		s197.069-88.122,197.069-196.968C952.728,615.359,864.47,527.171,755.659,527.171z M857.355,758.104h-67.798V825.9h-67.798v-67.796
		h-67.797v-67.798h67.797V622.51h67.798v67.796h67.798V758.104z"/>
</g>
</svg>
