<?xml version="1.0" encoding="utf-8"?>
<!-- Generator: Adobe Illustrator 16.0.0, SVG Export Plug-In . SVG Version: 6.00 Build 0)  -->
<!DOCTYPE svg PUBLIC "-//W3C//DTD SVG 1.1//EN" "http://www.w3.org/Graphics/SVG/1.1/DTD/svg11.dtd">
<svg version="1.1" id="图形" xmlns="http://www.w3.org/2000/svg" xmlns:xlink="http://www.w3.org/1999/xlink" x="0px" y="0px"
	 width="1000.637px" height="1000.678px" viewBox="15.167 -16.333 1000.637 1000.678"
	 enable-background="new 15.167 -16.333 1000.637 1000.678" xml:space="preserve">
<path fill-rule="evenodd" clip-rule="evenodd" d="M563.773,428.525c0,0,3.141-382.275,0-382.275
	c223.739,0,388.921,162.361,388.921,382.275C952.694,429.721,563.773,428.525,563.773,428.525z M920.305,506.972
	c0,228.716-188.638,414.105-421.326,414.105c-232.69,0-421.328-185.39-421.328-414.105c0-228.715,188.638-414.149,421.328-414.149
	c10.938,0,21.683,0.769,32.407,1.624v365.91h386.397C919.387,475.012,920.305,491.888,920.305,506.972z M844.099,494.238h-345.12
	V168.449c-214.809,0-351.208,127.409-351.208,338.523c0,211.111,136.399,342.549,351.208,342.549
	c214.787,0,345.167-131.438,345.167-342.549C844.146,505.862,844.099,494.238,844.099,494.238z"/>
</svg>
