<?xml version="1.0" encoding="utf-8"?>
<!-- Generator: Adobe Illustrator 16.0.0, SVG Export Plug-In . SVG Version: 6.00 Build 0)  -->
<!DOCTYPE svg PUBLIC "-//W3C//DTD SVG 1.1//EN" "http://www.w3.org/Graphics/SVG/1.1/DTD/svg11.dtd">
<svg version="1.1" id="图形" xmlns="http://www.w3.org/2000/svg" xmlns:xlink="http://www.w3.org/1999/xlink" x="0px" y="0px"
	 width="1000.637px" height="1000.678px" viewBox="15.167 -16.333 1000.637 1000.678"
	 enable-background="new 15.167 -16.333 1000.637 1000.678" xml:space="preserve">
<path fill-rule="evenodd" clip-rule="evenodd" d="M554.972,841.718h-79.547c-61.447,0-119.359-14.371-171.329-39.23L117.462,921.266
	l25.869-258.685c-41.405-62.768-65.642-137.809-65.642-218.6c0-219.687,178.089-397.735,397.736-397.735h79.547
	c219.65,0,397.737,178.048,397.737,397.735C952.709,663.59,774.623,841.718,554.972,841.718z M554.972,125.794h-79.547
	c-175.757,0-318.189,142.468-318.189,318.187c0,175.718,142.433,318.189,318.189,318.189h79.547
	c175.76,0,318.189-142.471,318.189-318.189C873.162,268.262,730.732,125.794,554.972,125.794z M674.292,483.755
	c-21.943,0-39.772-17.789-39.772-39.774c0-21.984,17.829-39.773,39.772-39.773c21.948,0,39.775,17.789,39.775,39.773
	C714.068,465.966,696.241,483.755,674.292,483.755z M515.2,483.755c-21.945,0-39.774-17.789-39.774-39.774
	c0-21.984,17.829-39.773,39.774-39.773s39.772,17.789,39.772,39.773C554.972,465.966,537.145,483.755,515.2,483.755z
	 M356.104,483.755c-21.945,0-39.774-17.789-39.774-39.774c0-21.984,17.829-39.773,39.774-39.773
	c21.946,0,39.774,17.789,39.774,39.773C395.878,465.966,378.05,483.755,356.104,483.755z"/>
</svg>
