<?xml version="1.0" encoding="utf-8"?>
<!-- Generator: Adobe Illustrator 17.0.0, SVG Export Plug-In . SVG Version: 6.00 Build 0)  -->
<!DOCTYPE svg PUBLIC "-//W3C//DTD SVG 1.1//EN" "http://www.w3.org/Graphics/SVG/1.1/DTD/svg11.dtd">
<svg version="1.1" id="图形" xmlns="http://www.w3.org/2000/svg" xmlns:xlink="http://www.w3.org/1999/xlink" x="0px" y="0px"
	 width="1000.637px" height="1000.678px" viewBox="15.167 -16.333 1000.637 1000.678"
	 enable-background="new 15.167 -16.333 1000.637 1000.678" xml:space="preserve">
<g>
	<path fill="#272636" d="M515.168,46.242c-241.661,0-437.52,195.902-437.52,437.521c0,241.619,195.859,437.522,437.52,437.522
		c241.62,0,437.521-195.903,437.521-437.522C952.689,242.144,756.789,46.242,515.168,46.242z M515.168,841.726
		c-197.695,0-357.963-160.267-357.963-357.962S317.473,125.8,515.168,125.8c197.697,0,357.965,160.268,357.965,357.963
		S712.866,841.726,515.168,841.726z"/>
	<path fill="#272636" d="M561.143,309.737l9.955-28.583l27.346-14.912l36.061-26.106l0.812-6.537
		c-36.487-17.561-76.907-28.242-120.148-28.242c-76.608,0-145.953,30.977-196.285,81.052l-2.607,9.656l1.239,17.39l21.149,16.194
		l7.477,16.15l1.239,22.389l-1.239,26.106l18.629,1.196l19.91,7.477c0,0,16.151,4.957,21.107,9.956
		c4.956,4.956,32.301,22.388,36.062,28.583c3.717,6.195,22.345,6.195,22.345,6.195c14.912-12.391,0-29.823,0-29.823L458,402.967
		l-4.956-14.911l2.478-17.39l9.912-16.193l1.24-19.868l24.866-9.956h53.452L561.143,309.737z"/>
	<path fill="#272636" d="M742.645,549.648l-16.149-19.91h-23.629l-21.148-7.435l-16.151-26.107l-26.105-21.15l-11.194-23.584
		h-27.346l-38.539-7.478l-11.152,3.717l-16.192,18.672l-13.631,9.954l-6.238,47.213c0,0,0,50.974,0,55.93
		c0,4.956,7.436,14.911,13.673,24.867c6.196,9.955,9.956,21.107,14.912,27.345c4.999,6.195,11.194,6.195,19.867,9.913
		c8.718,3.76,17.433,12.433,21.15,18.671c3.717,6.195,6.195,29.823,6.195,29.823l4.999,41.017v17.775
		c14.1-4.316,27.772-9.401,40.847-15.767l17.562-13.203l29.823-18.629l10.34-6.195c23.414-19.91,43.409-43.281,59.217-69.858
		l2.563-14.698v-24.866l-3.759-14.911L742.645,549.648z"/>
</g>
</svg>
