<?xml version="1.0" encoding="utf-8"?>
<!-- Generator: Adobe Illustrator 16.0.0, SVG Export Plug-In . SVG Version: 6.00 Build 0)  -->
<!DOCTYPE svg PUBLIC "-//W3C//DTD SVG 1.1//EN" "http://www.w3.org/Graphics/SVG/1.1/DTD/svg11.dtd">
<svg version="1.1" id="图形" xmlns="http://www.w3.org/2000/svg" xmlns:xlink="http://www.w3.org/1999/xlink" x="0px" y="0px"
	 width="1000.637px" height="1000.678px" viewBox="15.167 -16.333 1000.637 1000.678"
	 enable-background="new 15.167 -16.333 1000.637 1000.678" xml:space="preserve">
<g>
	<path fill="#333333" d="M212.305,719.333c-37.155,0-67.313-30.171-67.313-67.309V180.847c0-37.156,30.158-67.314,67.313-67.314
		l211.663-0.131c5.142,1.316,9.055,3.862,12.211,7.132c14.542-4.108,29.545-7.001,45.371-7.001h35.825
		c-43.368-43.154-72.815-67.31-103.136-67.31H212.305c-74.214,0-134.623,60.409-134.623,134.624v471.178
		c0,74.212,60.409,134.622,134.623,134.622h100.968v-67.313H212.305z"/>
	<path fill="#333333" d="M860.703,288.778c-8.218-8.085-16.633-16.284-24.913-24.63c-8.349-8.283-16.567-16.697-24.651-24.947
		c-57.581-58.766-91.863-92.009-127.655-92.009H481.549c-74.214,0-134.621,60.409-134.621,134.619v504.837
		c0,74.214,60.407,134.624,134.621,134.624h336.556c74.214,0,134.624-60.41,134.624-134.624V416.433
		C952.729,380.661,919.468,346.362,860.703,288.778 M885.418,786.647c0,37.14-30.174,67.31-67.313,67.31H481.549
		c-37.155,0-67.312-30.17-67.312-67.31V281.81c0-37.156,30.157-67.309,67.312-67.309l211.663-0.131
		c24.258,6.196,23.927,36.004,23.927,65.865v68.889c0,18.537,15.12,33.655,33.657,33.655h67.31c33.594,0,67.313,0.163,67.313,33.654
		V786.647z"/>
	<path fill="#333333" d="M651.47,692.846c-19.916,0-39.373-7.263-54.129-21.989c-8.152-8.25-8.152-21.462,0-29.612
		c8.217-8.187,21.457-8.187,29.578,0c14.363,14.265,39.209,12.684,55.444-3.516l77.699-77.699
		c8.61-8.611,13.542-19.85,13.542-30.895c0-6.539-1.774-16.036-10.059-24.422c-8.938-8.939-19.159-10.383-26.293-10.022
		c-10.55,0.461-20.839,5.226-29.087,13.444l-18.406,18.368c-8.644-8.642-44.271-15.018-53.901-5.289l42.661-42.662
		c15.612-15.611,35.758-24.765,56.762-25.767c21.889-0.987,42.433,6.886,57.848,22.268c14.459,14.41,22.412,33.641,22.412,54.082
		c-0.033,22.086-9.43,44.14-25.93,60.574l-77.631,77.664C695.051,684.301,673.032,692.846,651.47,692.846"/>
	<path fill="#333333" d="M642.662,549.413c19.917-0.033,39.376,7.231,54.134,21.953c8.184,8.216,8.184,21.431,0,29.617
		c-8.22,8.183-21.429,8.183-29.614,0c-14.332-14.235-39.145-12.688-55.413,3.514l-72.107,72.211
		c-8.68,8.643-13.608,19.852-13.608,30.893c0,6.575,1.773,16.073,10.057,24.42c8.938,8.909,19.161,10.384,26.291,10.023
		c10.554-0.459,20.842-5.291,29.121-13.439l13.278-13.311c8.646,8.578,44.271,14.987,53.9,5.287l-37.563,37.602
		c-15.544,15.612-35.761,24.749-56.73,25.768c-21.923,1.021-42.463-6.901-57.941-22.283c-14.416-14.396-22.352-33.59-22.352-54.066
		c0.034-22.052,9.416-44.14,25.914-60.572l72.127-72.176C599.048,557.957,621.103,549.413,642.662,549.413"/>
</g>
</svg>
