<?xml version="1.0" encoding="utf-8"?>
<!-- Generator: Adobe Illustrator 16.0.0, SVG Export Plug-In . SVG Version: 6.00 Build 0)  -->
<!DOCTYPE svg PUBLIC "-//W3C//DTD SVG 1.1//EN" "http://www.w3.org/Graphics/SVG/1.1/DTD/svg11.dtd">
<svg version="1.1" id="图形" xmlns="http://www.w3.org/2000/svg" xmlns:xlink="http://www.w3.org/1999/xlink" x="0px" y="0px"
	 width="1000.637px" height="1000.678px" viewBox="15.167 -16.333 1000.637 1000.678"
	 enable-background="new 15.167 -16.333 1000.637 1000.678" xml:space="preserve">
<path fill="#333333" d="M940.946,343.789c-13.998-21.101-38.791-33.203-68.021-33.203h-55.068l0.002-0.001
	c0-55.758-45.21-100.935-100.936-100.935H447.761c0-55.759-45.211-100.936-100.936-100.936H178.6
	c-55.693,0-100.936,45.177-100.936,100.936v471.031c0,40.179,23.673,74.552,57.716,90.706c12.25,6.648,26.829,10.229,42.726,10.229
	h538.292c24.499,0,50.696-8.393,73.771-23.634c23.123-15.273,41.095-36.098,50.604-58.637l0.281-0.666l104.377-280.396
	C956.395,391.743,954.773,364.631,940.946,343.789z M883.129,392.855l-0.28,0.666L778.532,673.754
	c-9.362,21.307-38.779,40.573-62.134,40.573H178.105c-8.102,0-11.454-2.306-11.99-3.112c-0.516-0.778-1.302-4.629,1.752-11.868
	l0.28-0.664l104.361-280.262c9.299-21.289,38.705-40.544,62.093-40.544h538.324c8.067,0,11.412,2.305,11.948,3.112
	C885.644,382.152,885.852,386.401,883.129,392.855z"/>
</svg>
