<?xml version="1.0" encoding="utf-8"?>
<!-- Generator: Adobe Illustrator 16.0.0, SVG Export Plug-In . SVG Version: 6.00 Build 0)  -->
<!DOCTYPE svg PUBLIC "-//W3C//DTD SVG 1.1//EN" "http://www.w3.org/Graphics/SVG/1.1/DTD/svg11.dtd">
<svg version="1.1" id="图形" xmlns="http://www.w3.org/2000/svg" xmlns:xlink="http://www.w3.org/1999/xlink" x="0px" y="0px"
	 width="1000.637px" height="1000.678px" viewBox="15.167 -16.333 1000.637 1000.678"
	 enable-background="new 15.167 -16.333 1000.637 1000.678" xml:space="preserve">
<g>
	<path fill="#272636" d="M560.469,257.446h-90.523v271.57h90.523V257.446z M515.205,46.224
		c-241.644,0-437.527,195.899-437.527,437.528c0,241.632,195.883,437.532,437.527,437.532
		c241.632,0,437.531-195.899,437.531-437.532C952.736,242.123,756.836,46.224,515.205,46.224 M515.205,831.701
		c-192.165,0-347.946-155.763-347.946-347.95c0-192.183,155.781-347.946,347.946-347.946c192.187,0,347.949,155.763,347.949,347.946
		C863.154,675.939,707.391,831.701,515.205,831.701 M515.205,589.365c-41.663,0-75.432,33.77-75.432,75.438
		s33.769,75.437,75.432,75.437c41.672,0,75.437-33.769,75.437-75.437S556.876,589.365,515.205,589.365"/>
</g>
</svg>
