<?xml version="1.0" encoding="utf-8"?>
<!-- Generator: Adobe Illustrator 16.0.0, SVG Export Plug-In . SVG Version: 6.00 Build 0)  -->
<!DOCTYPE svg PUBLIC "-//W3C//DTD SVG 1.1//EN" "http://www.w3.org/Graphics/SVG/1.1/DTD/svg11.dtd">
<svg version="1.1" id="图形" xmlns="http://www.w3.org/2000/svg" xmlns:xlink="http://www.w3.org/1999/xlink" x="0px" y="0px"
	 width="1000.637px" height="1000.678px" viewBox="15.167 -16.333 1000.637 1000.678"
	 enable-background="new 15.167 -16.333 1000.637 1000.678" xml:space="preserve">
<g>
	<g>
		<path d="M569.886,502.072c-30.208,0-54.692,24.012-54.692,53.666c0,29.652,24.484,53.667,54.692,53.667
			c30.21,0,54.69-24.015,54.69-53.667C624.577,526.083,600.096,502.072,569.886,502.072z M870.736,367.992c0,0,0,0-0.045,0V126.663
			c0-44.438-36.746-80.413-82.037-80.413h-560.59c-82.936,0-150.402,66.141-150.402,147.496v536.32
			c0,81.269,67.466,147.497,150.402,147.497H720.29c82.933,0,150.401-66.229,150.401-147.497v-40.249c0.045,0,0.045,0,0.045,0
			C980.031,609.318,980.031,448.489,870.736,367.992z M228.063,99.83h560.59c15.081,0,27.344,12.05,27.344,26.833v165.87
			c-8.587-2.99-17.731-4.957-27.344-4.957h-0.043v-134.08c0-14.783-12.222-26.833-27.348-26.833H187.001
			c-15.084,0-27.346,12.051-27.346,26.833v105.709c-16.833-16.92-27.303-39.994-27.303-65.459
			C132.352,141.875,175.209,99.83,228.063,99.83z M187.001,233.91v-26.747h574.262v26.747H187.001z M761.263,260.743v26.833h-533.2
			c-14.742,0-28.541-3.503-41.062-9.399v-17.434H761.263z M187.001,180.33v-26.834h574.262v26.834H187.001z M815.998,730.067
			c0,51.785-42.854,93.83-95.708,93.83H228.063c-52.854,0-95.711-42.045-95.711-93.83V307.402
			c26.021,21.109,59.349,33.84,95.711,33.84h560.59c15.081,0,27.344,11.963,27.344,26.75v53.664H569.93
			c-75.543,0-136.773,59.992-136.773,134.082c0,74.091,61.23,134.08,136.773,134.08h246.067V730.067z M850.909,636.235H569.93
			c-45.293,0-82.081-36.146-82.081-80.497c0-44.354,36.788-80.416,82.081-80.416h246.067c16.88-0.255,33.628-8.289,43.797-21.619
			c2.863-3.674,5.044-7.949,6.836-12.306c0.259-0.598,0.686-1.027,0.94-1.711c19.655,25.296,30.467,56.317,30.467,89.218
			C898.038,570.178,881.075,608.462,850.909,636.235z"/>
	</g>
</g>
</svg>
