<?xml version="1.0" encoding="utf-8"?>
<!-- Generator: Adobe Illustrator 17.0.0, SVG Export Plug-In . SVG Version: 6.00 Build 0)  -->
<!DOCTYPE svg PUBLIC "-//W3C//DTD SVG 1.1//EN" "http://www.w3.org/Graphics/SVG/1.1/DTD/svg11.dtd">
<svg version="1.1" id="图形" xmlns="http://www.w3.org/2000/svg" xmlns:xlink="http://www.w3.org/1999/xlink" x="0px" y="0px"
	 width="1000.637px" height="1000.678px" viewBox="15.167 -16.333 1000.637 1000.678"
	 enable-background="new 15.167 -16.333 1000.637 1000.678" xml:space="preserve">
<path fill="#272636" d="M934.395,223.38L797.706,117.19c-10.403-8.029-23.406-12.451-36.614-12.451H269.046
	c-13.21,0-26.213,4.422-36.624,12.459L95.735,223.385c-19.129,14.919-26.768,40.155-19.006,62.798l54.673,159.32
	c5.768,16.75,19.467,30.168,36.62,35.886c6.075,2.069,12.472,3.119,19.016,3.119c8.061,0,16.014-1.608,23.336-4.69v319.325
	c0,31.503,26.32,57.133,58.672,57.133h492.045c32.352,0,58.672-25.63,58.672-57.133V479.817c7.323,3.082,15.276,4.69,23.336,4.69
	c6.542,0,12.94-1.049,18.99-3.11c17.179-5.726,30.878-19.144,36.646-35.898l54.673-159.318
	C961.167,263.538,953.529,238.303,934.395,223.38z M515.068,210.921c-41.459,0-78.968-17.899-95.854-45.134h191.709
	C594.039,193.021,556.529,210.921,515.068,210.921z M189.076,420.988l-51.998-151.529l133.341-103.672h109.961
	c17.318,47.069,72.192,79.701,134.689,79.701c62.499,0,117.373-32.632,134.69-79.701h109.961L893.06,269.459l-51.987,151.496
	l-79.315-57.643v429.49H269.379V363.371L189.076,420.988z"/>
</svg>
