<?xml version="1.0" encoding="utf-8"?>
<!-- Generator: Adobe Illustrator 17.0.0, SVG Export Plug-In . SVG Version: 6.00 Build 0)  -->
<!DOCTYPE svg PUBLIC "-//W3C//DTD SVG 1.1//EN" "http://www.w3.org/Graphics/SVG/1.1/DTD/svg11.dtd">
<svg version="1.1" id="图形" xmlns="http://www.w3.org/2000/svg" xmlns:xlink="http://www.w3.org/1999/xlink" x="0px" y="0px"
	 width="1000.637px" height="1000.678px" viewBox="15.167 -16.333 1000.637 1000.678"
	 enable-background="new 15.167 -16.333 1000.637 1000.678" xml:space="preserve">
<g>
	<path fill="#333333" d="M789.781,684.168H179.763c-56.129,0-101.67,45.541-101.67,101.67v33.89
		c0,56.132,45.541,101.67,101.67,101.67h610.018c56.131,0,101.67-45.538,101.67-101.67v-33.89
		C891.451,729.709,845.913,684.168,789.781,684.168z M738.946,853.617c-28.065,0-50.835-22.771-50.835-50.835
		s22.77-50.835,50.835-50.835c28.064,0,50.835,22.771,50.835,50.835S767.01,853.617,738.946,853.617z"/>
	<path fill="#333333" d="M730.077,540.068c-18.27,0-36.076-2.945-52.889-8.571c-28.163,17.772-61.127,27.702-95.546,27.702
		c-64.635,0-122.685-34.947-154.589-88.531c-66.987-23.133-115.768-85.189-121.261-159.289h-24.36
		c-56.129,0-84.064,45.44-101.67,101.67l-101.67,271.98c28.396-21.513,63.377-34.751,101.67-34.751h610.018
		c38.292,0,73.273,13.237,101.67,34.751l-59.67-179.545C803.55,527.227,768.335,540.068,730.077,540.068z"/>
	<path fill="#333333" d="M865.498,169.754c-18.996-46.023-64.037-77.535-114.44-77.535c-15.015,0-29.647,2.718-43.426,7.994
		c-28.523-33.673-70.248-53.599-115.1-53.599c-74.17,0-136.382,54.717-149.498,126.58c-51.388,17.85-87.467,67.271-87.467,124.616
		c0,64.66,46.052,118.586,106.558,129.644c19.818,48.123,66.607,80.91,119.518,80.91c33.491,0,65.065-13.137,88.739-35.795
		c17.789,10.809,38.297,16.663,59.695,16.663c49.358,0,91.613-30.672,108.585-75.169c63.733-4.549,114.214-58.693,114.214-124.595
		C952.876,233.226,916.626,185.285,865.498,169.754z M829.958,346.594c-3.705,0-7.274-0.357-10.614-1.061l-37.297-7.865
		l-3.445,37.963c-2.371,26.123-23.232,45.822-48.525,45.822c-14.73,0-28.521-6.835-37.835-18.753l-32.014-40.955l-24.557,45.816
		c-10.92,20.37-31.622,33.024-54.029,33.024c-29.375,0-54.852-21.644-60.575-51.466l-5.485-28.577l-29.078,1.099
		c-0.652,0.024-1.295,0.062-1.939,0.105c-33.808-0.3-61.219-28.866-61.219-63.937c0-32.641,23.597-59.954,54.888-63.533
		l29.841-3.413l0.196-30.038c0.308-47.659,38.107-86.432,84.261-86.432c31.101,0,59.577,17.606,74.316,45.949l18.643,35.854
		l32.057-24.604c9.884-7.584,21.47-11.594,33.51-11.594c26.251,0,49.354,19.272,54.934,45.825l5.08,24.163l24.557,2.572
		c28.2,2.954,49.468,27.419,49.468,56.91C885.097,320.968,860.361,346.594,829.958,346.594z"/>
</g>
</svg>
