<?xml version="1.0" encoding="utf-8"?>
<!-- Generator: Adobe Illustrator 16.0.0, SVG Export Plug-In . SVG Version: 6.00 Build 0)  -->
<!DOCTYPE svg PUBLIC "-//W3C//DTD SVG 1.1//EN" "http://www.w3.org/Graphics/SVG/1.1/DTD/svg11.dtd">
<svg version="1.1" id="图形" xmlns="http://www.w3.org/2000/svg" xmlns:xlink="http://www.w3.org/1999/xlink" x="0px" y="0px"
	 width="1000.637px" height="1000.678px" viewBox="15.167 -16.333 1000.637 1000.678"
	 enable-background="new 15.167 -16.333 1000.637 1000.678" xml:space="preserve">
<path fill-rule="evenodd" clip-rule="evenodd" d="M775.119,303.649c-22.194,22.152-58.117,22.152-80.27,0
	c-22.156-22.197-22.156-58.12,0-80.273L855.393,62.831c22.152-22.154,58.075-22.154,80.274,0c22.194,22.152,22.194,58.076,0,80.229
	L775.119,303.649z M460.146,876.934L296.222,708.433v-6.157H186.954l0,0h-54.656c-30.151,0-54.613-24.463-54.613-54.655V319.814
	c0-30.15,24.462-54.612,54.613-54.612h54.656l0,0h109.268v-6.159L460.146,90.544c0,0,109.225-129.925,109.225,56.152
	c0,88.141,0,167.687,0,227.731v109.311v109.226c0,60.087,0,139.676,0,227.773C569.371,1006.773,460.146,876.934,460.146,876.934z
	 M460.146,538.352v-54.614v-54.655c0-0.813-0.428-1.498-0.514-2.31c-0.257-39.26-0.513-90.323-0.342-125.82
	c0.513-84.164-53.715,15.226-53.8,18.86l-54.656,54.613l0,0l0,0h-163.88v218.537h109.268l0,0h54.612l54.656,54.656
	c0,0,54.656,88.782,54.656,0V538.352z M733.294,538.352c-30.148,0-54.614-24.463-54.614-54.614
	c0-30.193,24.466-54.655,54.614-54.655h163.924c30.151,0,54.614,24.462,54.614,54.655c0,30.151-24.463,54.614-54.614,54.614H733.294
	z M775.119,663.785L935.667,824.33c22.194,22.152,22.194,58.121,0,80.317c-22.199,22.152-58.122,22.152-80.274,0L694.849,744.101
	c-22.156-22.196-22.156-58.163,0-80.315C717.001,641.633,752.924,641.633,775.119,663.785z"/>
</svg>
