<?xml version="1.0" encoding="utf-8"?>
<!-- Generator: Adobe Illustrator 16.0.0, SVG Export Plug-In . SVG Version: 6.00 Build 0)  -->
<!DOCTYPE svg PUBLIC "-//W3C//DTD SVG 1.1//EN" "http://www.w3.org/Graphics/SVG/1.1/DTD/svg11.dtd">
<svg version="1.1" id="图形" xmlns="http://www.w3.org/2000/svg" xmlns:xlink="http://www.w3.org/1999/xlink" x="0px" y="0px"
	 width="1000.637px" height="1000.678px" viewBox="15.167 -16.333 1000.637 1000.678"
	 enable-background="new 15.167 -16.333 1000.637 1000.678" xml:space="preserve">
<g>
	<path fill="#272636" d="M515.161,46.226c-241.118,0-437.246,196.255-437.246,437.528c0,241.238,196.128,437.522,437.246,437.522
		c241.084,0,437.241-196.284,437.241-437.522C952.402,242.481,756.245,46.226,515.161,46.226 M515.161,844.35
		c-198.714,0-360.37-161.759-360.37-360.596c0-198.843,161.656-360.603,360.37-360.603c198.71,0,360.365,161.759,360.365,360.603
		C875.526,682.591,713.871,844.35,515.161,844.35 M787.12,448.859v98.038l20.665,20.676l-43.023,44.767l-43.482-43.508
		l29.801-27.107v-77.39c-126.45,52.221-167.099,68.438-195.082,81.115c-28.046,12.616-48.218,12.55-76.08,2.089
		c-27.797-10.524-160.271-58.893-226.046-90.374c-43.852-21.016-46.682-34.336,0.77-52.187
		c61.928-23.509,164.331-61.231,218.577-81.847c32.099-12.987,49.108-20.096,78.599-5.231
		c52.612,21.752,172.972,66.925,232.778,91.631C836.721,432.271,801.694,439.718,787.12,448.859 M562.083,584.189
		c30.597-12.617,71.803-33.48,116.731-52.835v66.648c0,0-58.089,61.851-160.337,61.851c-110.115,0-169.557-61.851-169.557-61.851
		v-56.309c34.718,14.184,73.677,26.307,120.853,42.495C498.861,594.528,535.764,598.156,562.083,584.189"/>
</g>
</svg>
