<?xml version="1.0" encoding="utf-8"?>
<!-- Generator: Adobe Illustrator 17.0.0, SVG Export Plug-In . SVG Version: 6.00 Build 0)  -->
<!DOCTYPE svg PUBLIC "-//W3C//DTD SVG 1.1//EN" "http://www.w3.org/Graphics/SVG/1.1/DTD/svg11.dtd">
<svg version="1.1" id="图形" xmlns="http://www.w3.org/2000/svg" xmlns:xlink="http://www.w3.org/1999/xlink" x="0px" y="0px"
	 width="1000.637px" height="1000.678px" viewBox="15.167 -16.333 1000.637 1000.678"
	 enable-background="new 15.167 -16.333 1000.637 1000.678" xml:space="preserve">
<path fill="#333333" d="M849.94,387.442H540.698c0,0,0,0,0,0c0-45.185,8.743-74.352,26.729-89.169
	c16.085-13.251,40.919-16.774,67.21-20.504c59.749-8.477,141.579-20.086,141.579-165.446c0-15.029-12.184-27.212-27.213-27.212
	s-27.213,12.184-27.213,27.212c0,45.995-8.866,75.697-27.106,90.805c-16.247,13.457-41.235,17.002-67.691,20.755
	c-59.387,8.425-140.72,19.964-140.72,163.56c0,0,0,0,0,0H177.03c-55.757,0-100.937,46.213-100.937,103.17v275.12
	c0,56.96,45.179,103.17,100.937,103.17h672.91c55.757,0,100.936-46.21,100.936-103.17v-275.12
	C950.876,433.655,905.697,387.442,849.94,387.442z M681.712,490.612h67.291v68.78h-67.291V490.612z M782.649,593.781v68.78h-67.291
	v-68.78H782.649z M580.776,490.612h67.291v68.78h-67.291V490.612z M681.712,593.781v68.78h-67.291v-68.78H681.712z M479.839,490.612
	h67.291v68.78h-67.291V490.612z M580.776,593.781v68.78h-67.291v-68.78H580.776z M378.903,490.612h67.291v68.78h-67.291V490.612z
	 M479.839,593.781v68.78h-67.291v-68.78H479.839z M277.966,490.612h67.291v68.78h-67.291V490.612z M378.903,593.781v68.78h-67.291
	v-68.78H378.903z M177.03,490.612h67.291v68.78H177.03V490.612z M277.966,593.781v68.78h-67.291v-68.78H277.966z M244.321,765.731
	H177.03v-68.78h67.291V765.731z M749.003,765.731H277.966v-68.78h471.037V765.731z M849.94,765.731h-67.291v-68.78h67.291V765.731z
	 M849.94,559.391h-67.291v-68.78h67.291V559.391z"/>
</svg>
