<?xml version="1.0" encoding="utf-8"?>
<!-- Generator: Adobe Illustrator 17.0.0, SVG Export Plug-In . SVG Version: 6.00 Build 0)  -->
<!DOCTYPE svg PUBLIC "-//W3C//DTD SVG 1.1//EN" "http://www.w3.org/Graphics/SVG/1.1/DTD/svg11.dtd">
<svg version="1.1" id="图形" xmlns="http://www.w3.org/2000/svg" xmlns:xlink="http://www.w3.org/1999/xlink" x="0px" y="0px"
	 width="1000.637px" height="1000.678px" viewBox="15.167 -16.333 1000.637 1000.678"
	 enable-background="new 15.167 -16.333 1000.637 1000.678" xml:space="preserve">
<path fill="#333333" d="M951.449,345.943c-3.678-12.234-13.972-21.327-26.564-23.47l-115.467-19.652l132.821-124.453
	c9.322-8.734,12.891-21.997,9.21-34.229c-3.678-12.234-13.972-21.327-26.564-23.47L492.964,47.157
	c-9.24-1.572-18.695,0.776-26.118,6.473l-373.49,286.58c-10.203,7.827-15.048,20.786-12.485,33.387
	c2.562,12.601,12.084,22.638,24.533,25.86l129.929,33.618L93.356,542.015c-10.203,7.827-15.048,20.786-12.485,33.387
	c2.562,12.601,12.084,22.637,24.533,25.86l129.924,33.617L93.354,743.819c-10.201,7.827-15.046,20.788-12.483,33.389
	c2.562,12.599,12.084,22.635,24.533,25.858l452.942,117.194c2.788,0.72,5.616,1.073,8.424,1.073c8.44,0,16.691-3.18,23-9.092
	l352.469-330.262c9.322-8.734,12.891-21.997,9.21-34.231c-3.678-12.232-13.972-21.327-26.566-23.468l-115.47-19.648l132.826-124.458
	C951.561,371.438,955.13,358.175,951.449,345.943z M846.796,579.226L557.28,850.5l-368.272-95.287l128.959-98.953l240.38,62.196
	c2.786,0.721,5.616,1.073,8.424,1.073c8.44,0,16.689-3.18,23-9.092l158.013-148.059L846.796,579.226z M557.28,648.696
	l-368.272-95.287l128.961-98.952l240.377,62.195c2.786,0.72,5.616,1.073,8.424,1.073c8.44,0,16.689-3.18,23-9.092l158.019-148.064
	l99.008,16.851L557.28,648.696z"/>
</svg>
