<?xml version="1.0" encoding="utf-8"?>
<!-- Generator: Adobe Illustrator 16.0.0, SVG Export Plug-In . SVG Version: 6.00 Build 0)  -->
<!DOCTYPE svg PUBLIC "-//W3C//DTD SVG 1.1//EN" "http://www.w3.org/Graphics/SVG/1.1/DTD/svg11.dtd">
<svg version="1.1" id="图形" xmlns="http://www.w3.org/2000/svg" xmlns:xlink="http://www.w3.org/1999/xlink" x="0px" y="0px"
	 width="1000.637px" height="1000.678px" viewBox="15.167 -16.333 1000.637 1000.678"
	 enable-background="new 15.167 -16.333 1000.637 1000.678" xml:space="preserve">
<g>
	<g>
		<path fill-rule="evenodd" clip-rule="evenodd" fill="#272636" d="M610.736,266.793l-83.972,180.748h-19.51l-83.972-180.748
			H296.093l83.973,180.748h-46.516v73.547h108.398v72.008H333.549v73.633h108.398v72.861h146.236v-72.861h110.32v-73.633h-110.32
			v-72.008h110.32v-73.547h-48.565l83.972-180.748H610.736z M514.937,46.24c-241.48,0-437.262,195.867-437.262,437.52
			c0,241.651,195.782,437.52,437.262,437.52c241.524,0,437.264-195.868,437.264-437.52C952.201,242.107,756.461,46.24,514.937,46.24
			z M510.966,842.863c-198.173,0-358.805-160.674-358.805-358.933s160.632-358.934,358.805-358.934
			c198.173,0,358.805,160.675,358.805,358.934S709.139,842.863,510.966,842.863z"/>
	</g>
</g>
</svg>
