<?xml version="1.0" encoding="utf-8"?>
<!-- Generator: Adobe Illustrator 17.0.0, SVG Export Plug-In . SVG Version: 6.00 Build 0)  -->
<!DOCTYPE svg PUBLIC "-//W3C//DTD SVG 1.1//EN" "http://www.w3.org/Graphics/SVG/1.1/DTD/svg11.dtd">
<svg version="1.1" id="图形" xmlns="http://www.w3.org/2000/svg" xmlns:xlink="http://www.w3.org/1999/xlink" x="0px" y="0px"
	 width="1000.637px" height="1000.678px" viewBox="15.167 -16.333 1000.637 1000.678"
	 enable-background="new 15.167 -16.333 1000.637 1000.678" xml:space="preserve">
<g>
	<path fill="#333333" d="M817.11,179.203H209.86c-55.907,0-101.208,45.301-101.208,101.208v640.986h809.666V280.411
		C918.318,224.504,873.017,179.203,817.11,179.203z M850.846,853.925H580.957V651.509H446.013v202.417H176.124V280.411
		c0-18.616,15.12-33.736,33.736-33.736h607.25c18.616,0,33.736,15.121,33.736,33.736V853.925z"/>
	<rect x="446.013" y="482.828" fill="#333333" width="134.944" height="101.208"/>
	<rect x="648.429" y="482.828" fill="#333333" width="134.944" height="101.208"/>
	<rect x="243.596" y="482.828" fill="#333333" width="134.944" height="101.208"/>
	<rect x="446.013" y="314.148" fill="#333333" width="134.944" height="101.208"/>
	<rect x="648.429" y="314.148" fill="#333333" width="134.944" height="101.208"/>
	<rect x="243.596" y="314.148" fill="#333333" width="134.944" height="101.208"/>
	<rect x="648.429" y="651.509" fill="#333333" width="134.944" height="101.208"/>
	<rect x="243.596" y="651.509" fill="#333333" width="134.944" height="101.208"/>
	<path fill="#333333" d="M476.159,130.08l-6.919,40.328c-0.364,2.075,0.493,4.183,2.173,5.401c1.714,1.252,3.988,1.383,5.833,0.428
		l36.239-19.041l36.239,19.041c0.793,0.428,1.714,0.628,2.571,0.628c1.154,0,2.274-0.331,3.262-1.056
		c1.68-1.218,2.537-3.326,2.173-5.401l-6.919-40.328l29.357-28.595c1.481-1.484,2.007-3.691,1.383-5.701
		c-0.661-1.974-2.372-3.424-4.48-3.721l-40.524-5.897l-18.12-36.735c-1.845-3.755-8.006-3.755-9.885,0l-18.12,36.735l-40.524,5.897
		c-2.109,0.297-3.819,1.748-4.48,3.721c-0.624,2.011-0.098,4.217,1.383,5.701L476.159,130.08z"/>
	<path fill="#333333" d="M644.84,130.08l-6.919,40.328c-0.364,2.075,0.493,4.183,2.173,5.401c1.714,1.252,3.988,1.383,5.833,0.428
		l36.239-19.041l36.239,19.041c0.793,0.428,1.714,0.628,2.571,0.628c1.154,0,2.274-0.331,3.262-1.056
		c1.68-1.218,2.537-3.326,2.173-5.401l-6.919-40.328l29.357-28.595c1.481-1.484,2.007-3.691,1.383-5.701
		c-0.661-1.974-2.372-3.424-4.48-3.721l-40.524-5.897l-18.12-36.735c-1.845-3.755-8.006-3.755-9.885,0l-18.12,36.735l-40.524,5.897
		c-2.109,0.297-3.819,1.748-4.48,3.721c-0.624,2.011-0.098,4.217,1.383,5.701L644.84,130.08z"/>
	<path fill="#333333" d="M307.479,130.08l-6.919,40.328c-0.364,2.075,0.493,4.183,2.173,5.401c1.714,1.252,3.988,1.383,5.833,0.428
		l36.239-19.041l36.239,19.041c0.793,0.428,1.714,0.628,2.571,0.628c1.154,0,2.274-0.331,3.262-1.056
		c1.68-1.218,2.537-3.326,2.173-5.401l-6.919-40.328l29.357-28.595c1.481-1.484,2.007-3.691,1.383-5.701
		c-0.661-1.974-2.372-3.424-4.48-3.721l-40.524-5.897l-18.12-36.735c-1.845-3.755-8.006-3.755-9.885,0l-18.12,36.735l-40.524,5.897
		c-2.109,0.297-3.819,1.748-4.48,3.721c-0.624,2.011-0.098,4.217,1.383,5.701L307.479,130.08z"/>
</g>
</svg>
