<?xml version="1.0" encoding="utf-8"?>
<!-- Generator: Adobe Illustrator 16.0.0, SVG Export Plug-In . SVG Version: 6.00 Build 0)  -->
<!DOCTYPE svg PUBLIC "-//W3C//DTD SVG 1.1//EN" "http://www.w3.org/Graphics/SVG/1.1/DTD/svg11.dtd">
<svg version="1.1" id="图形" xmlns="http://www.w3.org/2000/svg" xmlns:xlink="http://www.w3.org/1999/xlink" x="0px" y="0px"
	 width="1000.637px" height="1000.678px" viewBox="15.167 -16.333 1000.637 1000.678"
	 enable-background="new 15.167 -16.333 1000.637 1000.678" xml:space="preserve">
<path fill="#272636" d="M502.997,921.288c-234.879,0-425.304-61.577-425.304-137.56c0-60.54,121.139-111.837,289.192-130.214
	l4.46,50.474c-100.166,14.726-179.209,44.848-179.209,79.74c0,49.403,158.179,89.413,310.861,89.413
	c152.683,0,310.867-40.01,310.867-89.413c0-35.283-80.907-65.699-182.76-80.244l4.462-50.397
	c169.916,18.014,292.74,69.671,292.74,130.642C928.306,859.711,737.88,921.288,502.997,921.288 M556.483,816.615h-53.878h-1.522
	h-55.03l-23.304-275.152h-86.371v-218.56c0-60.216,151.358-54.197,164.9-53.552c13.632-0.646,166.027-6.664,166.027,53.552v218.56
	h-87.498L556.483,816.615z M500.312,229.659c-50.638,0-91.711-41.054-91.711-91.669c0-50.654,41.073-91.745,91.711-91.745
	c50.654,0,91.712,41.091,91.712,91.745C592.024,188.605,550.966,229.659,500.312,229.659"/>
</svg>
