<?xml version="1.0" encoding="utf-8"?>
<!-- Generator: Adobe Illustrator 17.0.0, SVG Export Plug-In . SVG Version: 6.00 Build 0)  -->
<!DOCTYPE svg PUBLIC "-//W3C//DTD SVG 1.1//EN" "http://www.w3.org/Graphics/SVG/1.1/DTD/svg11.dtd">
<svg version="1.1" id="图形" xmlns="http://www.w3.org/2000/svg" xmlns:xlink="http://www.w3.org/1999/xlink" x="0px" y="0px"
	 width="1000.637px" height="1000.678px" viewBox="15.167 -16.333 1000.637 1000.678"
	 enable-background="new 15.167 -16.333 1000.637 1000.678" xml:space="preserve">
<g>
	<path fill="#272636" d="M515.483,46.484c-241.637,0-437.518,195.886-437.518,437.518c0,241.637,195.881,437.518,437.518,437.518
		c241.633,0,437.523-195.881,437.523-437.518C953.005,242.369,757.115,46.484,515.483,46.484z M515.483,841.971
		c-197.701,0-357.973-160.267-357.973-357.969s160.272-357.969,357.973-357.969s357.973,160.267,357.973,357.969
		S713.184,841.971,515.483,841.971z"/>
	<path fill="#272636" d="M561.47,309.988l9.949-28.587l27.341-14.915l36.043-26.102l0.818-6.536
		c-36.498-17.579-76.911-28.268-120.138-28.268c-76.614,0-145.952,31.003-196.293,81.072l-2.581,9.665l1.247,17.4l21.128,16.162
		l7.46,16.158l1.243,22.375l-1.243,26.102l18.647,1.238l19.885,7.46c0,0,16.158,4.97,21.128,9.945
		c4.97,4.97,32.315,22.375,36.047,28.587c3.728,6.213,22.375,6.213,22.375,6.213c14.911-12.426,0-29.83,0-29.83l-6.217-14.915
		l-4.97-14.915l2.481-17.4l9.949-16.162l1.238-19.885l24.864-9.945h53.443L561.47,309.988z"/>
	<path fill="#272636" d="M742.944,549.879l-16.158-19.89h-23.617l-21.132-7.455l-16.158-26.102L639.782,475.3l-11.192-23.613
		h-27.345l-38.532-7.46l-11.187,3.728l-16.158,18.647l-13.668,9.945l-6.217,47.23c0,0,0,50.962,0,55.932
		c0,4.975,7.455,14.915,13.672,24.86c6.213,9.945,9.94,21.128,14.919,27.345c4.97,6.217,11.179,6.217,19.885,9.94
		c8.698,3.732,17.4,12.43,21.128,18.647c3.732,6.213,6.213,29.83,6.213,29.83l4.975,41.017v17.759
		c14.119-4.31,27.769-9.367,40.838-15.759l17.579-13.182l29.83-18.647l10.312-6.187c23.438-19.911,43.428-43.284,59.222-69.863
		l2.56-14.688v-24.86l-3.732-14.915L742.944,549.879z"/>
</g>
</svg>
