<?xml version="1.0" encoding="utf-8"?>
<!-- Generator: Adobe Illustrator 17.0.0, SVG Export Plug-In . SVG Version: 6.00 Build 0)  -->
<!DOCTYPE svg PUBLIC "-//W3C//DTD SVG 1.1//EN" "http://www.w3.org/Graphics/SVG/1.1/DTD/svg11.dtd">
<svg version="1.1" id="图形" xmlns="http://www.w3.org/2000/svg" xmlns:xlink="http://www.w3.org/1999/xlink" x="0px" y="0px"
	 width="1000.637px" height="1000.678px" viewBox="15.167 -16.333 1000.637 1000.678"
	 enable-background="new 15.167 -16.333 1000.637 1000.678" xml:space="preserve">
<path fill="#333333" d="M522.727,811.21c-5.201,0-9.928-0.661-14.082-1.642c-25.461-6.029-42.14-26.196-45.776-55.332
	c-2.247-18.002,1.043-34.107,1.426-35.884c0.411-1.91,1.044-3.765,1.888-5.528l49.586-103.584
	c5.955-12.441,20.868-17.696,33.309-11.743c12.441,5.956,17.698,20.868,11.743,33.309l-48.081,100.44
	c-0.511,3.626-1.2,10.659-0.2,17.616c1.534,10.664,5.184,11.528,7.599,12.1c12.522,2.951,31.143-18.225,38.687-30.677l44.996-87.823
	c6.289-12.276,21.338-17.128,33.614-10.839c12.275,6.29,17.128,21.339,10.839,33.614l-45.366,88.547
	c-0.206,0.403-0.424,0.8-0.652,1.192c-0.941,1.614-9.599,16.164-23.635,29.911C557.676,805.402,538.133,811.209,522.727,811.21z"/>
<path fill="#333333" d="M850.719,171.525H448.805c-43.567,0-68.804,26.398-83.093,52.451c-1.546-1.171-3.207-2.233-4.991-3.151
	c-17.972-9.245-42.622-18.225-73.963-5.496c-19.77,8.028-38.969,22.725-72.004,50.638c-0.246,0.208-0.489,0.42-0.73,0.635
	L91.273,376.484c-7.182,6.429-11.287,15.612-11.287,25.252v318.421c0,18.718,15.173,33.891,33.891,33.891h153.595
	c42.431,0,76.797-5.332,106.093-16.605c1.381,7.824,4.174,14.545,8.425,20.213c3.036,4.047,12.273,16.361,38.432,17.813
	c1.925,0.105,3.816,0.155,5.675,0.155c58.578-0.001,84.456-50.478,85.561-52.693c5.305-10.633,0.986-23.552-9.647-28.856
	c-10.631-5.302-23.551-0.986-28.856,9.647c-0.036,0.072-4.109,7.685-12.176,15.016c-10.917,9.92-23.778,14.552-38.193,13.766
	c-3.977-0.221-5.752-0.687-6.469-0.954c-0.448-1.263-1.635-6.038,0.363-17.397c20.08-14.45,35.811-31.368,51.145-47.864
	c11.514-12.386,23.419-25.194,37.612-37.551c0.208-0.181,0.413-0.365,0.618-0.55l11.857-10.843h97.94l-28.992,61.29
	c-0.819,1.732-1.436,3.552-1.839,5.424c-0.383,1.777-3.672,17.882-1.426,35.885c3.636,29.135,20.315,49.302,45.776,55.331
	c4.867,1.149,9.595,1.67,14.171,1.67c23.461-0.001,42.866-13.677,55.806-26.351c14.036-13.747,22.694-28.298,23.635-29.911
	c0.228-0.392,0.446-0.789,0.652-1.192l45.366-88.547c2.232-4.356,3.054-9.06,2.645-13.599h79.073
	c55.474,0,100.479-46.081,100.479-102.881V377.287V274.406C951.198,217.609,906.193,171.525,850.719,171.525z M553.504,481.792
	c-5.694,12.015-17.737,26.676-36.814,44.816l-56.081,51.286c-16.746,14.615-30.387,29.289-42.43,42.243
	c-18.819,20.246-33.685,36.237-54.706,47.531c-23.611,12.687-54.117,18.596-96.001,18.596H147.768V416.884l111.1-99.45
	c21.214-17.92,41.229-34.362,53.394-39.303c4.069-1.653,6.525-2.653,17.455,2.969c5.958,3.065,12.4,4.183,18.61,3.605v92.582v93.514
	l-37.484,20.387c-16.443,8.943-22.523,29.522-13.58,45.965c8.943,16.442,29.52,22.523,45.965,13.58l120.266-65.411
	c19.985-10.928,45.577-24.027,66.272-28.35c18.226-3.809,21.824,1.046,23.539,3.364C556.763,465.01,559.164,469.851,553.504,481.792
	z M679.521,696.053c-7.23,12.09-26.069,33.578-38.656,30.615c-2.415-0.572-6.065-1.437-7.599-12.1
	c-1.005-6.992-0.304-14.059,0.206-17.669l31.9-67.436c1.854-3.919,2.597-8.076,2.36-12.118h52.115L679.521,696.053z
	 M884.212,514.462c0,18.889-15.012,34.294-33.493,34.294H589.245c11.409-13.35,19.745-25.771,25.51-37.935
	c7.044-14.863,10.363-29.667,9.863-44c-0.584-16.751-6.242-32.495-16.83-46.809c-14.216-19.194-41.693-39.874-91.884-29.389
	c-29.415,6.146-60.84,22.055-84.862,35.192l-15.729,8.555v-57.082h468.899V514.462z M415.313,274.406
	c0-18.889,15.011-34.294,33.493-34.294h401.914c18.481,0,33.493,15.405,33.493,34.294H415.313z"/>
</svg>
