<?xml version="1.0" encoding="utf-8"?>
<!-- Generator: Adobe Illustrator 16.0.0, SVG Export Plug-In . SVG Version: 6.00 Build 0)  -->
<!DOCTYPE svg PUBLIC "-//W3C//DTD SVG 1.1//EN" "http://www.w3.org/Graphics/SVG/1.1/DTD/svg11.dtd">
<svg version="1.1" id="图形" xmlns="http://www.w3.org/2000/svg" xmlns:xlink="http://www.w3.org/1999/xlink" x="0px" y="0px"
	 width="1000.637px" height="1000.678px" viewBox="15.167 -16.333 1000.637 1000.678"
	 enable-background="new 15.167 -16.333 1000.637 1000.678" xml:space="preserve">
<path fill-rule="evenodd" clip-rule="evenodd" d="M875.555,187.832l-65.027-65.051l76.565-76.566c0,0,65.628-1.368,65.628,64.26
	L875.555,187.832z M165.181,221.223v612.533h612.533V418.108l87.504-87.503v503.152c0,48.322-39.182,87.503-87.504,87.503H165.181
	c-48.324,0-87.504-39.181-87.504-87.503V221.223c0-48.324,39.18-87.505,87.504-87.505h503.151l-87.505,87.505H165.181z
	 M383.942,614.994v-65.629l32.814-32.814l65.585,65.586l-32.771,32.857H383.942z M831.888,231.647l-327.713,328.57l-65.543-65.542
	l328.141-328.142L831.888,231.647z"/>
</svg>
