<?xml version="1.0" encoding="utf-8"?>
<!-- Generator: Adobe Illustrator 16.0.0, SVG Export Plug-In . SVG Version: 6.00 Build 0)  -->
<!DOCTYPE svg PUBLIC "-//W3C//DTD SVG 1.1//EN" "http://www.w3.org/Graphics/SVG/1.1/DTD/svg11.dtd">
<svg version="1.1" id="图形" xmlns="http://www.w3.org/2000/svg" xmlns:xlink="http://www.w3.org/1999/xlink" x="0px" y="0px"
	 width="1000.637px" height="1000.678px" viewBox="15.167 -16.333 1000.637 1000.678"
	 enable-background="new 15.167 -16.333 1000.637 1000.678" xml:space="preserve">
<g>
	<path fill="#333333" d="M851.794,209.73h-403.9c0-55.746-45.227-100.975-100.975-100.975H178.628
		c-55.747,0-100.975,45.229-100.975,100.975v572.192c0,55.748,45.228,100.975,100.975,100.975h673.167
		c55.748,0,100.977-45.227,100.977-100.975V310.706C952.771,254.959,907.542,209.73,851.794,209.73z M885.453,781.922
		c0,18.571-15.086,33.659-33.658,33.659H178.628c-18.571,0-33.659-15.088-33.659-33.659V310.706
		c0-18.571,15.087-33.659,33.659-33.659h673.167c18.572,0,33.658,15.088,33.658,33.659V781.922z"/>
	<path fill="#333333" d="M654.51,473.232l20.583-40.078l-50.068-48.714l-41.247,20.056c-6.923-3.382-14.08-6.469-21.532-8.88
		l-14.51-42.311h-70.832l-14.508,42.311c-7.472,2.412-14.583,5.498-21.533,8.88l-41.237-20.056l-50.096,48.714l20.61,40.078
		c-3.507,6.78-6.703,13.716-9.176,20.998l-43.448,14.084V577.2l43.448,14.11c2.473,7.255,5.669,14.2,9.176,20.976l-20.61,40.077
		l50.096,48.684l41.237-20.052c6.95,3.4,14.062,6.51,21.533,8.88l14.508,42.332h70.832l14.51-42.332
		c7.452-2.37,14.609-5.479,21.532-8.88l41.247,20.052l50.068-48.684l-20.583-40.077c3.487-6.775,6.693-13.721,9.168-20.976
		l43.438-14.11v-68.887l-43.438-14.084C661.204,486.948,657.998,480.012,654.51,473.232z M671.705,551.376l-37.103,9.013
		c-3.041,20.033-11.175,38.381-23.055,53.852l19.715,32.048l-12.483,12.142l-32.956-19.209
		c-15.934,11.474-34.771,19.351-55.337,22.316l-9.302,36.232h-17.699l-9.332-36.232c-20.563-2.966-39.402-10.843-55.327-22.316
		l-32.938,19.209l-12.527-12.142l19.742-32.048c-11.861-15.471-20.016-33.818-23.094-53.852l-37.064-9.013v-17.238l37.064-9.014
		c3.078-20.034,11.232-38.363,23.094-53.873l-19.742-32.006l12.527-12.184l32.938,19.226c15.925-11.464,34.764-19.354,55.327-22.303
		l9.332-36.227h17.699l9.302,36.227c20.565,2.949,39.403,10.839,55.337,22.303l32.956-19.226l12.483,12.184l-19.715,32.006
		c11.88,15.51,20.014,33.839,23.055,53.873l37.103,9.014V551.376z"/>
	<path fill="#333333" d="M512.316,491.076c-29.331,0-53.137,23.151-53.137,51.685c0,28.523,23.806,51.649,53.137,51.649
		c29.339,0,53.126-23.126,53.126-51.649C565.442,514.228,541.655,491.076,512.316,491.076z M512.316,559.98
		c-9.761,0-17.706-7.717-17.706-17.219c0-9.512,7.945-17.221,17.706-17.221c9.779,0,17.706,7.709,17.706,17.221
		C530.022,552.263,522.095,559.98,512.316,559.98z"/>
</g>
</svg>
