<?xml version="1.0" encoding="utf-8"?>
<!-- Generator: Adobe Illustrator 16.0.0, SVG Export Plug-In . SVG Version: 6.00 Build 0)  -->
<!DOCTYPE svg PUBLIC "-//W3C//DTD SVG 1.1//EN" "http://www.w3.org/Graphics/SVG/1.1/DTD/svg11.dtd">
<svg version="1.1" id="图形" xmlns="http://www.w3.org/2000/svg" xmlns:xlink="http://www.w3.org/1999/xlink" x="0px" y="0px"
	 width="1000.637px" height="1000.678px" viewBox="15.167 -16.333 1000.637 1000.678"
	 enable-background="new 15.167 -16.333 1000.637 1000.678" xml:space="preserve">
<path fill-rule="evenodd" clip-rule="evenodd" d="M897.08,920.299H787.826l0,0H241.564l0,0H132.312
	c-30.173,0-54.626-24.495-54.626-54.625v-764.79c0-30.173,24.454-54.626,54.626-54.626h54.626l0,0h600.888l0,0H897.08
	c30.172,0,54.625,24.454,54.625,54.626v764.79C951.705,895.804,927.251,920.299,897.08,920.299z M842.453,155.511H733.201l0,0
	h-437.01l0,0H186.938v655.535h109.253l0,0h437.01l0,0h109.252V155.511z M514.696,592.542h218.505v109.252H514.696V592.542z
	 M514.696,428.663h218.505v109.254H514.696V428.663z M514.696,264.785h218.505v109.252H514.696V264.785z M296.191,592.542h109.252
	v109.252H296.191V592.542z M296.191,428.663h109.252v109.254H296.191V428.663z M296.191,264.785h109.252v109.252H296.191V264.785z"
	/>
</svg>
