<?xml version="1.0" encoding="utf-8"?>
<!-- Generator: Adobe Illustrator 16.0.0, SVG Export Plug-In . SVG Version: 6.00 Build 0)  -->
<!DOCTYPE svg PUBLIC "-//W3C//DTD SVG 1.1//EN" "http://www.w3.org/Graphics/SVG/1.1/DTD/svg11.dtd">
<svg version="1.1" id="图形" xmlns="http://www.w3.org/2000/svg" xmlns:xlink="http://www.w3.org/1999/xlink" x="0px" y="0px"
	 width="1000.637px" height="1000.678px" viewBox="15.167 -16.333 1000.637 1000.678"
	 enable-background="new 15.167 -16.333 1000.637 1000.678" xml:space="preserve">
<g>
	<path d="M879.818,46.214H150.597c-40.31,0-72.923,29.478-72.923,65.842v526.745c0,36.296,32.613,65.844,72.923,65.844h729.221
		c40.233,0,72.922-29.548,72.922-65.844V112.056C952.74,75.691,920.051,46.214,879.818,46.214z M879.818,572.958H150.597V112.06
		h729.221V572.958z"/>
	<path d="M770.435,777.425H259.979c-20.153,0-36.458,16.307-36.458,36.458c0,20.082,16.306,36.39,36.458,36.39h510.456
		c20.151,0,36.464-16.308,36.464-36.39C806.899,793.732,790.591,777.425,770.435,777.425L770.435,777.425z"/>
	<path fill="#272636" d="M770.435,777.425"/>
</g>
</svg>
