<?xml version="1.0" encoding="utf-8"?>
<!-- Generator: Adobe Illustrator 16.0.0, SVG Export Plug-In . SVG Version: 6.00 Build 0)  -->
<!DOCTYPE svg PUBLIC "-//W3C//DTD SVG 1.1//EN" "http://www.w3.org/Graphics/SVG/1.1/DTD/svg11.dtd">
<svg version="1.1" id="图形" xmlns="http://www.w3.org/2000/svg" xmlns:xlink="http://www.w3.org/1999/xlink" x="0px" y="0px"
	 width="1000.637px" height="1000.678px" viewBox="15.167 -16.333 1000.637 1000.678"
	 enable-background="new 15.167 -16.333 1000.637 1000.678" xml:space="preserve">
<g>
	<path fill="none" d="M125.534,790.069h779.322"/>
</g>
<g>
	<path fill="#333333" d="M313.246,214.5c-18.537,0-33.656-15.121-33.656-33.657V79.873c0-18.536,15.119-33.656,33.656-33.656
		c18.538,0,33.656,15.12,33.656,33.656v100.97C346.902,199.379,331.783,214.5,313.246,214.5"/>
	<path fill="#333333" d="M851.748,113.53h-67.313v67.313c0,37.156-30.172,67.313-67.313,67.313
		c-37.141,0-67.313-30.156-67.313-67.313V113.53H380.558v67.313c0,37.156-30.14,67.313-67.313,67.313s-67.313-30.156-67.313-67.313
		V113.53H178.62c-55.71,0-100.969,45.242-100.969,100.97v605.815c0,55.741,45.258,100.967,100.969,100.967h673.127
		c55.742,0,100.968-45.226,100.968-100.967V214.5C952.715,158.772,907.49,113.53,851.748,113.53 M885.404,820.315
		c0,18.535-15.12,33.656-33.656,33.656H178.62c-18.537,0-33.656-15.121-33.656-33.656v-471.19h740.439V820.315z"/>
	<path fill="#333333" d="M717.122,214.5c-18.537,0-33.657-15.121-33.657-33.657V79.873c0-18.536,15.12-33.656,33.657-33.656
		s33.656,15.12,33.656,33.656v100.97C750.778,199.379,735.659,214.5,717.122,214.5"/>
	<path fill="#333333" d="M696.054,447.825l-33.788-22.958c-9.334-6.293-22.088-3.829-28.365,5.423L468.413,674.282l-76.056-76.022
		c-7.921-7.889-20.904-7.889-28.857,0l-28.891,28.924c-7.986,7.954-7.986,20.903,0,28.857l116.91,117.009
		c6.573,6.508,16.828,11.569,26.129,11.569c9.27,0,18.637-5.819,24.619-14.594l199.242-293.835
		C707.82,466.872,705.387,454.152,696.054,447.825"/>
</g>
</svg>
