<?xml version="1.0" encoding="utf-8"?>
<!-- Generator: Adobe Illustrator 16.0.0, SVG Export Plug-In . SVG Version: 6.00 Build 0)  -->
<!DOCTYPE svg PUBLIC "-//W3C//DTD SVG 1.1//EN" "http://www.w3.org/Graphics/SVG/1.1/DTD/svg11.dtd">
<svg version="1.1" id="图形" xmlns="http://www.w3.org/2000/svg" xmlns:xlink="http://www.w3.org/1999/xlink" x="0px" y="0px"
	 width="1000.637px" height="1000.678px" viewBox="15.167 -16.333 1000.637 1000.678"
	 enable-background="new 15.167 -16.333 1000.637 1000.678" xml:space="preserve">
<g>
	<g>
		<path fill-rule="evenodd" clip-rule="evenodd" fill="#272636" d="M432.962,547.481l255.115,0.124l0.126-41.103l-255.159-0.125
			L432.962,547.481z M432.962,632.343l255.115,0.122l0.126-41.102l-255.159-0.124L432.962,632.343z M725.618,377.556
			c0,0-134.333,0-258.307,0c-45.785,0-61.075,26.767-104.996,26.767c-36.671,0-47.217-15.083-69.194-22.604
			c-1.797,12.878-2.785,26.014-2.908,39.357c68.195,2.802,58.305,38.479,58.305,38.479v143.024
			c12.666,17.296,27.118,33.197,43.093,47.434V459.557c0,0-11.645-38.66,72.758-38.66c84.364,0,266.883,0,266.883,0v272.537
			c14.583-7.49,28.472-16.14,41.562-25.809V425.661C772.813,399.101,751.682,377.556,725.618,377.556z M432.962,717.201
			l255.115,0.124l0.126-41.103l-255.159-0.125L432.962,717.201z"/>
	</g>
	<g>
		<path fill-rule="evenodd" clip-rule="evenodd" fill="#272636" d="M160.747,581.877l-0.041,42.261l127.028,0.165l-37.902-42.301
			L160.747,581.877z M160.747,666.398l-0.041,42.261l127.028,0.165l0.042-42.301L160.747,666.398z M160.706,539.615l34.155,0.045
			c-6.684-13.737-12.72-27.844-18.074-42.285l-16.041-0.015L160.706,539.615z M583.429,804.756v31.921c0,0-134.785,0-170.856,0
			c-36.069,0-39.702,16.917-39.702,16.917V736.17c-14.84-9.143-29.141-19.074-42.837-29.749v147.173c0,0-3.589-16.917-39.659-16.917
			c-36.11,0-170.897,0-170.897,0v-380.3c0,0,18.614,0,44.228,0c-3.978-14.75-7.259-29.784-9.811-45.068c-26.928,0-45.766,0-45.766,0
			c-17.375,0-31.448,14.734-31.448,32.976v421.279c0,18.2,14.073,32.973,31.448,32.973c0,0,104.618,0,180.223,0
			c21.916,0,42.179,22.739,61.657,22.739c27.443,0,39.165-22.739,59.964-22.739c77.585,0,184.642,0,184.642,0
			c17.371,0,31.445-14.772,31.445-32.973v-60.767C624.296,804.816,583.429,804.756,583.429,804.756z M160.706,793.177l127.028,0.167
			l0.042-42.304l-127.029-0.125L160.706,793.177z"/>
	</g>
	<g>
		<path fill-rule="evenodd" clip-rule="evenodd" fill="#272636" d="M941.247,777.382l-126.233-129.47
			c63.28-63.712,102.546-152.417,102.546-250.538c0-193.911-153.3-351.121-342.402-351.121
			c-189.104,0-342.365,157.209-342.365,351.121c0,193.912,153.261,351.119,342.365,351.119c64.979,0,125.728-18.561,177.484-50.794
			l133.143,136.553c15.319,15.71,40.141,15.71,55.463,0C956.568,818.539,956.568,793.093,941.247,777.382z M571.601,675.482
			c-150.019,0-271.617-124.652-271.617-278.459c0-153.808,121.599-278.457,271.617-278.457
			c150.015,0,271.612,124.649,271.612,278.457C843.213,550.829,721.616,675.482,571.601,675.482z"/>
	</g>
</g>
</svg>
