<?xml version="1.0" encoding="utf-8"?>
<!-- Generator: Adobe Illustrator 17.0.0, SVG Export Plug-In . SVG Version: 6.00 Build 0)  -->
<!DOCTYPE svg PUBLIC "-//W3C//DTD SVG 1.1//EN" "http://www.w3.org/Graphics/SVG/1.1/DTD/svg11.dtd">
<svg version="1.1" id="图形" xmlns="http://www.w3.org/2000/svg" xmlns:xlink="http://www.w3.org/1999/xlink" x="0px" y="0px"
	 width="1000.637px" height="1000.678px" viewBox="15.167 -16.333 1000.637 1000.678"
	 enable-background="new 15.167 -16.333 1000.637 1000.678" xml:space="preserve">
<g>
	<path fill="#333333" d="M515.485,652.233c92.919,0,168.227-75.309,168.227-168.227V383.069V214.842
		c0-92.919-75.309-168.228-168.227-168.228s-168.227,75.309-168.227,168.228v168.227v100.937
		C347.257,576.925,422.566,652.233,515.485,652.233z M414.548,349.424h33.646c0,0,33.646-1.184,33.646-33.646
		c0-18.566-15.114-33.646-33.646-33.646h-33.646v-33.645h33.646c0,0,33.646-1.184,33.646-33.646
		c0-18.566-15.114-33.646-33.646-33.646h-27.873c13.886-39.165,51.297-67.291,95.164-67.291s81.277,28.126,95.164,67.291h-27.873
		c-18.532,0-33.646,15.08-33.646,33.646c0,32.461,33.646,33.646,33.646,33.646h33.646v33.645h-33.646
		c-18.532,0-33.646,15.08-33.646,33.646c0,32.461,33.646,33.646,33.646,33.646h33.646v33.646H414.548V349.424z"/>
	<path fill="#333333" d="M784.649,416.715c-30.49,0-33.646,33.646-33.646,33.646v33.646c0,129.851-105.667,235.518-235.518,235.518
		S279.966,613.857,279.966,484.006V450.36c0,0-3.681-33.646-33.646-33.646s-33.646,33.646-33.646,33.646v33.646
		c0,143.858,100.822,264.585,235.518,295.264v74.837H347.257c-32.266,0-33.646,33.646-33.646,33.646v33.646h403.746v-33.646
		c0-18.532-15.08-33.646-33.646-33.646H582.776V779.27c134.697-30.679,235.518-151.406,235.518-295.264V450.36
		C818.294,450.36,815.142,416.715,784.649,416.715z"/>
</g>
</svg>
