<?xml version="1.0" encoding="utf-8"?>
<!-- Generator: Adobe Illustrator 16.0.0, SVG Export Plug-In . SVG Version: 6.00 Build 0)  -->
<!DOCTYPE svg PUBLIC "-//W3C//DTD SVG 1.1//EN" "http://www.w3.org/Graphics/SVG/1.1/DTD/svg11.dtd">
<svg version="1.1" id="图形" xmlns="http://www.w3.org/2000/svg" xmlns:xlink="http://www.w3.org/1999/xlink" x="0px" y="0px"
	 width="1000.637px" height="1000.678px" viewBox="15.167 -16.333 1000.637 1000.678"
	 enable-background="new 15.167 -16.333 1000.637 1000.678" xml:space="preserve">
<g>
	<path fill="#272636" d="M505.071,921.292c-127.588,0-364.883-195.281-364.883-379.942V173.5l36.28-0.601
		c0.776,0,81.766-1.724,165.336-35.654c85.716-34.833,140.999-74.825,141.516-75.21l21.663-15.785l21.839,15.785
		c0.519,0.385,55.8,40.381,141.516,75.21c83.573,33.931,164.561,35.654,165.424,35.654l36.11,0.601l0.167,367.854
		C870.039,726.011,632.746,921.292,505.071,921.292 M214.246,243.795V541.12c0,142.777,206.686,306.234,291.201,306.234
		s291.2-163.457,291.2-306.234V243.795c-36.108-3.914-94.745-13.761-155.618-38.487c-62.417-25.374-109.788-52.982-135.582-69.41
		c-25.707,16.427-73.165,44.036-135.498,69.41C308.987,230.033,250.356,239.881,214.246,243.795 M515.344,502.417v-86.86
		c0-9.681-7.854-17.538-17.537-17.538c-9.689,0-17.542,7.853-17.542,17.538v100.378c0,9.354,7.335,17.003,16.574,17.508
		l62.729,19.178c9.259,2.833,19.072-2.384,21.901-11.646c2.833-9.264-2.378-19.068-11.646-21.901L515.344,502.417z M353.587,491.568
		c0-83.417,67.628-151.038,151.037-151.038c83.418,0,151.038,67.624,151.038,151.038c0,83.417-67.625,151.038-151.038,151.038
		C421.212,642.606,353.587,574.978,353.587,491.568"/>
</g>
</svg>
