<?xml version="1.0" encoding="utf-8"?>
<!-- Generator: Adobe Illustrator 16.0.0, SVG Export Plug-In . SVG Version: 6.00 Build 0)  -->
<!DOCTYPE svg PUBLIC "-//W3C//DTD SVG 1.1//EN" "http://www.w3.org/Graphics/SVG/1.1/DTD/svg11.dtd">
<svg version="1.1" id="图形" xmlns="http://www.w3.org/2000/svg" xmlns:xlink="http://www.w3.org/1999/xlink" x="0px" y="0px"
	 width="1000.637px" height="1000.678px" viewBox="15.167 -16.333 1000.637 1000.678"
	 enable-background="new 15.167 -16.333 1000.637 1000.678" xml:space="preserve">
<path fill-rule="evenodd" clip-rule="evenodd" d="M715.71,237.67c0,25.124,20.424,45.546,45.592,45.546
	c25.165,0,45.589-20.422,45.589-45.546c0-25.209-20.424-45.589-45.589-45.589C736.134,192.08,715.71,212.461,715.71,237.67z
	 M715.71,529.321c0,25.165,20.424,45.591,45.592,45.591c25.165,0,45.589-20.426,45.589-45.591c0-25.125-20.424-45.547-45.589-45.547
	C736.134,483.773,715.71,504.196,715.71,529.321z M77.677,647.844c0,40.247,32.601,72.892,72.934,72.892h309.895v50.329
	c-8.93,5.984-16.62,13.674-22.603,22.601H214.402c-25.166,0-45.589,20.386-45.589,45.594c0,25.125,20.424,45.546,45.589,45.546
	h223.501c14.741,22.046,39.735,36.489,68.192,36.489c28.456,0,53.408-14.443,68.191-36.489h241.704
	c25.164,0,45.589-20.421,45.589-45.546c0-25.208-20.425-45.594-45.589-45.594H574.287c-6.067-8.927-13.673-16.616-22.646-22.601
	v-50.329H879.78c40.335,0,72.937-32.645,72.937-72.892V119.146c0-40.291-32.602-72.891-72.937-72.891H150.611
	c-40.333,0-72.934,32.601-72.934,72.891V647.844z M208.933,137.39h612.528c22.257,0,40.118,17.859,40.118,40.121v120.317
	c0,22.218-17.861,40.077-40.118,40.077H208.933c-22.261,0-40.121-17.858-40.121-40.077V177.511
	C168.813,155.25,186.672,137.39,208.933,137.39z M208.933,429.084h612.528c22.257,0,40.118,17.86,40.118,40.077v120.316
	c0,22.221-17.861,40.12-40.118,40.12H208.933c-22.261,0-40.121-17.899-40.121-40.12V469.161
	C168.813,446.945,186.672,429.084,208.933,429.084z"/>
</svg>
