<?xml version="1.0" encoding="utf-8"?>
<!-- Generator: Adobe Illustrator 16.0.0, SVG Export Plug-In . SVG Version: 6.00 Build 0)  -->
<!DOCTYPE svg PUBLIC "-//W3C//DTD SVG 1.1//EN" "http://www.w3.org/Graphics/SVG/1.1/DTD/svg11.dtd">
<svg version="1.1" id="图形" xmlns="http://www.w3.org/2000/svg" xmlns:xlink="http://www.w3.org/1999/xlink" x="0px" y="0px"
	 width="1000.637px" height="1000.678px" viewBox="15.167 -16.333 1000.637 1000.678"
	 enable-background="new 15.167 -16.333 1000.637 1000.678" xml:space="preserve">
<g>
	<path fill="#292625" d="M405.82,491.534v54.695c0,32.812,21.878,54.691,54.689,54.691h109.387c32.813,0,54.69-21.88,54.69-54.691
		v-54.695c0-32.813-21.877-54.691-54.69-54.691H460.509C427.698,436.844,405.82,458.721,405.82,491.534L405.82,491.534z"/>
	<path d="M898.044,218.076H679.277v-54.69c0-32.814-21.877-54.69-54.69-54.69H405.82c-32.814,0-54.691,21.876-54.691,54.69v54.69
		H132.362c-32.814,0-54.691,21.877-54.691,54.695v218.763v54.695v273.458c0,32.812,21.876,54.691,54.691,54.691h765.682
		c32.813,0,54.69-21.88,54.69-54.691V272.772C952.735,239.954,930.857,218.076,898.044,218.076z M405.82,190.734
		c0-16.407,10.94-27.348,27.347-27.348h164.072c16.411,0,27.348,10.94,27.348,27.348v27.343H405.82V190.734z M898.044,764.991
		c0,32.819-21.878,54.696-54.691,54.696H187.052c-32.813,0-54.69-21.877-54.69-54.696V546.23h218.767v54.691
		c0,32.813,21.876,54.69,54.691,54.69h218.767c32.813,0,54.69-21.877,54.69-54.69V546.23h218.768V764.991z M898.044,491.534H679.277
		v-54.691c0-32.814-21.877-54.69-54.69-54.69H405.82c-32.814,0-54.691,21.876-54.691,54.69v54.691H132.362V327.463
		c0-32.818,21.877-54.691,54.69-54.691h656.301c32.813,0,54.691,21.873,54.691,54.691V491.534z"/>
	<path fill="#A39F9E" d="M898.044,546.23"/>
	<path d="M898.044,491.534H684.997v-48.541c0-36.384-29.495-65.877-65.878-65.877H413.801c-36.382,0-65.877,29.493-65.877,65.877
		v48.541H132.362v54.695h215.562v49.38c0,36.383,29.495,65.878,65.877,65.878h205.317c36.383,0,65.878-29.495,65.878-65.878v-49.38
		h213.048V491.534z"/>
</g>
</svg>
