<?xml version="1.0" encoding="utf-8"?>
<!-- Generator: Adobe Illustrator 16.0.0, SVG Export Plug-In . SVG Version: 6.00 Build 0)  -->
<!DOCTYPE svg PUBLIC "-//W3C//DTD SVG 1.1//EN" "http://www.w3.org/Graphics/SVG/1.1/DTD/svg11.dtd">
<svg version="1.1" id="图形" xmlns="http://www.w3.org/2000/svg" xmlns:xlink="http://www.w3.org/1999/xlink" x="0px" y="0px"
	 width="1000.637px" height="1000.678px" viewBox="15.167 -16.333 1000.637 1000.678"
	 enable-background="new 15.167 -16.333 1000.637 1000.678" xml:space="preserve">
<g>
	<path fill="#272636" d="M885.152,171.181C857.746,100.434,702.373,46.228,514.805,46.228
		c-187.565,0-342.941,54.207-370.341,124.953h-4.292v599.362c0,6.479,2.653,16.229,5.926,21.801c0,0,56.512,129.009,368.708,129.009
		c312.196,0,368.712-129.009,368.712-129.009c3.45-5.479,5.922-15.334,5.922-21.801V171.181H885.152z M827.001,766.613
		c0,0-52.03,91.778-312.196,91.778c-260.161,0-312.195-91.778-312.195-91.778V666.222c67.115,39.693,181.884,65.856,312.195,65.856
		s245.08-26.163,312.196-65.856V766.613z M827.001,584.767c0,48.814-139.772,88.387-312.196,88.387
		c-172.419,0-312.195-39.572-312.195-88.387V479.879c67.115,39.695,181.884,65.864,312.195,65.864s245.08-26.169,312.196-65.864
		V584.767z M827.001,332.623v65.801c0,48.814-139.772,88.39-312.196,88.39c-172.419,0-312.195-39.576-312.195-88.39v-65.801v-57.622
		c67.115,39.696,181.884,65.863,312.195,65.863s245.08-26.167,312.196-65.863V332.623z M514.805,281.937
		c-172.419,0-312.195-39.577-312.195-88.39c0-48.819,139.776-88.392,312.195-88.392c172.424,0,312.196,39.573,312.196,88.392
		C827.001,242.36,687.229,281.937,514.805,281.937"/>
</g>
</svg>
