<?xml version="1.0" encoding="utf-8"?>
<!-- Generator: Adobe Illustrator 17.0.0, SVG Export Plug-In . SVG Version: 6.00 Build 0)  -->
<!DOCTYPE svg PUBLIC "-//W3C//DTD SVG 1.1//EN" "http://www.w3.org/Graphics/SVG/1.1/DTD/svg11.dtd">
<svg version="1.1" id="图形" xmlns="http://www.w3.org/2000/svg" xmlns:xlink="http://www.w3.org/1999/xlink" x="0px" y="0px"
	 width="1000.637px" height="1000.678px" viewBox="15.167 -16.333 1000.637 1000.678"
	 enable-background="new 15.167 -16.333 1000.637 1000.678" xml:space="preserve">
<g>
	<path fill="#272636" d="M513.827,496.435c23.663,0,42.83-18.38,42.83-41.064V291.355V209.32V86.25
		c0-22.625-19.167-41.005-42.83-41.005c-23.628,0-42.856,18.41-42.826,41.005v43.551v82.914V455.4
		C471.001,478.084,490.199,496.435,513.827,496.435z"/>
	<path fill="#272636" d="M670.9,156.872v0.088c-4.526-1.524-9.298-2.341-14.278-2.341c-23.663,0-42.83,18.351-42.83,41.001
		c0,17.852,11.895,33.101,28.551,38.694c117.575,47.879,199.96,159.448,199.96,289.425c0,173.671-147.041,314.479-328.476,314.479
		c-181.43,0-328.476-140.779-328.476-314.479c0-129.978,82.451-241.576,199.929-289.425v-0.03
		c16.692-5.619,28.613-20.87,28.613-38.693c0-22.65-19.26-41.001-42.857-41.001c-5.046,0-9.844,0.817-14.308,2.34v-0.088
		C205.957,216.053,99.665,358,99.665,523.77c0,219.038,185.405,396.515,414.162,396.515c228.726,0,414.166-177.477,414.136-396.485
		C927.963,358.029,821.794,216.081,670.9,156.872z"/>
</g>
</svg>
