<?xml version="1.0" encoding="utf-8"?>
<!-- Generator: Adobe Illustrator 16.0.0, SVG Export Plug-In . SVG Version: 6.00 Build 0)  -->
<!DOCTYPE svg PUBLIC "-//W3C//DTD SVG 1.1//EN" "http://www.w3.org/Graphics/SVG/1.1/DTD/svg11.dtd">
<svg version="1.1" id="图形" xmlns="http://www.w3.org/2000/svg" xmlns:xlink="http://www.w3.org/1999/xlink" x="0px" y="0px"
	 width="1000.637px" height="1000.678px" viewBox="15.167 -16.333 1000.637 1000.678"
	 enable-background="new 15.167 -16.333 1000.637 1000.678" xml:space="preserve">
<path fill="#272636" d="M487.422,46.222c1.12,0,2.178,0,3.359,0.029c1.188-0.029,2.307-0.029,3.427-0.029H487.422z M819.238,175.365
	c-9.399-48.194-51.555-67.497-97.012-86.74C677.398,69.6,570.11,46.874,490.849,46.251c-79.265,0.624-186.616,23.35-231.384,42.374
	c-45.453,19.271-87.611,38.541-97.073,86.74l-22.23,267.183v368.18h58.718v57.755c0,70.391,97.195,70.391,97.195,0v-57.755h389.478
	v57.755c0,70.391,97.259,70.391,97.259,0v-57.755h58.719v-368.18L819.238,175.365z M346.509,113.658h288.548
	c28.395,0,28.395,43.398,0,43.398H346.509C318.118,157.056,318.118,113.658,346.509,113.658 M201.931,433.706l26.525-193.775
	c3.613-23.537,11.459-39.038,41.469-39.038h441.783c29.947,0,37.793,15.5,41.405,39.038l26.525,193.775
	c2.488,18.618-2.802,36.987-27.961,36.987H229.886C204.733,470.693,199.438,452.324,201.931,433.706 M309.089,663.158
	c0,11.081-8.842,20.115-19.736,20.115h-79.824c-10.896,0-19.676-9.034-19.676-20.115v-34.495c0-11.081,8.78-20.114,19.676-20.114
	h79.824c10.894,0,19.736,9.033,19.736,20.114V663.158z M791.779,663.158c0,11.081-8.842,20.115-19.675,20.115h-79.887
	c-10.896,0-19.738-9.034-19.738-20.115v-34.495c0-11.081,8.842-20.114,19.738-20.114h79.887c10.838,0,19.675,9.033,19.675,20.114
	V663.158z"/>
</svg>
