<?xml version="1.0" encoding="utf-8"?>
<!-- Generator: Adobe Illustrator 16.0.0, SVG Export Plug-In . SVG Version: 6.00 Build 0)  -->
<!DOCTYPE svg PUBLIC "-//W3C//DTD SVG 1.1//EN" "http://www.w3.org/Graphics/SVG/1.1/DTD/svg11.dtd">
<svg version="1.1" id="图形" xmlns="http://www.w3.org/2000/svg" xmlns:xlink="http://www.w3.org/1999/xlink" x="0px" y="0px"
	 width="1000.637px" height="1000.678px" viewBox="15.167 -16.333 1000.637 1000.678"
	 enable-background="new 15.167 -16.333 1000.637 1000.678" xml:space="preserve">
<path d="M515.196,46.247c-241.664,0-437.523,195.881-437.523,437.522s195.859,437.521,437.523,437.521
	c241.621,0,437.522-195.88,437.522-437.521S756.817,46.247,515.196,46.247z M895.55,469.648H726.309
	c-1.581-62.509-12.689-122.241-32.43-176.91c38.112-15.895,73.32-37.045,105.45-62.018
	C856.455,294.811,892.174,378.064,895.55,469.648z M499.6,864.037c-46.914-39.052-86.265-89.768-115.064-148.688
	c36.916-11.558,76.097-17.86,116.559-19.163v167.938C500.583,864.08,500.07,864.059,499.6,864.037z M530.749,103.501
	c53.237,44.33,96.691,103.676,126.086,172.915c-40.206,13.758-83.018,21.727-127.539,23.158V103.416
	C529.808,103.458,530.279,103.48,530.749,103.501z M577.748,108.286c77.935,12.968,147.833,49.35,202.226,102.032
	c-29.524,22.667-61.825,41.872-96.689,56.399C657.56,205.832,621.5,151.996,577.748,108.286z M501.095,103.416v196.158
	c-44.521-1.432-87.333-9.4-127.539-23.158c29.396-69.239,72.849-128.585,126.044-172.915
	C500.113,103.48,500.583,103.458,501.095,103.416z M347.108,266.718c-34.865-14.527-67.167-33.732-96.733-56.399
	c54.433-52.682,124.334-89.064,202.268-102.032C408.892,151.996,372.83,205.832,347.108,266.718z M362.917,302.437
	c43.539,15.104,89.897,23.906,138.178,25.359v141.853H332.325C333.82,410.557,344.331,354.073,362.917,302.437z M501.095,497.891
	v170.075c-44.521,1.345-87.546,8.63-128.137,21.682c-24.44-58.191-38.881-123.03-40.633-191.756H501.095z M452.643,859.253
	c-69.815-11.623-133.222-42.022-184.75-86.159c27.772-19.269,57.852-35.569,89.983-47.983
	C382.487,776.172,414.702,821.439,452.643,859.253z M529.295,864.125V696.187c40.463,1.303,79.643,7.605,116.56,19.163
	c-28.798,58.92-68.149,109.636-115.064,148.688C530.321,864.059,529.808,864.08,529.295,864.125z M672.516,725.111
	c32.13,12.414,62.166,28.715,89.981,47.983c-51.526,44.137-114.934,74.536-184.75,86.159
	C615.688,821.439,647.905,776.172,672.516,725.111z M657.432,689.648c-40.591-13.052-83.615-20.337-128.137-21.682V497.891h168.771
	C696.314,566.617,681.872,631.456,657.432,689.648z M529.295,469.648V327.796c48.28-1.453,94.639-10.254,138.178-25.359
	c18.586,51.636,29.056,108.121,30.593,167.211H529.295z M231.063,230.72c32.13,24.973,67.337,46.123,105.449,62.018
	c-19.783,54.668-30.849,114.401-32.429,176.91H134.842C138.217,378.064,173.937,294.811,231.063,230.72z M134.842,497.891h169.241
	c1.794,72.102,16.834,140.229,42.428,201.436c-35.72,13.95-69.09,32.536-99.853,54.498
	C180.345,687.898,138.516,597.701,134.842,497.891z M783.734,753.825c-30.764-21.962-64.133-40.548-99.853-54.498
	c25.593-61.207,40.634-129.334,42.428-201.436H895.55C891.875,597.701,850.046,687.898,783.734,753.825z"/>
</svg>
