<?xml version="1.0" encoding="utf-8"?>
<!-- Generator: Adobe Illustrator 16.0.0, SVG Export Plug-In . SVG Version: 6.00 Build 0)  -->
<!DOCTYPE svg PUBLIC "-//W3C//DTD SVG 1.1//EN" "http://www.w3.org/Graphics/SVG/1.1/DTD/svg11.dtd">
<svg version="1.1" id="图形" xmlns="http://www.w3.org/2000/svg" xmlns:xlink="http://www.w3.org/1999/xlink" x="0px" y="0px"
	 width="1000.637px" height="1000.678px" viewBox="15.167 -16.333 1000.637 1000.678"
	 enable-background="new 15.167 -16.333 1000.637 1000.678" xml:space="preserve">
<path fill="#272636" d="M941.099,193.911c-9.854-14.405-25.414-22.669-42.694-22.669c-15.193,0-30.411,6.114-45.222,18.171
	L685.792,325.64v-62.211c0-50.594-41.205-91.752-91.844-91.752H169.517c-50.644,0-91.844,41.158-91.844,91.752v378.227
	c0,50.589,41.2,91.745,91.844,91.745h424.431c50.644,0,91.844-41.156,91.844-91.745V586.44l167.387,129.236
	c14.83,12.058,30.048,18.171,45.227,18.171c17.299,0,32.866-8.277,42.718-22.718c7.688-11.256,11.582-25.553,11.582-42.478
	l0.014-432.212C952.718,219.488,948.81,205.178,941.099,193.911 M619.643,641.656c0,14.115-11.526,25.597-25.695,25.597H169.517
	c-14.17,0-25.696-11.481-25.696-25.597V263.428c0-14.119,11.526-25.604,25.696-25.604h424.431c14.169,0,25.695,11.485,25.695,25.604
	V641.656z M886.556,657.553L630.357,456.038l256.199-208.502V657.553z"/>
</svg>
