<?xml version="1.0" encoding="utf-8"?>
<!-- Generator: Adobe Illustrator 16.0.0, SVG Export Plug-In . SVG Version: 6.00 Build 0)  -->
<!DOCTYPE svg PUBLIC "-//W3C//DTD SVG 1.1//EN" "http://www.w3.org/Graphics/SVG/1.1/DTD/svg11.dtd">
<svg version="1.1" id="图形" xmlns="http://www.w3.org/2000/svg" xmlns:xlink="http://www.w3.org/1999/xlink" x="0px" y="0px"
	 width="1000.637px" height="1000.678px" viewBox="15.167 -16.333 1000.637 1000.678"
	 enable-background="new 15.167 -16.333 1000.637 1000.678" xml:space="preserve">
<g>
	<g>
		<path fill="#333333" d="M873.132,46.255H157.234c-43.941,0-79.552,35.61-79.552,79.552v715.896
			c0,43.943,35.61,79.553,79.552,79.553h715.898c43.941,0,79.551-35.609,79.551-79.553V125.807
			C952.683,81.865,917.074,46.255,873.132,46.255z M873.132,841.703H157.234V125.807h715.898V841.703z M399.952,676.018
			l81.371-265.917c4.55-14.123,7.176-25.978,7.863-35.548h1.344c0.917,12.75,2.971,24.845,6.173,36.23l75.197,265.234h69.724
			l112.793-378.026H689.48l-73.832,280.614c-3.649,13.222-5.704,24.842-6.152,34.86h-3.072c-1.37-15.04-3.206-26.659-5.489-34.86
			l-79.277-280.614h-61.866L378.42,577.235c-3.397,11.174-5.575,23.034-6.47,35.549h-2.736c-1.154-14.57-2.861-26.083-5.127-34.519
			l-75.558-280.273h-69.705L332.3,676.018H399.952z"/>
	</g>
</g>
</svg>
