<?xml version="1.0" encoding="utf-8"?>
<!-- Generator: Adobe Illustrator 16.0.0, SVG Export Plug-In . SVG Version: 6.00 Build 0)  -->
<!DOCTYPE svg PUBLIC "-//W3C//DTD SVG 1.1//EN" "http://www.w3.org/Graphics/SVG/1.1/DTD/svg11.dtd">
<svg version="1.1" id="图形" xmlns="http://www.w3.org/2000/svg" xmlns:xlink="http://www.w3.org/1999/xlink" x="0px" y="0px"
	 width="1000.637px" height="1000.678px" viewBox="15.167 -16.333 1000.637 1000.678"
	 enable-background="new 15.167 -16.333 1000.637 1000.678" xml:space="preserve">
<g>
	<path d="M791.527,593.881c-4.674-3.968-7.088-6.231-9.719-8.201c-27.078-20.261-36.82-43.14-31.553-80.194
		c19.332-135.935-90.803-247.91-201.918-259.983c-140.171-15.23-255.518,72.994-273.313,207.718
		C253.777,614.11,395.816,748.685,555.566,718.183c17.938-3.424,30.049,0.434,41.799,13.428c8.314,9.202,18.816,16.44,31.809,27.518
		c-36.588,19.154-37.107,49.157-35.186,79.898c1.889,30.293-3.703,59.47-33.83,71.682c-32.877,13.333-70.129,16.112-100.842-3.892
		c-14.115-9.197-21.415-31.961-27.017-50.062c-4.245-13.714-0.663-29.778-1.011-44.789c-0.547-23.951-11.491-41.675-33.679-51.016
		c-22.152-9.322-42.443-5.336-59.846,11.624c-10.753,10.481-21.22,21.271-32.272,31.434c-21.415,19.679-51.327,25.42-73.252,9.455
		c-19.163-13.956-36.792-31.494-50.854-50.577c-15.406-20.914-9.284-53.21,9.68-73.476c10.219-10.938,21.5-20.896,31.966-31.614
		c15.264-15.626,20.743-34.531,14.115-55.255c-6.914-21.597-22.783-35.086-45.333-38.057c-17.304-2.279-34.952-1.821-52.442-2.694
		c-37.759-1.879-59.704-23.822-61.315-61.673c-0.5-11.659-0.467-23.37-0.043-35.033c1.401-39.014,25.968-63.137,65.097-64
		c14.176-0.31,28.41,0.558,42.542-0.278c23.528-1.383,41.919-12.312,50.674-34.532c8.707-22.091,3.857-42.547-13.295-59.613
		c-9.445-9.408-18.887-18.834-28.132-28.447c-4.006-4.167-8.179-8.411-11.135-13.31c-20.637-34.184-8.425-68.181,37.813-106.127
		c26.903-22.083,59.614-20.987,85.878,3.219c11.034,10.174,21.285,21.2,32.362,31.318c17.743,16.227,38.704,19.798,60.306,10.451
		c20.684-8.946,32.39-25.395,32.195-49.098c-0.129-15.836-0.205-31.733,0.938-47.512c2.227-30.647,22.073-54.56,51.937-58.823
		c19.556-2.789,40.136-2.756,59.704-0.033c28.133,3.915,48.371,28.824,49.9,57.763c0.889,16.642-0.762,33.451,0.588,50.035
		c1.893,23.141,12.482,40.896,35.375,49.991c23.088,9.168,42.357,3.209,59.395-13.286c7.191-6.961,13.938-14.385,21.02-21.461
		c4.711-4.712,9.32-9.638,14.586-13.69c33.436-25.734,70.676-14.873,110.873,32.11c24.5,28.634,22.873,62.641-4.049,89.363
		c-10.643,10.566-21.834,20.79-31.137,32.466c-14.516,18.21-19.369,39.34-8.492,60.792c10.186,20.083,27.881,30.297,50.869,30.289
		c14.186-0.009,28.395-0.505,42.541,0.176c33.752,1.631,57.912,21.661,62.094,53.92c2.336,18.015,2.355,36.854-0.076,54.851
		c-4.33,32.029-29.506,52.742-62.168,53.992c-10,0.385-20.076,0.733-30.033-0.054C830.207,563.512,808.71,571.585,791.527,593.881
		L791.527,593.881z"/>
	<path d="M847.267,729.965c-51.287-51.321-103.066-102.156-154.912-152.916c-9.6-9.398-14.086-17.004-8.697-32.177
		c28.299-79.712,2.398-161.527-66.973-210.001c-43.768-30.575-92.629-39.391-146.573-23.323
		c20.16,23.681,42.827,43.412,64.116,64.535c41.775,41.466,42.385,92.768,2.541,131.993c-38.621,38.027-90.751,36.769-130.848-3.682
		c-21.039-21.218-41.323-43.182-61.95-64.811c-2.481,1.478-4.965,2.956-7.449,4.43c-11.917,65.068,2.847,123.237,51.751,169.886
		c52.055,49.662,114.347,63.696,182.656,40.708c17.447-5.87,26.693-2.771,38.523,9.236
		c50.926,51.703,102.438,102.843,154.33,153.582c25.092,24.539,55.93,25.339,80.656,3.882
		C875.148,794.657,876.697,759.418,847.267,729.965z M806.126,805.605c-16.994-0.033-32.463-15.201-31.037-31.919
		c1.564-18.368,13.227-27.327,30.498-29.372c18.582,1.554,30.021,10.294,31.084,29.186
		C837.66,791.057,823.369,805.633,806.126,805.605z"/>
	<path fill="#272636" d="M805.587,744.314"/>
</g>
</svg>
