<?xml version="1.0" encoding="utf-8"?>
<!-- Generator: Adobe Illustrator 16.0.0, SVG Export Plug-In . SVG Version: 6.00 Build 0)  -->
<!DOCTYPE svg PUBLIC "-//W3C//DTD SVG 1.1//EN" "http://www.w3.org/Graphics/SVG/1.1/DTD/svg11.dtd">
<svg version="1.1" id="图形" xmlns="http://www.w3.org/2000/svg" xmlns:xlink="http://www.w3.org/1999/xlink" x="0px" y="0px"
	 width="1000.637px" height="1000.678px" viewBox="15.167 -16.333 1000.637 1000.678"
	 enable-background="new 15.167 -16.333 1000.637 1000.678" xml:space="preserve">
<g>
	<path fill="#333333" d="M416.658,556.693c-18.671,0-33.9,15.229-33.9,33.898v33.898c0,18.672,15.229,33.898,33.9,33.898h82.726
		c9.667-37.738,27.211-72.364,51.178-101.695H416.658z"/>
	<path fill="#333333" d="M493.227,758.097H179.369c-18.703,0-33.896-15.229-33.896-33.898V147.928
		c0-18.737,15.194-33.898,33.896-33.898h610.169c18.705,0,33.898,15.161,33.898,33.898v320.511
		c24.134,6.423,46.877,16.089,67.797,28.602V147.928c0-56.143-45.552-101.695-101.695-101.695H179.369
		c-56.142,0-101.693,45.552-101.693,101.695v576.271c0,56.144,45.552,101.694,101.693,101.694h331.733
		C502.231,804.574,496.24,781.798,493.227,758.097"/>
	<path fill="#333333" d="M721.741,217.71H416.658c-18.671,0-33.9,15.229-33.9,33.898v33.898c0,18.705,15.229,33.898,33.9,33.898
		h305.083c18.673,0,33.9-15.194,33.9-33.898v-33.898C755.641,232.939,740.414,217.71,721.741,217.71"/>
	<path fill="#333333" d="M281.065,556.693h-33.899c-18.671,0-33.897,15.229-33.897,33.898v33.898
		c0,18.672,15.227,33.898,33.897,33.898h33.899c18.67,0,33.896-15.227,33.896-33.898v-33.898
		C314.961,571.921,299.735,556.693,281.065,556.693"/>
	<path fill="#333333" d="M314.961,249.623c0-18.67-15.227-33.898-33.896-33.898h-33.899c-18.671,0-33.897,15.228-33.897,33.898
		v33.898c0,18.672,15.227,33.898,33.897,33.898h33.899c18.67,0,33.896-15.227,33.896-33.898V249.623z"/>
	<path fill="#333333" d="M314.961,421.1c0-18.67-15.227-33.898-33.896-33.898h-33.899c-18.671,0-33.897,15.229-33.897,33.898v33.898
		c0,18.705,15.227,33.898,33.897,33.898h33.899c18.67,0,33.896-15.194,33.896-33.898V421.1z"/>
	<path fill="#333333" d="M382.758,454.998c0,18.705,15.229,33.898,33.9,33.898h217.755c36.084-18.604,76.934-29.33,120.333-29.529
		c0.231-1.456,0.895-2.78,0.895-4.37V421.1c0-18.67-15.228-33.898-33.9-33.898H416.658c-18.671,0-33.9,15.229-33.9,33.898V454.998z"
		/>
	<path fill="#333333" d="M755.641,527.164c-108.813,0-197.067,88.189-197.067,197.034s88.255,196.969,197.067,196.969
		c108.811,0,197.065-88.124,197.065-196.969S864.452,527.164,755.641,527.164 M857.333,758.097h-67.796v67.796h-67.797v-67.796
		h-67.797V690.3h67.797v-67.797h67.797V690.3h67.796V758.097z"/>
</g>
</svg>
