<?xml version="1.0" encoding="utf-8"?>
<!-- Generator: Adobe Illustrator 16.0.0, SVG Export Plug-In . SVG Version: 6.00 Build 0)  -->
<!DOCTYPE svg PUBLIC "-//W3C//DTD SVG 1.1//EN" "http://www.w3.org/Graphics/SVG/1.1/DTD/svg11.dtd">
<svg version="1.1" id="图形" xmlns="http://www.w3.org/2000/svg" xmlns:xlink="http://www.w3.org/1999/xlink" x="0px" y="0px"
	 width="1000.637px" height="1000.678px" viewBox="15.167 -16.333 1000.637 1000.678"
	 enable-background="new 15.167 -16.333 1000.637 1000.678" xml:space="preserve">
<path fill="#272636" d="M929.27,897.823c-6.238,13.803-20.063,23.456-36.203,23.456H137.354c-16.142,0-29.97-9.653-36.202-23.456
	c-13.808-6.242-23.461-20.069-23.461-36.183V105.902c0-16.141,9.654-29.97,23.461-36.198c6.232-13.79,20.06-23.444,36.202-23.444
	h755.709c16.145,0,29.969,9.654,36.203,23.46c13.802,6.238,23.46,20.041,23.46,36.182v755.735
	C952.73,877.754,943.074,891.581,929.27,897.823 M873.184,125.794H157.236v477.311h119.327c21.963,0,39.776,17.809,39.776,39.771
	v79.544h397.743v-79.54c0-21.962,17.817-39.771,39.775-39.771h119.327V125.794z M256.675,503.67v-19.888
	c0-10.994,8.898-19.909,19.888-19.909h477.294c10.994,0,19.884,8.915,19.884,19.909v19.888c0,10.973-8.89,19.889-19.884,19.889
	H276.559C265.569,523.559,256.675,514.643,256.675,503.67 M753.852,404.215H276.559c-10.99,0-19.887-8.894-19.887-19.889v-19.883
	c0-10.978,8.897-19.889,19.887-19.889h477.293c10.995,0,19.889,8.911,19.889,19.889v19.883
	C773.741,395.321,764.847,404.215,753.852,404.215 M753.852,284.908H276.559c-10.99,0-19.887-8.915-19.887-19.888v-19.905
	c0-10.972,8.897-19.87,19.887-19.87h477.293c10.995,0,19.889,8.898,19.889,19.87v19.905
	C773.741,275.993,764.847,284.908,753.852,284.908"/>
</svg>
