<?xml version="1.0" encoding="utf-8"?>
<!-- Generator: Adobe Illustrator 16.0.0, SVG Export Plug-In . SVG Version: 6.00 Build 0)  -->
<!DOCTYPE svg PUBLIC "-//W3C//DTD SVG 1.1//EN" "http://www.w3.org/Graphics/SVG/1.1/DTD/svg11.dtd">
<svg version="1.1" id="图形" xmlns="http://www.w3.org/2000/svg" xmlns:xlink="http://www.w3.org/1999/xlink" x="0px" y="0px"
	 width="1000.637px" height="1000.678px" viewBox="15.167 -16.333 1000.637 1000.678"
	 enable-background="new 15.167 -16.333 1000.637 1000.678" xml:space="preserve">
<path fill-rule="evenodd" clip-rule="evenodd" d="M844.822,921.271H727.41c-21.617,0-39.135-17.858-39.135-39.819v-79.556
	c0-21.962,17.518-39.734,39.135-39.734h78.275V523.494h-274v238.667h39.137c21.621,0,39.135,17.772,39.135,39.734v79.556
	c0,21.961-17.514,39.819-39.135,39.819H453.371c-21.62,0-39.138-17.858-39.138-39.819v-79.556c0-21.962,17.518-39.734,39.138-39.734
	h39.135V523.494H218.508v238.667h78.315c21.62,0,39.137,17.772,39.137,39.734v79.556c0,21.961-17.517,39.819-39.137,39.819H179.37
	c-21.618,0-39.179-17.858-39.179-39.819v-79.556c0-21.962,17.561-39.734,39.179-39.734V523.494V483.76h39.139h273.998V205.275
	h-39.135c-21.62,0-39.138-17.774-39.138-39.734V85.985c0-21.96,17.518-39.734,39.138-39.734h117.451
	c21.621,0,39.135,17.774,39.135,39.734v79.556c0,21.96-17.514,39.734-39.135,39.734h-39.137V483.76h274h39.137v39.734v238.667
	c21.619,0,39.135,17.772,39.135,39.734v79.556C883.957,903.412,866.441,921.271,844.822,921.271z"/>
</svg>
