<?xml version="1.0" encoding="utf-8"?>
<!-- Generator: Adobe Illustrator 16.0.0, SVG Export Plug-In . SVG Version: 6.00 Build 0)  -->
<!DOCTYPE svg PUBLIC "-//W3C//DTD SVG 1.1//EN" "http://www.w3.org/Graphics/SVG/1.1/DTD/svg11.dtd">
<svg version="1.1" id="图形" xmlns="http://www.w3.org/2000/svg" xmlns:xlink="http://www.w3.org/1999/xlink" x="0px" y="0px"
	 width="1000.637px" height="1000.678px" viewBox="15.167 -16.333 1000.637 1000.678"
	 enable-background="new 15.167 -16.333 1000.637 1000.678" xml:space="preserve">
<g>
	<path fill="#333333" d="M916.375,282.094c-22.206-46.352-53.911-87.901-94.227-123.494
		c-40.012-35.321-82.526-63.023-134.254-82.339c-53.323-19.911-109.91-30.006-168.189-30.006
		c-58.273,0-114.855,10.096-168.176,30.006c-51.728,19.316-98.243,47.019-138.254,82.338
		c-40.321,35.593-72.026,77.143-94.236,123.493c-23.161,48.336-34.904,99.714-34.904,152.709
		c0,53.695,12.091,105.715,35.938,154.614c20.449,41.931,48.676,79.871,84.037,112.991c-5.501,42.814-35.621,66.921-67.33,92.303
		c-28.999,23.211-58.985,47.214-58.985,85.904c0,15.382,10.329,28.847,25.186,32.832c19.313,5.182,40.398,7.809,62.668,7.809
		c62.251,0,123.044-20.306,163.082-37.338c42.297-17.994,83.67-41.788,115.913-66.492c24.992,3.914,50.172,5.893,75.062,5.893
		c58.277,0,114.864-10.098,168.191-30.013c51.726-19.316,94.24-47.021,134.252-82.342c40.315-35.593,72.019-77.138,94.227-123.482
		c23.156-48.331,34.9-99.699,34.9-152.678C951.276,381.807,939.534,330.429,916.375,282.094z M519.706,755.33
		c-25.848,0-52.097-2.491-78.022-7.404c-10.021-1.898-20.368,0.802-28.182,7.36c-55.076,46.219-157.02,95.265-240.927,97.873
		c2.186-1.768,4.426-3.561,6.691-5.373c19.618-15.704,41.855-33.503,60.165-58.128c22.582-30.368,33.559-63.598,33.559-101.584
		c0-9.877-4.295-19.265-11.768-25.722C190.867,601.561,152.12,520.748,152.12,434.802c0-176.758,164.898-320.561,367.585-320.561
		c202.687,0,363.583,143.803,363.583,320.561C883.289,611.542,722.392,755.33,519.706,755.33z"/>
	<path fill="#333333" d="M575.606,459.318c-2.519-0.814-18.257-7.916-8.43-37.86h-0.099c25.661-26.491,45.279-69.049,45.279-110.96
		c0-64.416-42.856-98.21-92.687-98.21c-49.727,0-92.351,33.794-92.351,98.21c0,42.043,19.487,84.852,45.347,111.226
		c10.024,26.407-7.968,36.2-11.752,37.594c-52.118,18.838-113.3,53.215-113.3,87.174v12.715c0,46.242,89.664,56.767,172.588,56.767
		c83.09,0,171.594-10.524,171.594-56.767v-12.715C691.796,511.535,630.348,477.41,575.606,459.318z"/>
</g>
</svg>
