<?xml version="1.0" encoding="utf-8"?>
<!-- Generator: Adobe Illustrator 16.0.0, SVG Export Plug-In . SVG Version: 6.00 Build 0)  -->
<!DOCTYPE svg PUBLIC "-//W3C//DTD SVG 1.1//EN" "http://www.w3.org/Graphics/SVG/1.1/DTD/svg11.dtd">
<svg version="1.1" id="图形" xmlns="http://www.w3.org/2000/svg" xmlns:xlink="http://www.w3.org/1999/xlink" x="0px" y="0px"
	 width="1000.637px" height="1000.678px" viewBox="15.167 -16.333 1000.637 1000.678"
	 enable-background="new 15.167 -16.333 1000.637 1000.678" xml:space="preserve">
<g>
	<path fill="#272636" d="M669.174,477.055c66.504,0,120.47-53.918,120.47-120.405c0-66.56-53.966-120.493-120.47-120.493
		c-66.571,0-120.471,53.933-120.471,120.493C548.704,423.136,602.603,477.055,669.174,477.055 M669.174,513.586
		c-94.213,0-170.627,76.372-170.627,170.607v146.449h341.21V684.189C839.757,589.958,763.385,513.586,669.174,513.586
		 M855.043,555.003c120.174-106.907,130.933-290.908,24.092-411.114C772.271,23.75,588.208,12.949,468.055,119.856
		C353.009,222.22,338.548,395.114,431.316,515.2l-70.824,62.894l-26.873-30.191L77.667,775.488l80.605,90.748l255.95-227.675
		l-26.896-30.233l70.824-63.021C566.497,651.491,739.974,657.317,855.043,555.003 M486.447,140.524
		c108.541-96.573,275.428-86.758,371.958,21.835c96.526,108.53,86.791,275.361-21.749,371.933
		c-108.588,96.573-275.428,86.749-371.981-21.769C368.125,403.96,377.884,237.082,486.447,140.524"/>
</g>
</svg>
