<?xml version="1.0" encoding="utf-8"?>
<!-- Generator: Adobe Illustrator 16.0.0, SVG Export Plug-In . SVG Version: 6.00 Build 0)  -->
<!DOCTYPE svg PUBLIC "-//W3C//DTD SVG 1.1//EN" "http://www.w3.org/Graphics/SVG/1.1/DTD/svg11.dtd">
<svg version="1.1" id="图形" xmlns="http://www.w3.org/2000/svg" xmlns:xlink="http://www.w3.org/1999/xlink" x="0px" y="0px"
	 width="1000.637px" height="1000.678px" viewBox="15.167 -16.333 1000.637 1000.678"
	 enable-background="new 15.167 -16.333 1000.637 1000.678" xml:space="preserve">
<g>
	<path fill="#272636" d="M734.247,509.791c-60.25,0-109.085,49.118-109.085,109.72c0,60.596,48.835,109.72,109.085,109.72
		c60.245,0,109.086-49.124,109.086-109.72C843.333,558.909,794.492,509.791,734.247,509.791z M773.835,640.446l9.346,54.805
		l-48.935-25.875l-48.935,25.875l9.346-54.805l-39.593-38.814l54.714-8l24.468-49.865l24.468,49.865l54.715,8L773.835,640.446z"/>
	<rect x="515.193" y="436.866" fill="#272636" width="182.297" height="36.463"/>
	<path fill="#272636" d="M916.25,108.733h-802.11c-36.463,0-36.463,36.462-36.463,36.462v656.27
		c0,36.462,36.463,36.462,36.463,36.462h802.11c0,0,36.456,0,36.456-36.462v-656.27C952.707,145.195,952.707,108.733,916.25,108.733
		z M904.856,790.069H125.534V156.589h779.322V790.069z"/>
	<path fill="#272636" d="M375.899,683.622c1.372,15.166-6.205,22.048-22.744,20.673c-11.723,0-24.807-0.355-39.276-1.034
		c2.74,10.337,4.47,18.609,5.169,24.812c15.146,0,29.972-0.354,44.45-1.034c25.484,0,37.89-12.067,37.21-36.183V525.457h37.213
		v-22.743H187.758v22.743h188.141V683.622z"/>
	<rect x="515.193" y="218.113" fill="#272636" width="328.14" height="36.455"/>
	<path fill="#272636" d="M329.382,561.636H215.67v124.051h23.776v-18.609h89.935V561.636z M305.605,646.404h-66.159v-63.06h66.159
		V646.404z"/>
	<path fill="#272636" d="M216.704,424.227c0,8.968-2.758,16.19-8.269,21.709l16.542,18.608c0.671-0.689,1.708-1.725,3.1-3.099
		c4.132-4.828,7.915-8.271,11.37-10.337c15.15-11.032,29.982-21.017,44.451-29.979c-0.694-1.375-1.392-3.779-2.069-7.238
		c-2.759-7.573-4.491-13.437-5.168-17.575c-3.455,2.765-9.3,7.237-17.569,13.44c-7.594,5.525-13.442,9.998-17.575,13.441V307.42
		h-53.752v21.708h28.94V424.227z"/>
	<path fill="#272636" d="M341.783,467.65h24.812v-97.175h70.293v-22.744h-70.293v-68.228h59.957v-22.742H316.976
		c4.135-10.336,7.918-21.012,11.373-32.044l-23.779-4.134c-8.959,31.014-22.402,61.346-40.31,90.971
		c7.571,4.133,14.81,8.267,21.708,12.406c8.269-14.476,15.506-29.285,21.708-44.451h34.107v68.222h-78.565v22.744h78.565V467.65z"/>
	<rect x="515.193" y="327.493" fill="#272636" width="255.215" height="36.456"/>
	<path fill="#272636" d="M253.917,266.069c-11.72-14.471-23.771-28.591-36.177-42.381l-19.645,12.406
		c12.407,15.166,24.115,29.976,35.147,44.452L253.917,266.069z"/>
</g>
</svg>
