<?xml version="1.0" encoding="utf-8"?>
<!-- Generator: Adobe Illustrator 16.0.0, SVG Export Plug-In . SVG Version: 6.00 Build 0)  -->
<!DOCTYPE svg PUBLIC "-//W3C//DTD SVG 1.1//EN" "http://www.w3.org/Graphics/SVG/1.1/DTD/svg11.dtd">
<svg version="1.1" id="图形" xmlns="http://www.w3.org/2000/svg" xmlns:xlink="http://www.w3.org/1999/xlink" x="0px" y="0px"
	 width="1000.637px" height="1000.678px" viewBox="15.167 -16.333 1000.637 1000.678"
	 enable-background="new 15.167 -16.333 1000.637 1000.678" xml:space="preserve">
<g>
	<polygon fill="#333333" points="531.839,786.078 415.159,786.078 542.39,527.869 380.582,527.869 380.582,450.108 649.306,450.108 
		649.306,502.036 	"/>
	<g>
		<path fill="#333333" d="M313.27,214.512c-18.538,0-33.657-15.119-33.657-33.656V79.888c0-18.538,15.119-33.656,33.657-33.656
			c18.537,0,33.656,15.119,33.656,33.656v100.968C346.926,199.393,331.807,214.512,313.27,214.512"/>
		<path fill="#333333" d="M851.772,113.544h-67.314v67.312c0,37.141-30.206,67.313-67.313,67.313
			c-37.14,0-67.313-30.172-67.313-67.313v-67.312h-269.25v67.312c0,37.141-30.206,67.313-67.313,67.313
			c-37.173,0-67.312-30.172-67.312-67.313v-67.312h-67.313c-55.71,0-100.968,45.226-100.968,100.968v605.812
			c0,55.742,45.258,100.97,100.968,100.97h673.127c55.74,0,100.968-45.228,100.968-100.97V214.512
			C952.74,158.77,907.512,113.544,851.772,113.544 M885.427,820.324c0,18.539-15.119,33.657-33.655,33.657H178.645
			c-18.537,0-33.655-15.118-33.655-33.657V349.136h740.438V820.324z"/>
		<path fill="#333333" d="M717.144,214.512c-18.537,0-33.655-15.119-33.655-33.656V79.888c0-18.538,15.118-33.656,33.655-33.656
			c18.538,0,33.658,15.119,33.658,33.656v100.968C750.802,199.393,735.682,214.512,717.144,214.512"/>
	</g>
</g>
</svg>
