<?xml version="1.0" encoding="utf-8"?>
<!-- Generator: Adobe Illustrator 17.0.0, SVG Export Plug-In . SVG Version: 6.00 Build 0)  -->
<!DOCTYPE svg PUBLIC "-//W3C//DTD SVG 1.1//EN" "http://www.w3.org/Graphics/SVG/1.1/DTD/svg11.dtd">
<svg version="1.1" id="图形" xmlns="http://www.w3.org/2000/svg" xmlns:xlink="http://www.w3.org/1999/xlink" x="0px" y="0px"
	 width="1000.637px" height="1000.678px" viewBox="15.167 -16.333 1000.637 1000.678"
	 enable-background="new 15.167 -16.333 1000.637 1000.678" xml:space="preserve">
<path fill="#333333" d="M851.94,198.019H448.194c0-55.724-45.209-100.937-100.936-100.937H179.03
	c-55.724,0-100.937,45.213-100.937,100.937v100.936v33.646v437.392c0,55.727,45.213,100.936,100.937,100.936h672.91
	c55.727,0,100.936-45.209,100.936-100.936V298.956C952.876,243.232,907.667,198.019,851.94,198.019z M885.585,769.993
	c0,18.566-15.08,33.645-33.646,33.645H179.03c-18.566,0-33.646-15.08-33.646-33.645V298.956c0-18.566,15.08-33.646,33.646-33.646
	h672.91c18.566,0,33.646,15.08,33.646,33.646V769.993z"/>
<g>
	<path fill="#333333" d="M565.185,576.077c-2.473-0.824-18.146-7.885-8.345-37.646h-0.132
		c25.501-26.294,50.609-68.593,50.609-110.263c0-64.039-48.204-97.59-97.691-97.59s-97.955,33.551-97.955,97.59
		c0,41.835,25.504,84.299,51.17,110.526c9.997,26.264-7.885,35.997-11.612,37.383c-51.866,18.74-108.249,52.92-108.249,86.637
		c0,9.108,0,3.598,0,12.635c0,45.961,84.691,56.42,167.139,56.42c82.583,0,165.855-10.46,165.855-56.42c0-9.037,0-3.527,0-12.635
		C675.974,627.974,619.558,594.057,565.185,576.077z"/>
</g>
</svg>
