<?xml version="1.0" encoding="utf-8"?>
<!-- Generator: Adobe Illustrator 16.0.0, SVG Export Plug-In . SVG Version: 6.00 Build 0)  -->
<!DOCTYPE svg PUBLIC "-//W3C//DTD SVG 1.1//EN" "http://www.w3.org/Graphics/SVG/1.1/DTD/svg11.dtd">
<svg version="1.1" id="图形" xmlns="http://www.w3.org/2000/svg" xmlns:xlink="http://www.w3.org/1999/xlink" x="0px" y="0px"
	 width="1000.637px" height="1000.678px" viewBox="15.167 -16.333 1000.637 1000.678"
	 enable-background="new 15.167 -16.333 1000.637 1000.678" xml:space="preserve">
<g>
	<g>
		<path fill-rule="evenodd" clip-rule="evenodd" fill="#272636" d="M187.079,323.297H442v-35.813H187.079V323.297z M187.079,430.735
			H442v-35.812H187.079V430.735z M187.079,538.173H442v-35.813H187.079V538.173z M187.079,645.528H442v-35.812H187.079V645.528z
			 M587.686,430.735H842.65v-35.812H587.686V430.735z M587.686,323.297H842.65v-35.813H587.686V323.297z M902.694,108.761
			c0,0-142.61,0-274.195,0c-48.634,0-64.828,28.292-111.454,28.292c-51.882,0-54.446-28.292-102.141-28.292
			c-108.762,0-287.014,0-287.014,0c-27.693,0-50.087,22.821-50.087,50.941v650.529c0,28.122,22.395,50.941,50.087,50.941
			c0,0,166.585,0,287.014,0c34.917,0,67.139,35.045,98.167,35.045c43.718,0,62.394-35.045,95.515-35.045
			c123.549,0,294.109,0,294.109,0c27.65,0,50.045-22.819,50.045-50.941V159.702C952.739,131.582,930.344,108.761,902.694,108.761z
			 M477.898,220.473v558.73c0,0-5.599-26.067-61.668-26.067c-56.07,0-265.519,0-265.519,0V179.874c0,0,175.815,0,257.099,0
			C489.137,179.874,477.898,220.473,477.898,220.473z M879.02,752.882c0,0-209.494,0-265.563,0
			c-56.07,0-61.669,26.321-61.669,26.321V220.816c0,0-11.238-40.942,70.087-40.942c81.327,0,257.146,0,257.146,0V752.882z
			 M587.686,538.173H842.65v-35.813H587.686V538.173z M587.686,645.528H842.65v-35.812H587.686V645.528z"/>
	</g>
</g>
</svg>
