<?xml version="1.0" encoding="utf-8"?>
<!-- Generator: Adobe Illustrator 16.0.0, SVG Export Plug-In . SVG Version: 6.00 Build 0)  -->
<!DOCTYPE svg PUBLIC "-//W3C//DTD SVG 1.1//EN" "http://www.w3.org/Graphics/SVG/1.1/DTD/svg11.dtd">
<svg version="1.1" id="图形" xmlns="http://www.w3.org/2000/svg" xmlns:xlink="http://www.w3.org/1999/xlink" x="0px" y="0px"
	 width="1000.637px" height="1000.678px" viewBox="15.167 -16.333 1000.637 1000.678"
	 enable-background="new 15.167 -16.333 1000.637 1000.678" xml:space="preserve">
<path fill-rule="evenodd" clip-rule="evenodd" fill="#020202" d="M733.945,593.367H624.559V485.693h109.386V593.367z
	 M624.559,647.205h164.077v-53.838V485.693h109.385v269.274H624.559V647.205z M132.328,593.367V162.581h601.617v269.274H624.559
	h-54.691v161.513H132.328z M77.635,108.742v53.838v430.787v53.838h54.692h437.54v161.6h54.691h273.462h54.692v-53.838V485.693
	v-53.838h-54.692H788.636V162.581v-53.838H132.328H77.635z M515.174,485.693h-54.692v53.839h54.692V485.693z M405.79,485.693h54.692
	v-53.838H405.79V485.693z M351.097,431.855h54.693v-53.839h-54.693V431.855z M296.405,378.016h54.692v-53.922h-54.692V378.016z
	 M241.712,324.094h54.692v-53.838H405.79v-53.837H241.712H187.02v53.837v161.6h54.692V324.094z"/>
</svg>
