<?xml version="1.0" encoding="utf-8"?>
<!-- Generator: Adobe Illustrator 17.0.0, SVG Export Plug-In . SVG Version: 6.00 Build 0)  -->
<!DOCTYPE svg PUBLIC "-//W3C//DTD SVG 1.1//EN" "http://www.w3.org/Graphics/SVG/1.1/DTD/svg11.dtd">
<svg version="1.1" id="图形" xmlns="http://www.w3.org/2000/svg" xmlns:xlink="http://www.w3.org/1999/xlink" x="0px" y="0px"
	 width="1000.637px" height="1000.678px" viewBox="15.167 -16.333 1000.637 1000.678"
	 enable-background="new 15.167 -16.333 1000.637 1000.678" xml:space="preserve">
<g>
	<path fill="#333333" d="M387.212,464.39c-1.938-0.626-14.064-6.11-6.473-29.144h-0.131c19.78-20.372,32.364-42.023,32.364-74.256
		c0-49.617-27.468-76.755-65.78-76.755c-38.342,0-66.171,27.138-66.171,76.755c0,32.364,13.337,54.146,33.218,74.451
		c7.718,20.339-6.147,27.865-9.037,28.949c-40.119,14.491-90.489,35.55-90.489,61.672c0,7.066,0,6.605,0,13.637
		c0,35.583,69,43.665,132.842,43.665c63.94,0,132.085-8.082,132.085-43.665c0-7.032,0-6.571,0-13.637
		C479.64,499.153,429.336,478.323,387.212,464.39z"/>
	<path fill="#333333" d="M818.295,147.551H212.677c-74.21,0-134.584,60.374-134.584,134.582v403.745
		c0,74.21,60.374,134.584,134.584,134.584h67.291c18.583,0,33.644-15.064,33.644-33.646v-33.646h33.646v33.646
		c0,18.583,15.062,33.646,33.644,33.646h269.163c18.583,0,33.644-15.064,33.644-33.646v-33.646h33.646v33.646
		c0,18.583,15.064,33.646,33.646,33.646h67.291c74.208,0,134.582-60.374,134.582-134.584V282.132
		C952.876,207.924,892.503,147.551,818.295,147.551z M885.586,685.877c0,37.104-30.187,67.293-67.291,67.293h-33.646v-33.646
		c0-18.583-15.062-33.646-33.644-33.646H650.067c-18.583,0-33.644,15.064-33.644,33.646v33.646H414.548v-33.646
		c0-18.583-15.062-33.646-33.644-33.646H279.968c-18.583,0-33.646,15.064-33.646,33.646v33.646h-33.644
		c-37.104,0-67.293-30.189-67.293-67.293V282.132c0-37.104,30.189-67.291,67.293-67.291h605.618
		c37.104,0,67.291,30.187,67.291,67.291V685.877z"/>
	<path fill="#333333" d="M802.424,325.078c-12.715-12.718-27.862-22.606-45.442-29.605c-17.576-7.032-36.502-10.548-56.807-10.548
		c-20.44,0-39.661,3.778-57.699,11.335c-18.071,7.526-33.679,17.906-46.855,31.183c-13.307,13.502-23.754,29.208-31.344,47.282
		c-7.59,18.004-11.402,37.454-11.402,58.321c0,21.947,3.647,42.154,10.942,60.488c7.294,18.401,17.482,34.14,30.557,47.282
		c12.913,13.044,28.424,23.165,46.363,30.358c18.004,7.197,37.521,10.81,58.55,10.81c12.486,0,23.69-0.559,33.777-1.709
		c10.02-1.117,20.436-2.89,31.247-5.255v-36.243c-9.858,2.86-20.635,5.128-32.364,6.837c-11.699,1.676-22.509,2.53-32.461,2.53
		c-14.161,0-27.7-2.433-40.613-7.395c-12.943-4.929-24.312-12.223-34.073-21.849c-10.087-9.727-17.973-21.816-23.723-36.209
		c-5.78-14.424-8.674-30.853-8.674-49.318c0-17.348,3.058-33.151,9.168-47.443c6.144-14.293,14.225-26.287,24.316-36.044
		c10.578-10.087,22.176-17.677,34.662-22.771c12.519-5.124,25.759-7.654,39.823-7.654c14.818,0,28.619,2.268,41.401,6.867
		c12.782,4.599,23.885,11.631,33.383,21.193c9.397,9.397,16.692,21.059,21.913,34.991c5.259,13.963,7.823,30.227,7.823,48.826
		c0,10.514-1.087,20.897-3.287,31.115c-2.167,10.218-4.993,19.023-8.445,26.516h-26.711V351.594l-39.362,0.161v10.383
		c-3.22-3.055-7.789-6.076-13.704-9.034c-5.945-2.957-12.748-4.404-20.305-4.404c-9.495,0-18.63,2.069-27.371,6.275
		c-8.704,4.175-16.294,9.858-22.704,16.988c-6.766,7.853-12.156,17.152-16.197,27.895c-4.041,10.777-6.08,22.738-6.08,35.88
		c0,12.816,1.645,24.709,4.929,35.617c3.253,10.942,7.658,19.945,13.273,26.977c5.686,7.261,12.422,12.812,20.275,16.658
		c7.853,3.846,16.264,5.784,25.298,5.784c6.147,0,11.042-0.363,14.589-1.019c3.583-0.69,7.426-1.773,11.601-3.253
		c3.677-1.215,7.029-2.759,10.087-4.566c2.988-1.807,6.046-3.745,9.131-5.784l2.661,11.433h86.974
		c6.769-10.413,12.486-22.176,17.152-38.901c4.697-16.725,7.062-32.858,7.062-48.399c0-21.981-3.647-41.825-10.941-59.569
		C825.492,352.973,815.371,337.759,802.424,325.078z M726.197,474.346c-4.764,4.404-9.397,7.786-13.997,10.121
		c-4.569,2.332-9.989,3.482-16.099,3.482c-11.762,0-20.241-4.337-25.399-13.011c-5.158-8.674-7.789-21.917-7.789-39.692
		c0-16.099,3.122-29.013,9.3-38.773c6.144-9.757,15.05-14.619,26.55-14.619c5.222,0,9.855,0.558,13.996,1.608
		c4.108,1.053,8.576,2.793,13.438,5.158V474.346z"/>
</g>
</svg>
