<?xml version="1.0" encoding="utf-8"?>
<!-- Generator: Adobe Illustrator 17.0.0, SVG Export Plug-In . SVG Version: 6.00 Build 0)  -->
<!DOCTYPE svg PUBLIC "-//W3C//DTD SVG 1.1//EN" "http://www.w3.org/Graphics/SVG/1.1/DTD/svg11.dtd">
<svg version="1.1" id="图形" xmlns="http://www.w3.org/2000/svg" xmlns:xlink="http://www.w3.org/1999/xlink" x="0px" y="0px"
	 width="1000.637px" height="1000.678px" viewBox="15.167 -16.333 1000.637 1000.678"
	 enable-background="new 15.167 -16.333 1000.637 1000.678" xml:space="preserve">
<g>
	<path fill="#333333" d="M833.504,114.128H546.54V80.522c0-18.104-14.677-32.78-32.78-32.78c-18.104,0-32.78,14.676-32.78,32.78
		v33.606H194.018c-52.956,0-95.923,45.127-95.923,100.819v436.883c0,55.662,42.967,100.819,95.923,100.819H480.98v13.801
		l-174.314,91.607c-16.025,8.422-22.189,28.241-13.768,44.267c5.865,11.161,17.255,17.538,29.045,17.538
		c5.139,0,10.356-1.213,15.221-3.77l143.816-75.579v12.955c0,18.104,14.676,32.78,32.78,32.78c18.104,0,32.78-14.676,32.78-32.78
		v-12.955l143.817,75.579c4.866,2.557,10.081,3.77,15.222,3.77c11.788,0,23.18-6.378,29.045-17.538
		c8.422-16.025,2.258-35.845-13.769-44.267L546.54,766.452V752.65h286.963c52.959,0,95.923-45.157,95.923-100.819V214.947
		C929.427,159.255,886.463,114.128,833.504,114.128z M865.478,651.831H162.043V214.947h703.435V651.831z"/>
	<path fill="#333333" d="M281.715,506.394l60.049-63.114l45.437,119.392c4.555,11.968,15.661,20.188,28.437,21.047
		c0.739,0.05,1.474,0.074,2.208,0.074c11.947-0.001,23.029-6.524,28.791-17.123l106.388-195.684l64.884,68.195
		c6.188,6.503,14.772,10.185,23.749,10.185s17.561-3.682,23.748-10.185l127.897-134.425c12.479-13.116,11.963-33.865-1.152-46.344
		c-13.117-12.48-33.866-11.963-46.344,1.153L641.658,369.03l-72.175-75.858c-7.225-7.594-17.644-11.277-28.039-9.903
		c-10.392,1.372-19.501,7.631-24.508,16.841l-93.83,172.584l-38.58-101.374c-4.006-10.525-13.134-18.257-24.175-20.477
		c-11.042-2.222-22.449,1.383-30.21,9.542l-95.923,100.819c-12.479,13.116-11.963,33.865,1.153,46.344
		C248.487,520.026,269.237,519.509,281.715,506.394z"/>
</g>
</svg>
