<?xml version="1.0" encoding="utf-8"?>
<!-- Generator: Adobe Illustrator 16.0.0, SVG Export Plug-In . SVG Version: 6.00 Build 0)  -->
<!DOCTYPE svg PUBLIC "-//W3C//DTD SVG 1.1//EN" "http://www.w3.org/Graphics/SVG/1.1/DTD/svg11.dtd">
<svg version="1.1" id="图形" xmlns="http://www.w3.org/2000/svg" xmlns:xlink="http://www.w3.org/1999/xlink" x="0px" y="0px"
	 width="1000.637px" height="1000.678px" viewBox="15.167 -16.333 1000.637 1000.678"
	 enable-background="new 15.167 -16.333 1000.637 1000.678" xml:space="preserve">
<path fill-rule="evenodd" clip-rule="evenodd" d="M515.187,921.287c-241.618,0-437.521-195.881-437.521-437.521
	c0-241.642,195.902-437.521,437.521-437.521c241.62,0,437.521,195.879,437.521,437.521
	C952.708,725.406,756.807,921.287,515.187,921.287z M515.187,125.802c-197.695,0-357.963,160.267-357.963,357.964
	c0,197.695,160.268,357.963,357.963,357.963c197.697,0,357.966-160.269,357.966-357.963
	C873.153,286.069,712.884,125.802,515.187,125.802z M674.258,523.544H583.68c-13.76,23.671-39.139,39.778-68.493,39.778
	c-43.922,0-79.556-35.634-79.556-79.556c0-29.375,16.108-54.734,39.779-68.513V245.116c0-21.961,17.816-39.779,39.777-39.779
	c21.961,0,39.779,17.818,39.779,39.779v170.137c11.963,6.942,21.921,16.877,28.884,28.733h90.408
	c21.964,0,39.823,17.817,39.823,39.779C714.082,505.728,696.222,523.544,674.258,523.544z"/>
</svg>
