<?xml version="1.0" encoding="utf-8"?>
<!-- Generator: Adobe Illustrator 17.0.0, SVG Export Plug-In . SVG Version: 6.00 Build 0)  -->
<!DOCTYPE svg PUBLIC "-//W3C//DTD SVG 1.1//EN" "http://www.w3.org/Graphics/SVG/1.1/DTD/svg11.dtd">
<svg version="1.1" id="图形" xmlns="http://www.w3.org/2000/svg" xmlns:xlink="http://www.w3.org/1999/xlink" x="0px" y="0px"
	 width="1000.637px" height="1000.678px" viewBox="15.167 -16.333 1000.637 1000.678"
	 enable-background="new 15.167 -16.333 1000.637 1000.678" xml:space="preserve">
<path fill="#333333" d="M851.94,198.019H448.194c0-55.724-45.209-100.937-100.936-100.937H179.03
	c-55.724,0-100.937,45.213-100.937,100.937v100.936v33.646v437.392c0,55.727,45.213,100.936,100.937,100.936h672.91
	c55.727,0,100.936-45.209,100.936-100.936V298.956C952.876,243.232,907.667,198.019,851.94,198.019z M885.585,769.993
	c0,18.566-15.08,33.645-33.646,33.645H179.03c-18.566,0-33.646-15.08-33.646-33.645V298.956c0-18.566,15.08-33.646,33.646-33.646
	h672.91c18.566,0,33.646,15.08,33.646,33.646V769.993z"/>
<path fill="#333333" d="M608.754,363.777c-40.142,0-74.482,28.649-93.307,48.362c-18.825-19.714-53.092-48.362-93.234-48.362
	c-69.14,0-117.466,48.257-117.466,117.255c0,76.009,59.961,125.191,118.038,172.73c27.362,22.458,55.727,45.691,77.434,71.494
	c3.699,4.303,9.073,6.796,14.696,6.796h1.101c5.623,0,10.997-2.492,14.627-6.796c21.78-25.766,50.104-49.037,77.507-71.421
	c58.074-47.579,118.071-96.758,118.071-172.803C726.221,412.034,677.895,363.777,608.754,363.777z"/>
</svg>
