<?xml version="1.0" encoding="utf-8"?>
<!-- Generator: Adobe Illustrator 16.0.0, SVG Export Plug-In . SVG Version: 6.00 Build 0)  -->
<!DOCTYPE svg PUBLIC "-//W3C//DTD SVG 1.1//EN" "http://www.w3.org/Graphics/SVG/1.1/DTD/svg11.dtd">
<svg version="1.1" id="图形" xmlns="http://www.w3.org/2000/svg" xmlns:xlink="http://www.w3.org/1999/xlink" x="0px" y="0px"
	 width="1000.637px" height="1000.678px" viewBox="15.167 -16.333 1000.637 1000.678"
	 enable-background="new 15.167 -16.333 1000.637 1000.678" xml:space="preserve">
<g>
	<path fill="#333333" d="M885.399,815.521H144.977c-37.118,0-67.315-30.199-67.315-67.313V176.063
		c0-37.116,30.197-67.311,67.315-67.311h740.422c37.114,0,67.312,30.195,67.312,67.311v572.146
		C952.71,785.322,922.513,815.521,885.399,815.521z M144.979,748.191c0.014,0,0.047,0.031,0.069,0.043l740.351-0.023
		c-0.031-0.004,0.011-0.047,0.025-0.076l-0.023-572.071c0,0.017-0.002,0.018-0.004,0.018c-0.015,0-0.048-0.029-0.069-0.04
		l-740.351,0.024c0.025,0.005-0.014,0.047-0.028,0.072l0.025,572.072C144.975,748.193,144.977,748.191,144.979,748.191z"/>
	<path fill="#333333" d="M885.399,344.341H144.977c-18.587,0-33.656-15.068-33.656-33.656c0-18.587,15.069-33.656,33.656-33.656
		h740.422c18.585,0,33.654,15.069,33.654,33.656C919.053,329.273,903.984,344.341,885.399,344.341z"/>
	<path fill="#333333" d="M885.399,478.963H144.977c-18.587,0-33.656-15.068-33.656-33.655c0-18.587,15.069-33.655,33.656-33.655
		h740.422c18.585,0,33.654,15.068,33.654,33.655C919.053,463.895,903.984,478.963,885.399,478.963z"/>
	<path fill="#333333" d="M885.399,613.585H144.977c-18.587,0-33.656-15.068-33.656-33.654c0-18.588,15.069-33.656,33.656-33.656
		h740.422c18.585,0,33.654,15.068,33.654,33.656C919.053,598.517,903.984,613.585,885.399,613.585z"/>
	<path fill="#333333" d="M818.086,714.552H649.812c-18.59,0-33.655-15.07-33.655-33.654c0-18.59,15.065-33.656,33.655-33.656
		h168.274c18.59,0,33.655,15.066,33.655,33.656C851.742,699.482,836.676,714.552,818.086,714.552z"/>
	<path fill="#333333" d="M245.939,613.585c-18.587,0-33.655-15.068-33.655-33.654V310.685c0-18.587,15.068-33.656,33.655-33.656
		c18.588,0,33.656,15.069,33.656,33.656v269.246C279.595,598.517,264.527,613.585,245.939,613.585z"/>
	<path fill="#333333" d="M649.812,613.585c-18.59,0-33.655-15.068-33.655-33.654V310.685c0-18.587,15.065-33.656,33.655-33.656
		c18.585,0,33.654,15.069,33.654,33.656v269.246C683.466,598.517,668.397,613.585,649.812,613.585z"/>
</g>
</svg>
