<?xml version="1.0" encoding="utf-8"?>
<!-- Generator: Adobe Illustrator 17.0.0, SVG Export Plug-In . SVG Version: 6.00 Build 0)  -->
<!DOCTYPE svg PUBLIC "-//W3C//DTD SVG 1.1//EN" "http://www.w3.org/Graphics/SVG/1.1/DTD/svg11.dtd">
<svg version="1.1" id="图形" xmlns="http://www.w3.org/2000/svg" xmlns:xlink="http://www.w3.org/1999/xlink" x="0px" y="0px"
	 width="1000.637px" height="1000.678px" viewBox="15.167 -16.333 1000.637 1000.678"
	 enable-background="new 15.167 -16.333 1000.637 1000.678" xml:space="preserve">
<g>
	<g>
		<path fill-rule="evenodd" clip-rule="evenodd" fill="#272636" d="M888.586,219.486V706.32c0,33.609-27.976,60.854-62.486,60.854
			H170.013c0,33.609,27.976,60.854,62.486,60.854h656.086c34.506,0,62.486-27.245,62.486-60.854V280.34
			C951.071,246.731,923.091,219.486,888.586,219.486z M857.343,675.89V189.061c0-33.609-27.976-60.854-62.486-60.854H138.775
			c-34.515,0-62.486,27.245-62.486,60.854V675.89c0,33.614,27.971,60.859,62.486,60.859h656.082
			C829.367,736.749,857.343,709.504,857.343,675.89z M138.775,189.061h656.082V675.89H138.775V189.061z M502.046,502.78
			l-93.387-96.79l-93.383,155.318l-70.039-71.277l-75.874,156.061h595.324l-134.24-342.149L502.046,502.78z M263.742,402.053
			c34.51,0,62.481-27.249,62.481-60.859s-27.971-60.854-62.481-60.854s-62.486,27.245-62.486,60.854
			S229.232,402.053,263.742,402.053z"/>
	</g>
</g>
</svg>
