<?xml version="1.0" encoding="utf-8"?>
<!-- Generator: Adobe Illustrator 16.0.0, SVG Export Plug-In . SVG Version: 6.00 Build 0)  -->
<!DOCTYPE svg PUBLIC "-//W3C//DTD SVG 1.1//EN" "http://www.w3.org/Graphics/SVG/1.1/DTD/svg11.dtd">
<svg version="1.1" id="图形" xmlns="http://www.w3.org/2000/svg" xmlns:xlink="http://www.w3.org/1999/xlink" x="0px" y="0px"
	 width="1000.637px" height="1000.678px" viewBox="15.167 -16.333 1000.637 1000.678"
	 enable-background="new 15.167 -16.333 1000.637 1000.678" xml:space="preserve">
<g>
	<path d="M832.514,691.541l54.481-34.299l-20.245-49.378l-62.472,14.5c-8.917-12.318-19.765-23.26-32.277-32.662l14.182-62.5
		l-49.221-20.602l-33.753,54.125c-15.432-2.436-30.869-2.497-45.944-0.313l-33.533-54.191l-49.379,20.145l13.539,62.31
		c-12.321,8.988-23.354,19.893-32.791,32.472l-61.862-14.634l-20.564,49.194l53.483,34.517c-2.406,15.438-2.373,30.903-0.128,46.111
		l-54.097,33.399l20.217,49.446l62.337-13.606c9.051,12.255,19.86,23.193,32.439,32.534l-14.629,62.181l49.189,20.536l34.744-53.936
		c15.339,2.312,30.804,2.25,45.789-0.066l34.298,54.453l49.317-20.278l-14.5-62.571c12.16-8.979,23.065-19.765,32.311-32.178
		l62.885,14.21l20.536-49.188l-54.549-34.104C834.697,721.835,834.697,706.56,832.514,691.541z M748.256,742.627
		c-15.846,37.89-59.423,55.732-97.345,39.877c-37.861-15.851-55.767-59.39-39.916-97.378c15.852-37.861,59.452-55.7,97.346-39.85
		C746.236,661.157,764.108,704.7,748.256,742.627z"/>
	<polygon points="241.946,341.942 570.501,341.942 570.501,407.652 241.946,407.652 241.946,341.942 	"/>
	<polygon points="241.946,506.221 533.796,506.221 533.796,571.931 241.946,571.931 241.946,506.221 	"/>
	<polygon points="241.946,670.497 471.934,670.497 471.934,736.207 241.946,736.207 241.946,670.497 	"/>
	<path d="M143.379,769.065V341.942c0-32.696,32.924-32.858,65.709-32.858h98.568c18.1,0,32.858-14.762,32.858-32.857V176.118
		c0-29.133-0.324-58.267,23.354-64.297l239.49,0.128c36.258,0,65.71,29.458,65.71,65.715v295.698h65.71V177.664
		c0-72.454-58.972-131.424-131.42-131.424H340.514c-34.913,0-68.407,32.472-124.625,89.84c-7.89,8.019-15.908,16.231-24.059,24.321
		c-8.09,8.147-16.303,16.17-24.322,24.059c-57.368,56.218-89.84,89.717-89.84,124.625v459.98c0,72.448,58.972,131.42,131.425,131.42
		h328.556v-65.71H209.088C172.835,834.775,143.379,805.318,143.379,769.065L143.379,769.065z"/>
	<path fill="#272636" d="M143.379,769.065"/>
</g>
</svg>
