<?xml version="1.0" encoding="utf-8"?>
<!-- Generator: Adobe Illustrator 17.0.0, SVG Export Plug-In . SVG Version: 6.00 Build 0)  -->
<!DOCTYPE svg PUBLIC "-//W3C//DTD SVG 1.1//EN" "http://www.w3.org/Graphics/SVG/1.1/DTD/svg11.dtd">
<svg version="1.1" id="图形" xmlns="http://www.w3.org/2000/svg" xmlns:xlink="http://www.w3.org/1999/xlink" x="0px" y="0px"
	 width="1000.637px" height="1000.678px" viewBox="15.167 -16.333 1000.637 1000.678"
	 enable-background="new 15.167 -16.333 1000.637 1000.678" xml:space="preserve">
<g>
	<path fill="#333333" d="M751.003,820.461H279.966c-18.532,0-33.645,33.646-33.645,33.646v33.646h538.328v-33.646
		C784.649,835.574,769.535,820.461,751.003,820.461z"/>
	<path fill="#333333" d="M509.109,333.257l35.684-123.082c-31.378-21.224-66.174-38.211-138.589-8.213l-35.685,123.607
		c28.784-11.894,51.488-17.314,70.511-17.149C469.912,308.615,490.251,320.543,509.109,333.257z"/>
	<path fill="#333333" d="M563.621,223.122L527.97,346.894c31.28,21.227,69.064,38.608,138.458,7.59l35.617-123.311
		C629.694,261.037,594.932,244.282,563.621,223.122z"/>
	<path fill="#333333" d="M522.055,367.626l-35.748,122.887c31.411,21.291,66.174,38.245,138.526,8.28l34.466-119.765
		C585.535,404.263,553.403,388.752,522.055,367.626z"/>
	<path fill="#333333" d="M364.672,348.24l-0.427,0.199l-35.321,122.883c72.482-29.998,106.653-12.583,138.064,8.546l36.142-124.233
		C471.816,334.408,436.892,318.537,364.672,348.24z"/>
	<path fill="#333333" d="M851.94,46.614H179.03c-55.724,0-100.937,45.213-100.937,100.937v471.037
		c0,55.727,45.212,100.937,100.937,100.937h235.518v33.646c0,18.532,15.113,33.645,33.646,33.645h134.582
		c18.531,0,33.646-17.348,33.646-33.645c0-7.032,0-20.568,0-33.646H851.94c55.727,0,100.937-45.209,100.937-100.937V147.551
		C952.876,91.827,907.666,46.614,851.94,46.614z M861.205,676.613c-13.438,0-24.346-10.908-24.346-24.38s10.908-24.38,24.346-24.38
		c13.472,0,24.38,10.908,24.38,24.38S874.677,676.613,861.205,676.613z M885.585,551.297c0,18.532-15.114,33.646-33.646,33.646
		H179.03c-18.532,0-33.646-15.114-33.646-33.646V147.551c0-18.532,15.113-33.646,33.646-33.646h672.91
		c18.531,0,33.646,15.114,33.646,33.646V551.297z"/>
</g>
</svg>
