<?xml version="1.0" encoding="utf-8"?>
<!-- Generator: Adobe Illustrator 17.0.0, SVG Export Plug-In . SVG Version: 6.00 Build 0)  -->
<!DOCTYPE svg PUBLIC "-//W3C//DTD SVG 1.1//EN" "http://www.w3.org/Graphics/SVG/1.1/DTD/svg11.dtd">
<svg version="1.1" id="图形" xmlns="http://www.w3.org/2000/svg" xmlns:xlink="http://www.w3.org/1999/xlink" x="0px" y="0px"
	 width="1000.637px" height="1000.678px" viewBox="15.167 -16.333 1000.637 1000.678"
	 enable-background="new 15.167 -16.333 1000.637 1000.678" xml:space="preserve">
<g>
	<path fill="#272636" d="M594.168,405.896c33.634,0,60.998-26.541,60.998-59.164V192.448c0-32.623-27.363-59.163-60.998-59.163
		c-33.637,0-61.003,26.54-61.003,59.163v154.285C533.165,379.356,560.53,405.896,594.168,405.896z"/>
	<path fill="#272636" d="M850.666,405.896h57.385V242.503c0-28.869-11.565-55.877-32.568-76.051l-91.843-86.824
		c-21.588-20.675-50.383-32.059-81.092-32.059H214.842c-53.556,0-97.127,41.919-97.127,93.444v685.732
		c0,51.527,43.571,93.448,97.127,93.448h596.083c53.556,0,97.127-41.921,97.127-93.448V527.578h-57.385
		c-8.198,0-14.867-5.761-14.867-12.843v-95.997C835.799,411.657,842.469,405.896,850.666,405.896z M850.666,577.326h7.637v249.419
		c0,24.096-21.254,43.7-47.378,43.7H214.842c-26.125,0-47.378-19.604-47.378-43.7V141.014c0-24.094,21.254-43.696,47.378-43.696
		h487.707c17.584,0,34.613,6.662,46.721,18.277l91.815,86.796c11.104,10.698,17.219,24.94,17.219,40.112v113.645h-7.637
		c-35.629,0-64.615,28.078-64.615,62.59v95.997C786.051,549.248,815.037,577.326,850.666,577.326z"/>
	<path fill="#272636" d="M698.932,596.152H272.645c-35.629,0-64.615,28.081-64.615,62.595v113.136
		c0,34.515,28.986,62.595,64.615,62.595h426.287c35.628,0,64.614-28.081,64.614-62.595V658.747
		C763.547,624.233,734.561,596.152,698.932,596.152z M713.799,771.884c0,7.084-6.669,12.847-14.866,12.847H272.645
		c-8.198,0-14.867-5.763-14.867-12.847V658.747c0-7.084,6.669-12.847,14.867-12.847h426.287c8.197,0,14.866,5.763,14.866,12.847
		V771.884z"/>
	<path fill="#272636" d="M431.6,405.896c33.634,0,60.998-26.541,60.998-59.164V192.448c0-32.623-27.364-59.163-60.998-59.163
		c-33.637,0-61.002,26.54-61.002,59.163v154.285C370.598,379.356,397.963,405.896,431.6,405.896z"/>
	<path fill="#272636" d="M269.029,405.896c33.637,0,61.002-26.541,61.002-59.164V192.448c0-32.623-27.365-59.163-61.002-59.163
		c-33.634,0-60.998,26.54-60.998,59.163v154.285C208.03,379.356,235.394,405.896,269.029,405.896z"/>
</g>
</svg>
