<?xml version="1.0" encoding="utf-8"?>
<!-- Generator: Adobe Illustrator 22.0.0, SVG Export Plug-In . SVG Version: 6.00 Build 0)  -->
<svg version="1.1" id="图层_1" xmlns="http://www.w3.org/2000/svg" xmlns:xlink="http://www.w3.org/1999/xlink" x="0px" y="0px"
	 viewBox="0 0 1024 1024" style="enable-background:new 0 0 1024 1024;" xml:space="preserve">
<style type="text/css">
	.st0{fill:none;}
	.st1{fill:#323333;}
</style>
<g>
	<g>
		<path class="st1" d="M326.6,101h-38.4v110.7h38.4V101z M698.9,101h-38.4v110.7h38.4V101z M512.7,101h-38.4v110.7h38.4V101z
			 M891.2,175.9H734.8v73.7H623.6V177h-77.1v72.6H438.1v-74.7l-74.5,1.1v73.7H251.1V175l-118.3,0.9c-37.4,0-67.8,30.2-67.8,67.5
			v612.1c0,37.3,30.3,67.5,67.8,67.5h758.4c37.4,0,67.8-30.2,67.8-67.5V243.4C959,206.1,928.6,175.9,891.2,175.9z M174.3,733.3h-35
			v-36.7h35V733.3z M174.3,658.8h-35v-36.7h35V658.8z M174.3,584.3h-35v-36.7h35V584.3z M174.3,509.9h-35v-36.7h35V509.9z
			 M174.3,435.4h-35v-36.7h35V435.4z M174.3,360.9h-35v-36.6h35V360.9z M249,733.3h-35v-36.7h35V733.3z M249,658.8h-35v-36.7h35
			V658.8z M249,584.3h-35v-36.7h35V584.3z M249,509.9h-35v-36.7h35V509.9z M249,435.4h-35v-36.7h35V435.4z M249,360.9h-35v-36.6h35
			V360.9z M323.8,733.3h-35v-36.7h35V733.3z M323.8,658.8h-35v-36.7h35V658.8z M323.8,584.3h-35v-36.7h35V584.3z M323.8,509.9h-35
			v-36.7h35V509.9z M323.8,435.4h-35v-36.7h35V435.4z M323.8,360.9h-35v-36.6h35V360.9z M398.6,658.8h-35v-36.7h35V658.8z
			 M398.6,584.3h-35v-36.7h35V584.3z M398.6,509.9h-35v-36.7h35V509.9z M398.6,435.4h-35v-36.7h35V435.4z M398.6,360.9h-35v-36.6h35
			V360.9z M812.1,324.3h35V361h-35V324.3z M812.1,398.7h35v36.7h-35V398.7z M737.4,324.3h35V361h-35V324.3z M737.4,398.7h35v36.7
			h-35V398.7z M662.6,324.3h35V361h-35V324.3z M662.6,398.7h35v36.7h-35V398.7z M587.8,324.3h35V361h-35V324.3z M587.8,398.7h35
			v36.7h-35V398.7z M513.1,324.3h35V361h-35V324.3z M473.3,658.8h-35v-36.7h35V658.8z M473.3,584.3h-35v-36.7h35V584.3z
			 M473.3,509.9h-35v-36.7h35V509.9z M473.3,435.4h-35v-36.7h35V435.4z M473.3,360.9h-35v-36.6h35V360.9z M759.7,838.7
			c0,0-24.7-26.2-67.1-48.3c-15.8-8.3-34.1-16-54.5-21.5c-75-20.5-128.5-41.2-131.8-78.1c-2-22.6,22.3-26.7,52.7-18.5
			s58.8,37,68.9,22.6c10.1-14.4-34.5-82.2-77-143.8c-42.6-61.6-54.2-109.7-40-117.9c14.2-8.2,50.5,7.6,66.7,42.5S628,538.8,632,547
			c4.1,8.2-6.1-49.3,22.3-51.4c28.4-2.1,42.6,37,42.6,37s-14.2-38.4,12.2-40.4c25.5-2,48.6,34.7,48.6,34.7s-6.5-43.9,24.1-32.3
			c32.4,12.3,20.5,42.1,50.9,91.4c9.3,15,18,34.7,25.6,54.7c17.4,45.6,29.1,93.2,29.1,93.2L759.7,838.7z"/>
	</g>
</g>
</svg>
