<?xml version="1.0" encoding="utf-8"?>
<!-- Generator: Adobe Illustrator 22.0.0, SVG Export Plug-In . SVG Version: 6.00 Build 0)  -->
<svg version="1.1" id="图层_1" xmlns="http://www.w3.org/2000/svg" xmlns:xlink="http://www.w3.org/1999/xlink" x="0px" y="0px"
	 viewBox="0 0 1024 1024" style="enable-background:new 0 0 1024 1024;" xml:space="preserve">
<style type="text/css">
	.st0{fill:#303333;}
</style>
<g>
	<g>
		<path class="st0" d="M827.9,586.1c20.2-116,94.1-96.6,94.1-199.7S834.5,64.1,505.3,64.1S102,321.9,102,489.4
			c0,206.2,127.7,470.4,564.5,470.4c168,0,228.5-90.2,228.5-161.1S807.7,702.1,827.9,586.1z M268.2,587.9
			c-33.4,0-60.4-25.9-60.4-57.9s27.1-57.9,60.4-57.9c33.4,0,60.4,25.9,60.4,57.9C328.6,561.9,301.6,587.9,268.2,587.9z M268.2,411.4
			c-33.4,0-60.4-25.9-60.4-57.9s27.1-57.9,60.4-57.9c33.4,0,60.4,25.9,60.4,57.9S301.6,411.4,268.2,411.4z M415.4,270.3
			c-33.4,0-60.4-25.9-60.4-57.9s27.1-57.9,60.4-57.9c33.4,0,60.4,25.9,60.4,57.9S448.7,270.3,415.4,270.3z M538.9,212.4
			c0-32,27.1-57.9,60.4-57.9c33.4,0,60.4,25.9,60.4,57.9s-27.1,57.9-60.4,57.9S538.9,244.4,538.9,212.4z M689.7,870.3
			c-42.7,0-77.2-33.2-77.2-74.1c0-40.9,34.6-74.1,77.2-74.1c42.7,0,77.2,33.2,77.2,74.1S732.3,870.3,689.7,870.3z"/>
	</g>
</g>
</svg>
