<?xml version="1.0" encoding="utf-8"?>
<!-- Generator: Adobe Illustrator 22.0.0, SVG Export Plug-In . SVG Version: 6.00 Build 0)  -->
<svg version="1.1" id="图层_1" xmlns="http://www.w3.org/2000/svg" xmlns:xlink="http://www.w3.org/1999/xlink" x="0px" y="0px"
	 viewBox="0 0 1024 1024" style="enable-background:new 0 0 1024 1024;" xml:space="preserve">
<style type="text/css">
	.st0{fill:#323333;}
</style>
<g>
	<g>
		<path class="st0" d="M857.5,513.5c0,0-74.7,0-258.9,0c-83.8,0-50.9,112.8-114.8,112.8c-168.8,0-377.3,0-377.3,0
			c-3.7,0-7.1,0.2-10.2,0.6l52.4-390.5h-16.6c-37.3,0-67.6,30.3-67.6,67.7v354.5l1.2,0.8c-0.9,6.9-1.2,14.8-1.2,23.8v173.5
			c0,37.1,30.4,67.2,67.9,67.2h725.1c37.5,0,67.9-30.1,67.9-67.2V580.9C925.4,543.7,895,513.5,857.5,513.5z M214.9,100.1l-54.2,487
			c0,0,55.7-0.3,287.7-0.3c63.7,0,30.9-110,114.5-110c183.7,0,305.4,0,305.4,0c37.4,0,58.7-12.3,58.7,25l32.5-307.3L214.9,100.1z
			 M425.5,410.5c-7.2,35-47.6,56.3-90.1,47.5s-71.1-44.3-63.9-79.3s47.6-56.3,90.1-47.5C404.1,340,432.7,375.5,425.5,410.5z
			 M429.7,274.3c-6.6,32.1-38,52.7-70.1,46.1s-52.7-38-46.1-70.1s38-52.7,70.1-46.1C415.7,210.8,436.4,242.2,429.7,274.3z
			 M477.3,424l-28.3-3.4l3.6-30.2l28.3,3.4L477.3,424z M490.1,355.4l-28.3-3.4l3.6-30.2l28.3,3.4L490.1,355.4z M503,286.6l-28.3-3.4
			l3.6-30.2l28.3,3.4L503,286.6z M537.7,431.3l-28.3-3.4l3.6-30.2l28.3,3.4L537.7,431.3z M550.5,362.5l-28.3-3.4l3.6-30.2l28.3,3.4
			L550.5,362.5z M563.4,293.9l-28.3-3.4l3.6-30.2l28.3,3.4L563.4,293.9z M598,438.4l-28.3-3.4l3.6-30.2l28.3,3.4L598,438.4z
			 M610.9,369.8l-28.3-3.4l3.6-30.2l28.3,3.4L610.9,369.8z M623.8,301l-28.3-3.4l3.6-30.2l28.3,3.4L623.8,301z M671.3,376.9
			l-28.3-3.4l3.6-30.2l28.3,3.4L671.3,376.9z M684.2,308.4l-28.3-3.4l3.6-30.2l28.3,3.4L684.2,308.4z M731.7,384.1l-28.3-3.4
			l3.6-30.2l28.3,3.4L731.7,384.1z M744.6,315.5l-28.3-3.4l3.6-30.2l28.3,3.4L744.6,315.5z M800.1,392l-28.3-3.4l3.6-30.2l28.3,3.4
			L800.1,392z M813,323.4l-28.3-3.4l3.6-30.2l28.3,3.4L813,323.4z M860.5,399.3l-28.3-3.4l3.6-30.2l28.3,3.4L860.5,399.3z
			 M873.4,330.5l-28.3-3.4l3.6-30.2l28.3,3.4L873.4,330.5z"/>
	</g>
</g>
</svg>
