<?xml version="1.0" encoding="utf-8"?>
<!-- Generator: Adobe Illustrator 22.0.0, SVG Export Plug-In . SVG Version: 6.00 Build 0)  -->
<svg version="1.1" id="图层_1" xmlns="http://www.w3.org/2000/svg" xmlns:xlink="http://www.w3.org/1999/xlink" x="0px" y="0px"
	 viewBox="0 0 1024 1024" style="enable-background:new 0 0 1024 1024;" xml:space="preserve">
<style type="text/css">
	.st0{fill:#323333;}
</style>
<g>
	<g>
		<path class="st0" d="M283.7,699.1c11.6,0,21-7.8,21-17.4c0-3.9-1.6-7.6-4.3-10.5c-4.3,0.4-8.7,0.6-13.1,0.6
			c-6.7,0-13.3-0.5-19.7-1.3c-3.1,3-4.9,6.9-4.9,11.2C262.7,691.3,272.1,699.1,283.7,699.1z M892.4,176.3h-157V250H623.8v-72.7
			h-73.2V250H437v-74.8l-74.4,1.1V250H250.2v-74.8l-118.7,1.1c-37.4,0-67.6,29.9-67.6,66.8v612.9c0,36.9,30.3,66.8,67.6,66.8h760.9
			c37.4,0,67.6-29.9,67.6-66.8V243C960.1,206.3,929.8,176.3,892.4,176.3z M399.7,754.4c0,52-49.5,94.1-110.5,94.1
			s-110.5-42.1-110.5-94.1c0-39.9,29.2-74,70.4-87.7c-64-17.5-111.2-77.8-111.2-149.5c0-85.4,66.9-154.6,149.5-154.6
			c82.5,0,149.5,69.2,149.5,154.6c0,71-46.2,130.7-109.2,148.9C369.7,679.5,399.7,714,399.7,754.4z M911.5,839.2
			c-14.2,14.2-37.3,14.2-51.5,0L741.3,720.6c-2.1-2.1-3.9-4.4-5.3-6.8C708.3,728,677,736,643.8,736c-112.5,0-203.7-92-203.7-205.4
			s91.2-205.4,203.7-205.4s203.7,92,203.7,205.4c0,53.7-20.4,102.6-53.9,139.2l117.9,117.9C925.7,801.9,925.7,825,911.5,839.2z
			 M323.7,101.1h-35.6v111.7h35.6V101.1z M697.1,101.1h-35.6v111.7h35.6V101.1z M510.4,101.1h-35.6v111.7h35.6V101.1z M283.7,702
			c-10,0-18.2,8.4-18.2,18.8v57.9c0,10.4,8.1,18.8,18.2,18.8c10,0,18.2-8.4,18.2-18.8v-57.9C301.9,710.4,293.8,702,283.7,702z
			 M644.4,389.9c-78.3,0-141.7,64-141.7,142.9s63.4,142.9,141.7,142.9s141.7-64,141.7-142.9S722.7,389.9,644.4,389.9z M217.7,522.1
			c-12.3,0-22.3,10.3-22.3,23s10,23,22.3,23s22.3-10.3,22.3-23S230,522.1,217.7,522.1z M357.5,522.1c-12.3,0-22.3,10.3-22.3,23
			s10,23,22.3,23s22.3-10.3,22.3-23S369.8,522.1,357.5,522.1z M249.1,666.7c6,1.7,12.2,2.9,18.6,3.8c3.9-3.8,9.6-6.2,16-6.2
			c6.8,0,12.9,2.7,16.7,6.9c9.3-0.8,18.4-2.5,27.2-5.1c-12-3.8-24.9-5.8-38.4-5.8C275.1,660.3,261.5,662.6,249.1,666.7z"/>
	</g>
</g>
</svg>
