<?xml version="1.0" encoding="utf-8"?>
<!-- Generator: Adobe Illustrator 22.0.0, SVG Export Plug-In . SVG Version: 6.00 Build 0)  -->
<svg version="1.1" id="图层_1" xmlns="http://www.w3.org/2000/svg" xmlns:xlink="http://www.w3.org/1999/xlink" x="0px" y="0px"
	 viewBox="0 0 1024 1024" style="enable-background:new 0 0 1024 1024;" xml:space="preserve">
<style type="text/css">
	.st0{fill:#303333;}
</style>
<g>
	<g>
		<path class="st0" d="M697.9,492c95,0,171.9-78.9,171.9-176.1c0-97.3-77-176.1-171.9-176.1c-95,0-171.9,78.9-171.9,176.1
			C525.9,413.2,602.9,492,697.9,492z M848.6,546.2c-104.6,0-146.4,118.3-146.4,118.3s-55.8-118.3-153.3-118.3
			c-97.6,0-111.4,96.8-111.4,96.8v241.3h522.6V621.5C960.1,621.5,953.1,546.2,848.6,546.2z M288.2,452.2
			c77.8,0,140.8-64.6,140.8-144.3s-63.1-144.2-140.8-144.2c-77.8,0-140.8,64.6-140.8,144.2C147.3,387.6,210.4,452.2,288.2,452.2z
			 M413.4,483.9c-88.1,0-123.4,96.9-123.4,96.9s-47-96.9-129.2-96.9s-96.9,79.3-96.9,79.3v210.6h298.6c0,0-1.4-62.4-1.4-126.6
			c0-27.7,12.3-54,23.6-73.9c26.6-46.7,84.4-78,84.4-78S437.7,483.9,413.4,483.9z"/>
	</g>
</g>
</svg>
