<?xml version="1.0" encoding="utf-8"?>
<!-- Generator: Adobe Illustrator 22.0.0, SVG Export Plug-In . SVG Version: 6.00 Build 0)  -->
<svg version="1.1" id="图层_1" xmlns="http://www.w3.org/2000/svg" xmlns:xlink="http://www.w3.org/1999/xlink" x="0px" y="0px"
	 viewBox="0 0 1024 1024" style="enable-background:new 0 0 1024 1024;" xml:space="preserve">
<style type="text/css">
	.st0{fill:#323333;}
</style>
<g>
	<g>
		<path class="st0" d="M63.9,662.1H138V359.7H63.9V662.1z M177.3,662.5L586.6,887V137L177.3,360.8V662.5z M841.4,211.3l-52.5,38.5
			c67.2,59.9,109,144.7,109,238.7c0,105.8-53.1,200-135.5,260.1l37.3,55.7C897.3,731.8,960.1,618,960.1,490
			C960.1,381.4,914.8,282.9,841.4,211.3z M757.1,296l-36.8,27c47.1,42,76.5,101.5,76.5,167.4c0,74.2-37.2,140.2-95,182.4l26.2,39.1
			c68.4-50.8,112.4-130.7,112.4-220.4C840.3,415.2,808.6,346.2,757.1,296z M676.7,356.3L652.6,374c30.9,27.6,50.2,66.7,50.2,110
			c0,48.8-24.5,92.1-62.4,119.8l17.2,25.7c44.9-33.4,73.9-85.8,73.9-144.8C731.4,434.7,710.5,389.3,676.7,356.3z"/>
	</g>
</g>
</svg>
