<?xml version="1.0" encoding="utf-8"?>
<!-- Generator: Adobe Illustrator 22.0.0, SVG Export Plug-In . SVG Version: 6.00 Build 0)  -->
<svg version="1.1" id="图层_1" xmlns="http://www.w3.org/2000/svg" xmlns:xlink="http://www.w3.org/1999/xlink" x="0px" y="0px"
	 viewBox="0 0 1024 1024" style="enable-background:new 0 0 1024 1024;" xml:space="preserve">
<style type="text/css">
	.st0{fill:#303333;}
</style>
<g>
	<g>
		<path class="st0" d="M810.4,63.4H120.2c-30.9,0-56,25.1-56,56v783.7c0,30.9,25.1,56,56,56h783.7c30.9,0,56-25.1,56-56V212.7
			L810.4,63.4z M278,121.9h467.9V359c0,30.2-24.2,54.7-54,54.7H332c-29.8,0-54-24.5-54-54.7V121.9z M765.1,900.5H258.9V608.4
			c0-32.3,23.9-58.4,53.3-58.4h399.7c29.4,0,53.3,26.2,53.3,58.4V900.5z M706.6,160.6H570.4v214.5h136.2V160.6z"/>
	</g>
</g>
</svg>
