<?xml version="1.0" encoding="utf-8"?>
<!-- Generator: Adobe Illustrator 22.0.0, SVG Export Plug-In . SVG Version: 6.00 Build 0)  -->
<svg version="1.1" id="图层_1" xmlns="http://www.w3.org/2000/svg" xmlns:xlink="http://www.w3.org/1999/xlink" x="0px" y="0px"
	 viewBox="0 0 1024 1024" style="enable-background:new 0 0 1024 1024;" xml:space="preserve">
<style type="text/css">
	.st0{fill:#323333;}
</style>
<g>
	<g>
		<path class="st0" d="M921.3,65.7l-818.7,0.4l0.3,892.3l818.6-0.4L921.3,65.7z M736.9,177.4l36.6,0.1l-0.1,36.2l-36.6-0.1
			L736.9,177.4z M736.7,252.1l36.6,0.1l-0.1,36.2l-36.6-0.1L736.7,252.1z M736.5,326.6l36.6,0.1L773,363l-36.6-0.1L736.5,326.6z
			 M736.3,401.4l36.6,0.1l-0.1,36.2l-36.6-0.1L736.3,401.4z M662.4,177.4l36.6,0.1l-0.1,36.2l-36.6-0.1L662.4,177.4z M662.2,252.1
			l36.6,0.1l-0.1,36.2l-36.6-0.1L662.2,252.1z M662,326.6l36.6,0.1l-0.1,36.2l-36.6-0.1L662,326.6z M661.9,401.4l36.6,0.1l-0.1,36.2
			l-36.6-0.1L661.9,401.4z M587.9,177.4l36.6,0.1l-0.1,36.2l-36.6-0.1L587.9,177.4z M587.7,252.1l36.6,0.1l-0.1,36.2l-36.6-0.1
			L587.7,252.1z M587.6,326.6l36.6,0.1l-0.1,36.2l-36.6-0.1L587.6,326.6z M587.4,401.4l36.6,0.1l-0.1,36.2l-36.6-0.1L587.4,401.4z
			 M513.4,177.4l36.6,0.1l-0.1,36.2l-36.6-0.1L513.4,177.4z M513.2,252.1l36.6,0.1l-0.1,36.2l-36.6-0.1L513.2,252.1z M513.1,326.6
			l36.6,0.1l-0.1,36.2l-36.6-0.1L513.1,326.6z M512.9,401.4l36.6,0.1l-0.1,36.2l-36.6-0.1L512.9,401.4z M438.9,177.4l36.6,0.1
			l-0.1,36.2l-36.6-0.1L438.9,177.4z M438.8,252.1l36.6,0.1l-0.1,36.2l-36.6-0.1L438.8,252.1z M438.6,326.6l36.6,0.1l-0.1,36.2
			l-36.6-0.1L438.6,326.6z M438.4,401.4l36.6,0.1l-0.1,36.2l-36.6-0.1L438.4,401.4z M251.2,587l-36.6-0.1l0.1-36.2l36.6,0.1
			L251.2,587z M251.3,512.3l-36.6-0.1l0.1-36.2l36.6,0.1L251.3,512.3z M251.5,437.6l-36.6-0.1l0.1-36.2l36.6,0.1L251.5,437.6z
			 M251.7,363l-36.6-0.1l0.1-36.2l36.6,0.1L251.7,363z M251.8,288.3l-36.6-0.1l0.1-36.2l36.6,0.1L251.8,288.3z M252,213.7l-36.6-0.1
			l0.1-36.2l36.6,0.1L252,213.7z M325.6,587l-36.6-0.1l0.1-36.2l36.6,0.1L325.6,587z M325.8,512.3l-36.6-0.1l0.1-36.2l36.6,0.1
			L325.8,512.3z M326,437.6l-36.6-0.1l0.1-36.2l36.6,0.1L326,437.6z M326.1,363l-36.6-0.1l0.1-36.2l36.6,0.1L326.1,363z
			 M326.3,288.3l-36.6-0.1l0.1-36.2l36.6,0.1L326.3,288.3z M326.5,213.7l-36.6-0.1l0.1-36.2l36.6,0.1L326.5,213.7z M400.1,587
			l-36.6-0.1l0.1-36.2l36.6,0.1L400.1,587z M400.3,512.3l-36.6-0.1l0.1-36.2l36.6,0.1L400.3,512.3z M400.4,437.6l-36.6-0.1l0.1-36.2
			l36.6,0.1L400.4,437.6z M400.6,363l-36.6-0.1l0.1-36.2l36.6,0.1L400.6,363z M400.8,288.3l-36.6-0.1l0.1-36.2l36.6,0.1L400.8,288.3
			z M401,213.7l-36.6-0.1l0.1-36.2l36.6,0.1L401,213.7z M438.3,476l36.6,0.1l-0.1,36.2l-36.6-0.1L438.3,476z M698.2,885H550.4
			l-0.8-149.4H439.4L625,512.5l185.5,223.1h-113L698.2,885z"/>
	</g>
</g>
</svg>
