<?xml version="1.0" encoding="utf-8"?>
<!-- Generator: Adobe Illustrator 22.0.0, SVG Export Plug-In . SVG Version: 6.00 Build 0)  -->
<svg version="1.1" id="图层_1" xmlns="http://www.w3.org/2000/svg" xmlns:xlink="http://www.w3.org/1999/xlink" x="0px" y="0px"
	 viewBox="0 0 1024 1024" style="enable-background:new 0 0 1024 1024;" xml:space="preserve">
<style type="text/css">
	.st0{fill:#323333;}
</style>
<g>
	<g>
		<path class="st0" d="M323.9,101.7h-35.6v111.6h35.6V101.7z M510.4,101.7h-35.6v111.6h35.6V101.7z M398.7,438.2H214.1
			c0,0.3,0,7.8,0,140c0,83.8-44.7,100.1-44.7,100.1l43.5,28.2c29.6-31.4,35.3-84.1,35.3-84.1h114.1v37.7h-36.4v37.1
			c5.3,0,16.4,0,37.6,0c42.3,0,35.3-21.2,35.3-46.8C398.7,624.8,398.7,438.2,398.7,438.2z M362.6,586.3H250.9V549h111.8v37.3H362.6z
			 M362.6,511.8H250.9V474h111.8v37.8H362.6z M623.5,698.1c10.3,0,32.4,0,39.6,0h2.3h107.1c0,0,24.8,0,37.3,0
			c0-136.6,0-124.2,0-260.8c-99.4,0-87,0-186.3,0C623.5,573.9,623.5,561.5,623.5,698.1z M660.7,474.5c74.5,0,37.3,0,111.8,0
			c0,37.3,0,37.3,0,74.5c-74.5,0-37.3,0-111.8,0C660.7,511.8,660.7,511.8,660.7,474.5z M660.7,586.3c74.5,0,37.3,0,111.8,0
			c0,49.7,0,24.8,0,74.5c-74.5,0-37.3,0-111.8,0C660.7,611.2,660.7,636,660.7,586.3z M892,176.8H735.2v73.6H623.7v-72.6h-73.1v72.6
			H437.2v-74.7l-74.3,1.1v73.6H250.6v-74.7L132,176.8c-37.2,0-67.5,29.9-67.5,66.7v612.1c0,36.8,30.2,66.7,67.6,66.7H892
			c37.3,0,67.6-29.9,67.6-66.7V243.5C959.5,206.7,929.3,176.8,892,176.8z M138.8,773.5V363c0-20.6,16.7-37.3,37.4-37.3H437
			c20.6,0,37.4,16.7,37.4,37.3v410.5c0,20.6-16.7,37.3-37.4,37.3H176.2C155.6,810.7,138.8,794.1,138.8,773.5z M325.8,884.8h-38
			v-37.7h38V884.8z M400.4,884.8h-38v-37.7h38V884.8z M475,884.8h-38v-37.7h38V884.8z M549.5,884.8h-38v-37.7h38V884.8z
			 M624.2,884.8h-38v-37.7h38V884.8z M698.8,884.8h-38v-37.7h38V884.8z M884.3,773.5c0,20.6-16.7,37.3-37.4,37.3H586
			c-20.7,0-37.4-16.7-37.4-37.3V363c0-20.6,16.7-37.3,37.4-37.3h260.8c20.7,0,37.4,16.7,37.4,37.3V773.5z M696.9,101.7h-35.6v111.6
			h35.6V101.7z"/>
	</g>
</g>
</svg>
