<?xml version="1.0" encoding="utf-8"?>
<!-- Generator: Adobe Illustrator 22.0.0, SVG Export Plug-In . SVG Version: 6.00 Build 0)  -->
<svg version="1.1" id="图层_1" xmlns="http://www.w3.org/2000/svg" xmlns:xlink="http://www.w3.org/1999/xlink" x="0px" y="0px"
	 viewBox="0 0 1024 1024" style="enable-background:new 0 0 1024 1024;" xml:space="preserve">
<style type="text/css">
	.st0{fill:#323333;}
</style>
<g>
	<g>
		<path class="st0" d="M854.7,362.5c0,0-74.5,0-258.2,0c-83.5,0-50.7,114.4-114.5,114.4H116l32.3-239.7h-16.6
			c-37.4,0-67.8,30.2-67.8,67.4v550.8c0,37.3,30.3,67.5,67.7,67.5h723.1c37.4,0,67.7-30.2,67.7-67.5V430
			C922.5,392.7,892.1,362.5,854.7,362.5z M885.7,703.3h-30.5c-2.1,15.2-5.9,29.7-11.6,43.4l26.5,15.3l-23.8,41.2l-26.9-15.5
			c-9.2,11.7-20,22.1-31.9,31l15.8,27.4l-41.2,23.8l-16.2-28c-13.4,5.2-27.7,8.9-42.5,10.7v33.1h-47.5v-34
			c-14.5-2.2-28.4-6-41.4-11.6l-17.2,29.8l-41.2-23.8l17.6-30.6c-11-8.9-20.9-19.1-29.5-30.3l-31.1,17.9l-23.8-41.2l31.4-18.1
			c-5.1-12.8-8.7-26.4-10.6-40.6h-36.5v-47.5h36.5c1.9-14.1,5.5-27.7,10.6-40.5l-31.4-18.1l23.8-41.2l31.1,17.9
			c8.6-11.3,18.5-21.5,29.5-30.3l-17.6-30.6l41.2-23.8l17.2,29.8c13-5.6,27-9.4,41.4-11.6v-34h47.5v33.1c14.8,1.8,29,5.4,42.5,10.7
			l16.2-28l41.2,23.8l-15.8,27.5c11.9,9,22.6,19.4,31.9,31l26.9-15.5l23.8,41.2l-26.5,15.3c5.7,13.7,9.6,28.2,11.6,43.4h30.5
			L885.7,703.3L885.7,703.3z M679.5,576.4c-56.9,0-103,46.1-103,103s46.1,103,103,103s103-46.1,103-103S736.4,576.4,679.5,576.4z
			 M679.7,718.4c-21.8,0-39.5-17.7-39.5-39.5s17.7-39.5,39.5-39.5c21.8,0,39.5,17.7,39.5,39.5S701.5,718.4,679.7,718.4z
			 M214.5,101.1l-54.2,336.6c0,0,55.8-2,288.1-2c63.8,0,31-112.1,114.6-112.1c183.9,0,305.8,0,305.8,0c37.4,0,58.8-12.3,58.8,24.9
			l32.5-153.3L214.5,101.1z"/>
	</g>
</g>
</svg>
