<?xml version="1.0" encoding="utf-8"?>
<!-- Generator: Adobe Illustrator 22.0.0, SVG Export Plug-In . SVG Version: 6.00 Build 0)  -->
<svg version="1.1" id="图层_1" xmlns="http://www.w3.org/2000/svg" xmlns:xlink="http://www.w3.org/1999/xlink" x="0px" y="0px"
	 viewBox="0 0 1024 1024" style="enable-background:new 0 0 1024 1024;" xml:space="preserve">
<style type="text/css">
	.st0{fill:#323333;}
</style>
<g>
	<g>
		<path class="st0" d="M214.3,100.8l-54.3,336.8c0,0,55.8-2,288.2-2c63.9,0,31-112.2,114.7-112.2c184,0,306,0,306,0
			c37.5,0,58.8-12.3,58.8,25l32.6-153.4L214.3,100.8z M855,362.4c0,0-74.6,0-258.3,0c-83.6,0-50.8,114.5-114.5,114.5
			c-146.4,0-322.7,0-366.3,0l32.3-239.9h-16.6c-37.5,0-67.8,30.2-67.8,67.5v239.9v113.9v197.3c0,37.3,30.3,67.5,67.8,67.5H855
			c37.4,0,67.8-30.2,67.8-67.5V429.9C922.7,392.6,892.4,362.4,855,362.4z M511.3,886.5v-71.1c-71.4,1.2-130.1-24.6-150.9-73.6
			c-30.1-70.6,25.4-134.7,141.1-188.6l25.1,27.2c-48.5,30-89.4,86.4-73.3,124.1c7.5,17.5,37.3,22.4,58.1,28.9v-76.8l116.1,114.9
			L511.3,886.5z M701.5,750.5L675,716.9c52.8-29.6,102.7-77.9,86-117.3c-7.4-17.4-36.6-31.6-61.6-39.3v71.5l-116-114.9l116-114.9v78
			c2.1,0,4.1,0.1,6.2,0.2c64.3,2.6,116,28.1,135.3,73.4C869.5,620.7,813.8,694.7,701.5,750.5z"/>
	</g>
</g>
</svg>
