<?xml version="1.0" encoding="utf-8"?>
<!-- Generator: Adobe Illustrator 22.0.0, SVG Export Plug-In . SVG Version: 6.00 Build 0)  -->
<svg version="1.1" id="图层_1" xmlns="http://www.w3.org/2000/svg" xmlns:xlink="http://www.w3.org/1999/xlink" x="0px" y="0px"
	 viewBox="0 0 1024 1024" style="enable-background:new 0 0 1024 1024;" xml:space="preserve">
<style type="text/css">
	.st0{fill:#2F3333;}
</style>
<g>
	<g>
		<path class="st0" d="M958,65.9L65.5,66.3l0.4,891.7l892.5-0.4L958,65.9z M287.1,243.7l537.8,0.1l-0.1,44.2l-537.8-0.1L287.1,243.7
			z M244.3,691.5l-91.1-0.2l0.2-87.6l91.1,0.2L244.3,691.5z M244.3,557.5l-91.1-0.2l0.2-87.6l91.1,0.2L244.3,557.5z M244.3,423.5
			l-91.1-0.2l0.2-87.6l91.1,0.2L244.3,423.5z M244.3,289.6l-91.1-0.2l0.2-87.6l91.1,0.2L244.3,289.6z M287.1,377.7l180.6,0.1
			l-0.1,44.2L287,421.9L287.1,377.7z M556.5,734.3H333.8V508.6h222.7L556.5,734.3L556.5,734.3z M557.1,913.3V334.4l322.2,289.4
			L557.1,913.3z"/>
	</g>
</g>
</svg>
