<?xml version="1.0" encoding="utf-8"?>
<!-- Generator: Adobe Illustrator 22.0.0, SVG Export Plug-In . SVG Version: 6.00 Build 0)  -->
<svg version="1.1" id="图层_1" xmlns="http://www.w3.org/2000/svg" xmlns:xlink="http://www.w3.org/1999/xlink" x="0px" y="0px"
	 viewBox="0 0 1024 1024" style="enable-background:new 0 0 1024 1024;" xml:space="preserve">
<style type="text/css">
	.st0{fill:#333333;}
</style>
<g>
	<g>
		<path class="st0" d="M175.8,622.9h672.1c41.2,0,74.7-33.5,74.7-74.8v-410c0-41.3-33.4-74.8-74.7-74.8H175.8
			c-41.2,0-74.7,33.5-74.7,74.8v410C101.2,589.4,134.6,622.9,175.8,622.9z M176.9,139.2h669.4v410.2H176.9V139.2z M922.6,698.8
			H101.2c-20.6,0-37.3,18-37.3,40.3v181.3c0,22.3,16.7,40.3,37.3,40.3h821.5c20.6,0,37.3-18,37.3-40.3V739.1
			C960,716.8,943.3,698.8,922.6,698.8z M820.1,887.2h-183c-14.9,0-26.9-17.1-26.9-38.1s12.1-38.1,26.9-38.1h183
			c14.9,0,26.9,17.1,26.9,38.1C847.1,870.1,835,887.2,820.1,887.2z"/>
	</g>
</g>
</svg>
