<?xml version="1.0" encoding="utf-8"?>
<!-- Generator: Adobe Illustrator 22.0.0, SVG Export Plug-In . SVG Version: 6.00 Build 0)  -->
<svg version="1.1" id="图层_1" xmlns="http://www.w3.org/2000/svg" xmlns:xlink="http://www.w3.org/1999/xlink" x="0px" y="0px"
	 viewBox="0 0 1024 1024" style="enable-background:new 0 0 1024 1024;" xml:space="preserve">
<style type="text/css">
	.st0{fill:#323333;}
</style>
<g>
	<g>
		<path class="st0" d="M903,265.6c-28.9-3.1-39.1,13.5-39.1,13.5L574.4,496.4c0,0-47.4,29.1-89.3-0.1c-30-20.9-0.1-48.4-0.1-48.4
			l244.9-186.7c0,0,26.6-23.1,1.3-49.6c-21.4-22.5-59.6,3-59.6,3S488,346.2,421.7,396.8c-29.7,22.6-22.2,46.9-22.2,78v387
			c0,35.9,93.3,77.8,93.3,77.8s44.7,21.5,89.4,21.5s75.8-32.9,75.8-32.9l268.2-186.7c0,0,0-341.3,0-431.9
			C926.2,281.3,933.9,268.9,903,265.6z M853.4,524.9l-170,131.3c-9.5,7.3-25.5,4-35.8-7.4s-11-26.6-1.5-33.9l170-131.3
			c9.5-7.3,25.5-4,35.8,7.4C862.2,502.4,862.9,517.6,853.4,524.9z M624.3,170.2c0-28.4,7.7-40.7-23.1-44.1
			c-28.8-3.1-39.1,13.5-39.1,13.5L272.5,356.9c0,0-47.4,29.1-89.3-0.1c-30-20.9-0.1-48.4-0.1-48.4L428,121.7c0,0,26.6-23.1,1.3-49.6
			c-21.4-22.5-59.6,3-59.6,3S186.1,206.8,119.9,257.4c-29.7,22.6-22.2,46.9-22.2,78v387c0,35.9,93.3,77.8,93.3,77.8
			s44.7,21.5,89.4,21.5s38.1-32.9,38.1-32.9l4.1-12.4V406C322.4,406,624.3,180.1,624.3,170.2z"/>
	</g>
</g>
</svg>
