<?xml version="1.0" encoding="utf-8"?>
<!-- Generator: Adobe Illustrator 22.0.0, SVG Export Plug-In . SVG Version: 6.00 Build 0)  -->
<svg version="1.1" id="图层_1" xmlns="http://www.w3.org/2000/svg" xmlns:xlink="http://www.w3.org/1999/xlink" x="0px" y="0px"
	 viewBox="0 0 1024 1024" style="enable-background:new 0 0 1024 1024;" xml:space="preserve">
<style type="text/css">
	.st0{fill:#2F3333;}
</style>
<g>
	<g>
		<path class="st0" d="M698.1,212.9h-36.6c0.2-2.2,0.3-4.4,0.3-6.6c0-58-66.2-105-147.8-105s-147.8,47-147.8,105
			c0,2.2,0.1,4.4,0.3,6.6h-41.4v112.5h373L698.1,212.9L698.1,212.9z M515.1,268.6c-42.8,0-77.6-29.4-77.6-65.6s34.7-65.6,77.6-65.6
			s77.6,29.4,77.6,65.6C592.7,239.4,557.9,268.6,515.1,268.6z M892.5,251.8H736.6V364H285.2V250.8l-153.6,1
			c-37.4,0-67.7,29.6-67.7,66v539c0,36.5,30.3,66,67.6,66h760.9c37.4,0,67.6-29.6,67.6-66v-539C960.1,281.4,929.8,251.8,892.5,251.8
			z M457.5,885.5L499,740l90.8,76L457.5,885.5z M610.6,802l-97.8-86.4l231.5-268.8l94.1,82.6L610.6,802z M904.4,455L904.4,455
			c-10.7,14.2-45.9,56-45.9,56l-98.3-83.3l41.1-48.4c0,0,18.8-21,46.8-3.8s53.1,40.8,53.1,40.8S915.1,440.9,904.4,455z"/>
	</g>
</g>
</svg>
