<?xml version="1.0" encoding="utf-8"?>
<!-- Generator: Adobe Illustrator 22.0.0, SVG Export Plug-In . SVG Version: 6.00 Build 0)  -->
<svg version="1.1" id="图层_1" xmlns="http://www.w3.org/2000/svg" xmlns:xlink="http://www.w3.org/1999/xlink" x="0px" y="0px"
	 viewBox="0 0 1024 1024" style="enable-background:new 0 0 1024 1024;" xml:space="preserve">
<style type="text/css">
	.st0{fill:#2F3333;}
</style>
<g>
	<g>
		<path class="st0" d="M899.7,782.5c-30.1-34.9-93.2-69.7-93.2-69.7s33.3-9.7,48.2-34.2c0,0-94.1-0.7-94.1-47.9
			c0-47.3,43.2-35.2,43.2-192.1S738,64.5,513,64.5h-2.1c-225.1,0-290.8,217.2-290.8,374.1s43.2,144.8,43.2,192.1
			s-94.1,47.9-94.1,47.9c14.9,24.5,48.2,34.2,48.2,34.2s-63,34.9-93.2,69.7c-30.1,34.9-60.3,177-60.3,177h896.2
			C960,959.5,929.8,817.3,899.7,782.5z M639.3,775.8c0,42.9-56.2,163.6-122,163.6h-2.7c-65.8,0-122-120.7-122-163.6
			c0-42.9,50.7-63,50.7-120.7S346,562.6,346,441.9s89.1-277.6,89.1-277.6s250.8,230.6,250.8,317.8c0,84.5-97.3,115.3-97.3,173
			C588.6,712.7,639.3,732.9,639.3,775.8z"/>
	</g>
</g>
</svg>
