<?xml version="1.0" encoding="utf-8"?>
<!-- Generator: Adobe Illustrator 22.0.0, SVG Export Plug-In . SVG Version: 6.00 Build 0)  -->
<svg version="1.1" id="图层_1" xmlns="http://www.w3.org/2000/svg" xmlns:xlink="http://www.w3.org/1999/xlink" x="0px" y="0px"
	 viewBox="0 0 1024 1024" style="enable-background:new 0 0 1024 1024;" xml:space="preserve">
<style type="text/css">
	.st0{fill:#303333;}
</style>
<g>
	<g>
		<path class="st0" d="M825.4,160.5C713.6,49.6,550,31.9,460.1,121.1c-77.9,77.2-75,209.2-0.2,315.2L114.6,778.7
			c-17.5,17.4-17.5,45.6,0,63l23.8,23.6c17.5,17.4,46,17.4,63.5,0l7.9-7.9l103.3,102.4l63.5-63L321,841.7l63.5-63l55.6,55.1l63.5-63
			L400.5,668.5L547.3,523c106.9,74.2,240,77,317.9-0.2C955,433.6,937.3,271.4,825.4,160.5z M777.1,373.8
			c-35.1,34.8-100.9,26-146.9-19.7c-46.1-45.7-54.9-110.9-19.9-145.7c35.1-34.8,100.9-26,146.9,19.7
			C803.3,273.8,812.2,339,777.1,373.8z"/>
	</g>
</g>
</svg>
