<?xml version="1.0" encoding="utf-8"?>
<!-- Generator: Adobe Illustrator 22.0.0, SVG Export Plug-In . SVG Version: 6.00 Build 0)  -->
<svg version="1.1" id="图层_1" xmlns="http://www.w3.org/2000/svg" xmlns:xlink="http://www.w3.org/1999/xlink" x="0px" y="0px"
	 viewBox="0 0 1024 1024" style="enable-background:new 0 0 1024 1024;" xml:space="preserve">
<style type="text/css">
	.st0{fill:#2F3333;}
</style>
<g>
	<g>
		<path class="st0" d="M923.4,258.4c-4.4,25.1-16.3,49.3-35.8,68.8L765.2,449.9c-50.7,50.8-133.4,51.3-184.8,1.1
			c-51.3-50.2-51.8-132.1-1.1-182.9l122.4-122.7c21.9-21.9,49.7-34.4,78.3-37.6C729.9,80,672.1,64.2,610.5,64.2
			c-191.8,0-347.3,153.9-347.3,343.8c0,50.6,11,98.6,30.9,141.9l-228,227l1.1,182.9l184.8-1.1l231.6-230.6
			c39.3,15.3,82.2,23.7,127,23.7c191.8,0,347.3-153.9,347.3-343.8C957.9,354.4,945.5,303.7,923.4,258.4z"/>
	</g>
</g>
</svg>
