<?xml version="1.0" encoding="utf-8"?>
<!-- Generator: Adobe Illustrator 22.0.0, SVG Export Plug-In . SVG Version: 6.00 Build 0)  -->
<svg version="1.1" id="图层_1" xmlns="http://www.w3.org/2000/svg" xmlns:xlink="http://www.w3.org/1999/xlink" x="0px" y="0px"
	 viewBox="0 0 1024 1024" style="enable-background:new 0 0 1024 1024;" xml:space="preserve">
<style type="text/css">
	.st0{fill:#323333;}
</style>
<g>
	<g>
		<path class="st0" d="M510.4,103h-35.5v111.2h35.5V103z M324.5,103H289v111.2h35.5V103z M696.3,103h-35.5v111.2h35.5V103z
			 M643.9,427.8c-77.9,0-141.1,63.7-141.1,142.3S566,712.4,643.9,712.4S785,648.6,785,570C785,491.5,721.8,427.8,643.9,427.8z
			 M890.8,177.9H734.5v73.4H623.4v-72.4h-72.9v72.4H437.3v-74.5l-74.1,1v73.4H251.3v-74.5l-118.2,1c-37.2,0-67.3,29.8-67.3,66.5
			v610.3c0,36.7,30.2,66.5,67.3,66.5h757.7c37.2,0,67.3-29.8,67.3-66.5V244.4C958.2,207.7,928,177.9,890.8,177.9z M362.8,325.7h37.9
			v37.6h-37.9V325.7z M214.1,325.7h37.9v37.6h-37.9V325.7z M139.6,325.7h37.9v37.6h-37.9L139.6,325.7L139.6,325.7z M253.4,809.8
			h-76.5v-37.2h76.5V809.8z M253.4,735.3h-76.5V698h76.5V735.3z M253.4,660.8h-76.5v-37.2h76.5V660.8z M253.4,586.3h-76.5V549h76.5
			V586.3z M253.4,511.8h-76.5v-37.2h76.5V511.8z M288.5,325.7h37.9v37.6h-37.9V325.7z M401.8,809.8h-76.5v-37.2h76.5V809.8z
			 M401.8,735.3h-76.5V698h76.5V735.3z M401.8,660.8h-76.5v-37.2h76.5V660.8z M401.8,586.3h-76.5V549h76.5V586.3z M401.8,511.8
			h-76.5v-37.2h76.5V511.8z M437.2,325.7H475v37.6h-37.9V325.7z M909.8,875.1c-14.2,14.2-37.1,14.2-51.3,0L740.3,757
			c-2.1-2.1-3.8-4.3-5.3-6.7c-27.6,14.1-58.8,22.1-91.8,22.1c-112,0-202.8-91.6-202.8-204.6s90.8-204.6,202.8-204.6
			S846,454.8,846,567.8c0,53.5-20.4,102.2-53.7,138.6l117.4,117.4C923.9,838,923.9,861,909.8,875.1z"/>
	</g>
</g>
</svg>
