<?xml version="1.0" encoding="utf-8"?>
<!-- Generator: Adobe Illustrator 22.0.0, SVG Export Plug-In . SVG Version: 6.00 Build 0)  -->
<svg version="1.1" id="图层_1" xmlns="http://www.w3.org/2000/svg" xmlns:xlink="http://www.w3.org/1999/xlink" x="0px" y="0px"
	 viewBox="0 0 1024 1024" style="enable-background:new 0 0 1024 1024;" xml:space="preserve">
<style type="text/css">
	.st0{fill:#323333;}
</style>
<g>
	<g>
		<path class="st0" d="M68.7,862.2h479.2v-72.5H68.7V862.2z M216.1,457.1c0-20.6-17.9-37.4-40-37.4h-29.9c-22.1,0-40,16.7-40,37.4
			v292.3h110V457.1H216.1z M401.4,384c0-21.2-18.1-38.3-40.5-38.3h-30.3c-22.4,0-40.5,17.2-40.5,38.3v367.7h111.2L401.4,384
			L401.4,384z M770.7,399.2V236.3c0-21.2-18.1-38.3-40.5-38.3h-30.3c-22.4,0-40.5,17.2-40.5,38.3v168.3l56.9-68.5L770.7,399.2z
			 M586.1,310.1c0-21.2-18.1-38.3-40.5-38.3h-30.3c-22.4,0-40.5,17.2-40.5,38.3v316.6l111.3-133.8V310.1z M914.8,124.1h-30.3
			c-22.4,0-40.5,17.2-40.5,38.3v322.3l111.2,129.5V162.4C955.3,141.2,937.2,124.1,914.8,124.1z M844.1,715.5v36.8h111.2v-82.1
			l-1.8,45.3H844.1z M880.1,862.2h74.6v-72.5h-72.4L880.1,862.2z M474.8,663v89.7h111.3v-37.2H478.8L474.8,663z M718.8,446.9
			L532.7,676.4h89.4v223.5h184.1V676.4h96.3L718.8,446.9z"/>
	</g>
</g>
</svg>
