<?xml version="1.0" encoding="utf-8"?>
<!-- Generator: Adobe Illustrator 22.0.0, SVG Export Plug-In . SVG Version: 6.00 Build 0)  -->
<svg version="1.1" id="图层_1" xmlns="http://www.w3.org/2000/svg" xmlns:xlink="http://www.w3.org/1999/xlink" x="0px" y="0px"
	 viewBox="0 0 1024 1024" style="enable-background:new 0 0 1024 1024;" xml:space="preserve">
<style type="text/css">
	.st0{fill:#323333;}
</style>
<g>
	<g>
		<path class="st0" d="M885.4,437.3H138.6c-41.2,0-74.7-31.9-74.7-74.7v522.8c0,41.2,33.4,74.7,74.7,74.7h746.8
			c41.2,0,74.7-33.4,74.7-74.7V362.6C960.1,412.3,926.6,437.3,885.4,437.3z M742.5,907c0,0-26-27.6-70.7-51
			c-16.7-8.7-35.9-16.9-57.4-22.7c-79-21.7-135.2-43.5-138.7-82.4c-2.1-23.9,23.5-28.2,55.5-19.5s61.9,39,72.6,23.9
			c10.7-15.2-36.3-86.7-81.1-151.8c-44.8-65.1-57.1-115.8-42.2-124.5s29.8-11.8,70.2,44.9c23.6,33.1,51.9,73.6,56.1,82.3
			c4.3,8.7-5.2-59,24.6-61.2c29.9-2.2,44.8,39,44.8,39s-14.9-40.5,12.8-42.7c26.8-2.1,51.2,36.7,51.2,36.7s-6.8-46.4,25.4-34.1
			c34.1,13,21.5,44.5,53.5,96.5c9.8,15.9,18.9,36.6,27,57.8c18.3,48.1,30.6,98.4,30.6,98.4L742.5,907z M510.9,169.3
			c-24.7,0-44.8,20.4-44.8,45.7c0,25.2,20,45.6,44.8,45.6c24.7,0,44.8-20.4,44.8-45.6C555.6,189.6,535.6,169.3,510.9,169.3z
			 M885.4,63.8H138.6c-41.3,0-74.7,33.5-74.7,74.7v149.4c0,41.2,33.4,74.7,74.7,74.7h746.8c41.2,0,74.7-33.4,74.7-74.7V138.6
			C960.1,97.3,926.6,63.8,885.4,63.8z M512.2,319.6c-57.2,0-103.5-47.3-103.5-105.6S455,108.5,512.2,108.5
			c57.2,0,103.5,47.3,103.5,105.6S569.4,319.6,512.2,319.6z"/>
	</g>
</g>
</svg>
