<?xml version="1.0" encoding="utf-8"?>
<!-- Generator: Adobe Illustrator 22.0.0, SVG Export Plug-In . SVG Version: 6.00 Build 0)  -->
<svg version="1.1" id="图层_1" xmlns="http://www.w3.org/2000/svg" xmlns:xlink="http://www.w3.org/1999/xlink" x="0px" y="0px"
	 viewBox="0 0 1024 1024" style="enable-background:new 0 0 1024 1024;" xml:space="preserve">
<style type="text/css">
	.st0{fill:#323333;}
</style>
<g>
	<g>
		<path class="st0" d="M697.1,101.1h-35.6v111.7h35.6V101.1z M510.4,101.1h-35.6v111.7h35.6V101.1z M323.7,101.1h-35.6v111.7h35.6
			V101.1z M892.4,176.3h-157V250H623.8v-72.7h-73.2V250H437v-74.8l-74.4,1.1V250H250.2v-74.8l-118.7,1.1
			c-37.4,0-67.6,29.9-67.6,66.8v612.9c0,36.9,30.3,66.8,67.6,66.8h760.9c37.4,0,67.6-29.9,67.6-66.8V243.1
			C960.1,206.2,929.8,176.3,892.4,176.3z M810.3,287.4h38.1v37.7h-38.1V287.4z M735.6,287.4h38.1v37.7h-38.1V287.4z M695.4,809.8
			H575.7l-67.6-261.7l-78.2,261.7H317.3L176.2,362.6h123.3l71.1,290.6l83-289.8h113.8L638.5,672l85.4-308.4h124.8L695.4,809.8z"/>
	</g>
</g>
</svg>
