<?xml version="1.0" encoding="utf-8"?>
<!-- Generator: Adobe Illustrator 22.0.0, SVG Export Plug-In . SVG Version: 6.00 Build 0)  -->
<svg version="1.1" id="图层_1" xmlns="http://www.w3.org/2000/svg" xmlns:xlink="http://www.w3.org/1999/xlink" x="0px" y="0px"
	 viewBox="0 0 1024 1024" style="enable-background:new 0 0 1024 1024;" xml:space="preserve">
<style type="text/css">
	.st0{fill:#323333;}
</style>
<g>
	<g>
		<path class="st0" d="M772,614.3c108.5-30.7,188.1-131.7,188.1-251.6c0-144.3-115.3-261.2-257.4-261.2
			c-103.3,0-192.4,61.7-233.4,150.8c-41.7-52.8-105.8-86.6-177.7-86.6c-125.8,0-227.7,103.4-227.7,231
			c0,107.1,71.9,197.2,169.4,223.4c-62.7,20.4-107.2,71.4-107.2,131.1c0,77.7,75.3,140.6,168.3,140.6c92.9,0,168.3-63,168.3-140.6
			c0-60.5-45.7-112-109.8-131.9C411.6,602.7,460.7,562.8,490,510c34.4,51,86.2,89,146.7,105.3c-70.9,23.1-121.2,80.7-121.2,148.2
			c0,87.8,85.2,159,190.3,159s190.3-71.2,190.3-159C896.1,695.1,844.5,636.8,772,614.3z M185.5,472.7c-18.7,0-33.9-15.4-33.9-34.4
			s15.2-34.4,33.9-34.4s33.9,15.4,33.9,34.4C219.4,457.3,204.2,472.7,185.5,472.7z M313.7,787.4c0,15.5-12.4,28.1-27.7,28.1
			c-15.3,0-27.7-12.6-27.7-28.1v-86.5c0-15.5,12.4-28.1,27.7-28.1c15.3,0,27.7,12.6,27.7,28.1V787.4z M286,668.4
			c-17.7,0-32-11.6-32-26c0-14.3,14.3-26,32-26s32,11.6,32,26C318,656.8,303.7,668.4,286,668.4z M398.5,472.7
			c-18.7,0-33.9-15.4-33.9-34.4s15.2-34.4,33.9-34.4c18.7,0,33.9,15.4,33.9,34.4C432.4,457.3,417.2,472.7,398.5,472.7z M563.5,448.7
			c-21.2,0-38.4-17.4-38.4-38.9s17.2-38.9,38.4-38.9s38.4,17.4,38.4,38.9C601.9,431.2,584.7,448.7,563.5,448.7z M733.3,804.5
			c0,17.6-14,31.8-31.3,31.8s-31.3-14.2-31.3-31.8v-97.9c0-17.6,14-31.8,31.3-31.8s31.3,14.2,31.3,31.8V804.5z M702,669.9
			c-20,0-36.2-13.1-36.2-29.4c0-16.2,16.2-29.4,36.2-29.4s36.2,13.1,36.2,29.4C738.2,656.8,722,669.9,702,669.9z M804.4,370.8
			c21.2,0,38.4,17.4,38.4,38.9s-17.2,38.9-38.4,38.9S766,431.2,766,409.7C766,388.2,783.2,370.8,804.4,370.8z"/>
	</g>
</g>
</svg>
