<?xml version="1.0" encoding="utf-8"?>
<!-- Generator: Adobe Illustrator 22.0.0, SVG Export Plug-In . SVG Version: 6.00 Build 0)  -->
<svg version="1.1" id="图层_1" xmlns="http://www.w3.org/2000/svg" xmlns:xlink="http://www.w3.org/1999/xlink" x="0px" y="0px"
	 viewBox="0 0 1024 1024" style="enable-background:new 0 0 1024 1024;" xml:space="preserve">
<style type="text/css">
	.st0{fill:#323333;}
</style>
<g>
	<g>
		<path class="st0" d="M63.9,138.7v746.7h896.2V138.7H63.9z M885.4,528.8c-34.4-78-95.7-140.7-163.7-138.4
			c-99.6,3.5-156.5,231.1-160.1,255.6c-3.6,24.5-60.5,10.5-60.5,10.5s-85.4-192.6-181.4-185.6c-96.1,7-181.4,255.6-181.4,255.6h-0.2
			V212.8h747.2v316H885.4z M436.8,399.8c41.1,0,74.5-33.4,74.5-74.7s-33.3-74.7-74.5-74.7c-41.1,0-74.5,33.4-74.5,74.7
			C362.3,366.3,395.6,399.8,436.8,399.8z"/>
	</g>
</g>
</svg>
