<?xml version="1.0" encoding="utf-8"?>
<!-- Generator: Adobe Illustrator 22.0.0, SVG Export Plug-In . SVG Version: 6.00 Build 0)  -->
<svg version="1.1" id="图层_1" xmlns="http://www.w3.org/2000/svg" xmlns:xlink="http://www.w3.org/1999/xlink" x="0px" y="0px"
	 viewBox="0 0 1024 1024" style="enable-background:new 0 0 1024 1024;" xml:space="preserve">
<style type="text/css">
	.st0{fill:#323333;}
</style>
<g>
	<g>
		<path class="st0" d="M350.9,697.1h63.7l216.2-215.7L847,697.1h63.7l-280-279.3L350.9,697.1z M815.1,702.1h0.2l-0.2-0.2v-1.3h-1.3
			L632.1,519.3L450.3,700.6h-2.8v211.3h-67.3V751.2l-121.1,0.5v-55.5h-0.7L624.5,331l223,220V111.4H113.3v800.7h334.2v0.5h99.6
			V701.9h167.7v210.7h100.3v-0.5h32.4v-0.2h-32.4V702.1z M714.5,177.9h67.6v67.2h-67.6V177.9z M714.5,311.4h67.6v67.2h-67.6V311.4z
			 M581,177.9h67.6v67.2H581V177.9z M447.4,177.9H515v67.2h-67.6V177.9z M447.4,311.4H515v67.2h-67.6V311.4z M313.8,177.9h67.6v67.2
			h-67.6V177.9z M313.8,311.4h67.6v67.2h-67.6V311.4z M313.8,445h67.6v67.2h-67.6V445z M247.8,779.4h-67.6v-67.2h67.6V779.4z
			 M247.8,645.8h-67.6v-67.2h67.6V645.8z M247.8,512.2h-67.6V445h67.6V512.2z M247.8,378.7h-67.6v-67.2h67.6V378.7z M247.8,245.1
			h-67.6v-67.2h67.6V245.1z"/>
	</g>
</g>
</svg>
