<?xml version="1.0" encoding="utf-8"?>
<!-- Generator: Adobe Illustrator 22.0.0, SVG Export Plug-In . SVG Version: 6.00 Build 0)  -->
<svg version="1.1" id="图层_1" xmlns="http://www.w3.org/2000/svg" xmlns:xlink="http://www.w3.org/1999/xlink" x="0px" y="0px"
	 viewBox="0 0 1024 1024" style="enable-background:new 0 0 1024 1024;" xml:space="preserve">
<style type="text/css">
	.st0{fill:#323333;}
</style>
<g>
	<g>
		<path class="st0" d="M235.8,442.6h69.7v15.1c68.2-34.6,149.6-60.7,238.5-58.8c36.3,0.8,71.3,6.1,104.5,14.7V98.7H166.9v451
			c19.3-16.1,42.5-33.9,68.9-51.4L235.8,442.6L235.8,442.6z M511.2,167.2h69.7v69.3h-69.7V167.2z M511.2,304.9h69.7v69.3h-69.7
			V304.9z M373.5,167.2h69.7v69.3h-69.7V167.2z M373.5,304.9h69.7v69.3h-69.7V304.9z M235.8,167.2h69.7v69.3h-69.7V167.2z
			 M235.8,304.9h69.7v69.3h-69.7V304.9z M521.9,455.9c-235.5,0-421.2,237.2-421.2,237.2s160.9,232.2,417.9,232.2
			c257.1,0,404.7-233.8,404.7-233.8S757.4,455.9,521.9,455.9z M648.5,708.7v147.2h-69.1v0.3h-137v-0.3h-68.5V707.6h2.1l135.8-126.8
			l135.8,126.8h0.9v0.9l0.2,0.2L648.5,708.7L648.5,708.7z M698.6,723.5L510.3,534.1L329.2,716.3l-59-1.2l236.1-237.4l248.2,246.9
			L698.6,723.5z M845.3,537.3l71-74.4c7-7.4,6.8-19.1-0.6-26.1s-19.1-6.8-26.1,0.6l-71,74.4c-7,7.4-6.8,19.1,0.6,26.1
			C826.6,545,838.3,544.7,845.3,537.3z M711.9,477.9c8.7,5.4,20,2.7,25.4-5.9l54.4-87.3c5.4-8.6,2.7-20-5.9-25.4s-20-2.7-25.4,5.9
			L706,452.5C700.6,461.2,703.2,472.5,711.9,477.9z M442.4,718.9v137h137v-137H442.4z"/>
	</g>
</g>
</svg>
