<?xml version="1.0" encoding="utf-8"?>
<!-- Generator: Adobe Illustrator 22.0.0, SVG Export Plug-In . SVG Version: 6.00 Build 0)  -->
<svg version="1.1" id="图层_1" xmlns="http://www.w3.org/2000/svg" xmlns:xlink="http://www.w3.org/1999/xlink" x="0px" y="0px"
	 viewBox="0 0 1024 1024" style="enable-background:new 0 0 1024 1024;" xml:space="preserve">
<style type="text/css">
	.st0{fill:#323333;}
</style>
<g>
	<g>
		<path class="st0" d="M210.3,439.1v-77.7L64.2,511.5l146.1,150v-77h77V439.1H210.3z M439.1,287.4h145.4v-77h77l-150-146.1
			l-150,146.1h77.7v77H439.1z M584.5,736.7H439.1v77h-77.7l150,146.1l150-146.1h-77L584.5,736.7L584.5,736.7z M413.2,600.5
			l-12.9-0.1v24.9H362V587h29.9l176.7-176.1l93.4,81V324H324.7v337.6h95.2L413.2,600.5z M587,362h38.3v38.2H587V362z M512,362h38.3
			v38.2H512V362z M437,362h38.3v38.2H437V362z M437,437h38.3v38.2H437V437z M361.9,362h38.3v38.2h-38.3V362z M361.9,437h38.3v38.2
			h-38.3V437z M361.9,512h38.3v38.2h-38.3V512z M959.8,511.5l-146.1-150v77.7h-77v145.4h77v77L959.8,511.5z M436.3,587.3l29.8,0.8
			l105.4-105L699,594.3l37.6,1L571.5,452.5L436.3,587.3z M662.5,588.3h-0.7l-93.2-87.1l-93.2,87.1H475v0.4l-0.4,0.4h0.4v73.4h187.4
			v-73.4h0.1l-0.1-0.1v-0.7H662.5z M587.1,662.5l-37.3-0.4v-76.9l37.3,0.4V662.5z M400.3,600.3V587h-8.5l-13.2,13.2L400.3,600.3z"/>
	</g>
</g>
</svg>
