<?xml version="1.0" encoding="utf-8"?>
<!-- Generator: Adobe Illustrator 22.0.0, SVG Export Plug-In . SVG Version: 6.00 Build 0)  -->
<svg version="1.1" id="图层_1" xmlns="http://www.w3.org/2000/svg" xmlns:xlink="http://www.w3.org/1999/xlink" x="0px" y="0px"
	 viewBox="0 0 1024 1024" style="enable-background:new 0 0 1024 1024;" xml:space="preserve">
<style type="text/css">
	.st0{fill:#323333;}
</style>
<g>
	<g>
		<path class="st0" d="M908.9,715.7H878V592.6h0.2v-80.4H552.7v-81.9h87.8c41.4,0,75-34.2,75-76.5V140.6c0-42.2-33.6-76.5-75-76.5
			H382.1c-41.4,0-75,34.2-75,76.5v213.2c0,42.2,33.6,76.5,75,76.5h89.4v81.9H146.2v80.4h0.1v123.1H115c-28,0-50.8,22.9-50.8,51.1
			v142c0,28.2,22.7,51.1,50.8,51.1h142.9c28,0,50.8-22.9,50.8-51.1v-142c0-28.2-22.7-51.1-50.8-51.1h-31.6V592.6h245.2v123.1h-31
			c-28,0-50.8,22.9-50.8,51.1v142c0,28.2,22.7,51.1,50.8,51.1h142.9c28,0,50.8-22.9,50.8-51.1v-142c0-28.2-22.7-51.1-50.8-51.1
			h-30.7V592.6h244.2v123.1h-30.8c-28,0-50.8,22.9-50.8,51.1v142c0,28.2,22.7,51.1,50.8,51.1H909c28,0,50.8-22.9,50.8-51.1v-142
			C959.7,738.5,937,715.7,908.9,715.7z"/>
	</g>
</g>
</svg>
