<?xml version="1.0" encoding="utf-8"?>
<!-- Generator: Adobe Illustrator 22.0.0, SVG Export Plug-In . SVG Version: 6.00 Build 0)  -->
<svg version="1.1" id="图层_1" xmlns="http://www.w3.org/2000/svg" xmlns:xlink="http://www.w3.org/1999/xlink" x="0px" y="0px"
	 viewBox="0 0 1024 1024" style="enable-background:new 0 0 1024 1024;" xml:space="preserve">
<style type="text/css">
	.st0{fill:#323333;}
</style>
<g>
	<g>
		<path class="st0" d="M921.5,64.2l-819.2,0.4l0.3,895.2l819.2-0.4L921.5,64.2z M325.1,177.1l484.8,0.1l-0.1,36.2L325,213.3
			L325.1,177.1z M325.1,288.9l484.8,0.1l-0.1,36.2L325,325.1L325.1,288.9z M325.1,400.6l484.8,0.1l-0.1,36.2H325L325.1,400.6z
			 M287.6,548.9l-74.6-0.1l0.1-74.4l74.6,0.1L287.6,548.9z M287.6,437.1L213,437l0.1-74.4l74.6,0.1L287.6,437.1z M287.6,325.3
			l-74.6-0.1l0.1-74.4l74.6,0.1L287.6,325.3z M287.6,213.5l-74.6-0.1l0.1-74.4l74.6,0.1L287.6,213.5z M325.1,512.4l372.9,0.1
			l-0.1,36.2l-372.9,0L325.1,512.4z M572,885.3C502.1,817,419.9,764.9,362.4,748.6L498,683.5l65.8,100.9c0,0,106.9-205,275.4-273.4
			c-4.1,48.8-20.6,91.1,8.2,143.2C773.4,667.3,621.3,813.7,572,885.3z"/>
	</g>
</g>
</svg>
