<?xml version="1.0" encoding="utf-8"?>
<!-- Generator: Adobe Illustrator 22.0.0, SVG Export Plug-In . SVG Version: 6.00 Build 0)  -->
<svg version="1.1" id="图层_1" xmlns="http://www.w3.org/2000/svg" xmlns:xlink="http://www.w3.org/1999/xlink" x="0px" y="0px"
	 viewBox="0 0 1024 1024" style="enable-background:new 0 0 1024 1024;" xml:space="preserve">
<style type="text/css">
	.st0{fill:#2F3333;}
</style>
<g>
	<g>
		<path class="st0" d="M419.5,586c-10.1,0-18.4,8.2-18.4,18.4s8.2,18.4,18.4,18.4c10.1,0,18.4-8.2,18.4-18.4
			C437.9,594.2,429.6,586,419.5,586z M325.8,105.9h-35.2v110.4h35.2V105.9z M695,105.9h-35.2v110.4H695V105.9z M510.3,105.9h-35.2
			v110.4h35.2V105.9z M888.2,180.2H732.8v72.9H622.5v-71.8h-72.3v71.8H437.8v-73.9l-73.6,1v72.9h-111v-73.9l-117.4,1
			c-36.9,0-66.9,29.5-66.9,66v605.9c0,36.5,29.9,66,66.9,66h752.3c36.9,0,66.9-29.5,66.9-66V246.2C955,209.8,925,180.2,888.2,180.2z
			 M419.4,862.9c-142.6,0-258.2-119.9-258.2-267.7s115.6-267.6,258.3-267.6s258.3,119.8,258.3,267.6
			C677.8,743,562.2,862.9,419.4,862.9z M807.2,733.4c-20.4,0-37-16.6-37-37s16.6-37,37-37s37,16.6,37,37S827.5,733.4,807.2,733.4z
			 M844.2,607.4c0,18.6-16.6,33.7-37,33.7s-37-15.1-37-33.7l-18.3-150.8c0-18.6,2-55.4,55.4-55.4s55.4,36.7,55.4,55.4L844.2,607.4z
			 M456.5,604.4c0,10.2,10.4,18.5,23.3,18.5h119.3c12.9,0,23.3-8.3,23.3-18.5s-10.4-18.5-23.3-18.5H479.8
			C466.9,585.9,456.5,594.1,456.5,604.4z M419.5,364.4c-10.3,0-18.6,9.7-18.6,21.8v159.3c0,12,8.3,21.8,18.6,21.8
			c10.3,0,18.6-9.7,18.6-21.8V386.1C438.1,374.1,429.8,364.4,419.5,364.4z"/>
	</g>
</g>
</svg>
