<?xml version="1.0" encoding="utf-8"?>
<!-- Generator: Adobe Illustrator 22.0.0, SVG Export Plug-In . SVG Version: 6.00 Build 0)  -->
<svg version="1.1" id="图层_1" xmlns="http://www.w3.org/2000/svg" xmlns:xlink="http://www.w3.org/1999/xlink" x="0px" y="0px"
	 viewBox="0 0 1024 1024" style="enable-background:new 0 0 1024 1024;" xml:space="preserve">
<style type="text/css">
	.st0{fill:#303333;}
</style>
<g>
	<g>
		<path class="st0" d="M932.3,114.3C907.1,38.9,746.1,46.5,587.4,152c0,0-158.7-9-266.9,30.1S144,350.9,127.7,491.1
			c0,0,140.9-191.4,318.9-271.3c0,0,17.8,16.6-7.4,30.1C414,263.5,246.4,375,150,596.6s-78.7,297-7.4,346.7
			c90.8,63.3,289.2-75.4,289.2-75.4s367.8,51.2,459.7-256.2H631.9c0,0-7.4,82.9-118.6,82.9s-120.1-110-118.6-135.7h504.2
			c0,0,14.8-327.1-281.8-391.9c0,0,78.6-75.4,215-75.4c59.3,0,101.7,39.2,85.4,165.8C917.5,257.5,957.5,189.7,932.3,114.3z
			 M409.4,860.4c0,0-123.8,92.9-222.5,52.8c-83.4-33.9-20.4-179-7.4-203.5C179.5,709.7,227.7,811.4,409.4,860.4z M631.9,453.4H387.2
			c0,0-4.4-128.1,133.5-128.1S631.9,453.4,631.9,453.4z"/>
	</g>
</g>
</svg>
