<?xml version="1.0" encoding="utf-8"?>
<!-- Generator: Adobe Illustrator 22.0.0, SVG Export Plug-In . SVG Version: 6.00 Build 0)  -->
<svg version="1.1" id="图层_1" xmlns="http://www.w3.org/2000/svg" xmlns:xlink="http://www.w3.org/1999/xlink" x="0px" y="0px"
	 viewBox="0 0 1024 1024" style="enable-background:new 0 0 1024 1024;" xml:space="preserve">
<style type="text/css">
	.st0{fill:#323333;}
</style>
<g>
	<g>
		<path class="st0" d="M735.4,437.3h-35v75.3h35V437.3z M923,206.2c-17-43.1-60-85.7-105.1-105.1c-45.1-19.3-162-36.5-319.8-36.5
			c-149.7,0-252.6,23.6-295.5,36.5s-90,47.1-105.1,105.1c-14.9,57.9-32.1,169.4-32.1,330.5c0,145.8,12.9,233.3,32.2,284.8
			s77.2,96.5,105.1,105.1c14.1,4.3,52.4,12.5,106.5,19.6c-10.8-11.2-19.6-31.8-19.6-68.7v-53.1c-2.3-0.6-4.6-1.1-6.7-1.7
			c-43.5-11.3-69.2-46.6-78.9-78.7c-8.9-29.6-24.6-97.2-27.1-195h36.9v-74.5h-36.5c2.9-93.8,14.2-162.6,26.6-191.6
			c14.5-33.8,45-70.7,78.9-78.7c29.6-7,97.9-22.7,192.7-26.5v35.7H550v-36.1c95.8,2.9,158.4,18.1,194.8,26.9
			c40.3,9.6,67.6,33.7,78.9,78.7c5,19.8,10.2,45.1,14.6,77.2H873c43.4,0,78.4,32.1,85.6,74.4C955.4,329.9,945.5,262.9,923,206.2z
			 M849.5,475.6h-74.1v75.3l-113-0.5l-1.2-75.4l-36.2-0.1v75.2l-114-0.4l1.2-74.2h-75c-40.6,0-73.5,32.7-73.5,73
			c0,0,0,248.3,0,345.3c0,80.6,53.7,65,48.2,63.5c-21.2-0.1-24.9-0.1-1.2-0.1c0.5,0,0.9,0,1.2,0.1c8.1,0,18.6,0.1,31.2,0.1
			c19.9,0.8,40.5,1.3,61.6,1.3c22.2,0,43.2-0.4,63.1-1c117.4,0.2,259.8,0.5,308.9,0.5c3.8,0,45.1-5.5,45.1-58.6
			c0-91.9,0-351.1,0-351.1C921.9,508.3,890,475.6,849.5,475.6z M475.8,884.5h-38.5v-37.1h38.5V884.5z M475.8,810.4h-38.5v-37.1h38.5
			V810.4z M475.8,736.2h-38.5v-37.1h38.5V736.2z M475.8,662h-38.5v-37.1h38.5V662z M550.5,884.5H512v-37.1h38.5V884.5z M550.5,810.4
			H512v-37.1h38.5V810.4z M550.5,736.2H512v-37.1h38.5V736.2z M550.5,662H512v-37.1h38.5V662z M625.2,884.5h-38.5v-37.1h38.5V884.5z
			 M625.2,810.4h-38.5v-37.1h38.5V810.4z M625.2,736.2h-38.5v-37.1h38.5V736.2z M625.2,662h-38.5v-37.1h38.5V662z M699.8,884.5
			h-38.5v-37.1h38.5V884.5z M699.8,810.4h-38.5v-37.1h38.5V810.4z M699.8,736.2h-38.5v-37.1h38.5V736.2z M699.8,662h-38.5v-37.1
			h38.5V662z M774.5,884.5H736v-37.1h38.5V884.5z M774.5,810.4H736v-37.1h38.5V810.4z M774.5,736.2H736v-37.1h38.5V736.2z
			 M774.5,662H736v-37.1h38.5V662z M849,884.5h-38.5v-37.1H849V884.5z M849,810.4h-38.5v-37.1H849V810.4z M849,736.2h-38.5v-37.1
			H849V736.2z M849,662h-38.5v-37.1H849V662z M585.8,437.3h-35v75.3h35V437.3z M549,251.5h-73.3V360l73.3-0.5V251.5z"/>
	</g>
</g>
</svg>
