<?xml version="1.0" encoding="utf-8"?>
<!-- Generator: Adobe Illustrator 22.0.0, SVG Export Plug-In . SVG Version: 6.00 Build 0)  -->
<svg version="1.1" id="图层_1" xmlns="http://www.w3.org/2000/svg" xmlns:xlink="http://www.w3.org/1999/xlink" x="0px" y="0px"
	 viewBox="0 0 1024 1024" style="enable-background:new 0 0 1024 1024;" xml:space="preserve">
<style type="text/css">
	.st0{fill:none;}
	.st1{fill:#333333;}
</style>
<g>
	<path class="st0" d="M729.4,560.4v10.4c1.1,0,2-0.9,2-2.1v-6.2C731.4,561.4,730.5,560.4,729.4,560.4z M729.4,560.4L729.4,560.4
		L729.4,560.4L729.4,560.4z M729.4,575.5v10.4c1.1,0,2-0.9,2-2.1v-6.2C731.4,576.5,730.5,575.6,729.4,575.5z M729.4,570.8
		L729.4,570.8L729.4,570.8L729.4,570.8z M689.5,592.5h-6v2h6V592.5z M689.5,562.5h-6v2h6V562.5z M689.5,584.5h-6v2h6V584.5z
		 M689.5,570.5h-6v2h6V570.5z M708,579c0,0.4-0.4,0.8-1,0.8s-1-0.4-1-0.8c0-0.2,0.1-0.4,0.2-0.5c-0.3,0-0.6-0.1-0.9-0.2
		c-2,0.6-3.4,2.2-3.4,4c0,2.4,2.3,4.3,5.2,4.3s5.2-1.9,5.2-4.3c0-1.9-1.4-3.4-3.4-4c-0.4,0.1-0.8,0.2-1.3,0.2
		C707.9,578.7,708,578.8,708,579z M707.8,583.5c0,0.5-0.4,0.9-0.9,0.9s-0.9-0.4-0.9-0.9v-2.7c0-0.5,0.4-0.9,0.9-0.9s0.9,0.4,0.9,0.9
		V583.5z M729.4,590.1L729.4,590.1L729.4,590.1L729.4,590.1z M729.4,590.1v10.4c1.1,0,2-0.9,2-2.1v-6.2
		C731.4,591.1,730.5,590.2,729.4,590.1z M729.4,600.5L729.4,600.5L729.4,600.5L729.4,600.5z M714.2,571.5c0-3.9-3.2-7.1-7-7.1
		c-3.9,0-7,3.2-7,7.1c0,3.3,2.2,6.1,5.3,6.9c0.6-0.2,1.2-0.3,1.9-0.3c0.6,0,1.2,0.1,1.8,0.3C712,577.5,714.2,574.7,714.2,571.5z
		 M703.9,573.8c-0.6,0-1-0.5-1-1.1s0.5-1.1,1-1.1c0.6,0,1,0.5,1,1.1S704.4,573.8,703.9,573.8z M710.4,573.8c-0.6,0-1-0.5-1-1.1
		s0.5-1.1,1-1.1c0.6,0,1,0.5,1,1.1C711.5,573.3,711,573.8,710.4,573.8z M723.4,554.5h-31.9c-2.3,0-4.1,1.8-4.1,4.1v1.8h4.1l-0.1,6
		h-4.1v2.2h4v5.9h-3.9v6.1h3.9v7.9h-4.1l0.1,2.2h4v5.8h-4.1l0.1,2c0,2.3,2.2,4.1,4.4,4.1h31.6c2.3,0,4.1-1.8,4.1-4.1v-39.7
		C727.5,556.4,725.7,554.5,723.4,554.5z M699.6,596.5h-2.1v-2h2.1V596.5z M703.6,596.5h-2.1v-2h2.1V596.5z M707.5,596.5h-2.1v-2h2.1
		V596.5z M711.5,596.5h-2.1v-2h2.1V596.5z M715.5,596.5h-2.1v-2h2.1V596.5z M698.1,590.5c-1.4,0-2.6-1.2-2.6-2.6v-24.8
		c0-1.4,1.2-2.6,2.6-2.6h18.8c1.4,0,2.6,1.2,2.6,2.6v24.8c0,1.4-1.2,2.6-2.6,2.6H698.1z M719.5,596.5h-2.1v-2h2.1V596.5z
		 M729.4,585.9L729.4,585.9L729.4,585.9L729.4,585.9z M707.7,578.5c-0.2-0.2-0.4-0.3-0.8-0.3c-0.3,0-0.6,0.1-0.7,0.3
		c0.3,0,0.6,0.1,0.9,0.1C707.3,578.6,707.5,578.5,707.7,578.5z M729.4,575.5L729.4,575.5L729.4,575.5L729.4,575.5z"/>
</g>
<g>
	<g>
		<path class="st1" d="M921.1,174.2c0.3,0,0.7,0,1,0l0,0H921.1z M922,368L922,368c-0.3,0-0.6,0-1,0H922z M922,174.2v193.7
			c21-0.5,37.8-17.8,37.8-39V213.2C959.9,192,943,174.8,922,174.2z M921.1,456.6c0.3,0,0.7,0,1,0l0,0H921.1z M922,456.7v193.7
			c21-0.5,37.8-17.8,37.8-39V495.7C959.9,474.5,943,457.2,922,456.7z M175.7,773.9H64.2v36.6h111.5V773.9z M175.7,213.5H64.2v36.6
			h111.5V213.5z M175.7,363.5H64.2v36.6h111.5V363.5z M175.7,625.4H64.2V662h111.5V625.4z M922,729.9v193.7
			c21-0.5,37.8-17.8,37.8-39V769C959.9,747.7,943,730.5,922,729.9z M810,64.1H213.4c-42.3,0-76.5,34.4-76.5,76.9v33.4l77.2,0.5
			l-1.1,112h-76.2v40.3h75v109.5h-73.7V550h73.7v148h-76.2l1.2,40.3h75v108h-76.2l1.2,36.7c0,42.5,40.4,76.9,82.6,76.9h590.5
			c42.3,0,76.5-34.4,76.5-76.9V141C886.5,98.6,852.2,64.1,810,64.1z M364.1,848.6h-38.5v-36.8h38.5V848.6z M438.7,848.6h-38.5v-36.8
			h38.5V848.6z M513.3,848.6h-38.5v-36.8h38.5V848.6z M587.9,848.6h-38.5v-36.8h38.5V848.6z M662.5,848.6H624v-36.8h38.5V848.6z
			 M336.2,736.3c-26.6,0-48.2-21.8-48.2-48.8v-463c0-26.9,21.6-48.8,48.2-48.8h351.7c26.6,0,48.2,21.9,48.2,48.8v462.9
			c0,27-21.6,48.8-48.2,48.8L336.2,736.3L336.2,736.3z M737.1,848.6h-38.5v-36.8h38.5V848.6z M922,923.7L922,923.7c-0.3,0-0.6,0-1,0
			H922z M921.1,729.9c0.3,0,0.7,0,1,0l0,0H921.1z M637.3,381c0-73.2-58.9-132.5-131.6-132.5S374.1,307.8,374.1,381
			c0,61.4,41.6,113.1,97.9,128.1c10.9-3.5,22.9-5.5,35.3-5.5c11.9,0,23.3,1.8,33.8,5C596.6,493,637.3,441.8,637.3,381z M444.4,424.6
			c-10.8,0-19.6-8.8-19.6-19.7c0-10.9,8.8-19.7,19.6-19.7c10.8,0,19.6,8.8,19.6,19.7C464,415.7,455.2,424.6,444.4,424.6z
			 M567.5,424.6c-10.8,0-19.6-8.8-19.6-19.7c0-10.9,8.8-19.7,19.6-19.7s19.6,8.8,19.6,19.7C587.2,415.7,578.4,424.6,567.5,424.6z
			 M922,650.4L922,650.4c-0.3,0-0.6,0-1,0H922z M517.3,512.9c-3.4-3.6-8.7-5.9-14.7-5.9c-5.7,0-10.7,2.1-14.1,5.3
			c5.7,0.8,11.5,1.1,17.3,1.1C509.6,513.4,513.5,513.2,517.3,512.9z M521,521.9c0,8.2-8.3,14.9-18.5,14.9
			c-10.2,0-18.5-6.7-18.5-14.9c0-3.7,1.6-7,4.4-9.6c-5.6-0.7-11-1.8-16.3-3.2c-36.3,11.7-62,40.9-62,75.1
			c0,44.5,43.6,80.6,97.3,80.6s97.3-36.1,97.3-80.6c0-34.7-26.4-64.2-63.5-75.6c-7.7,2.2-15.7,3.6-23.9,4.3
			C519.6,515.4,521,518.5,521,521.9z M518.5,605c0,8.9-7.2,16.1-16,16.1s-16-7.2-16-16.1v-49.6c0-8.9,7.2-16.1,16-16.1
			s16,7.2,16,16.1V605z"/>
	</g>
</g>
</svg>
