<?xml version="1.0" encoding="utf-8"?>
<!-- Generator: Adobe Illustrator 22.0.0, SVG Export Plug-In . SVG Version: 6.00 Build 0)  -->
<svg version="1.1" id="图层_1" xmlns="http://www.w3.org/2000/svg" xmlns:xlink="http://www.w3.org/1999/xlink" x="0px" y="0px"
	 viewBox="0 0 1024 1024" style="enable-background:new 0 0 1024 1024;" xml:space="preserve">
<style type="text/css">
	.st0{fill:#2F3333;}
</style>
<g>
	<g>
		<path class="st0" d="M541.5,460l86.3,82.2l234.3-238.6L784,209.4L541.5,460z M954.3,176.6c-14-18.8-37.3-50.2-51.3-68.9
			c-2.4-3.3-10-16.2-29.2,3.9c-20.8,21.8-52,54.9-52,54.9l76.9,96.3c0,0,27-27.2,47-47.9C948.5,212.2,970.2,197.9,954.3,176.6z
			 M649,594l-198.4,96.7l-48.1-47.1l76.3-193.4l169.7-171.5l-31.3-79.5l-553.3,179l182.8,545.3L856,719.6L750,494.4L649,594z
			 M382.6,551.2l-11.3-33.7l34.5-11.8l11.3,33.7L382.6,551.2z M338.8,528.5l11.3,33.7L315.6,574l-11.3-33.7L338.8,528.5z
			 M280.5,502.9l-11.3-33.7l34.5-11.8l11.3,33.8L280.5,502.9z M336,446.2l34.5-11.8l11.3,33.7l-34.5,11.8L336,446.2z M374.1,599.7
			l11.3,33.7l-34.5,11.8l-11.3-33.7L374.1,599.7z M414.2,457.1l-11.3-33.7l34.5-11.8l11.3,33.8L414.2,457.1z M535.8,294.5l11.3,33.7
			L512.6,340l-11.3-33.8L535.8,294.5z M468.9,317.4l11.3,33.7l-34.5,11.8l-11.3-33.7L468.9,317.4z M402,340.3l11.3,33.7l-34.5,11.8
			l-11.2-33.7L402,340.3z M335.2,363.2l11.3,33.7L312,408.7L300.7,375L335.2,363.2z M268.3,386.1l11.3,33.7l-34.5,11.8l-11.3-33.7
			L268.3,386.1z M167,420.8l34.5-11.8l11.4,33.7l-34.5,11.8L167,420.8z M202.2,492l34.5-11.8L248,514l-34.4,11.8L202.2,492z
			 M237.5,563.2l34.5-11.8l11.3,33.7l-34.5,11.8L237.5,563.2z M272.8,634.4l34.5-11.8l11.3,33.7l-34.5,11.9L272.8,634.4z
			 M319.4,739.4l-11.3-33.7l34.5-11.8l11.3,33.7L319.4,739.4z M386.3,716.5L375,682.8l34.5-11.8l11.3,33.7L386.3,716.5z
			 M574.3,573.1l-73.4-68.8l-47.2,129.5L574.3,573.1z"/>
	</g>
</g>
</svg>
