<?xml version="1.0" encoding="utf-8"?>
<!-- Generator: Adobe Illustrator 22.0.0, SVG Export Plug-In . SVG Version: 6.00 Build 0)  -->
<svg version="1.1" id="图层_1" xmlns="http://www.w3.org/2000/svg" xmlns:xlink="http://www.w3.org/1999/xlink" x="0px" y="0px"
	 viewBox="0 0 1024 1024" style="enable-background:new 0 0 1024 1024;" xml:space="preserve">
<style type="text/css">
	.st0{fill:#323333;}
</style>
<g>
	<g>
		<path class="st0" d="M920.4,64.2l-817.1,0.4l0.3,895.2l817.1-0.4L920.4,64.2z M359.5,245.9l41.1,169.9L358,436.5L317.1,254
			L359.5,245.9z M619,901c-51.4,5.6-119.9-2.5-206.6-67.3c-86.8-64.8-194.7-154.2-246.9-371c-20-82.8-7.3-155.7,110-197.2L320,456.6
			c0,0-38.5,34.6-28.5,60s50.7,84.2,100.6,136.6c49.8,52.4,97.8,124.4,126.9,113.4c29.1-11,38.3-26,38.3-26l178.6,90.6
			C735.8,831.1,670.4,895.4,619,901z M438.2,549.9l0.1-36.3l265.1,0.1l-0.1,36.3L438.2,549.9z M763.8,793.8l-158-83.3l31.6-43.1
			l147.5,77.1L763.8,793.8z M809.4,438l-371.2-0.1l0.1-36.3l371.2,0.1L809.4,438z M809.4,326.1L438.2,326l0.1-36.3l371.2,0.1
			L809.4,326.1z M809.4,214.1L438.2,214l0.1-36.3l371.2,0.1L809.4,214.1z"/>
	</g>
</g>
</svg>
