<?xml version="1.0" encoding="utf-8"?>
<!-- Generator: Adobe Illustrator 22.0.0, SVG Export Plug-In . SVG Version: 6.00 Build 0)  -->
<svg version="1.1" id="图层_1" xmlns="http://www.w3.org/2000/svg" xmlns:xlink="http://www.w3.org/1999/xlink" x="0px" y="0px"
	 viewBox="0 0 1024 1024" style="enable-background:new 0 0 1024 1024;" xml:space="preserve">
<style type="text/css">
	.st0{fill:#323333;}
</style>
<g>
	<g>
		<path class="st0" d="M922.4,64.2l-821.2,0.4l0.4,895.2l821.2-0.4L922.4,64.2z M737.5,176.3l36.7,0.1l-0.1,36.3l-36.7-0.1
			L737.5,176.3z M737.3,251.2l36.7,0.1l-0.1,36.3l-36.7-0.1L737.3,251.2z M737.2,326.1l36.7,0.1l-0.1,36.3l-36.7-0.1L737.2,326.1z
			 M662.8,176.3l36.7,0.1l-0.1,36.3l-36.7-0.1L662.8,176.3z M662.6,251.2l36.7,0.1l-0.1,36.3l-36.7-0.1L662.6,251.2z M662.5,326.1
			l36.7,0.1l-0.1,36.3l-36.7-0.1L662.5,326.1z M588.1,176.3l36.7,0.1l-0.1,36.3l-36.7-0.1L588.1,176.3z M587.9,251.2l36.7,0.1
			l-0.1,36.3l-36.7-0.1L587.9,251.2z M587.7,326.1l36.7,0.1l-0.1,36.3l-36.7-0.1L587.7,326.1z M513.3,176.3l36.7,0.1l-0.1,36.3
			l-36.7-0.1L513.3,176.3z M513.2,251.2l36.7,0.1l-0.1,36.3l-36.7-0.1L513.2,251.2z M513,326.1l36.7,0.1l-0.1,36.3l-36.7-0.1
			L513,326.1z M512.8,401l36.7,0.1l-0.1,36.3l-36.7-0.1L512.8,401z M438.6,176.3l36.7,0.1l-0.1,36.3l-36.7-0.1L438.6,176.3z
			 M438.5,251.2l36.7,0.1l-0.1,36.3l-36.7-0.1L438.5,251.2z M438.3,326.1l36.7,0.1l-0.1,36.3l-36.7-0.1L438.3,326.1z M438.1,401
			l36.7,0.1l-0.1,36.3l-36.7-0.1L438.1,401z M437.9,475.9l36.7,0.1l-0.1,36.3l-36.7-0.1L437.9,475.9z M363.9,176.3l36.7,0.1
			l-0.1,36.3l-36.7-0.1L363.9,176.3z M363.7,251.2l36.7,0.1l-0.1,36.3l-36.7-0.1L363.7,251.2z M363.6,326.1l36.7,0.1l-0.1,36.3
			l-36.7-0.1L363.6,326.1z M363.4,401l36.7,0.1l-0.1,36.3l-36.7-0.1L363.4,401z M363.2,475.9l36.7,0.1l-0.1,36.3l-36.7-0.1
			L363.2,475.9z M363.1,550.8l36.7,0.1l-0.1,36.3l-36.7-0.1L363.1,550.8z M250.2,587.2l-36.7-0.1l0.1-36.3l36.7,0.1L250.2,587.2z
			 M250.4,512.3l-36.7-0.1l0.1-36.3l36.7,0.1L250.4,512.3z M250.6,437.4l-36.7-0.1L214,401l36.7,0.1L250.6,437.4z M250.7,362.5
			l-36.7-0.1l0.1-36.3l36.7,0.1L250.7,362.5z M250.9,287.6l-36.7-0.1l0.1-36.3l36.7,0.1L250.9,287.6z M251.1,212.7l-36.7-0.1
			l0.1-36.3l36.7,0.1L251.1,212.7z M324.9,587.2l-36.7-0.1l0.1-36.3l36.7,0.1L324.9,587.2z M325.1,512.3l-36.7-0.1l0.1-36.3
			l36.7,0.1L325.1,512.3z M325.3,437.4l-36.7-0.1l0.1-36.3l36.7,0.1L325.3,437.4z M325.5,362.5l-36.7-0.1l0.1-36.3l36.7,0.1
			L325.5,362.5z M325.6,287.6l-36.7-0.1l0.1-36.3l36.7,0.1L325.6,287.6z M325.8,212.7l-36.7-0.1l0.1-36.3l36.7,0.1L325.8,212.7z
			 M362.7,924.3l65.8-157.8l91.1,91.6L362.7,924.3z M544.8,832.8l-91.3-91.7l251-252.3l91.3,91.7L544.8,832.8z M875.7,500.3
			l-57,57.3l-91.3-91.7l57-57.3c12.6-12.7,33-12.7,45.6,0l45.6,45.9C888.3,467.1,888.3,487.6,875.7,500.3z"/>
	</g>
</g>
</svg>
