<?xml version="1.0" encoding="utf-8"?>
<!-- Generator: Adobe Illustrator 22.0.0, SVG Export Plug-In . SVG Version: 6.00 Build 0)  -->
<svg version="1.1" id="图层_1" xmlns="http://www.w3.org/2000/svg" xmlns:xlink="http://www.w3.org/1999/xlink" x="0px" y="0px"
	 viewBox="0 0 1024 1024" style="enable-background:new 0 0 1024 1024;" xml:space="preserve">
<style type="text/css">
	.st0{fill:#323333;}
</style>
<g>
	<g>
		<path class="st0" d="M488.7,713.6l147.5-63.5l-86.7-86.2L488.7,713.6z M955.6,312.1l-65.1-64.8c-6-5.9-15.6-5.9-21.6,0l-59.7,59.4
			l86.7,86.2l59.7-59.4C961.6,327.6,961.6,318,955.6,312.1z M413.2,786.6l123.7-279.2l348.7-352.7V63H63.9v898h821.6V480.1
			L706.4,663.9L413.2,786.6z M250.4,176l448.7,0.1l-0.1,36.4l-448.7-0.1L250.4,176z M250.3,288.3l335.8,0.1l-0.1,36.4l-335.8-0.1
			L250.3,288.3z M212.5,662.1l-75.3-0.1l0.1-74.8l75.3,0.1L212.5,662.1z M212.5,549.7l-75.3-0.1l0.1-74.8l75.3,0.1L212.5,549.7z
			 M212.5,437.3l-75.3-0.1l0.1-74.8l75.3,0.1L212.5,437.3z M212.5,324.9l-75.3-0.1l0.1-74.8l75.3,0.1L212.5,324.9z M212.5,212.6
			l-75.3-0.1l0.1-74.8l75.3,0.1L212.5,212.6z M250.3,400.7l222.9,0.1l-0.1,36.4l-222.9-0.1L250.3,400.7z M250.3,513.1l186.8,0.1
			l-0.1,36.4l-186.8-0.1L250.3,513.1z M399.5,662l-149.2-0.1l0.1-36.4l149.2,0.1L399.5,662z M864.2,423.4l-86.7-86.3L582.3,531.3
			l86.7,86.2L864.2,423.4z"/>
	</g>
</g>
</svg>
