<?xml version="1.0" encoding="utf-8"?>
<!-- Generator: Adobe Illustrator 22.0.0, SVG Export Plug-In . SVG Version: 6.00 Build 0)  -->
<svg version="1.1" id="图层_1" xmlns="http://www.w3.org/2000/svg" xmlns:xlink="http://www.w3.org/1999/xlink" x="0px" y="0px"
	 viewBox="0 0 1024 1024" style="enable-background:new 0 0 1024 1024;" xml:space="preserve">
<style type="text/css">
	.st0{fill:#323333;}
</style>
<g>
	<g>
		<path class="st0" d="M885.4,63.9H138.6c-41.3,0-74.7,33.5-74.7,74.7v746.8c0,41.2,33.4,74.7,74.7,74.7h746.8
			c41.2,0,74.7-33.4,74.7-74.7V138.6C960.1,97.4,926.6,63.9,885.4,63.9z M788.8,273.5L624.1,569c-29.6-104-126.7-183.1-126.7-183.1
			l207-208.1L788.8,273.5z M645.2,177.7L463.6,369.2L277.7,177.7H645.2z M138.4,273.5l84.5-95.7l207,208.1
			c0,0-97.2,79.1-126.7,183.1L138.4,273.5z M400.2,458.7c0-26.4,21.7-47.9,48.6-47.9h29.6c26.8,0,48.6,21.4,48.6,47.9
			s-21.7,47.9-48.6,47.9h-29.6C422,506.5,400.2,485.1,400.2,458.7z M469.6,752.1c-30.3-50.8-39.8-111.3-39.8-154
			c0-41.6,3.6-66.6,39.7-62.4c36.1,4.2,33.3,95.5,108.4,116.5c19.3,5.4,38.6,8.3,57.6,9.5C635.6,661.6,477.2,764.7,469.6,752.1z
			 M496.3,787.8c122.9-37.5,197.6-127.2,197.6-127.2c29.8-2.6,57.9-7.5,83-11.1c0,0-30.7,51.9-87.1,95.9
			c-57.5,44.7-129.9,85.7-129.9,85.7C539.1,820.9,510.9,803.3,496.3,787.8z M621.3,847.8c0,0,89.6-56.2,143.6-109.4
			c48.6-47.9,62.3-93.3,62.3-93.3c32.6,0.8,53.9,12.8,57.7,52.9C893.2,782.3,798.4,847.8,621.3,847.8z"/>
	</g>
</g>
</svg>
