<?xml version="1.0" encoding="utf-8"?>
<!-- Generator: Adobe Illustrator 22.0.0, SVG Export Plug-In . SVG Version: 6.00 Build 0)  -->
<svg version="1.1" id="图层_1" xmlns="http://www.w3.org/2000/svg" xmlns:xlink="http://www.w3.org/1999/xlink" x="0px" y="0px"
	 viewBox="0 0 1024 1024" style="enable-background:new 0 0 1024 1024;" xml:space="preserve">
<style type="text/css">
	.st0{fill:#303333;}
</style>
<g>
	<g>
		<path class="st0" d="M307.1,530.6h186.2v-224c0,0-11.6,0-103.4,0s-82.7,74.6-82.7,74.6v149.4H307.1z M530.7,530.6h186.2V381.4
			c0,0,9-74.6-82.7-74.6c-91.8,0-103.4,0-103.4,0L530.7,530.6L530.7,530.6z M306.5,568.3c0,0,0,196.7,0,216.4
			c0,19.8,20.6,175.2,205.5,175.2c185,0,205.5-154.6,205.5-175.2c0-14.6,0-216.4,0-216.4L306.5,568.3L306.5,568.3z M522.2,314.2
			c0,0,51.2-62.5,51.2-125s-41-125-41-125l-30.6,20.9c0,0,35.1,34.2,41,93.7s-51.2,125-51.2,125L522.2,314.2z"/>
	</g>
</g>
</svg>
