<?xml version="1.0" standalone="no"?>
<!DOCTYPE svg PUBLIC "-//W3C//DTD SVG 1.1//EN" "http://www.w3.org/Graphics/SVG/1.1/DTD/svg11.dtd" >
<!--
2013-9-30: Created.
-->
<svg>
<metadata>
Created by iconfont
</metadata>
<defs>

<font id="iconfont" horiz-adv-x="1024" >
  <font-face
    font-family="iconfont"
    font-weight="500"
    font-stretch="normal"
    units-per-em="1024"
    ascent="896"
    descent="-128"
  />
    <missing-glyph />
    
    <glyph glyph-name="f9mod8" unicode="&#58882;" d="M794.474978 271.564231c-4.782933 4.060479-7.253194 6.376221-9.945513 8.392134-27.709085 20.733207-37.678134 44.145429-32.28838 82.063017 19.782555 139.103128-92.919273 253.68784-206.623941 266.042215-143.437853 15.584953-261.473153-74.695213-279.682887-212.559117C244.19207 250.86377 389.541459 113.152339 553.014624 144.365224c18.356067 3.5038 30.749328-0.444115 42.773176-13.740956 8.507768-9.416464 19.254529-16.823154 32.550347-28.15934-37.440727-19.600407-37.971823-50.302663-36.006052-81.760119 1.933025-30.999015-3.789303-60.85602-34.618449-73.352635-33.643238-13.643742-71.76344-16.487509-103.192244 3.982708-14.443967 9.411347-21.914102 32.705889-27.646664 51.228755-4.343935 14.033621-0.678452 30.472012-1.034563 45.832861-0.559748 24.509207-11.758812 42.646286-34.463929 52.204989-22.668279 9.53926-43.432185 5.460362-61.240783-11.894911-11.003612-10.725272-21.714558-21.766746-33.024138-32.166607-21.914102-20.137643-52.523237-26.012444-74.959226-9.67536-19.609617 14.281261-37.649482 32.228005-52.039213 51.755758-15.765055 21.401426-9.500375 54.450123 9.905604 75.188446 10.457166 11.192923 22.001083 21.383006 32.711006 32.350802 15.619746 15.990183 21.22644 35.335786 14.443967 56.542784-7.075139 22.100344-23.313985 35.903721-46.38954 38.943964-17.70729 2.332115-35.766598 1.863441-53.664224 2.756787-38.639019 1.922792-61.095473 24.3772-62.74402 63.110363-0.511653 11.930727-0.477884 23.914666-0.044002 35.849486 1.433652 39.923268 26.573215 64.608483 66.614164 65.491597 14.506389 0.317225 29.072129-0.571005 43.533492 0.284479 24.076348 1.415232 42.895973 12.598946 51.855018 35.33681 8.909927 22.605857 3.946892 43.538609-13.604856 61.002352-9.665127 9.627265-19.327184 19.272949-28.78765 29.109991-4.099365 4.264117-8.369621 8.607028-11.394515 13.620206-21.11797 34.980699-8.621355 69.77004 38.694277 108.600417 27.530007 22.597671 61.003376 21.476127 87.87949-3.294023 11.291161-10.411117 21.781072-21.694091 33.116235-32.047904 18.156522-16.60519 39.606043-20.259416 61.711504-10.694573 21.166065 9.154497 33.144888 25.986861 32.945343 50.242288-0.132006 16.205077-0.209778 32.472576 0.959861 48.619324 2.278903 31.361265 22.587438 55.831586 53.147454 60.193941 20.011776 2.854001 41.071418 2.820232 61.095473 0.033769 28.788673-4.006244 49.498344-29.495778 51.062979-59.109236 0.909719-17.029862-0.779759-34.230616 0.601704-51.201126 1.937119-23.680329 12.772908-41.84913 36.199457-51.1561 23.626094-9.381671 43.344181-3.28379 60.779272 13.595646 7.358595 7.123234 14.262842 14.72026 21.509896 21.961174 4.820796 4.821819 9.537214 9.862625 14.925944 14.009062 34.215266 26.333762 72.323189 15.219633 113.457028-32.858362 25.071002-29.30135 23.406083-64.100924-4.143367-91.445712-10.891048-10.812253-22.342868-21.274536-31.862685-33.222659-14.854313-18.634406-19.820418-40.256866-8.689916-62.20883 10.423397-20.551058 28.5308-31.003108 52.054563-30.994921 14.516622 0.00921 29.05678 0.51677 43.532469-0.180102 34.538631-1.669012 59.261709-22.165836 63.541175-55.17667 2.390443-18.434861 2.409886-37.712927-0.077771-56.129368-4.430916-32.775474-30.193673-53.971216-63.6169-55.250348-10.233062-0.393973-20.543895-0.750083-30.732955 0.055259C834.056462 302.641017 812.058448 294.379866 794.474978 271.564231L794.474978 271.564231zM851.514065 132.308631c-52.482305 52.517097-105.468077 104.536868-158.52241 156.479891-9.82374 9.617032-14.414291 17.400299-8.899694 32.926924 28.958542 81.569784 2.453888 165.29158-68.533886 214.895325-44.788066 31.287587-94.78783 40.309054-149.989059 23.86657 20.629853-24.232914 43.825135-44.423769 65.6103-66.039066 42.748616-42.432415 43.372833-94.930069 2.600221-135.069255-39.521109-38.913265-92.866061-37.625946-133.897569 3.767813-21.529339 21.712511-42.286082 44.188408-63.393819 66.321498-2.538823-1.512447-5.080715-3.024893-7.622608-4.533246-12.19474-66.584488 2.913353-126.109186 52.957119-173.845397 53.268204-50.819432 117.011994-65.180512 186.913017-41.656749 17.853623 6.006807 27.315112 2.835581 39.420825-9.451256 52.112891-52.908 104.82544-105.239879 157.926846-157.161413 25.676799-25.110911 57.233516-25.929556 82.535785-3.972475C880.044866 66.108906 881.629967 102.169193 851.514065 132.308631zM809.414225 54.90575c-17.390066 0.033769-33.219589 15.555278-31.760354 32.662911 1.600451 18.796088 13.535271 27.963888 31.208792 30.05655 19.015076-1.590218 30.720675-10.533914 31.80845-29.866215C841.683163 69.792808 827.059094 54.877097 809.414225 54.90575zM808.862663 117.62521"  horiz-adv-x="1024" />

    
    <glyph glyph-name="f9mod9" unicode="&#58883;" d="M716.890972 636.077156c0-25.709545 20.900006-46.607504 46.654576-46.607504 25.7515 0 46.651506 20.897959 46.651506 46.607504 0 25.796526-20.900006 46.651506-46.651506 46.651506C737.790978 682.729685 716.890972 661.873682 716.890972 636.077156zM716.890972 337.62888c0-25.7515 20.900006-46.653553 46.654576-46.653553 25.7515 0 46.651506 20.902052 46.651506 46.653553 0 25.710568-20.900006 46.608527-46.651506 46.608527C737.790978 384.23843 716.890972 363.339448 716.890972 337.62888zM63.987848 216.343559c0-41.185005 33.360805-74.590835 74.633814-74.590835l317.117474 0 0-51.501978c-9.138124-6.123464-17.007349-13.992689-23.12979-23.127743L203.899388 67.123003c-25.752524 0-46.651506-20.86112-46.651506-46.656623 0-25.710568 20.900006-46.607504 46.651506-46.607504l228.709959 0c15.084557-22.559808 40.661072-37.33942 69.781296-37.33942 29.119201 0 54.652737 14.779611 69.780273 37.33942l247.337201 0c25.750477 0 46.651506 20.896936 46.651506 46.607504 0 25.795503-20.901029 46.656623-46.651506 46.656623L572.171939 67.123003c-6.208399 9.135054-13.991666 17.003256-23.173792 23.127743l0 51.501978L884.78482 141.752724c41.275056 0 74.636884 33.405831 74.636884 74.590835L959.421704 757.3635c0 41.23003-33.361829 74.589812-74.636884 74.589812L138.621663 831.953312c-41.273009 0-74.633814-33.360805-74.633814-74.589812L63.987848 216.343559zM198.302927 738.694301l626.803699 0c22.775726 0 41.052998-18.275225 41.052998-41.056068l0-123.121132c0-22.735817-18.277272-41.011043-41.052998-41.011043L198.302927 533.506059c-22.779819 0-41.056068 18.274202-41.056068 41.011043L157.246859 697.638233C157.247882 720.418053 175.523107 738.694301 198.302927 738.694301zM198.302927 440.202023l626.803699 0c22.775726 0 41.052998-18.276249 41.052998-41.011043l0-123.120109c0-22.738887-18.277272-41.055045-41.052998-41.055045L198.302927 235.015827c-22.779819 0-41.056068 18.316158-41.056068 41.055045L157.246859 399.190981C157.247882 421.924751 175.523107 440.202023 198.302927 440.202023z"  horiz-adv-x="1024" />

    
    <glyph glyph-name="f9mod10" unicode="&#58884;" d="M826.160631 831.992197 133.264655 831.992197c-38.207184 0-69.290109-31.082926-69.290109-69.289086l0-757.070578c0-38.207184 31.082926-69.289086 69.290109-69.289086l692.895977 0c38.20923 0 69.291133 31.081902 69.291133 69.289086L895.451764 762.703111C895.451764 800.909272 864.369861 831.992197 826.160631 831.992197zM133.264655 5.632533 133.264655 762.703111l692.895977 0 0.016373-757.070578L133.264655 5.632533zM237.199819 589.478861l69.289086 0 0-69.289086-69.289086 0 0 69.289086ZM375.779014 589.478861l346.4485 0 0-69.289086-346.4485 0 0 69.289086ZM375.779014 416.253588l346.4485 0 0-69.289086-346.4485 0 0 69.289086ZM375.779014 243.029338l346.4485 0 0-69.290109-346.4485 0 0 69.290109ZM237.199819 416.253588l69.289086 0 0-69.289086-69.289086 0 0 69.289086ZM237.199819 243.029338l69.289086 0 0-69.290109-69.289086 0 0 69.290109Z"  horiz-adv-x="1024" />

    
    <glyph glyph-name="f9mod11" unicode="&#58885;" d="M502.37734 283.083589c-20.898982 25.989931-39.173185 38.822191-84.554768 43.193755-8.176217 1.486864-14.165628 8.438183-14.165628 16.680914 0 6.053879 20.199041 24.176632 19.980054 24.351618 20.897959 20.701484 32.090882 54.213739 32.090882 80.052221 0 40.09109-36.156478 73.252351-83.942831 73.252351-48.704259 0-83.942831-33.162284-83.942831-73.252351 0-26.013467 10.995425-59.700707 31.893384-80.424704 0 0 20.176528-17.925255 20.176528-23.979134 0-8.591679-6.754844-15.936971-15.69547-17.029862-44.419675-4.393054-62.323441-17.225313-83.003436-42.844807-5.792936-7.522324-9.160637-22.341844-9.334599-30.234605l0-34.43016c0-15.192004 12.853749-27.477818 28.724205-27.477818l222.36239 0c15.869433 0 28.724205 12.285814 28.724205 27.477818L511.689427 252.848984C511.514441 260.741745 508.322749 275.561265 502.37734 283.083589zM726.225571 483.999528l-93.298919 0c-25.707498 0-46.606481-20.526499-46.606481-45.797046 0-25.269523 20.898982-45.796022 46.606481-45.796022l93.298919 0c25.707498 0 46.606481 20.526499 46.606481 45.796022C772.831029 463.473029 751.933069 483.999528 726.225571 483.999528zM726.225571 319.152063l-93.298919 0c-25.707498 0-46.606481-20.527522-46.606481-45.775556 0-25.2685 20.898982-45.796022 46.606481-45.796022l93.298919 0c25.707498 0 46.606481 20.527522 46.606481 45.796022C772.831029 298.624541 751.933069 319.152063 726.225571 319.152063zM63.992965 99.368404c0-40.46255 33.380248-73.253374 74.609255-73.253374l746.153948 0c41.271986 0 74.630744 32.790824 74.630744 73.253374L959.386912 685.462936c0 40.463574-33.358759 73.253374-74.630744 73.253374l-223.848231 0L660.907936 791.681096c0 22.319331-18.276249 40.288588-41.011043 40.288588L403.480936 831.969685c-22.734794 0-41.008996-17.969257-41.008996-40.288588l0-32.964786L138.60222 758.71631c-41.229007 0-74.609255-32.789801-74.609255-73.253374L63.992965 99.368404zM198.301903 667.143709l164.170037 0 0-32.964786c0-22.341844 18.274202-40.311101 41.008996-40.311101l216.414935 0c22.734794 0 41.011043 17.97028 41.011043 40.311101l0 32.964786 164.169013 0c22.778796 0 41.054021-17.969257 41.054021-40.310078l0-468.858434c0-22.320355-18.275225-40.287565-41.054021-40.287565L198.301903 117.687632c-22.756283 0-41.031509 17.968234-41.031509 40.287565l0 468.858434C157.270395 649.174452 175.54562 667.143709 198.301903 667.143709z"  horiz-adv-x="1024" />

    
    <glyph glyph-name="f9mod12" unicode="&#58886;" d="M565.805952 270.224724l54.30379-52.119031c17.926278-17.226337 46.783513-17.226337 64.708767 0 17.927301 17.139356 17.927301 44.946678 0 62.086034l-54.084803 52.118008 54.084803 51.943023c0 0-204.796316 84.033905-213.190497 87.051635-4.504594 1.617847-9.182127 2.492774-13.990642 2.492774-21.685905 0-39.176254-16.614399-39.176254-37.251416 0-4.810562 0.916882-9.269108 2.622734-13.379729 3.14769-7.695263 90.636277-205.059306 90.636277-205.059306L565.805952 270.224724zM64.003198 97.738277c0-39.569204 33.360805-71.66111 74.633814-71.66111l746.169297 0c41.274032 0 74.635861 32.091906 74.635861 71.66111L959.44217 760.354624c0 39.612183-33.361829 71.618131-74.635861 71.618131L138.637012 831.972754c-41.273009 0-74.633814-32.004925-74.633814-71.618131L64.003198 97.738277zM198.3193 581.265806l626.804722 0c22.781866 0 41.056068-17.575284 41.056068-39.395242l0-386.812813c0-21.86089-18.274202-39.436174-41.056068-39.436174L198.3193 115.621577c-22.779819 0-41.057091 17.575284-41.057091 39.436174L157.262208 541.871587C157.262208 563.690522 175.53948 581.265806 198.3193 581.265806zM157.262208 697.656653c0 24.746614 20.900006 44.771693 46.65253 44.771693 25.7515 0 46.651506-20.026102 46.651506-44.771693 0-24.659633-20.900006-44.771693-46.651506-44.771693C178.162214 652.883937 157.262208 672.99702 157.262208 697.656653zM325.15708 697.656653c0 24.746614 20.900006 44.771693 46.65253 44.771693 25.7515 0 46.651506-20.026102 46.651506-44.771693 0-24.659633-20.900006-44.771693-46.651506-44.771693C346.057085 652.883937 325.15708 672.99702 325.15708 697.656653zM493.050927 697.656653c0 24.746614 20.901029 44.771693 46.65253 44.771693 25.752524 0 46.65253-20.026102 46.65253-44.771693 0-24.659633-20.900006-44.771693-46.65253-44.771693C513.951957 652.883937 493.050927 672.99702 493.050927 697.656653z"  horiz-adv-x="1024" />

    
    <glyph glyph-name="f9mod13" unicode="&#58887;" d="M878.047372 77.117634 145.404136 77.117634c-44.970214 0-81.411171 35.108612-81.411171 78.351486l0 470.106868c0 43.286875 36.440957 78.352509 81.411171 78.352509l732.643236 0c44.947701 0 81.389682-35.065634 81.389682-78.352509l0-470.106868C959.437054 112.226247 922.995073 77.117634 878.047372 77.117634zM837.341275 155.470143 604.013135 351.960283l-92.299149-78.964446-92.296079 78.964446L186.110233 155.470143 837.341275 155.470143zM145.404136 194.644351 374.359688 390.523577 145.404136 586.402803 145.404136 194.644351zM186.110233 625.577011l325.603753-274.227642 325.627289 274.227642L186.110233 625.577011zM878.047372 586.402803 649.090796 390.523577l228.956575-195.879226L878.047372 586.402803z"  horiz-adv-x="1024" />

    
    <glyph glyph-name="f9mod14" unicode="&#58888;" d="M764.665045-63.356724 207.558731-63.356724c-43.961234 0-79.592756 36.46347-79.592756 81.408101L127.965975 750.629121c0 44.988634 35.631522 81.407078 79.592756 81.407078l557.106314 0c43.9817 0 79.614246-36.418444 79.614246-81.407078L844.279291 18.051377C844.279291-26.893254 808.646746-63.356724 764.665045-63.356724zM764.665045 750.629121 207.558731 750.629121 207.558731 18.051377l557.106314 0L764.665045 750.629121zM406.529365 587.857944 287.151487 587.857944l0 81.408101 119.377878 0L406.529365 587.857944zM406.529365 425.086767 287.151487 425.086767l0 81.407078 119.377878 0L406.529365 425.086767zM685.092755 262.271588 287.151487 262.271588l0 81.409125 397.941268 0L685.092755 262.271588zM685.092755 99.457432 287.151487 99.457432l0 81.407078 397.941268 0L685.092755 99.457432zM486.122121 669.265022l198.970634 0 0-244.178255L486.122121 425.086767 486.122121 669.265022z"  horiz-adv-x="1024" />

    
    <glyph glyph-name="f9mod15" unicode="&#58889;" d="M764.709047-63.452915 207.605803-63.452915c-43.980677 0-79.615269 36.443004-79.615269 81.410148L127.990534 750.55442c0 44.969191 35.634592 81.409125 79.615269 81.409125l79.574337 0 39.788192 0 238.805898 0 0 0 119.363552 0 0 0 79.57229 0c43.980677 0 79.614246-36.439934 79.614246-81.409125l0-732.597187C844.323293-27.009911 808.688701-63.452915 764.709047-63.452915zM287.18014 750.55442l-79.574337 0 0-732.597187 79.574337 0L287.18014 750.55442zM764.709047 750.55442l-79.57229 0 0-162.794713-59.679217 61.056588-59.683311-61.056588L565.774229 750.55442 326.968331 750.55442l0-732.597187 437.740716 0L764.709047 750.55442z"  horiz-adv-x="1024" />

    
    <glyph glyph-name="f9mod16" unicode="&#58890;" d="M947.376367 527.484925c-14.32424 21.592784-39.695071 33.976836-69.606311 33.976836l-56.351426 0 0.002047 0.001023c0 57.057507-46.263673 103.287411-103.288434 103.287411L442.697099 664.750195c0 57.05853-46.264697 103.288434-103.288434 103.288434L167.26298 768.03863c-56.990992 0-103.288434-46.229904-103.288434-103.288434l0-482.008942c0-41.11542 24.224728-76.289524 59.061141-92.820012 12.535501-6.80294 27.454282-10.467399 43.721781-10.467399l550.83754 0c25.069979 0 51.877531 8.588609 75.490322 24.184819 23.661909 15.628956 42.052768 36.939307 51.783387 60.003606l0.287549 0.681522 106.809631 286.930965C963.185424 478.4133 961.525622 506.157177 947.376367 527.484925zM888.211872 477.275383l-0.286526-0.681522L781.177114 189.829695c-9.580193-21.803585-39.682791-41.518602-63.582107-41.518602L166.756443 148.311093c-8.290827 0-11.720949 2.359744-12.269441 3.184529-0.528026 0.796132-1.332345 4.736884 1.792832 12.144598l0.286526 0.679475 106.793258 286.793842c9.515724 21.785166 39.607066 41.488927 63.540152 41.488927l550.870286 0c8.255011 0 11.67797-2.358721 12.226462-3.184529C890.785487 488.22783 890.998335 483.879801 888.211872 477.275383z"  horiz-adv-x="1024" />

    
    <glyph glyph-name="f9mod1" unicode="&#58891;" d="M683.749154 217.763908M551.067272 82.012108 122.800325 82.012108 122.800325 552.406524l293.998941 0L416.799266 670.004873 64.002175 670.004873l0-646.791939 552.871873 0c-29.183669 24.555256-57.517995 42.313711-80.334653 50.237171L551.067272 82.012108zM953.261401 320.573435C827.430554 257.922537 747.63109 69.97291 747.63109 69.97291l-49.104371 92.479251-101.274568-59.664891c42.961464-14.916734 104.346533-62.654992 156.522869-125.305891 36.824697 65.635883 150.380986 199.887516 205.622124 211.819267C937.914878 237.033787 950.189436 275.820162 953.261401 320.573435zM942.673252 831.973778 495.167125 831.973778l0-460.977953L942.673252 370.995825 942.673252 831.973778zM877.853967 435.816133 559.986409 435.816133 559.986409 767.155517l317.867558 0L877.853967 435.816133z"  horiz-adv-x="1024" />

    
    <glyph glyph-name="f9mod2" unicode="&#58892;" d="M884.823706 831.995267 138.607336 831.995267c-41.249473 0-74.622558-30.16502-74.622558-67.376527l0-539.021423c0-37.141922 33.373085-67.378573 74.622558-67.378573l746.216369 0c41.170678 0 74.621535 30.236652 74.621535 67.378573L959.44524 764.61874C959.44524 801.83127 925.994384 831.995267 884.823706 831.995267zM884.823706 292.974867 138.607336 292.974867 138.607336 764.614647l746.216369 0L884.823706 292.974867zM772.891404 83.742519 250.538615 83.742519c-20.62269 0-37.307697-16.687054-37.307697-37.307697 0-20.550035 16.686031-37.238113 37.307697-37.238113l522.352789 0c20.620643 0 37.313837 16.688077 37.313837 37.238113C810.205241 67.055464 793.517163 83.742519 772.891404 83.742519L772.891404 83.742519zM772.891404 83.742519"  horiz-adv-x="1024" />

    
    <glyph glyph-name="f9mod3" unicode="&#58893;" d="M954.40955 549.91989c-3.423983 14.261818-9.381671 28.285207-17.503653 40.573067-5.139044 7.909134-11.113105 15.180747-17.927301 21.811772l-7.865131 13.58439-1.140986-5.798053c-4.460592 3.608178-9.139148 7.05365-14.219863 10.199293-1.991354 1.27504-4.242627 2.625804-4.816702 2.848884l-23.344684 13.526061 0 0.277316c0 6.373151-0.599657 13.163811-1.77339 20.336164-9.956769 58.855456-60.491723 101.564163-120.163777 101.564163l-89.734744 0-76.781734 44.353161-7.765871 4.203742c-35.834136 19.259646-83.136465 19.760043-121.298624-0.535189l-83.2214-48.021713-90.188068 0c-59.634192 0-110.163005-42.708707-120.185266-101.703333-1.11438-6.953366-1.709945-13.743002-1.709945-20.196994l0-0.557702-28.879748-16.730033c-15.933901-9.701966-29.835516-23.204491-40.114626-38.921451-8.088212-12.245905-13.784958-25.494651-17.287735-39.337937-4.585435-9.559727-4.564969-20.056801-4.505617-29.615505l0-369.335766c0-22.147416 5.938246-53.16178 21.971407-72.321142 23.363104-41.171702 55.193043-49.936319 77.877695-49.936319l694.835142 0c23.443945 0 55.794747 8.705266 77.186963 48.919153 22.010293 23.561625 22.527063 50.511417 22.705118 71.821769L958.55701 521.080052C960.169741 528.449903 959.97122 537.99121 954.40955 549.91989zM867.591229 575.634552c7.325849-5.14109 13.381775-11.348466 18.10638-18.641569 3.482311-5.236258 6.15007-10.912537 8.023744-16.752546-0.415462-1.451048-0.792039-2.90926-1.293459-4.299933-0.580215-1.535983-1.13587-3.049452-1.835811-4.539386-1.055029-2.351558-2.348488-4.586458-3.680832-6.797823-0.799202-1.291412-1.517563-2.64627-2.394537-3.89982-1.670036-2.368954-3.583618-4.544503-5.496178-6.655584-0.799202-0.873903-1.511423-1.849114-2.388397-2.667759-2.791579-2.750647-5.854335-5.217838-9.041934-7.368828L867.590206 575.634552zM215.958028 646.938528c0 3.469008 0.357134 6.934946 0.892323 10.121522 4.960988 29.315676 30.139437 50.593282 59.818387 50.593282l468.986347 0c29.716812 0 54.873772-21.277606 59.811224-50.434669 0.538259-3.346211 0.935302-6.812149 0.935302-10.281157l0-178.343851L578.780451 337.237977l-0.059352 0.039909-13.564947-7.906064-21.132296-12.189623c-20.475334-10.816347-45.376467-10.977006-65.988924 0.216941-0.479931 0.281409-0.995677 0.557702-1.496074 0.838088l-17.986653 10.376325-14.615882 8.485255-0.044002-0.019443L238.226195 455.851445l-22.268166 12.886495L215.958028 646.938528zM136.900461 557.093267c4.903683 7.509021 11.256368 13.941524 17.866926 18.460444l0-70.948889c-2.869351 2.016937-5.699816 4.104481-8.206916 6.512321-0.079818 0.084934-0.23843 0.202615-0.358157 0.301875-3.02694 2.929726-5.693676 6.133697-8.123005 9.521864-0.718361 0.998747-1.258667 2.071172-1.913583 3.108804-1.556449 2.447748-3.02694 4.955872-4.222161 7.586792-0.679475 1.352811-1.194198 2.772136-1.75497 4.16281-0.559748 1.432629-0.955768 2.930749-1.391696 4.40124C130.625548 546.054863 133.316843 551.695327 136.900461 557.093267zM125.168256 152.939507 125.168256 450.652026l7.971555-4.625344 21.627577-12.524245 0-0.116657 60.332087-34.837436 0.858554-0.502443 154.540725-89.224114 12.246929-7.071046-212.722846-122.81721-44.135196-25.559119C125.650233 153.240359 125.406686 153.081747 125.168256 152.939507zM858.662883 91.37229 163.832857 91.37229c-4.861728 0-9.105379 1.454118-13.050224 4.464685 2.012843 1.651616 3.965312 3.499707 6.136767 4.812609L443.856505 266.387325l5.337565-2.981914c18.922978-10.238179 40.333614-15.617699 61.98268-15.617699 21.553898 0 42.167379 5.102205 61.270459 15.175631 1.554402 0.757247 2.966565 1.558495 3.943822 2.209318l2.468215 1.359974 282.913465-163.308413 2.449795-1.656733c2.927679-1.749854 5.435803-4.024663 7.989975-6.175653C868.667747 92.826408 864.380094 91.37229 858.662883 91.37229zM897.368416 153.022395c-0.144286 0.075725-0.300852 0.173962-0.419556 0.254803-2.251274 1.570775-4.541433 2.871397-6.012947 3.582595L639.986441 301.885817l166.414147 96.02296 2.231831 1.291412 58.95881 34.020838 0 0.039909 29.777187 17.226337L897.368416 153.022395zM280.01188 620.789984 742.306828 620.789984 742.306828 559.599344 280.01188 559.599344 280.01188 620.789984ZM280.01188 521.359414 742.306828 521.359414 742.306828 460.172867 280.01188 460.172867 280.01188 521.359414ZM274.828834 489.207134"  horiz-adv-x="1024" />

    
    <glyph glyph-name="f9mod4" unicode="&#58894;" d="M399.778614 376.296551l0-55.969733c0-33.576723 22.387893-55.965639 55.963593-55.965639l111.936395 0c33.577746 0 55.964616 22.38994 55.964616 55.965639l0 55.969733c0 33.577746-22.38687 55.965639-55.964616 55.965639L455.742207 432.26219C422.166507 432.261167 399.778614 409.874297 399.778614 376.296551L399.778614 376.296551zM903.474484 656.127817 679.608857 656.127817l0 55.964616c0 33.57877-22.38687 55.964616-55.964616 55.964616L399.778614 768.057049c-33.57877 0-55.965639-22.385846-55.965639-55.964616l0-55.964616L119.947348 656.127817c-33.57877 0-55.965639-22.38687-55.965639-55.969733l0-223.861534 0-55.969733 0-279.831266c0-33.576723 22.385846-55.965639 55.965639-55.965639l783.527137 0c33.577746 0 55.964616 22.38994 55.964616 55.965639L959.4391 600.157062C959.440124 633.739924 937.052231 656.127817 903.474484 656.127817zM399.778614 684.107055c0 16.789385 11.19497 27.985378 27.984355 27.985378l167.895895 0c16.793478 0 27.985378-11.19497 27.985378-27.985378l0-27.980261L399.778614 656.126794 399.778614 684.107055zM903.474484 96.466308c0-33.583886-22.387893-55.970756-55.965639-55.970756L175.911964 40.495552c-33.577746 0-55.964616 22.38687-55.964616 55.970756L119.947348 320.325795l223.865627 0 0-55.965639c0-33.577746 22.385846-55.964616 55.965639-55.964616l223.865627 0c33.577746 0 55.964616 22.38687 55.964616 55.964616L679.608857 320.325795l223.86665 0L903.475508 96.466308zM903.474484 376.296551 679.608857 376.296551l0 55.965639c0 33.57877-22.38687 55.964616-55.964616 55.964616L399.778614 488.226806c-33.57877 0-55.965639-22.385846-55.965639-55.964616l0-55.965639L119.947348 376.296551 119.947348 544.191422c0 33.582863 22.38687 55.965639 55.964616 55.965639l671.596881 0c33.577746 0 55.965639-22.382776 55.965639-55.965639L903.474484 376.296551zM903.474484 320.325795M903.474484 376.296551 685.462169 376.296551l0 49.672306c0 37.231973-30.182416 67.412342-67.413366 67.412342L407.945621 493.3812c-37.229926 0-67.412342-30.18037-67.412342-67.412342l0-49.672306L119.947348 376.296551l0-55.969733 220.585931 0 0-50.53086c0-37.230949 30.182416-67.413366 67.412342-67.413366l210.102159 0c37.230949 0 67.413366 30.182416 67.413366 67.413366l0 50.53086 218.013339 0L903.474484 376.296551z"  horiz-adv-x="1024" />

    
    <glyph glyph-name="f9mod5" unicode="&#58895;" d="M285.337165 487.325273 818.962695 487.325273 818.962695 533.263535 286.262234 533.263535 286.262234 565.867094 198.406281 565.867094 198.406281 444.712757 285.337165 444.712757ZM286.262234 313.980273 818.962695 313.980273 818.962695 354.101039 287.18935 354.101039 287.18935 394.191106 198.406281 394.191106 198.406281 275.551032 286.262234 275.551032ZM286.262234 138.550799 818.962695 138.550799 818.962695 178.661332 286.262234 178.661332 286.262234 217.927637 198.406281 217.927637 198.406281 99.281423 286.262234 99.281423ZM113.052311 831.952288 63.998081 831.952288l0-895.430786 49.055253 0 846.37451 0L959.427844 831.952288 113.052311 831.952288zM908.990105-12.7133l-795.937794 0L113.052311 682.695916l795.937794 0L908.990105-12.7133z"  horiz-adv-x="1024" />

    
    <glyph glyph-name="f9mod6" unicode="&#58896;" d="M687.120948-13.847124 687.120948-13.847124 687.126065-13.847124ZM349.92109-13.847124 349.926206-13.847124 349.926206-13.847124ZM774.80601 250.588501c0.019443 0.005117 0.039909 0.010233 0.057305 0.013303-39.398312 29.858028-83.987856 57.217143-128.851647 84.163865 67.702961 69.880557 107.041922 184.594205 107.041922 260.32705 0 115.14753-90.50734 236.871849-234.289024 236.871849-0.079818 0-0.160659-0.00307-0.240477-0.00307-0.078795 0-0.159636 0.00307-0.239454 0.00307-143.782707 0-234.291071-121.724319-234.291071-236.871849 0-75.732845 39.33896-190.447517 107.041922-260.32705-44.86379-26.946722-89.453335-54.305837-128.851647-84.163865 0.01842-0.00307 0.037862-0.008186 0.056282-0.013303-77.333296-58.184167-134.333498-125.71726-134.333498-220.438575 0-95.551216 71.045079-93.650937 71.045079-93.650937l108.478643 0 422.186462 0 108.478643 0c0 0 71.046103-1.90028 71.046103 93.650937C909.140531 124.870218 852.141352 192.402287 774.80601 250.588501zM812.848441-13.400962l-125.670188-0.548492c-0.019443 0.033769-0.038886 0.067538-0.058328 0.102331l-92.074022-0.494257-50.252521 211.593116L595.603605 303.778934c0 0-0.917906-0.696872-2.611477-1.855254l0.88516 1.855254c0 0-32.741705-26.258037-75.355245-26.611078-37.376259 0.311085-67.153446 20.541849-73.907267 25.51307-0.483001 0.367367-0.963954 0.720408-1.446955 1.098008l0.886183-1.855254c-1.693572 1.159406-2.611477 1.855254-2.611477 1.855254l50.810223-106.528222-50.253544-211.593116-92.074022 0.494257c-0.019443-0.033769-0.039909-0.067538-0.058328-0.102331l-125.671211 0.548492c0 0-49.457412-6.446829-49.457412 70.776973 0 119.217219 168.137395 182.508707 298.397111 279.908014-60.72606 34.402531-109.796662 116.319216-128.555911 188.196243-4.539386 20.201088-6.879688 39.748283-6.879688 57.576323 0 93.466742 68.845994 197.576891 180.823322 197.995423 111.978351-0.418532 180.823322-104.528682 180.823322-197.995423 0-17.822924-2.338255-37.366026-6.878664-57.560974-18.755156-71.880097-67.827805-153.805992-128.556934-188.210569 130.258693-97.400331 298.396087-160.690796 298.396087-279.908014C862.306876-19.847791 812.848441-13.400962 812.848441-13.400962z"  horiz-adv-x="1024" />

    
    <glyph glyph-name="f9mod7" unicode="&#58897;" d="M836.417229 171.628148l55.750745 35.098379-20.716834 50.528813-63.927985-14.83794c-9.124821 12.605086-20.225647 23.802102-33.029254 33.423227l14.512529 63.956637-50.368154 21.082154-34.539654-55.386448c-15.791661 2.492774-31.588439 2.555196-47.01478 0.320295l-34.314527 55.453986-50.529837-20.614503 13.854543-63.762209c-12.608156-9.197476-23.898293-20.35663-33.555234-33.228799l-63.303768 14.975063-21.043269-50.340525 54.729485-35.32146c-2.462075-15.797801-2.428306-31.623231-0.130983-47.185672l-55.357795-34.177404 20.688181-50.598398 63.789838 13.923104c9.261944-12.540617 20.322861-23.733541 33.19503-33.292244l-14.969946-63.630203 50.335409-21.014616 35.553751 55.193043c15.696494-2.365884 31.521924-2.302439 46.856168 0.067538l35.097356-55.722092 50.466392 20.750603-14.83794 64.029292c12.443403 9.188266 23.602557 20.225647 33.064047 32.927947l64.35061-14.541181 21.014616 50.334385-55.82033 34.898835C838.651107 140.62811 838.651107 156.259112 836.417229 171.628148zM750.195495 119.351528c-16.21531-38.773072-60.807924-57.030901-99.613742-40.806381-38.743396 16.220427-57.066717 60.774155-40.84629 99.647511 16.22145 38.743396 60.8376 56.998155 99.614765 40.778752C748.128417 202.720284 766.416945 158.162462 750.195495 119.351528zM232.085334 529.374972 568.297702 529.374972 568.297702 462.133521 232.085334 462.133521 232.085334 529.374972ZM232.085334 361.267253 530.737248 361.267253 530.737248 294.025803 232.085334 294.025803 232.085334 361.267253ZM232.085334 193.162604 467.43348 193.162604 467.43348 125.921153 232.085334 125.921153 232.085334 193.162604ZM131.221112 92.297358 131.221112 529.374972c0 33.458019 33.691333 33.623795 67.240427 33.623795l100.865245 0c18.521842 0 33.623795 15.106046 33.623795 33.622772L332.95058 699.063699c0 29.811979-0.331551 59.624982 23.898293 65.795519l245.071601-0.130983c37.103036 0 67.24145-30.144554 67.24145-67.246567l0-302.589596 67.24145 0L736.403375 697.481667c0 74.142627-60.346413 134.486994-134.482901 134.486994L332.95058 831.968661c-35.726689 0-70.001307-33.228799-127.529535-91.933829-8.073886-8.205892-16.278755-16.609283-24.619724-24.88783-8.278547-8.336876-16.682961-16.546861-24.888853-24.619724-58.70503-57.528228-91.933829-91.807962-91.933829-127.529535l0-470.700385c0-74.136487 60.346413-134.482901 134.488017-134.482901l336.213391 0 0 67.24145L198.461539 25.055908C161.363619 25.055908 131.221112 55.199439 131.221112 92.297358L131.221112 92.297358zM131.221112 92.297358"  horiz-adv-x="1024" />

    
    <glyph glyph-name="f9mod23" unicode="&#58898;" d="M742.687498 268.134109c-21.823028-3.0208-46.346561-7.235798-72.344678-9.462512 0 0-65.151859-76.3192-172.235736-108.196211 12.639878-13.196557 37.283138-28.221762 55.450916-36.888142 0 0 63.123666 34.899858 113.167432 72.979128C715.938274 224.010169 742.687498 268.134109 742.687498 268.134109zM482.445382 389.768377c23.373337 0 42.335201 18.206664 42.335201 40.704051 0 22.49841-18.960841 40.704051-42.335201 40.704051l-25.796526 0c-23.412223 0-42.373063-18.206664-42.373063-40.704051 0-22.497387 18.960841-40.704051 42.373063-40.704051L482.445382 389.768377zM732.390991 192.450383c-47.139623-45.236274-125.291564-93.095281-125.291564-93.095281 154.387229 0 237.069347 55.729256 229.992161 127.516232-3.417843 34.105772-21.980617 44.281529-50.401923 44.998867C786.689664 271.871223 774.764054 233.155457 732.390991 192.450383zM569.299519 265.826554c-65.429175 17.888416-63.004963 95.560426-94.525863 99.136881-31.521924 3.498684-34.622542-17.726733-34.622542-53.105498 0-36.33044 8.229428-87.847767 34.662451-131.013893 6.597255-10.733459 144.688333 76.955696 144.688333 76.955696C602.926384 258.753461 586.11244 261.217582 569.299519 265.826554zM440.072319 492.401896 259.567245 669.447171l-73.655534-81.406055 143.655817-251.379261C355.32517 425.146119 440.072319 492.401896 440.072319 492.401896zM609.485777 336.661855l143.654794 251.379261-73.656557 81.406055L498.980987 492.401896C498.980987 492.401896 583.728136 425.146119 609.485777 336.661855zM878.076024 831.786513 145.407206 831.786513c-44.957935 0-81.407078-36.443004-81.407078-81.479733l0-732.290195c0-44.955888 36.449143-81.478709 81.407078-81.478709l732.668819 0c44.957935 0 81.407078 36.522822 81.407078 81.478709L959.483102 750.307803C959.483102 795.343509 923.033959 831.786513 878.076024 831.786513zM878.076024 18.016585 145.407206 18.016585 145.407206 750.307803l732.668819 0L878.076024 18.016585zM627.929848 669.447171 307.466162 669.447171l162.061003-162.813133L627.929848 669.447171z"  horiz-adv-x="1024" />

    
    <glyph glyph-name="f9mod24" unicode="&#58899;" d="M63.77807 74.851011c0-41.018206 33.365922-74.255191 74.649164-74.255191l746.31256 0c41.23924 0 74.649164 33.236985 74.649164 74.255191L959.388958 693.751716c0 41.019229-33.409924 74.255191-74.649164 74.255191L306.352805 768.006907c-41.281195 0-74.649164-33.235962-74.649164-74.255191l0-557.046962c0-20.422122-16.792455-37.126572-37.302581-37.126572-20.555152 0-37.34863 16.70445-37.34863 37.126572L157.05243 628.76768c0 25.581632-20.902052 46.39875-46.615691 46.39875-25.75764 0-46.660716-20.817118-46.660716-46.39875L63.776024 74.851011zM586.232167 634.320139l0-141.120065c0-22.651906-18.278295-40.84322-41.062208-40.84322L366.046349 452.356854c-22.784936 0-41.065278 18.191314-41.065278 40.84322L324.981071 634.320139c0 22.652929 18.280342 40.84629 41.065278 40.84629L545.169959 675.166429C567.953871 675.166429 586.232167 656.973068 586.232167 634.320139zM828.763922 303.801447 362.3297 303.801447c-20.555152 0-37.347606 16.749476-37.347606 37.170574 0 20.37812 16.792455 37.128619 37.347606 37.128619l466.434222 0c20.553105 0 37.346583-16.750499 37.346583-37.128619C866.110505 320.550922 849.317027 303.801447 828.763922 303.801447zM828.763922 155.293111 362.3297 155.293111c-20.555152 0-37.347606 16.70445-37.347606 37.125549 0 20.422122 16.792455 37.126572 37.347606 37.126572l466.434222 0c20.553105 0 37.346583-16.70445 37.346583-37.126572C866.110505 171.997562 849.317027 155.293111 828.763922 155.293111zM828.763922 600.911238 698.183911 600.911238c-20.554128 0-37.346583 16.70445-37.346583 37.126572s16.792455 37.128619 37.346583 37.128619l130.578987 0c20.553105 0 37.346583-16.706497 37.346583-37.128619S849.317027 600.911238 828.763922 600.911238zM828.763922 452.356854 698.183911 452.356854c-20.554128 0-37.346583 16.70445-37.346583 37.125549 0 20.424168 16.792455 37.128619 37.346583 37.128619l130.578987 0c20.553105 0 37.346583-16.70445 37.346583-37.128619C866.110505 469.060281 849.317027 452.356854 828.763922 452.356854z"  horiz-adv-x="1024" />

    
    <glyph glyph-name="f9mod25" unicode="&#58900;" d="M420.821883 45.000146l-22.474874 0L115.543038 45.000146 115.543038 778.423141l731.534995 0L847.078033 229.016183c17.115819-4.608971 33.507138-10.079566 49.051159-16.309454L896.129192 831.873494 63.878354 831.873494l0-831.757604L474.35717 0.115889c-20.829398 13.424754-26.595728 28.520567-41.254589 44.884256M464.962196 84.494649c95.514377-145.974629 238.785431-145.867182 238.785431-145.867182 200.858634 0 255.635191 145.867182 255.635191 145.867182C724.814432 393.269108 464.962196 84.494649 464.962196 84.494649M712.174554-7.278521c-49.562812 0-89.732697 39.154765-89.732697 87.459934 0 48.298006 40.170908 87.458911 89.732697 87.458911 49.557696 0 89.730651-39.160905 89.730651-87.458911 0-48.305169-40.172955-32.201399-89.730651-32.201399M689.069323 60.045817c-0.137123 9.274224-4.16588 18.433838-10.967796 24.916483-6.800893 6.486738-16.279778 10.215666-25.78834 10.149151-9.509585-0.065492-18.922978-3.932566-25.616424-10.512425-6.692423-6.579859-10.585079-15.793708-10.585079-25.065885 0-9.268084 3.892657-18.486026 10.585079-25.068955 6.693446-6.577812 16.10684-10.43977 25.616424-10.508331 9.508561-0.068562 18.987447 3.659343 25.78834 10.145058 6.800893 6.488785 10.830673 15.648398 10.967796 24.915459L689.069323 60.045817zM194.102255 644.156158l68.043722 0 0-66.318428-68.043722 0L194.102255 644.156158zM194.102255 494.13333l68.043722 0 0-66.318428-68.043722 0L194.102255 494.13333zM194.102255 349.169727l68.043722 0 0-66.319451-68.043722 0L194.102255 349.169727zM328.607668 643.125689l397.177881 0 0-69.400626L328.607668 573.725062 328.607668 643.125689zM328.607668 495.676475l397.177881 0 0-69.399603L328.607668 426.276872 328.607668 495.676475zM328.607668 350.712873l397.177881 0 0-69.400626L328.607668 281.312246 328.607668 350.712873z"  horiz-adv-x="1024" />

    
    <glyph glyph-name="f9mod26" unicode="&#58901;" d="M891.172297-63.506127 132.273071-63.506127c-37.744649 0-68.298526 36.446074-68.298526 81.417311L63.974545 750.574886c0 44.971238 30.553876 81.417311 68.298526 81.417311l758.899226 0c37.742603 0 68.295456-36.44505 68.295456-81.417311l0-732.664725C959.467753-27.05903 928.9149-63.506127 891.172297-63.506127zM891.172297 750.574886 132.273071 750.574886l0-732.664725 758.899226 0L891.172297 750.574886zM539.969517 168.253284l122.796744 215.990263 178.055279-283.528472-640.286782-1.408069 136.596028 203.521277L539.969517 168.253284zM337.130785 485.478206c-37.70781 0-68.298526 32.009018-68.298526 71.487148 0 39.497573 30.591739 71.506591 68.298526 71.506591 37.706787 0 68.298526-32.009018 68.298526-71.506591C405.429311 517.487224 374.837572 485.478206 337.130785 485.478206z"  horiz-adv-x="1024" />

    
    <glyph glyph-name="f9mod27" unicode="&#58902;" d="M483.282447 831.987081c1.146103 0 2.228761 0 3.437286-0.029676 1.215688 0.029676 2.360767 0.029676 3.50687 0.029676L483.282447 831.987081zM822.831816 699.834248c-9.618055 49.317219-52.756551 69.070098-99.272981 88.76158C677.686065 808.064228 567.897589 831.319885 486.789317 831.957405c-81.112366-0.638543-190.96531-23.8942-236.776681-43.361577-46.512337-19.720134-89.652879-39.439244-99.335403-88.76158l-22.748097-273.41002 0-376.760876 60.086493 0 0-59.101049c0-72.031547 99.460246-72.031547 99.460246 0l0 59.101049 398.555252 0 0-59.101049c0-72.031547 99.525738-72.031547 99.525738 0l0 59.101049 60.087517 0 0 376.760876L822.831816 699.834248zM339.0853 762.979404l295.272957 0c29.05678 0 29.05678-44.409442 0-44.409442L339.0853 718.569962C310.032614 718.569962 310.032614 762.979404 339.0853 762.979404M191.137737 435.472302l27.143197 198.291159c3.697205 24.085558 11.726066 39.947827 42.435485 39.947827l452.079282 0c30.644951 0 38.673811-15.861246 42.369993-39.947827l27.143197-198.291159c2.545986-19.051915-2.867304-37.849026-28.612665-37.849026L219.744261 397.623275C194.005041 397.623275 188.586634 416.420387 191.137737 435.472302M300.793182 200.672648c0-11.339256-9.048073-20.583804-20.195971-20.583804l-81.684394 0c-11.149944 0-20.134573 9.244548-20.134573 20.583804l0 35.298947c0 11.339256 8.984628 20.582781 20.134573 20.582781l81.684394 0c11.147898 0 20.195971-9.243525 20.195971-20.582781L300.793182 200.672648zM794.732851 200.672648c0-11.339256-9.048073-20.583804-20.133549-20.583804l-81.748862 0c-11.149944 0-20.198018 9.244548-20.198018 20.583804l0 35.298947c0 11.339256 9.048073 20.582781 20.198018 20.582781l81.748862 0c11.090593 0 20.133549-9.243525 20.133549-20.582781L794.732851 200.672648z"  horiz-adv-x="1024" />

    
    <glyph glyph-name="f9mod28" unicode="&#58903;" d="M777.68457 568.560436c-22.711258-22.668279-59.471486-22.668279-82.140789 0-22.672372 22.714328-22.672372 59.474556 0 82.143858L859.829452 814.990988c22.668279 22.670326 59.428507 22.670326 82.144882 0 22.711258-22.668279 22.711258-59.429531 0-82.098833L777.68457 568.560436zM455.370747-18.085658 287.626301 154.34246l0 6.300496L175.81168 160.642956l0 0-55.929824 0c-30.853705 0-55.885821 25.03314-55.885821 55.9288L63.996035 552.018691c0 30.852682 25.032116 55.884798 55.885821 55.884798l55.929824 0 0 0 111.814622 0 0 6.302543L455.370747 786.632103c0 0 111.77062 132.953058 111.77062-57.46069 0-90.195232 0-171.595146 0-233.038544l0-111.858624 0-111.771643c0-61.4874 0-142.931317 0-233.081523C567.141366-150.950711 455.370747-18.085658 455.370747-18.085658zM455.370747 328.387401l0 55.886845 0 55.9288c0 0.831948-0.437975 1.532913-0.525979 2.363837-0.26299 40.175001-0.524956 92.428086-0.349971 128.752386 0.524956 86.125543-54.966892-15.58086-55.053873-19.299555l-55.929824-55.885821 0 0 0 0-167.69942 0 0-223.630267 111.814622 0 0 0 55.884798 0 55.929824-55.929824c0 0 55.929824-90.851171 55.929824 0L455.370747 328.387401zM734.884788 328.387401c-30.850635 0-55.886845 25.03314-55.886845 55.886845 0 30.896684 25.036209 55.9288 55.886845 55.9288l167.744445 0c30.853705 0 55.886845-25.032116 55.886845-55.9288 0-30.853705-25.03314-55.886845-55.886845-55.886845L734.884788 328.387401zM777.68457 200.031035 941.974333 35.744341c22.711258-22.668279 22.711258-59.47558 0-82.188884-22.716374-22.668279-59.476603-22.668279-82.144882 0L695.543781 117.843174c-22.672372 22.713304-22.672372 59.518558 0 82.186837C718.21206 222.699314 754.972289 222.699314 777.68457 200.031035z"  horiz-adv-x="1024" />

    
    <glyph glyph-name="f9mod29" unicode="&#58904;" d="M511.694543-63.472358c-247.249197 0-447.717951 200.446241-447.717951 447.717951 0 247.273756 200.467731 447.717951 447.717951 447.717951 247.251244 0 447.717951-200.444195 447.717951-447.717951C959.412494 136.973884 758.945787-63.472358 511.694543-63.472358zM511.694543 750.552373c-202.302519 0-366.305757-164.002214-366.305757-366.30678 0-202.302519 164.003238-366.305757 366.305757-366.305757 202.304566 0 366.308827 164.004261 366.308827 366.305757C878.00337 586.550159 713.999109 750.552373 511.694543 750.552373zM674.472883 343.54052 581.783855 343.54052c-14.080693-24.222681-40.051181-40.705074-70.089311-40.705074-44.945655 0-81.410148 36.464493-81.410148 81.410148 0 30.05962 16.483416 56.009641 40.706097 70.109778L470.990492 628.457618c0 22.472827 18.231223 40.706097 40.704051 40.706097 22.472827 0 40.706097-18.23327 40.706097-40.706097l0-174.102247c12.241812-7.103792 22.431895-17.270339 29.557176-29.402657l92.515067 0c22.475897 0 40.751123-18.232247 40.751123-40.706097C715.225029 361.771743 696.948781 343.54052 674.472883 343.54052z"  horiz-adv-x="1024" />

    
    <glyph glyph-name="f9mod30" unicode="&#58905;" d="M890.534777 44.758646 132.856355 44.758646c-37.983079 0-68.883857 30.902824-68.883857 68.88181L63.972499 699.119981c0 37.981033 30.900777 68.879764 68.883857 68.879764l757.678422 0c37.978986 0 68.880787-30.898731 68.880787-68.879764l0-585.480548C959.414541 75.66147 928.513764 44.758646 890.534777 44.758646zM132.858402 113.657852c0.014326 0 0.048095-0.031722 0.070608-0.044002l757.605767 0.023536c-0.031722 0.004093 0.011256 0.048095 0.025583 0.077771l-0.023536 585.4038c0-0.017396-0.002047-0.01842-0.004093-0.01842-0.01535 0-0.049119 0.029676-0.070608 0.040932l-757.605767-0.024559c0.025583-0.005117-0.014326-0.048095-0.028653-0.073678l0.025583-585.404824C132.854309 113.655805 132.856355 113.657852 132.858402 113.657852zM890.534777 526.92006 132.856355 526.92006c-19.020192 0-34.440393 15.419178-34.440393 34.440393 0 19.020192 15.420201 34.440393 34.440393 34.440393l757.678422 0c19.018146 0 34.438347-15.420201 34.438347-34.440393C924.973124 542.339238 909.552923 526.92006 890.534777 526.92006zM890.534777 389.160533 132.856355 389.160533c-19.020192 0-34.440393 15.419178-34.440393 34.43937 0 19.020192 15.420201 34.43937 34.440393 34.43937l757.678422 0c19.018146 0 34.438347-15.419178 34.438347-34.43937C924.973124 404.579711 909.552923 389.160533 890.534777 389.160533zM890.534777 251.401006 132.856355 251.401006c-19.020192 0-34.440393 15.419178-34.440393 34.438347 0 19.021216 15.420201 34.440393 34.440393 34.440393l757.678422 0c19.018146 0 34.438347-15.419178 34.438347-34.440393C924.973124 266.820184 909.552923 251.401006 890.534777 251.401006zM821.652967 148.080849 649.45714 148.080849c-19.023262 0-34.43937 15.421224-34.43937 34.438347 0 19.023262 15.416108 34.440393 34.43937 34.440393l172.195827 0c19.023262 0 34.43937-15.417131 34.43937-34.440393C856.093361 163.502074 840.67623 148.080849 821.652967 148.080849zM236.171396 251.401006c-19.020192 0-34.43937 15.419178-34.43937 34.438347L201.732026 561.360454c0 19.020192 15.419178 34.440393 34.43937 34.440393 19.021216 0 34.440393-15.420201 34.440393-34.440393l0-275.521101C270.611789 266.820184 255.192611 251.401006 236.171396 251.401006zM649.45714 251.401006c-19.023262 0-34.43937 15.419178-34.43937 34.438347L615.01777 561.360454c0 19.020192 15.416108 34.440393 34.43937 34.440393 19.018146 0 34.438347-15.420201 34.438347-34.440393l0-275.521101C683.895487 266.820184 668.475286 251.401006 649.45714 251.401006z"  horiz-adv-x="1024" />

    
    <glyph glyph-name="f9mod17" unicode="&#58906;" d="M552.40678 17.951093l-81.400938 0c-62.879096 0-122.140805 14.705933-175.322028 40.144302L104.700085-63.450868l26.471908 264.713964c-42.369993 64.230883-67.171865 141.020804-67.171865 223.694735 0 224.807069 182.239578 407.004691 407.005714 407.004691l81.400938 0c224.769206 0 407.006737-182.197622 407.006737-407.004691C959.413518 200.23058 777.17701 17.951093 552.40678 17.951093zM552.40678 750.56056l-81.400938 0c-179.853228 0-325.604776-145.788387-325.604776-325.602729 0-179.813319 145.752572-325.604776 325.604776-325.604776l81.400938 0c179.856297 0 325.604776 145.791457 325.604776 325.604776C878.012579 604.772172 732.263078 750.56056 552.40678 750.56056zM674.507676 384.25685c-22.454408 0-40.698934 18.203594-40.698934 40.700981 0 22.496363 18.244526 40.699957 40.698934 40.699957 22.459524 0 40.702004-18.203594 40.702004-40.699957C715.210703 402.460444 696.968224 384.25685 674.507676 384.25685zM511.707846 384.25685c-22.456455 0-40.700981 18.203594-40.700981 40.700981 0 22.496363 18.244526 40.699957 40.700981 40.699957s40.698934-18.203594 40.698934-40.699957C552.40678 402.460444 534.164301 384.25685 511.707846 384.25685zM348.903923 384.25685c-22.456455 0-40.700981 18.203594-40.700981 40.700981 0 22.496363 18.244526 40.699957 40.700981 40.699957 22.457478 0 40.700981-18.203594 40.700981-40.699957C389.604904 402.460444 371.361401 384.25685 348.903923 384.25685z"  horiz-adv-x="1024" />

    
    <glyph glyph-name="f9mod18" unicode="&#58907;" d="M761.70155-63.458031 273.307178-63.458031c-44.952818 0-81.398892 36.485983-81.398892 81.400938L191.908286 750.553397c0 44.952818 36.446074 81.398892 81.398892 81.398892L761.70155 831.952288c44.953841 0 81.398892-36.446074 81.398892-81.398892l0-732.61049C843.100442-26.971026 806.655392-63.458031 761.70155-63.458031zM761.70155 750.553397 273.307178 750.553397l0-732.61049L761.70155 17.942907 761.70155 750.553397zM680.303682 140.041756 354.706069 140.041756 354.706069 669.154505l325.59659 0L680.302659 140.041756zM558.20381 58.641841l-81.397868 0 0 40.698934 81.397868 0L558.20381 58.641841z"  horiz-adv-x="1024" />

    
    <glyph glyph-name="f9mod19" unicode="&#58908;" d="M935.428244-39.461501c-6.383384-14.124695-20.530592-24.00267-37.046754-24.00267L125.055692-63.464171c-16.518209 0-30.668487 9.877975-37.045731 24.00267-14.129812 6.387477-24.007787 20.536732-24.007787 37.026288L64.002175 770.916167c0 16.517185 9.878998 30.668487 24.007787 37.041638 6.377244 14.111392 20.527522 23.990391 37.045731 23.990391l773.321704 0c16.521279 0 30.667463-9.878998 37.046754-24.006763 14.123672-6.383384 24.006763-20.50808 24.006763-37.025265l0-773.34831C959.435007-18.924769 949.553962-33.074024 935.428244-39.461501M878.035092 750.56056 145.401066 750.56056l0-488.435305 122.108059 0c22.474874 0 40.703027-18.22406 40.703027-40.697911l0-81.397868 407.012877 0 0 81.393775c0 22.473851 18.232247 40.697911 40.702004 40.697911l122.108059 0L878.035092 750.56056zM247.157611 363.877707l0 20.351514c0 11.250228 9.105379 20.373003 20.351514 20.373003l488.417909 0c11.250228 0 20.34742-9.122775 20.34742-20.373003l0-20.351514c0-11.228739-9.097192-20.352537-20.34742-20.352537L267.505032 343.52517C256.258896 343.52517 247.157611 352.648968 247.157611 363.877707M755.921917 465.650625 267.505032 465.650625c-11.246135 0-20.35049 9.101285-20.35049 20.352537l0 20.346397c0 11.233855 9.104355 20.352537 20.35049 20.352537l488.416885 0c11.251252 0 20.352537-9.118682 20.352537-20.352537l0-20.346397C776.274454 474.75191 767.173169 465.650625 755.921917 465.650625M755.921917 587.738217 267.505032 587.738217c-11.246135 0-20.35049 9.122775-20.35049 20.351514l0 20.36891c0 11.227716 9.104355 20.333094 20.35049 20.333094l488.416885 0c11.251252 0 20.352537-9.105379 20.352537-20.333094l0-20.36891C776.274454 596.860992 767.173169 587.738217 755.921917 587.738217"  horiz-adv-x="1024" />

    
    <glyph glyph-name="f9mod20" unicode="&#58909;" d="M878.014626 35.338089c0 0-651.233088 0-732.638119 0s-81.404008 81.407078-81.404008 81.407078L63.972499 401.659195l203.51002 366.31906 488.425072 0 203.51002-366.31906c0 0 0-203.51002 0-284.914028C959.417611 35.338089 878.014626 35.338089 878.014626 35.338089zM715.205587 686.573223 308.184523 686.573223 165.726997 401.659195l691.935092 0L715.205587 686.573223zM878.014626 320.255187 145.376507 320.255187l0-203.51002 732.638119 0L878.014626 320.255187zM593.099574 198.149175 430.290535 198.149175 430.290535 238.850156l162.809039 0L593.099574 198.149175zM694.854073 523.765207l20.351514-40.702004L308.184523 483.063203l20.351514 40.702004L694.854073 523.765207zM369.238041 605.169215 654.152069 605.169215l20.352537-40.702004L348.886527 564.467211 369.238041 605.169215z"  horiz-adv-x="1024" />

    
    <glyph glyph-name="f9mod21" unicode="&#58910;" d="M902.488017-62.461331 790.687722-62.461331l0 0L231.694431-62.461331l0 0L119.896182-62.461331c-30.876218 0-55.899124 25.065885-55.899124 55.898101l0 782.614347c0 30.876218 25.02393 55.899124 55.899124 55.899124l55.899124 0 0 0 614.892415 0 0 0L902.488017 831.950242c30.875195 0 55.898101-25.02393 55.898101-55.899124l0-782.614347C958.386118-37.395446 933.362188-62.461331 902.488017-62.461331zM846.587869 720.15097 734.789621 720.15097l0 0-447.195042 0 0 0L175.795307 720.15097l0-670.813029 111.799272 0 0 0 447.195042 0 0 0 111.798249 0L846.587869 720.15097zM511.1921 272.934438l223.597521 0 0-111.798249L511.1921 161.13619 511.1921 272.934438zM511.1921 440.632835l223.597521 0 0-111.800295L511.1921 328.83254 511.1921 440.632835zM511.1921 608.330208l223.597521 0 0-111.798249L511.1921 496.531959 511.1921 608.330208zM287.594579 272.934438l111.798249 0 0-111.798249L287.594579 161.13619 287.594579 272.934438zM287.594579 440.632835l111.798249 0 0-111.800295L287.594579 328.83254 287.594579 440.632835zM287.594579 608.330208l111.798249 0 0-111.798249L287.594579 496.531959 287.594579 608.330208z"  horiz-adv-x="1024" />

    
    <glyph glyph-name="f9mod22" unicode="&#58911;" d="M903.462205 831.968661 623.637078 831.968661c-30.909987 0-55.962569-25.052582-55.962569-55.964616l0-279.846616c0-30.867008 25.052582-55.964616 55.962569-55.964616l279.825127 0c30.912034 0 55.964616 25.098631 55.964616 55.964616L959.426821 776.004045C959.426821 806.917102 934.374238 831.968661 903.462205 831.968661zM870.81055 566.02366c0-16.790408-13.628392-30.443359-30.443359-30.443359L688.145278 535.580301c-16.817014 0-30.443359 13.652951-30.443359 30.443359L657.701918 718.257853c0 16.815991 13.626345 30.444383 30.443359 30.444383l152.221914 0c16.814967 0 30.443359-13.628392 30.443359-30.444383L870.81055 566.02366zM399.777591 831.968661 119.953488 831.968661c-30.912034 0-55.964616-25.052582-55.964616-55.964616l0-279.846616c0-30.867008 25.052582-55.964616 55.964616-55.964616l279.825127 0c30.912034 0 55.964616 25.098631 55.964616 55.964616L455.74323 776.004045C455.742207 806.917102 430.690648 831.968661 399.777591 831.968661zM363.275235 566.02366c0-16.790408-13.628392-30.443359-30.444383-30.443359L180.609962 535.580301c-16.815991 0-30.443359 13.652951-30.443359 30.443359L150.166603 718.257853c0 16.815991 13.627369 30.444383 30.443359 30.444383l152.221914 0c16.815991 0 30.444383-13.628392 30.444383-30.444383L363.276259 566.02366zM399.777591 328.262558 119.953488 328.262558c-30.912034 0-55.964616-25.009603-55.964616-55.964616l0-279.824103c0-30.867008 25.052582-55.964616 55.964616-55.964616l279.825127 0c30.912034 0 55.964616 25.097608 55.964616 55.964616L455.74323 272.297942C455.742207 303.252954 430.690648 328.262558 399.777591 328.262558zM364.298542 54.901657c0-16.790408-13.628392-30.443359-30.444383-30.443359L181.633269 24.458297c-16.815991 0-30.443359 13.652951-30.443359 30.443359L151.189909 207.13585c0 16.815991 13.627369 30.444383 30.443359 30.444383l152.221914 0c16.815991 0 30.444383-13.628392 30.444383-30.444383L364.299565 54.901657zM903.462205 328.262558 623.637078 328.262558c-30.909987 0-55.962569-25.009603-55.962569-55.964616l0-279.824103c0-30.867008 25.052582-55.964616 55.962569-55.964616l279.825127 0c30.912034 0 55.964616 25.097608 55.964616 55.964616L959.426821 272.297942C959.426821 303.252954 934.374238 328.262558 903.462205 328.262558zM870.81055 54.901657c0-16.790408-13.628392-30.443359-30.444383-30.443359L688.144254 24.458297c-16.815991 0-30.443359 13.652951-30.443359 30.443359L657.700895 207.13585c0 16.815991 13.627369 30.444383 30.443359 30.444383l152.221914 0c16.815991 0 30.444383-13.628392 30.444383-30.444383L870.81055 54.901657z"  horiz-adv-x="1024" />

    
    <glyph glyph-name="f9mod41" unicode="&#58912;" d="M684.233178 246.185214 684.233178 797.551804c0 18.980283-15.476483 34.458813-34.459836 34.458813L98.423125 832.010617c-18.978237 0-34.458813-15.47853-34.458813-34.458813l0-551.366589c0-18.981307 15.480576-34.459836 34.458813-34.459836l551.350217 0C668.756695 211.725378 684.233178 227.203908 684.233178 246.185214zM615.314529 349.5637 132.882961 349.5637l0 413.528268 482.431567 0L615.314529 349.5637zM285.356608 177.265542l436.291714-75.043137c18.74697-3.230578 36.612872 9.423627 39.84345 28.134781l93.486184 543.373545c3.230578 18.711154-9.388834 36.580127-28.130687 39.759539l-107.957781 18.576077 0-69.925582 62.324464-10.720156-62.324464-362.15932 0-43.075051c0-38.026058-30.927383-68.920696-68.918649-68.920696L285.356608 177.265542zM932.813696 545.348782l-62.420655 14.655791-11.712763-68.027349 24.902156-5.856381-94.493118-402.607544-13.798261 3.296069c-12.485359-12.112875-29.275767-19.586081-47.786353-19.586081-3.835352 0-7.774057 0.339738-11.711739 1.010003l-477.349829 82.176604-9.825786-41.522696c-4.240581-18.510586 7.270591-37.153178 25.777083-41.461297L791.14207-58.498066c18.506493-4.374634 37.047778 7.202029 41.422412 25.640983l125.926014 536.814152C962.864106 522.399093 951.357028 540.974148 932.813696 545.348782zM483.986481 484.968599c0 22.99369-40.304961 45.364187-76.229149 57.227376-1.661849 0.567935-11.974729 5.223978-5.429663 24.891923l-0.169869 0c16.85283 17.337877 29.773094 45.305859 29.773094 72.804143 0 42.298362-28.218692 64.462151-60.84374 64.462151-32.627095 0-60.676941-22.162766-60.676941-64.462151 0-27.607778 12.805654-55.6873 29.769001-72.998571 6.652514-17.323551-5.210675-23.754007-7.592932-24.697495-34.262338-12.376888-74.455759-34.913161-74.455759-57.227376l0-36.811394L483.986481 448.157205 483.986481 484.968599z"  horiz-adv-x="1024" />

    
    <glyph glyph-name="f9mod42" unicode="&#58913;" d="M514.112616 819.163007l-21.663392 7.838525-19.851117-7.838525-408.503834-161.303756 0-462.829114 516.813632-254.031671 378.9968 254.031671L959.904705 642.013355l0 15.845896L514.112616 819.163007zM580.907904 24.002926l-5.315052-3.562129-0.390903 0.192382L133.002688 237.931227 133.002688 597.947743l0 0.106424L580.907904 423.403428 580.907904 24.002926zM601.511151 452.349691l-0.340761 0.13303L163.621033 623.093447l122.976846 48.548716 0.166799 0.065492 420.754856-163.259294L601.511151 452.349691zM890.995265 605.546815l-102.887298-54.4491-0.341784 0.13303L381.166721 708.976466l112.163569 44.279483 0.194428 0.076748 397.469524-143.806243L890.994242 605.546815zM408.205541 222.043375 442.654121 208.957335 442.654121 314.568674 476.294288 303.454546 425.329547 404.459984 373.455085 337.430358 408.205541 325.948863ZM270.447037 281.251871 304.895617 268.131039 304.895617 364.319775 339.47825 352.905818 287.571043 452.078515 236.586858 386.865257 270.447037 375.68973ZM477.1027 153.585213 235.966735 267.391189 235.966735 224.801185 477.1027 110.995209Z"  horiz-adv-x="1024" />

    
    <glyph glyph-name="f9mod43" unicode="&#58914;" d="M567.668369 365.51295c-30.912034 0-55.966663-24.571628-55.966663-54.91675 0-30.343075 25.054629-54.917774 55.966663-54.917774 30.91408 0 55.964616 24.574698 55.964616 54.917774C623.634008 340.942345 598.582449 365.51295 567.668369 365.51295zM875.530039 502.717845c0 0 0 0-0.046049 0L875.48399 749.671307c0 45.473681-37.60241 82.287121-83.948971 82.287121l-573.655222 0c-84.868923 0-153.907299-67.682495-153.907299-150.933571l0-548.81958c0-83.163071 69.038376-150.934594 153.907299-150.934594L721.577714-18.729318c84.865853 0 153.906276 67.772546 153.906276 150.934594l0 41.187051c0.046049 0 0.046049 0 0.046049 0C987.37229 255.767454 987.37229 420.344766 875.530039 502.717845zM217.878774 777.129682l573.655222 0c15.432481 0 27.981285-12.33084 27.981285-27.458375l0-169.735799c-8.78713 3.059686-18.144242 5.072529-27.981285 5.072529l-0.044002 0 0 137.204895c0 15.127536-12.506848 27.458375-27.985378 27.458375L175.859775 749.671307c-15.435551 0-27.983331-12.331863-27.983331-27.458375l0-108.172675c-17.225313 17.314341-27.939329 40.926108-27.939329 66.9846C119.937115 734.104773 163.792948 777.129682 217.878774 777.129682zM175.859775 639.924787l0 27.370371 587.645864 0 0-27.370371L175.859775 639.924787zM763.505639 612.466412l0-27.458375-545.626865 0c-15.08558 0-29.206182 3.584642-42.018999 9.618055l0 17.84032L763.505639 612.466412zM175.859775 694.753533l0 27.459399 587.645864 0 0-27.459399L175.859775 694.753533zM819.516304 132.204254c0-52.991911-43.852764-96.016821-97.93859-96.016821L217.878774 36.187433c-54.085826 0-97.94166 43.024909-97.94166 96.016821L119.937115 564.719968c26.627451-21.600971 60.7322-34.628682 97.94166-34.628682l573.655222 0c15.432481 0 27.981285-12.241812 27.981285-27.373441l0-54.914704L567.713394 447.803141c-77.30362 0-139.960659-61.390185-139.960659-137.206942 0-75.81778 62.657039-137.204895 139.960659-137.204895l251.801886 0L819.515281 132.204254zM855.240947 228.223121 567.713394 228.223121c-46.348608 0-83.993996 36.988426-83.993996 82.373079 0 45.387723 37.645388 82.290191 83.993996 82.290191l251.801886 0c17.273409 0.260943 34.411741 8.482185 44.817742 22.122857 2.929726 3.759627 5.161556 8.134261 6.995321 12.592806 0.265036 0.611937 0.701988 1.050935 0.961908 1.750877 20.113083-25.885554 31.17707-57.629535 31.17707-91.297332C903.468344 295.819658 886.110001 256.643404 855.240947 228.223121z"  horiz-adv-x="1024" />

    
    <glyph glyph-name="f9mod44" unicode="&#58915;" d="M424.137395 170.085002 291.984562 37.93217c-16.508999-16.4783-24.681122-62.209854-2.452865-84.336804 22.158672-22.193465 62.71332-16.410762 82.989109 3.832282l132.152832 132.154879L424.137395 170.085002zM959.239556 694.593897 959.239556 797.557944c0 18.96698-15.46625 34.434254-34.431184 34.434254L98.396519 831.992197c-18.96698 0-34.434254-15.468296-34.434254-34.434254l0-103.299691c0 0 0.032746-0.035816 0.032746-0.068562l0-378.703111c0-37.929868 30.870078-68.867484 68.86953-68.867484l327.826374 0c18.998703 0 34.43323 15.400758 34.43323 34.434254 0 19.032472-15.434527 34.432207-34.43323 34.432207l-327.826374 0L132.864542 659.822976l757.540276 0 0-344.337419L769.886977 315.485557c-19.031449 0-34.43323-15.400758-34.43323-34.432207 0-19.034519 15.402805-34.434254 34.43323-34.434254l120.517841 0c37.965683 0 68.86953 30.936593 68.86953 68.867484L959.274348 694.258253C959.274348 694.392306 959.239556 694.493613 959.239556 694.593897zM218.916407 522.089032l275.468912 0c19.032472 0 34.431184 15.434527 34.431184 34.434254 0 19.033495-15.399735 34.43323-34.431184 34.43323L218.916407 590.956515c-18.999726 0-34.434254-15.400758-34.434254-34.43323C184.48113 537.523559 199.91668 522.089032 218.916407 522.089032zM804.288484 522.089032c19.031449 0 34.43323 15.434527 34.43323 34.434254 0 19.033495-15.402805 34.43323-34.43323 34.43323l-137.737014 0c-19.033495 0-34.431184-15.400758-34.431184-34.43323 0-18.998703 15.398712-34.434254 34.431184-34.434254L804.288484 522.089032zM218.916407 418.788318l275.468912 0c19.032472 0 34.431184 15.434527 34.431184 34.432207 0 19.032472-15.399735 34.434254-34.431184 34.434254L218.916407 487.654778c-18.999726 0-34.434254-15.401782-34.434254-34.434254C184.48113 434.222845 199.91668 418.788318 218.916407 418.788318zM533.862425 200.011592c3.360538-3.361561 7.766894-5.042853 12.173251-5.042853 4.403287 0 8.80862 1.681292 12.173251 5.042853l241.034659 241.036705c6.728238 6.726192 6.728238 17.621333 0 24.346501-6.724145 6.724145-17.618263 6.724145-24.343431 0L533.862425 224.358093C527.13521 217.632925 527.13521 206.73676 533.862425 200.011592zM562.009486 128.452813l-138.678456-137.731898c-10.827603-10.763135-10.863419-28.180829-0.1361-38.941917 5.381567-5.448082 12.44238-8.138354 19.535939-8.138354 7.02909 0 14.023388 2.622734 19.403932 8.004301l138.676409 137.734968c10.793834 10.691503 10.860349 28.111245 0.1361 38.941917C590.254783 139.148409 572.770574 139.148409 562.009486 128.452813z"  horiz-adv-x="1024" />

    
    <glyph glyph-name="f9mod45" unicode="&#58916;" d="M856.10564 664.688797 442.795337 664.688797c0 57.046251-46.283116 103.328343-103.328343 103.328343L167.254793 768.01714c-57.046251 0-103.328343-46.282093-103.328343-103.328343l0-103.32732 0-34.44244 0-447.752744c0-57.046251 46.282093-103.329367 103.328343-103.329367l688.850847 0c57.045227 0 103.328343 46.283116 103.328343 103.329367L959.433984 561.361477C959.433984 618.407728 913.150868 664.688797 856.10564 664.688797zM890.550127 79.166293c0-19.005866-15.438621-34.443463-34.443463-34.443463L167.254793 44.72283c-19.004843 0-34.44244 15.437597-34.44244 34.443463L132.812353 561.361477c0 19.003819 15.437597 34.44244 34.44244 34.44244l688.850847 0c19.004843 0 34.443463-15.438621 34.443463-34.44244L890.549104 79.166293z"  horiz-adv-x="1024" />

    
    <glyph glyph-name="f9mod31" unicode="&#58917;" d="M482.918149 831.949218c-160.722518 0-291.013957-130.380466-291.013957-291.276946s291.013957-604.149746 291.013957-604.149746 291.01498 443.252243 291.01498 604.149746S643.640668 831.949218 482.918149 831.949218zM482.087225 329.145671c-96.450702 0-184.332239 105.720833-184.332239 204.619284 0 98.898451 88.75544 186.256054 185.163163 186.256054 96.405677 0 184.375218-88.230484 184.375218-187.129958C667.29439 433.991578 578.537927 329.145671 482.087225 329.145671zM456.466708 496.164592l52.903907 0 0 55.963593-52.903907 0L456.466708 496.164592z"  horiz-adv-x="1024" />

    
    <glyph glyph-name="f9mod32" unicode="&#58918;" d="M947.532933 680.856012c-10.083659 14.740726-26.006304 23.197328-43.689035 23.197328-15.547091 0-31.119765-6.256494-46.275953-18.594497L686.275697 546.056909l0 63.660902c0 51.773154-42.165332 93.89039-93.984534 93.89039L157.968289 703.608202c-51.824319 0-93.984534-42.117237-93.984534-93.89039l0-387.042034c0-51.768037 42.160215-93.883227 93.984534-93.883227l434.322873 0c51.824319 0 93.984534 42.11519 93.984534 93.883227L686.275697 279.178653l171.288155-132.248c15.175631-12.339026 30.748305-18.594497 46.281069-18.594497 17.702174 0 33.631982 8.469905 43.713594 23.24747 7.867178 11.518335 11.851932 26.148543 11.851932 43.468001l0.014326 442.285219C959.422727 654.682909 955.423647 669.326421 947.532933 680.856012M618.585015 222.675778c0-14.443967-11.794627-26.193569-26.293853-26.193569L157.968289 196.482209c-14.500249 0-26.294876 11.748578-26.294876 26.193569L131.673413 609.718835c0 14.44806 11.794627 26.200732 26.294876 26.200732l434.322873 0c14.499226 0 26.293853-11.752672 26.293853-26.200732L618.585015 222.675778zM891.718743 206.408279 629.548718 412.619828l262.170025 213.361389L891.718743 206.408279z"  horiz-adv-x="1024" />

    
    <glyph glyph-name="f9mod33" unicode="&#58919;" d="M127.945509 340.642516l191.860702 0 0-183.200462L127.945509 157.442054 127.945509 340.642516zM63.977615 401.682731l0-305.279868 319.840492 0L383.818107 401.682731 63.977615 401.682731zM63.977615 768.001791l0-305.281915 319.840492 0L383.818107 768.001791 63.977615 768.001791zM447.741999 619.165997l255.871575-156.446122L703.613574 584.886263l191.860702 0 0-305.281915L703.614597 279.604348 703.614597 401.682731 447.741999 252.845914l255.871575-156.443052L703.613574 218.567203l127.936811 0c63.923892 0 127.891785 61.037145 127.891785 122.075313L959.44217 523.760091c0 61.126172-63.967894 122.165364-127.891785 122.165364L703.614597 645.925455 703.614597 768.001791 447.741999 619.165997z"  horiz-adv-x="1024" />

    
    <glyph glyph-name="f9mod34" unicode="&#58920;" d="M849.012082-63.455985 728.863654-63.455985c-22.12081 0-40.047088 18.274202-40.047088 40.74703l0 81.410148c0 22.473851 17.926278 40.660048 40.047088 40.660048l80.099293 0L808.962947 343.591685l-280.385898 0 0-244.22942 40.049135 0c22.124903 0 40.047088-18.186198 40.047088-40.660048l0-81.410148c0-22.472827-17.922185-40.74703-40.047088-40.74703L448.437847-63.454962c-22.12388 0-40.050158 18.274202-40.050158 40.74703l0 81.410148c0 22.473851 17.926278 40.660048 40.050158 40.660048l40.047088 0L488.484935 343.591685 208.101083 343.591685l0-244.22942 80.140225 0c22.12388 0 40.049135-18.186198 40.049135-40.660048l0-81.410148c0-22.472827-17.925255-40.74703-40.049135-40.74703L168.050925-63.454962c-22.121833 0-40.092114 18.274202-40.092114 40.74703l0 81.410148c0 22.473851 17.97028 40.660048 40.092114 40.660048L168.050925 343.591685 168.050925 384.251733l40.051181 0 280.383852 0L488.485959 669.22716l-40.047088 0c-22.12388 0-40.050158 18.188244-40.050158 40.660048L408.388712 791.297356c0 22.471804 17.926278 40.660048 40.050158 40.660048l120.188336 0c22.124903 0 40.047088-18.188244 40.047088-40.660048l0-81.410148c0-22.471804-17.922185-40.660048-40.047088-40.660048l-40.049135 0L528.578072 384.251733l280.385898 0 40.049135 0 0-40.660048 0-244.22942c22.122857 0 40.047088-18.186198 40.047088-40.660048l0-81.410148C889.05917-45.180759 871.134939-63.455985 849.012082-63.455985z"  horiz-adv-x="1024" />

    
    <glyph glyph-name="f9mod35" unicode="&#58921;" d="M914.642848 320.251094 377.337509 320.251094c-24.706705 0-44.775786 20.048615-44.775786 44.775786 0 24.726148 20.069081 44.774763 44.775786 44.774763l537.304316 0c24.702612 0 44.775786-20.048615 44.775786-44.774763C959.417611 340.299709 939.344436 320.251094 914.642848 320.251094zM914.642848 633.679549 377.337509 633.679549c-24.706705 0-44.775786 20.048615-44.775786 44.774763 0 24.728194 20.069081 44.775786 44.775786 44.775786l537.304316 0c24.702612 0 44.775786-20.048615 44.775786-44.775786C959.417611 653.728164 939.344436 633.679549 914.642848 633.679549zM153.459602-37.954171c-49.458435 0-89.551572 40.09723-89.551572 89.553619 0 49.452295 40.093137 89.549525 89.551572 89.549525 49.453319 0 89.550549-40.09723 89.550549-89.549525C243.011174 2.143059 202.912921-37.954171 153.459602-37.954171zM153.459602 275.475308c-49.458435 0-89.551572 40.09723-89.551572 89.551572 0 49.453319 40.093137 89.550549 89.551572 89.550549 49.453319 0 89.550549-40.09723 89.550549-89.550549C243.011174 315.572538 202.912921 275.475308 153.459602 275.475308zM153.459602 588.903763c-49.458435 0-89.551572 40.09723-89.551572 89.550549 0 49.454342 40.093137 89.551572 89.551572 89.551572 49.453319 0 89.550549-40.09723 89.550549-89.551572C243.011174 629.000993 202.912921 588.903763 153.459602 588.903763zM377.337509 96.373187l537.304316 0c24.702612 0 44.775786-20.048615 44.775786-44.773739 0-24.727171-20.073174-44.777833-44.775786-44.777833L377.337509 6.821615c-24.706705 0-44.775786 20.050662-44.775786 44.777833C332.561723 76.324572 352.630804 96.373187 377.337509 96.373187z"  horiz-adv-x="1024" />

    
    <glyph glyph-name="f9mod36" unicode="&#58922;" d="M437.691085 831.150016 162.422741 831.150016c-18.949584 0-34.408671-15.489786-34.408671-34.407648l0-825.806055c0-18.949584 15.459087-34.407648 34.408671-34.407648l275.268344 0c18.952654 0 34.408671 15.458063 34.408671 34.407648L472.099756 796.742369C472.099756 815.66023 456.642716 831.150016 437.691085 831.150016zM231.23906 727.92605l137.634684 0 0-344.085686-137.634684 0L231.23906 727.92605zM300.057425 1.784902c-58.972113 0-106.754373 47.781236-106.754373 106.786095 0 58.939367 47.78226 106.788142 106.754373 106.788142 58.97109 0 106.753349-47.849798 106.753349-106.788142C406.809751 49.566138 359.028515 1.784902 300.057425 1.784902zM909.632741 11.933029 804.68962 803.093007c-2.384303 18.178011-19.184945 31.015388-37.33021 28.594245L503.65238 796.67483c-18.180058-2.385327-31.015388-19.186991-28.630061-37.231973l104.938004-791.258215c2.388397-18.078751 19.155269-30.982642 37.334303-28.562523l263.738753 34.94693C899.181715-23.013901 912.017044-6.280798 909.632741 11.933029zM582.684364 706.553277l131.85505 17.507746 43.716664-329.669348-131.888819-17.541515L582.684364 706.553277zM740.883409 19.594523c-56.519248-7.52744-108.402919 32.257681-115.89352 88.708368-7.460925 56.519248 32.257681 108.467387 88.742137 115.927289 56.485479 7.52744 108.36608-32.257681 115.859751-88.776929C837.082378 79.002564 797.335119 27.12094 740.883409 19.594523z"  horiz-adv-x="1024" />

    
    <glyph glyph-name="f9mod37" unicode="&#58923;" d="M847.487356 821.661921l0-73.653487c0-46.339398-37.605479-83.944877-83.944877-83.944877s-83.944877 37.605479-83.944877 83.944877L679.597601 831.958428 343.802742 831.958428l0-83.944877c0-46.339398-37.604456-83.949994-83.944877-83.949994-46.338375 0-83.946924 37.610596-83.946924 83.949994L175.91094 821.661921c-65.087391-23.113417-111.929232-84.619236-111.929232-157.598364l0-559.648207c0-92.729961 75.160817-167.893848 167.894871-167.893848l559.647183 0c92.730984 0 167.892825 75.163887 167.892825 167.893848L959.416588 664.063557C959.417611 737.042685 912.518464 798.548504 847.487356 821.661921M847.487356 104.41535c0-30.888498-25.072025-55.962569-55.962569-55.962569L231.877603 48.452781c-30.896684 0-55.961546 25.074072-55.961546 55.962569L175.916057 552.136372l671.570275 0L847.486332 104.41535zM623.630938 272.309198l111.928209 0 0-111.927185L623.630938 160.382013 623.630938 272.309198zM623.630938 440.20407l111.928209 0 0-111.928209L623.630938 328.275861 623.630938 440.20407zM455.736067 272.309198l111.928209 0 0-111.927185L455.736067 160.382013 455.736067 272.309198zM455.736067 440.20407l111.928209 0 0-111.928209L455.736067 328.275861 455.736067 440.20407zM287.841196 272.309198l111.929232 0 0-111.927185-111.929232 0L287.841196 272.309198zM287.841196 440.20407l111.929232 0 0-111.928209-111.929232 0L287.841196 440.20407zM763.541455 720.03022c-15.445784 0-27.983331 12.533454-27.983331 27.984355L735.558124 831.958428l55.962569 0 0-83.944877C791.524786 732.563674 778.987239 720.03022 763.541455 720.03022M259.857864 720.03022c-15.443737 0-27.981285 12.533454-27.981285 27.984355L231.87658 831.958428l55.959499 0 0-83.944877C287.841196 732.563674 275.304671 720.03022 259.857864 720.03022"  horiz-adv-x="1024" />

    
    <glyph glyph-name="f9mod38" unicode="&#58924;" d="M508.461919 625.349837c-133.155672 0-241.084801-107.929128-241.084801-241.083777s107.929128-241.083777 241.084801-241.083777c133.154649 0 241.082754 107.929128 241.082754 241.083777S641.616568 625.349837 508.461919 625.349837zM508.461919 212.061023c-94.946442 0-172.201967 77.257571-172.201967 172.204014s77.255525 172.20299 172.201967 172.20299c94.945419 0 172.20299-77.256548 172.20299-172.20299S603.407338 212.061023 508.461919 212.061023zM508.461919 659.79023c19.020192 0 34.43937 15.419178 34.43937 34.440393L542.901289 797.552827c0 19.021216-15.419178 34.440393-34.43937 34.440393-19.020192 0-34.440393-15.419178-34.440393-34.440393l0-103.322204C474.021525 675.209408 489.440703 659.79023 508.461919 659.79023zM508.461919 108.741889c-19.020192 0-34.440393-15.420201-34.440393-34.440393l0-103.323227c0-19.020192 15.420201-34.440393 34.440393-34.440393 19.020192 0 34.43937 15.420201 34.43937 34.440393l0 103.323227C542.901289 93.320665 527.482111 108.741889 508.461919 108.741889zM921.74971 418.706453 818.42546 418.706453c-19.020192 0-34.440393-15.419178-34.440393-34.440393 0-19.020192 15.420201-34.43937 34.440393-34.43937l103.32425 0c19.021216 0 34.440393 15.419178 34.440393 34.43937C956.190103 403.287275 940.770925 418.706453 921.74971 418.706453zM232.936725 384.26606c0 19.021216-15.419178 34.440393-34.440393 34.440393L95.174128 418.706453c-19.021216 0-34.440393-15.419178-34.440393-34.440393 0-19.020192 15.419178-34.43937 34.440393-34.43937l103.322204 0C217.516524 349.825666 232.936725 365.245867 232.936725 384.26606zM133.346519 561.084161l89.464591-51.66059c5.425569-3.133364 11.345396-4.621251 17.189498-4.621251 11.901051 0 23.478737 6.1777 29.858028 17.225313 9.511631 16.47216 3.869121 37.535895-12.603039 47.047526l-89.465614 51.66059c-16.47216 9.511631-37.534871 3.869121-47.047526-12.603039C111.230826 591.658504 116.873336 570.594769 133.346519 561.084161zM883.605971 207.450005l-89.499383 51.661613c-16.468067 9.505491-37.534871 3.861958-47.044456-12.611226-9.508561-16.474206-3.861958-37.536918 12.610202-47.046502l89.497337-51.659567c5.423523-3.131317 11.343349-4.618181 17.185404-4.618181 11.903098 0 23.481807 6.1777 29.861098 17.228383C905.725758 176.877709 900.080178 197.94042 883.605971 207.450005zM646.226562 622.882646c5.424546-3.131317 11.344373-4.619204 17.188474-4.619204 11.901051 0 23.478737 6.178723 29.857005 17.226337l51.659567 89.481987c9.510608 16.473183 3.866051 37.535895-12.606109 47.046502-16.471137 9.509585-37.535895 3.866051-47.046502-12.607132l-51.659567-89.481987C624.108822 653.456988 629.753379 632.393253 646.226562 622.882646zM370.696252 145.664823c-16.474206 9.507538-37.536918 3.860934-47.045479-12.610202l-51.659567-89.497337c-9.509585-16.47523-3.864004-37.536918 12.610202-47.046502 5.423523-3.130294 11.343349-4.618181 17.185404-4.618181 11.903098 0 23.481807 6.178723 29.860075 17.228383l51.66059 89.49836C392.816039 115.092527 387.170458 136.155239 370.696252 145.664823zM269.862729 246.4963c-9.506515 16.47523-30.570249 22.124903-47.044456 12.617365l-89.464591-51.626821c-16.474206-9.506515-22.122857-30.568203-12.617365-47.044456 6.379291-11.05273 17.958-17.231453 29.863145-17.231453 5.841032 0 11.759835 1.485841 17.181311 4.616134l89.464591 51.624774C273.720593 208.959382 279.370267 230.02107 269.862729 246.4963zM747.063155 522.030703c6.379291-11.050684 17.954931-17.228383 29.860075-17.228383 5.844102 0 11.762905 1.488911 17.184381 4.619204l89.499383 51.66059c16.474206 9.508561 22.118763 30.571273 12.610202 47.045479-9.510608 16.474206-30.572296 22.119787-47.046502 12.610202l-89.497337-51.659567C743.200174 559.567621 737.554594 538.50491 747.063155 522.030703zM323.61291 635.498988c6.378268-11.053754 17.956977-17.234523 29.864168-17.234523 5.840008 0 11.757788 1.486864 17.179264 4.614088 16.476253 9.505491 22.125927 30.567179 12.620435 47.043433l-51.626821 89.481987c-9.506515 16.47523-30.568203 22.12695-47.043433 12.620435-16.47523-9.505491-22.125927-30.567179-12.620435-47.043433L323.61291 635.498988zM693.267948 133.062807c-9.511631 16.470113-30.577413 22.110577-47.048549 12.595876-16.471137-9.513678-22.110577-30.578436-12.596899-47.048549l51.695383-89.49836c6.378268-11.045567 17.952884-17.21815 29.853935-17.21815 5.845125 0 11.769045 1.488911 17.194614 4.623297 16.47216 9.513678 22.1116 30.578436 12.596899 47.049572L693.267948 133.062807z"  horiz-adv-x="1024" />

    
    <glyph glyph-name="f9mod39" unicode="&#58925;" d="M888.842229 342.098681c-0.830925 1.626034-8.345062 16.850783-11.922541 41.507346-5.01113 34.545794-0.345877 70.554916 13.866822 107.025549 0.010233 0.023536 0.016373 0.047072 0.025583 0.070608 0.067538 0.177032 0.12689 0.355087 0.192382 0.532119 0.217964 0.591471 0.418532 1.186012 0.601704 1.781576 0.060375 0.193405 0.12075 0.38681 0.178055 0.582261 0.222057 0.76441 0.418532 1.529843 0.585331 2.298346 0.010233 0.047072 0.01842 0.095167 0.027629 0.14224 0.171915 0.811482 0.311085 1.622964 0.423649 2.436492 0.005117 0.037862 0.011256 0.074701 0.017396 0.11154 0.352017 2.617617 0.397043 5.234211 0.152473 7.80578-0.004093 0.051165-0.010233 0.103354-0.01535 0.154519-0.162706 1.6465-0.444115 3.272533-0.837064 4.867868-0.040932 0.165776-0.080841 0.330528-0.12382 0.496304-0.193405 0.734734-0.405229 1.463328-0.64673 2.182712-0.054235 0.161682-0.113587 0.320295-0.169869 0.480954-0.211824 0.606821-0.443092 1.207501-0.687662 1.801019-0.073678 0.178055-0.144286 0.35918-0.221034 0.536212-0.297782 0.686638-0.620124 1.360997-0.961908 2.026146-0.090051 0.176009-0.184195 0.349971-0.277316 0.524956-0.376577 0.703011-0.77055 1.39579-1.192152 2.072195-0.00614 0.008186-0.010233 0.01535-0.014326 0.022513-0.734734 2.001587-4.119831 13.416568 3.588735 36.992519 5.929036 18.132986-3.963265 37.639249-22.096251 43.568285-18.126846 5.928013-37.637202-3.963265-43.568285-22.096251-10.022261-30.650067-9.584286-53.92926-6.181793-70.1415L555.617915 183.877123 158.609902 305.630095c-1.609661 0.493234-3.252067 0.86981-4.91494 1.12359-0.991584 0.295735-4.670369 1.665942-8.570189 6.496971-7.689123 9.525957-11.923564 27.02961-11.923564 49.28959 0 17.72878 4.197602 30.293957 12.477172 37.349653 6.668886 5.683443 16.757662 8.498558 28.458145 8.113795l362.986151-109.48967c2.698458-0.741897 5.432733-1.044796 8.129144-1.044796 9.243525 0 18.250666 4.115738 24.221658 11.437493L886.059859 682.852482c6.913457 8.433066 8.93858 19.885909 5.329379 30.157857-3.541663 10.321066-12.31242 17.996886-22.905686 20.272719L435.991374 831.312722c-11.165294 2.309602-22.804379-1.485841-30.326702-10.18906L96.803231 477.350085c-7.084349-8.045233-32.830733-44.444235-32.830733-99.562577 0 0 0.005117-9.456373 0.143263-15.247262 0-36.496216 7.884574-65.917292 23.471574-87.756693-11.93175-17.535375-23.471574-42.729174-23.471574-74.601068 0-51.130518 18.296715-82.434477 33.645284-99.68742 17.60189-19.789719 36.029588-26.78811 39.546691-27.991518 0.216941-0.073678 0.434905-0.146333 0.653893-0.215918l419.303808-134.088928c3.461845-1.108241 7.007601-1.64343 10.516518-1.64343 10.1645 0 20.027126 4.494361 26.705222 12.628622l290.813389 354.299305C894.436644 314.6137 896.044258 329.649138 888.842229 342.098681zM370.38005 675.566542l23.781636 28.28623c6.577812 7.776104 21.960151 11.638061 34.171264 8.735965l221.728964-53.955866c12.17632-2.933819 16.799618-11.773138 10.289344-19.548218l-23.816428-28.184923c-6.610558-7.807826-21.959128-11.670807-34.172287-8.80248l-221.72794 54.023404C368.423489 659.052426 363.802238 667.824207 370.38005 675.566542zM159.003875 138.089287c-0.074701 0.023536-0.105401 0.034792-0.103354 0.034792 0.011256 0 0.963954-0.260943 0.854461-0.276293L159.003875 138.089287zM555.966862 11.145084 160.255379 137.690198c-4.332678 2.025123-27.054169 14.913665-27.054169 62.491263 0 15.801894 6.41613 28.572756 12.507872 37.143968l411.95033-126.335337c3.339048-1.02433 6.747681-1.518586 10.123568-1.518586 10.247388 0.001023 20.180622 4.569062 26.850531 12.8077l212.622562 262.59265c2.24411-22.331611 7.049556-40.517809 11.524474-53.53938L555.966862 11.145084z"  horiz-adv-x="1024" />

    
    <glyph glyph-name="f9mod40" unicode="&#58926;" d="M922.23271 590.617801c-22.723537 47.432289-55.16746 89.949638-96.423073 126.372176-40.944528 36.144198-84.449367 64.491827-137.38295 84.258009-54.565756 20.37505-112.471584 30.705326-172.108846 30.705326-59.631122 0-117.531833-10.331299-172.095543-30.705326-52.933583-19.766183-100.532671-48.114834-141.476175-84.256986-41.260729-36.422538-73.704652-78.94091-96.432283-126.371152-23.700795-49.462528-35.71748-102.037954-35.71748-156.268066 0-54.946426 12.372795-108.178815 36.775578-158.217465 20.925588-42.908252 49.810453-81.732489 85.995583-115.624391-5.629207-43.811832-36.45119-68.480674-68.899206-94.454232-29.674856-23.75196-60.359716-48.314379-60.359716-87.906096 0-15.740496 10.56973-29.519314 25.77299-33.597189 19.763113-5.302773 41.339524-7.990998 64.128553-7.990998 63.701834 0 125.911688 20.779256 166.882821 38.208207 43.282782 18.413372 85.62003 42.761919 118.614491 68.041676 25.574469-4.00522 51.341319-6.030343 76.81141-6.030343 59.635215 0 117.541043 10.333346 172.110893 30.712489 52.931536 19.766183 96.436376 48.116881 137.380904 84.261079 41.254589 36.422538 73.697489 78.935794 96.423073 126.359896 23.695678 49.457412 35.713386 102.022605 35.713386 156.236344C957.94712 488.58087 945.931458 541.156296 922.23271 590.617801zM516.318864 106.352469c-26.450419 0-53.311183 2.549056-79.840396 7.576559-10.254551 1.942235-20.842701-0.820692-28.838815-7.531534-56.359612-47.296189-160.679539-97.485265-246.542092-100.154048 2.236947 1.809205 4.529153 3.643993 6.846942 5.498224 20.075221 16.070001 42.830481 34.283828 61.567217 59.482743 23.108301 31.075763 34.341133 65.080228 34.341133 103.951537 0 10.107195-4.3951 19.713994-12.042267 26.321482C179.815877 263.70524 140.165832 346.401684 140.165832 434.350758c0 180.877557 168.741146 328.032058 376.152009 328.032058 207.410863 0 372.056738-147.154501 372.056738-328.032058C888.375601 253.491621 723.728704 106.352469 516.318864 106.352469zM573.52168 409.263383c-2.577708 0.832971-18.682501 8.100492-8.626471 38.742373l-0.101307 0c26.25906 27.108405 46.334281 70.65827 46.334281 113.546056 0 65.917292-43.85481 100.498902-94.847182 100.498902-50.885947 0-94.503351-34.58161-94.503351-100.498902 0-43.022862 19.941168-86.829578 46.403866-113.818255 10.257621-27.022447-8.153704-37.043684-12.025894-38.470173-53.332672-19.277042-115.940592-54.455239-115.940592-89.205695l0-13.011338c0-47.319725 91.753727-58.090023 176.61037-58.090023 85.026512 0 175.593204 10.769274 175.593204 58.090023l0 13.011338C692.419627 355.829404 629.539508 390.749728 573.52168 409.263383z"  horiz-adv-x="1024" />

    
    <glyph glyph-name="f9mod54" unicode="&#58927;" d="M112.960213 70.803835l797.485033 0M305.047066 659.78716c-18.969027 0-34.440393 15.473413-34.440393 34.441417L270.606673 797.551804c0 18.968004 15.471366 34.440393 34.440393 34.440393 18.97005 0 34.440393-15.47239 34.440393-34.440393l0-103.323227C339.48746 675.260573 324.016093 659.78716 305.047066 659.78716M856.099501 763.110387l-68.88181 0 0-68.88181c0-38.021965-30.875195-68.88181-68.88181-68.88181-38.006616 0-68.88181 30.858822-68.88181 68.88181L649.45407 763.110387 373.927853 763.110387l0-68.88181c0-38.021965-30.842449-68.88181-68.88181-68.88181s-68.88181 30.858822-68.88181 68.88181L236.164233 763.110387 167.283446 763.110387c-57.008388 0-103.322204-46.296419-103.322204-103.323227l0-619.934245c0-57.040111 46.312792-103.320157 103.322204-103.320157l688.815031 0c57.041134 0 103.32118 46.280046 103.32118 103.320157L959.419657 659.78716C959.419657 716.813968 913.140635 763.110387 856.099501 763.110387M890.539894 39.852916c0-18.96698-15.47239-34.440393-34.440393-34.440393L167.283446 5.412522c-18.969027 0-34.440393 15.473413-34.440393 34.440393l0 482.171648 757.695818 0L890.538871 39.852916zM718.33588 659.78716c-18.969027 0-34.441417 15.473413-34.441417 34.441417L683.894464 797.551804c0 18.968004 15.47239 34.440393 34.441417 34.440393s34.440393-15.47239 34.440393-34.440393l0-103.323227C752.776274 675.260573 737.304907 659.78716 718.33588 659.78716M696.776865 421.024242l-34.57547 23.493064c-9.55154 6.439666-22.602787 3.918239-29.02608-5.54939L463.830419 189.28939l-77.828576 77.793784c-8.105608 8.072863-21.391193 8.072863-29.529547 0l-29.564339-29.598108c-8.172123-8.139378-8.172123-21.390169 0-29.529547l119.634728-119.736035c6.726192-6.659677 17.220197-11.838629 26.737968-11.838629 9.486048 0 19.071358 5.954619 25.192775 14.934131l203.885574 300.683177C708.817086 401.533328 706.327382 414.549783 696.776865 421.024242"  horiz-adv-x="1024" />

    
    <glyph glyph-name="f9mod55" unicode="&#58928;" d="M890.282021 704.115762C862.237291 776.511605 703.243137 831.980941 511.30364 831.980941c-191.936427 0-350.933651-55.470359-378.972241-127.865179l-4.39203 0 0-613.33085c0-6.630001 2.714831-16.607236 6.064113-22.309098 0 0 57.82908-132.015709 377.301182-132.015709 319.472102 0 377.305275 132.015709 377.305275 132.015709 3.530406 5.606695 6.060019 15.691377 6.060019 22.309098L894.669958 704.115762 890.282021 704.115762zM830.775742 94.806505c0 0-53.242622-93.916996-319.472102-93.916996-266.224364 0-319.471079 93.916996-319.471079 93.916996L191.832562 197.537238c68.679196-40.618093 186.123025-67.390853 319.471079-67.390853s250.791883 26.77276 319.472102 67.390853L830.775742 94.806505zM830.775742 280.890644c0-49.951669-143.029554-90.446965-319.472102-90.446965-176.437431 0-319.471079 40.494273-319.471079 90.446965L191.832562 388.223185c68.679196-40.62014 186.123025-67.399039 319.471079-67.399039s250.791883 26.7789 319.472102 67.399039L830.775742 280.890644zM830.775742 538.911162l0-67.334571c0-49.951669-143.029554-90.450035-319.472102-90.450035-176.437431 0-319.471079 40.498366-319.471079 90.450035l0 67.334571 0 58.96495c68.679196-40.621163 186.123025-67.398016 319.471079-67.398016s250.791883 26.776853 319.472102 67.398016L830.775742 538.911162zM511.30364 590.77846c-176.437431 0-319.471079 40.499389-319.471079 90.450035 0 49.956785 143.033647 90.452081 319.471079 90.452081 176.442548 0 319.472102-40.495296 319.472102-90.452081C830.775742 631.27785 687.746188 590.77846 511.30364 590.77846"  horiz-adv-x="1024" />

    
    <glyph glyph-name="f9mod56" unicode="&#58929;" d="M410.869207 309.618942c-19.10615 0-34.69008-15.58393-34.69008-34.688034l0-34.688034c0-19.107173 15.58393-34.688034 34.69008-34.688034l84.654029 0c9.892301 38.617529 27.845185 74.05053 52.370765 104.065124L410.869207 309.619966zM489.222739 103.520981 168.049902 103.520981c-19.138896 0-34.685987 15.58393-34.685987 34.688034L133.363915 727.910701c0 19.173688 15.548114 34.688034 34.685987 34.688034l624.38972 0c19.140942 0 34.688034-15.514345 34.688034-34.688034l0-327.980893c24.696472-6.572696 47.969525-16.463973 69.37709-29.268604L896.504746 727.910701c0 57.45148-46.613644 104.065124-104.065124 104.065124L168.049902 831.975824c-57.450457 0-104.063077-46.613644-104.063077-104.065124l0-589.701686c0-57.452503 46.613644-104.064101 104.063077-104.064101l339.464435 0C498.436588 55.960779 492.305961 79.267601 489.222739 103.520981M723.062532 656.502347 410.869207 656.502347c-19.10615 0-34.69008-15.58393-34.69008-34.688034l0-34.688034c0-19.140942 15.58393-34.688034 34.69008-34.688034l312.193325 0c19.108197 0 34.69008 15.548114 34.69008 34.688034l0 34.688034C757.752612 640.918417 742.170728 656.502347 723.062532 656.502347M272.116049 309.618942l-34.689057 0c-19.10615 0-34.68701-15.58393-34.68701-34.688034l0-34.688034c0-19.107173 15.581883-34.688034 34.68701-34.688034l34.689057 0c19.105127 0 34.685987 15.581883 34.685987 34.688034l0 34.688034C306.802036 294.036036 291.221176 309.618942 272.116049 309.618942M306.802036 623.845577c0 19.105127-15.581883 34.688034-34.685987 34.688034l-34.689057 0c-19.10615 0-34.68701-15.582907-34.68701-34.688034l0-34.688034c0-19.107173 15.581883-34.688034 34.68701-34.688034l34.689057 0c19.105127 0 34.685987 15.581883 34.685987 34.688034L306.802036 623.845577zM306.802036 448.3721c0 19.105127-15.581883 34.688034-34.685987 34.688034l-34.689057 0c-19.10615 0-34.68701-15.58393-34.68701-34.688034l0-34.688034c0-19.140942 15.581883-34.688034 34.68701-34.688034l34.689057 0c19.105127 0 34.685987 15.548114 34.685987 34.688034L306.802036 448.3721zM376.179127 413.684066c0-19.140942 15.58393-34.688034 34.69008-34.688034l222.830041 0c36.924981 19.037589 78.727039 30.013571 123.137505 30.217209 0.236384 1.489934 0.915859 2.844791 0.915859 4.471848L757.752612 448.3721c0 19.105127-15.582907 34.688034-34.69008 34.688034L410.869207 483.060133c-19.10615 0-34.69008-15.58393-34.69008-34.688034L376.179127 413.684066zM757.752612 339.836151c-111.349017 0-201.659883-90.24435-201.659883-201.626113s90.311889-201.559599 201.659883-201.559599c111.346971 0 201.657836 90.177835 201.657836 201.559599S869.099582 339.836151 757.752612 339.836151M861.814666 103.520981l-69.376067 0 0-69.376067-69.37709 0 0 69.376067-69.37709 0L653.684418 172.898071l69.37709 0 0 69.37709 69.37709 0L792.438599 172.898071l69.376067 0L861.814666 103.520981z"  horiz-adv-x="1024" />

    
    <glyph glyph-name="f9mod57" unicode="&#58930;" d="M528.734638 74.88785 409.335271 74.88785 539.531542 339.11472 373.952412 339.11472 373.952412 418.688034 648.939347 418.688034 648.939347 365.549789ZM305.071625 659.774881c-18.97005 0-34.441417 15.471366-34.441417 34.440393L270.630209 797.536454c0 18.97005 15.471366 34.440393 34.441417 34.440393 18.969027 0 34.440393-15.471366 34.440393-34.440393l0-103.32118C339.512019 675.246247 324.040652 659.774881 305.071625 659.774881M856.12406 763.096061l-68.882833 0 0-68.880787c0-38.006616-30.909987-68.88181-68.88181-68.88181-38.005592 0-68.88181 30.875195-68.88181 68.88181l0 68.880787-275.525194 0 0-68.880787c0-38.006616-30.909987-68.88181-68.88181-68.88181-38.039361 0-68.880787 30.875195-68.880787 68.88181l0 68.880787-68.88181 0c-57.008388 0-103.32118-46.280046-103.32118-103.32118l0-619.931175c0-57.041134 46.312792-103.323227 103.32118-103.323227l688.815031 0c57.039087 0 103.32118 46.282093 103.32118 103.323227L959.444217 659.774881C959.44524 716.816015 913.163147 763.096061 856.12406 763.096061M890.56343 39.843706c0-18.971074-15.471366-34.441417-34.43937-34.441417L167.309028 5.402289c-18.969027 0-34.43937 15.470343-34.43937 34.441417L132.869658 522.013307l757.694795 0L890.564453 39.843706zM718.358393 659.774881c-18.969027 0-34.43937 15.471366-34.43937 34.440393L683.919023 797.536454c0 18.97005 15.470343 34.440393 34.43937 34.440393 18.97005 0 34.44244-15.471366 34.44244-34.440393l0-103.32118C752.800833 675.246247 737.328443 659.774881 718.358393 659.774881"  horiz-adv-x="1024" />

    
    <glyph glyph-name="f9mod58" unicode="&#58931;" d="M878.010533 831.969685 145.406183 831.969685c-44.988634 0-81.412195-36.44198-81.412195-81.410148l0-732.603327c0-44.966121 36.422538-81.412195 81.412195-81.412195L878.010533-63.455985c44.988634 0 81.411171 36.44505 81.411171 81.412195L959.421704 750.559537C959.420681 795.527704 922.999167 831.969685 878.010533 831.969685zM878.010533 17.95621 145.406183 17.95621 145.406183 750.559537 878.010533 750.559537 878.010533 17.95621zM664.910087 209.152786c47.611367 44.268226 71.440076 103.136985 71.440076 176.591951 0 70.39221-23.828708 126.509299-71.440076 168.328753-47.656393 41.821501-107.382683 62.741973-179.215708 62.741973L350.418416 616.815463l0-474.075249 130.378419 0C555.911604 142.739191 617.252671 164.88456 664.910087 209.152786zM411.629523 196.910974 411.629523 562.337711l71.615061 0c56.533574 0 102.134145-14.908548 136.849808-44.683688 34.627658-29.795607 51.984978-74.261331 51.984978-133.439128 0-59.176774-16.875343-105.174388-50.629097-138.02968-33.79878-32.857339-80.756255-49.27424-140.91745-49.27424L411.629523 196.910974z"  horiz-adv-x="1024" />

    
    <glyph glyph-name="f9mod59" unicode="&#58932;" d="M877.98188 831.953312 145.399019 831.953312c-44.965098 0-81.406055-36.439934-81.406055-81.406055l0-732.580814c0-44.967144 36.439934-81.407078 81.406055-81.407078l732.582861 0c44.965098 0 81.405031 36.43891 81.405031 81.407078L959.386912 750.547257C959.386912 795.513378 922.948001 831.953312 877.98188 831.953312zM877.98188 17.966443 145.399019 17.966443 145.399019 750.547257l732.582861 0L877.98188 17.966443zM393.773853 187.51293l83.267449 272.114514c4.656043 14.452153 7.343245 26.583448 8.046257 36.376489l1.375324 0c0.938372-13.047154 3.040243-25.424042 6.316869-37.074384l76.949556-271.415596 71.349001 0 115.421776 386.836349L690.04965 574.350302l-75.552743-287.154046c-3.734044-13.530155-5.836939-25.420973-6.29538-35.672454l-3.143597 0c-1.401929 15.390525-3.28072 27.28032-5.616928 35.672454l-81.124645 287.154046-63.307861 0L371.740024 288.598186c-3.476171-11.434423-5.704932-23.570835-6.620791-36.377512l-2.799766 0c-1.180895 14.909571-2.927679 26.690896-5.246491 35.323507l-77.31897 286.805098-71.329559 0L324.545142 187.51293 393.773853 187.51293z"  horiz-adv-x="1024" />

    
    <glyph glyph-name="f9mod60" unicode="&#58933;" d="M877.650329 831.989127 145.373437 831.989127c-44.945655 0-81.372286-36.449143-81.372286-81.374332l0-732.273822c0-44.925189 36.425607-81.374332 81.372286-81.374332l732.276892 0c44.946678 0 81.371262 36.44812 81.371262 81.374332L959.021591 750.614795C959.021591 795.539984 922.597007 831.989127 877.650329 831.989127zM877.650329 18.340973 145.373437 18.340973 145.373437 750.614795l732.276892 0L877.650329 18.340973zM315.922764 438.362118l0-305.740356 27.795043 0L343.717807 493.689215c17.655102 37.758975 35.398208 82.511225 53.229319 134.25368l-27.532053 6.816243c-28.665877-92.473111-68.349691-176.031179-119.04428-250.67318 5.945409-8.392134 11.275811-16.784268 15.995299-25.175379C284.871561 385.658779 301.413306 412.139897 315.922764 438.362118zM560.83166 497.886817 435.492 497.886817l0-324.357366-52.442396 0 0-24.650423 380.209418 0 0 24.650423-48.508807 0 0 324.357366L589.149613 497.886817l0 58.471716 163.882488 0 0 24.648376-163.882488 0 0 53.752228-28.318976 0 0-53.752228L407.172001 581.006909l0-24.648376 153.658635 0L560.830637 497.886817zM686.429193 173.529451 464.073966 173.529451 464.073966 230.428346l222.355227 0L686.429193 173.529451zM686.429193 254.027833 464.073966 254.027833l0 57.422827 222.355227 0L686.429193 254.027833zM686.429193 335.051171 464.073966 335.051171l0 57.685817 222.355227 0L686.429193 335.051171zM686.429193 473.76135l0-57.423851L464.073966 416.337499l0 57.423851L686.429193 473.76135z"  horiz-adv-x="1024" />

    
    <glyph glyph-name="f9mod46" unicode="&#58934;" d="M856.068801 664.677541 442.788174 664.677541c0 57.046251-46.279023 103.326297-103.320157 103.326297L167.267073 768.003837c-57.042157 0-103.32118-46.280046-103.32118-103.326297l0-103.320157 0-34.43937 0-447.719998c0-57.043181 46.279023-103.322204 103.32118-103.322204l688.802752 0c57.042157 0 103.322204 46.279023 103.322204 103.322204L959.392028 561.357384C959.391005 618.398518 913.110959 664.677541 856.068801 664.677541zM890.510218 79.198016c0-19.004843-15.436574-34.44244-34.440393-34.44244L167.267073 44.755576c-19.002796 0-34.440393 15.437597-34.440393 34.44244L132.82668 561.357384c0 19.002796 15.437597 34.440393 34.440393 34.440393l688.802752 0c19.003819 0 34.440393-15.437597 34.440393-34.440393L890.510218 79.198016zM543.157115 498.195855c-24.038486 24.047696-28.849048 15.890922-28.849048-9.434883l0-89.076758L369.526613 399.684214c-25.308409 0-45.766346-20.466124-45.766346-45.740764l0-60.943001c0-25.293059 20.457938-45.759183 45.766346-45.759183l144.781454 0 0-88.11792c0-28.067242 4.810562-33.633005 28.849048-9.617032L673.913135 280.355455c43.757596 43.754526 43.890626 43.25106 0 87.10894L543.157115 498.195855z"  horiz-adv-x="1024" />

    
    <glyph glyph-name="f9mod47" unicode="&#58935;" d="M856.110757 664.696983 442.819896 664.696983c0 57.043181-46.279023 103.323227-103.322204 103.323227L167.292656 768.02021c-57.043181 0-103.323227-46.280046-103.323227-103.323227l0-103.322204 0-34.44244 0-447.731254c0-57.043181 46.280046-103.322204 103.323227-103.322204l688.818101 0c57.044204 0 103.322204 46.279023 103.322204 103.322204L959.43296 561.37478C959.43296 618.416937 913.154961 664.696983 856.110757 664.696983zM890.552174 79.201086c0-19.002796-15.436574-34.440393-34.440393-34.440393l-688.818101 0c-19.002796 0-34.441417 15.437597-34.441417 34.440393L132.852262 561.37478c0 19.002796 15.437597 34.440393 34.441417 34.440393l688.818101 0c19.003819 0 34.440393-15.437597 34.440393-34.440393L890.552174 79.201086zM503.083421 177.934784c-43.11803 0-81.898265 18.21178-109.392456 47.178509l52.786227 37.736463-132.088364 56.615439 0-150.95813 48.390104 34.576493c34.535561-38.485523 84.506672-62.879096 140.303466-62.879096 88.969311 0 163.351392 61.618383 183.278233 144.474462l-35.19764 15.083533C637.601114 230.350574 576.497455 177.934784 503.083421 177.934784zM503.083421 517.596717c-88.827071 0-163.140591-61.47819-183.186136-144.141888l35.231409-14.589276c13.899568 69.003584 74.835406 120.992655 147.954727 120.992655 43.119053 0 81.890079-18.21178 109.384269-47.213301l-52.77804-37.708833 132.096551-56.595996L691.786201 489.288998l-48.399313-34.571377C608.85235 493.215424 558.881239 517.596717 503.083421 517.596717z"  horiz-adv-x="1024" />

    
    <glyph glyph-name="f9mod48" unicode="&#58936;" d="M856.146573 664.668331l-413.313374 0c0 57.045227-46.281069 103.328343-103.328343 103.328343L167.291632 767.996674c-57.046251 0-103.328343-46.283116-103.328343-103.328343l0-585.52762c0-57.047274 46.282093-103.328343 103.328343-103.328343l688.855964 0c57.047274 0 103.33039 46.281069 103.33039 103.328343L959.477986 561.338964C959.476963 618.385215 913.193847 664.668331 856.146573 664.668331zM890.590036 79.140711c0-19.003819-15.437597-34.443463-34.44244-34.443463L167.291632 44.697247c-19.003819 0-34.443463 15.439644-34.443463 34.443463L132.848169 561.338964c0 19.003819 15.438621 34.443463 34.443463 34.443463l688.855964 0c19.004843 0 34.44244-15.439644 34.44244-34.443463L890.590036 79.140711zM654.264633 395.025101l21.062711 41.012066-51.234895 49.849338-42.208311-20.523429c-7.084349 3.460822-14.408151 6.619768-22.033829 9.086959l-14.848173 43.297109-72.482825 0-14.846126-43.297109c-7.646144-2.468215-14.922874-5.626137-22.034852-9.086959l-42.198078 20.523429-51.263547-49.849338 21.090341-41.012066c-3.588735-6.938016-6.859221-14.035668-9.389858-21.487384l-44.460608-14.412244L309.416584 288.634002l44.460608-14.43885c2.530636-7.424086 5.801123-14.530948 9.389858-21.464871l-21.090341-41.011043 51.263547-49.818639 42.198078 20.519336c7.111978-3.479241 14.389732-6.661723 22.034852-9.086959l14.846126-43.318598 72.482825 0 14.848173 43.318598c7.625678 2.425236 14.94948 5.606695 22.033829 9.086959l42.208311-20.519336 51.234895 49.818639-21.062711 41.011043c3.568269 6.932899 6.848988 14.040784 9.381671 21.464871l44.450375 14.43885 0 70.492494-44.450375 14.412244C661.114644 380.989433 657.833925 388.087085 654.264633 395.025101zM671.860383 315.059861l-37.96773-9.223059c-3.111874-20.499893-11.435447-39.275515-23.592324-55.107085l20.174482-32.794917-12.773931-12.424984-33.724079 19.656689c-16.305361-11.741415-35.58138-19.801998-56.626695-22.836101l-9.518794-37.07643-18.111496 0-9.549493 37.07643c-21.042245 3.035126-40.320311 11.095709-56.616462 22.836101l-33.70566-19.656689-12.818957 12.424984 20.202111 32.794917c-12.137435 15.83157-20.482497 34.606169-23.632233 55.107085l-37.927821 9.223059 0 17.639752 37.927821 9.224082c3.149736 20.500916 11.493775 39.257096 23.632233 55.128575l-20.202111 32.751938 12.818957 12.467963 33.70566-19.674085c16.296151 11.731182 35.574217 19.805068 56.616462 22.822798l9.549493 37.071314 18.111496 0 9.518794-37.071314c21.044292-3.01773 40.321334-11.091616 56.626695-22.822798l33.724079 19.674085 12.773931-12.467963-20.174482-32.751938c12.156878-15.871479 20.48045-34.627658 23.592324-55.128575l37.96773-9.224082L671.860383 315.059861zM508.756631 376.765225c-30.014594 0-54.375421-23.690562-54.375421-52.889581 0-29.187763 24.360827-52.852742 54.375421-52.852742 30.022781 0 54.364165 23.664979 54.364165 52.852742C563.120796 353.07364 538.779412 376.765225 508.756631 376.765225zM508.756631 306.255335c-9.988492 0-18.11866 7.896854-18.11866 17.620309 0 9.733689 8.130168 17.622356 18.11866 17.622356 10.006911 0 18.11866-7.888667 18.11866-17.622356C526.875291 314.152189 518.763542 306.255335 508.756631 306.255335z"  horiz-adv-x="1024" />

    
    <glyph glyph-name="f9mod49" unicode="&#58937;" d="M442.815803 517.806495 236.171396 517.806495c-21.357424 0-38.645159 17.304108-38.645159 38.660508 0 21.357424 17.287735 38.662555 38.645159 38.662555l206.644407 0c21.357424 0 38.643112-17.305131 38.643112-38.662555C481.458915 535.110603 464.173227 517.806495 442.815803 517.806495zM580.576353 380.060271 373.933993 380.060271c-21.357424 0-38.644135 17.286712-38.644135 38.644135 0 21.357424 17.286712 38.661531 38.644135 38.661531L580.576353 457.365938c21.357424 0 38.646182-17.304108 38.646182-38.661531C619.221512 397.346983 601.933777 380.060271 580.576353 380.060271zM683.898557 242.297674 477.256196 242.297674c-21.35947 0-38.645159 17.287735-38.645159 38.643112 0 21.35947 17.285688 38.646182 38.645159 38.646182l206.64236 0c21.3564 0 38.645159-17.286712 38.645159-38.646182C722.543715 259.585409 705.254957 242.297674 683.898557 242.297674zM442.815803 104.534054 236.171396 104.534054c-21.357424 0-38.645159 17.288758-38.645159 38.645159 0 21.357424 17.287735 38.645159 38.645159 38.645159l206.644407 0c21.357424 0 38.643112-17.287735 38.643112-38.645159C481.458915 121.822812 464.173227 104.534054 442.815803 104.534054zM856.10257 831.992197 167.289586 831.992197c-57.008388 0-103.322204-46.245254-103.322204-103.322204l0-654.371568c0-57.041134 46.312792-103.322204 103.322204-103.322204l688.812985 0c57.041134 0 103.322204 46.281069 103.322204 103.322204L959.424774 728.669994C959.424774 785.746944 913.144728 831.992197 856.10257 831.992197M890.543987 74.297402c0-18.969027-15.47239-34.440393-34.440393-34.440393L167.289586 39.857009c-18.969027 0-34.440393 15.471366-34.440393 34.440393L132.849192 659.788184l757.694795 0L890.543987 74.297402z"  horiz-adv-x="1024" />

    
    </font>
</defs>
</svg>
