<?xml version="1.0" encoding="utf-8"?>
<!-- Generator: Adobe Illustrator 22.0.0, SVG Export Plug-In . SVG Version: 6.00 Build 0)  -->
<svg version="1.1" id="图层_1" xmlns="http://www.w3.org/2000/svg" xmlns:xlink="http://www.w3.org/1999/xlink" x="0px" y="0px"
	 viewBox="0 0 1024 1024" style="enable-background:new 0 0 1024 1024;" xml:space="preserve">
<style type="text/css">
	.st0{fill:#323333;}
</style>
<g>
	<g>
		<path class="st0" d="M283.7,735.9c11.6,0,21-7.8,21-17.4c0-3.9-1.6-7.6-4.3-10.5c-4.3,0.4-8.7,0.6-13.1,0.6
			c-6.7,0-13.3-0.5-19.7-1.3c-3.1,3-4.9,6.9-4.9,11.2C262.7,728.1,272.1,735.9,283.7,735.9z M323.7,138h-35.6v111.7h35.6V138z
			 M283.7,738.8c-10,0-18.2,8.4-18.2,18.8v57.9c0,10.4,8.1,18.8,18.2,18.8c10,0,18.2-8.4,18.2-18.8v-57.9
			C301.9,747.2,293.8,738.8,283.7,738.8z M697.1,138h-35.6v111.7h35.6V138z M510.4,138h-35.6v111.7h35.6V138z M249.1,703.5
			c6,1.7,12.2,2.9,18.6,3.8c3.9-3.8,9.6-6.2,16-6.2c6.8,0,12.9,2.7,16.7,6.9c9.3-0.8,18.4-2.5,27.2-5.1c-12-3.8-24.9-5.8-38.4-5.8
			C275.1,697.1,261.5,699.4,249.1,703.5z M892.4,213.2h-157v73.7H623.8v-72.7h-73.2v72.7H437v-74.8l-74.4,1.1v73.7H250.2v-74.8
			l-118.7,1.1c-37.4,0-67.6,29.9-67.6,66.8v612.9c0,36.9,30.3,66.8,67.6,66.8h760.9c37.4,0,67.6-29.9,67.6-66.8v-613
			C960.1,243.1,929.8,213.2,892.4,213.2z M399.7,791.2c0,52-49.5,94.1-110.5,94.1s-110.5-42.1-110.5-94.1c0-39.9,29.2-74,70.4-87.7
			c-64-17.5-111.2-77.8-111.2-149.5c0-85.4,66.9-154.6,149.5-154.6S436.9,468.6,436.9,554c0,71-46.2,130.7-109.2,148.9
			C369.7,716.3,399.7,750.8,399.7,791.2z M474.2,884.7H438V735.4h36.2V884.7z M548.9,884.7h-36.2V698.1h36.2V884.7z M623,884.7
			h-36.2v-226H623V884.7z M698.4,884.7h-36.2V621.8h36.2V884.7z M772.5,884.7h-36.2V548.1h36.2V884.7z M847.9,884.7h-36.2V511.3
			h36.2V884.7z M821.4,431.6H793L671.9,587.5h-55.4L438.2,696l0.4-52.7l155.3-95h52.2L739.9,434h-54.8l168.7-82.4L821.4,431.6z
			 M357.5,558.9c-12.3,0-22.3,10.3-22.3,23s10,23,22.3,23s22.3-10.3,22.3-23S369.8,558.9,357.5,558.9z M217.7,558.9
			c-12.3,0-22.3,10.3-22.3,23s10,23,22.3,23s22.3-10.3,22.3-23S230,558.9,217.7,558.9z"/>
	</g>
</g>
</svg>
