<?xml version="1.0" encoding="utf-8"?>
<!-- Generator: Adobe Illustrator 22.0.0, SVG Export Plug-In . SVG Version: 6.00 Build 0)  -->
<svg version="1.1" id="图层_1" xmlns="http://www.w3.org/2000/svg" xmlns:xlink="http://www.w3.org/1999/xlink" x="0px" y="0px"
	 viewBox="0 0 1024 1024" style="enable-background:new 0 0 1024 1024;" xml:space="preserve">
<style type="text/css">
	.st0{fill:#323333;}
</style>
<g>
	<g>
		<path class="st0" d="M957.8,289.4h-72.4l0.7,298.8l-748-2.7V289.4H66.6l-1.5,511.3c0,25.8,21.3,46.6,47.5,46.6h798.8
			c26.3,0,47.5-46.6,47.5-46.6L957.8,289.4z M399.8,386.9L176.3,199.6c0,0,0,166.1,0,245.1c0,24.7,0,67.1,0,67.1l99.5,1.5
			L399.8,386.9z M804.1,176.8h-588l296,265.8L804.1,176.8z M847.1,510.5V199.6L623.5,386.9L747.3,509L847.1,510.5z M511.9,475.8
			L430.7,413L326.6,513l370.3,0.1L588.1,412.3L511.9,475.8z"/>
	</g>
</g>
</svg>
