<?xml version="1.0" encoding="utf-8"?>
<!-- Generator: Adobe Illustrator 22.0.0, SVG Export Plug-In . SVG Version: 6.00 Build 0)  -->
<svg version="1.1" id="图层_1" xmlns="http://www.w3.org/2000/svg" xmlns:xlink="http://www.w3.org/1999/xlink" x="0px" y="0px"
	 viewBox="0 0 1024 1024" style="enable-background:new 0 0 1024 1024;" xml:space="preserve">
<style type="text/css">
	.st0{fill:#323333;}
</style>
<g>
	<g>
		<path class="st0" d="M213.7,100.1l-54.4,337.5c0,0,55.9-2,288.8-2c64,0,31.1-112.4,114.9-112.4c184.4,0,306.6,0,306.6,0
			c37.5,0,58.9-12.4,58.9,25l32.7-153.7L213.7,100.1z M855.7,362.1c0,0-74.7,0-258.9,0c-83.8,0-50.9,114.7-114.8,114.7H115
			l32.4-240.4h-16.6c-37.6,0-68,30.3-68,67.6v552.3c0,37.4,30.4,67.6,67.9,67.6h725.1c37.5,0,67.9-30.3,67.9-67.6V429.9
			C923.6,392.4,893.2,362.1,855.7,362.1z"/>
	</g>
</g>
</svg>
