<?xml version="1.0" encoding="utf-8"?>
<!-- Generator: Adobe Illustrator 22.0.0, SVG Export Plug-In . SVG Version: 6.00 Build 0)  -->
<svg version="1.1" id="图层_1" xmlns="http://www.w3.org/2000/svg" xmlns:xlink="http://www.w3.org/1999/xlink" x="0px" y="0px"
	 viewBox="0 0 1024 1024" style="enable-background:new 0 0 1024 1024;" xml:space="preserve">
<style type="text/css">
	.st0{fill:#2F3333;}
</style>
<g>
	<g>
		<path class="st0" d="M946.4,880.7c0,0-160.2-196.6-320-392.8c141.7-174.7,262.4-332.1,262.4-332.1s29.4-92.7-46.1-48.5
			c0,0-142.9,128.8-303.4,273.6c-104.1-127.8-194.6-238.8-222-272.5c-75.7-92.6-226.7-30.8-168,101.5c22,49.6,132.9,163,263,285.4
			c-139.6,125.9-268,241.6-303.9,274c-88.1,79.4-29.4,238.3,96.5,176.5c54.4-26.7,189.7-178.1,325.7-341.3
			c186.1,169.1,369.7,324.8,369.7,324.8S988.4,960.2,946.4,880.7z"/>
	</g>
</g>
</svg>
