<?xml version="1.0" encoding="utf-8"?>
<!-- Generator: Adobe Illustrator 22.0.0, SVG Export Plug-In . SVG Version: 6.00 Build 0)  -->
<svg version="1.1" id="图层_1" xmlns="http://www.w3.org/2000/svg" xmlns:xlink="http://www.w3.org/1999/xlink" x="0px" y="0px"
	 viewBox="0 0 1024 1024" style="enable-background:new 0 0 1024 1024;" xml:space="preserve">
<style type="text/css">
	.st0{fill:#323333;}
</style>
<g>
	<g>
		<path class="st0" d="M176.6,325.7h260.5v-37.2H176.6V325.7z M176.6,549h260.5v-37.2H176.6V549z M176.6,660.7h260.5v-37.2H176.6
			V660.7z M176.6,437.4h260.5v-37.2H176.6V437.4z M586,325.7h260.5v-37.2H586V325.7z M908,102.7c0,0-145.7,0-280.2,0
			c-49.7,0-66.2,29.5-113.9,29.5c-53,0-55.7-29.5-104.4-29.5c-111.1,0-293.3,0-293.3,0c-28.3,0-51.2,23.7-51.2,52.9v676.2
			c0,29.2,22.9,53,51.2,53c0,0,170.3,0,293.3,0c35.7,0,68.6,36.5,100.3,36.5c44.7,0,63.8-36.5,97.6-36.5c126.3,0,300.5,0,300.5,0
			c28.3,0,51.2-23.7,51.2-53V155.6C959,126.4,936.1,102.7,908,102.7z M473.8,218.8v580.8c0,0-5.7-27.1-63-27.1s-271.3,0-271.3,0
			V176.7c0,0,179.7,0,262.8,0C485.3,176.7,473.8,218.8,473.8,218.8z M883.8,772.2c0,0-214.1,0-271.3,0c-57.3,0-63,27.3-63,27.3
			V219.2c0,0-11.5-42.5,71.6-42.5s262.8,0,262.8,0L883.8,772.2L883.8,772.2z M586,437.4h260.5v-37.2H586V437.4z M586,549h260.5
			v-37.2H586V549z M586,660.7h260.5v-37.2H586V660.7z"/>
	</g>
</g>
</svg>
