<?xml version="1.0" encoding="utf-8"?>
<!-- Generator: Adobe Illustrator 22.0.0, SVG Export Plug-In . SVG Version: 6.00 Build 0)  -->
<svg version="1.1" id="图层_1" xmlns="http://www.w3.org/2000/svg" xmlns:xlink="http://www.w3.org/1999/xlink" x="0px" y="0px"
	 viewBox="0 0 1024 1024" style="enable-background:new 0 0 1024 1024;" xml:space="preserve">
<style type="text/css">
	.st0{fill:#313333;}
</style>
<g>
	<g>
		<g>
			<path class="st0" d="M889.5,810.6L768.8,689.9c60.5-59.4,98-142.1,98-233.5c0-180.7-146.5-327.3-327.3-327.3
				c-180.7,0-327.3,146.5-327.3,327.3c0,180.7,146.5,327.3,327.3,327.3c62.1,0,120.2-17.3,169.6-47.3l127.3,127.3
				c14.6,14.6,38.4,14.6,53,0C904.1,849,904.1,825.3,889.5,810.6z M536.2,715.6c-143.4,0-259.6-116.2-259.6-259.5
				s116.2-259.5,259.6-259.5s259.6,116.2,259.6,259.5S679.5,715.6,536.2,715.6z"/>
		</g>
	</g>
	<g>
		<g>
			<path class="st0" d="M413.1,614.8l190.2,0.1l0.1-30.6l-190.2-0.1L413.1,614.8z M413.1,551.6l190.2,0.1l0.1-30.6L413.2,521
				L413.1,551.6z M631.3,424.9c0,0-100.1,0-192.6,0c-34.1,0-45.5,20-78.3,20c-27.3,0-35.2-11.2-51.6-16.8
				c-1.3,9.6-2.1,19.4-2.2,29.4c50.8,2.1,43.5,28.7,43.5,28.7v106.6c9.4,12.9,20.2,24.7,32.1,35.3v-142c0,0-8.7-28.8,54.2-28.8
				s199,0,199,0v203.2c10.9-5.6,21.2-12,31-19.2V460.8C666.5,440.9,650.7,424.9,631.3,424.9z M413.1,678.1l190.2,0.1l0.1-30.6
				l-190.2-0.1L413.1,678.1z"/>
		</g>
	</g>
	<g>
		<g>
			<path class="st0" d="M187.6,635.5v32.3l97,0.1v-32.3L187.6,635.5z M187.6,603.3h26.1c-5.1-10.5-9.7-21.3-13.8-32.3h-12.2
				L187.6,603.3z M539,806.8c-9.6,0-19.1-0.4-28.5-1.1v24.4c0,0-102.9,0-130.5,0s-30.3,12.9-30.3,12.9v-89.7
				c-11.3-7-22.3-14.6-32.7-22.7v112.4c0,0-2.8-12.9-30.3-12.9c-27.6,0-130.5,0-130.5,0V539.8c0,0,14.2,0,33.7,0
				c-3-11.3-5.5-22.8-7.5-34.4c-20.5,0-34.9,0-34.9,0c-13.3,0-24,11.3-24,25.2v321.7c0,13.9,10.8,25.2,24,25.2c0,0,79.9,0,137.6,0
				c16.8,0,32.2,17.4,47.1,17.4c21,0,29.9-17.4,45.8-17.4c59.3,0,141,0,141,0c13.3,0,24-11.3,24-25.2v-45.4
				C541.7,806.8,540.3,806.8,539,806.8z M187.6,700v32.3l97,0.1v-32.3L187.6,700z M187.6,796.9l97,0.1v-32.3l-97-0.1L187.6,796.9z"
				/>
		</g>
	</g>
</g>
</svg>
