<?xml version="1.0" encoding="utf-8"?>
<!-- Generator: Adobe Illustrator 22.0.0, SVG Export Plug-In . SVG Version: 6.00 Build 0)  -->
<svg version="1.1" id="图层_1" xmlns="http://www.w3.org/2000/svg" xmlns:xlink="http://www.w3.org/1999/xlink" x="0px" y="0px"
	 viewBox="0 0 1024 1024" style="enable-background:new 0 0 1024 1024;" xml:space="preserve">
<style type="text/css">
	.st0{fill:#323333;}
</style>
<g>
	<g>
		<path class="st0" d="M324.4,103h-35.5v111.2h35.5V103z M510.3,103h-35.5v111.2h35.5V103z M696.2,103h-35.5v111.2h35.5V103z
			 M890.7,177.9H734.4v73.4H623.3v-72.4h-72.9v72.4H437.3v-74.5l-74.1,1v73.4H251.3v-74.5l-118.2,1c-37.2,0-67.3,29.8-67.3,66.5
			v610.3c0,36.7,30.2,66.5,67.3,66.5h757.7c37.2,0,67.4-29.8,67.4-66.5V244.4C958.1,207.6,927.9,177.9,890.7,177.9z M562.9,809.1
			H251.3V363.3h307c0,0,213.9,3.5,213.9,212.3C772.2,784.3,562.9,809.1,562.9,809.1z M772.4,326h-37.9v-37.6h37.9V326z M846.8,326
			h-37.9v-37.6h37.9V326z M539.6,438.8H362.9v294.4h176.7c0,0,120.9-3.9,120.9-154.9C660.6,427.1,539.6,438.8,539.6,438.8z"/>
	</g>
</g>
</svg>
