<?xml version="1.0" encoding="utf-8"?>
<!-- Generator: Adobe Illustrator 22.0.0, SVG Export Plug-In . SVG Version: 6.00 Build 0)  -->
<svg version="1.1" id="图层_1" xmlns="http://www.w3.org/2000/svg" xmlns:xlink="http://www.w3.org/1999/xlink" x="0px" y="0px"
	 viewBox="0 0 1024 1024" style="enable-background:new 0 0 1024 1024;" xml:space="preserve">
<style type="text/css">
	.st0{fill:#303333;}
</style>
<g>
	<g>
		<path class="st0" d="M922.8,744.4L806.9,628.5c58.1-57,94.1-136.4,94.1-224.2c0-173.5-140.7-314.2-314.2-314.2
			c-173.5,0.1-314.1,140.8-314.1,314.3s140.7,314.2,314.2,314.2c59.6,0,115.4-16.6,162.8-45.4l122.2,122.2
			c14.1,14.1,36.8,14.1,50.9,0C936.8,781.2,936.8,758.5,922.8,744.4z M583.5,653.2c-137.6,0-249.2-111.6-249.2-249.2
			s111.6-249.2,249.2-249.2S832.7,266.4,832.7,404S721.2,653.2,583.5,653.2z M371.6,723.3h56.7c-31.5-19.3-59.8-43.3-84.1-70.9
			h-50.4l-80.8-174.3H90.8l80.7,174.3h-44.8v70.9H231v69.4H126.8v70.9h104.3v70.3h140.6v-70.3h106.1v-70.9H371.6V723.3z
			 M432.8,537.2c0,0,23.3,35.4,59.4,56c37.7,21.5,70.5,28,70.5,28L717,440.9H500.8L432.8,537.2z"/>
	</g>
</g>
</svg>
