<?xml version="1.0" encoding="utf-8"?>
<!-- Generator: Adobe Illustrator 22.0.0, SVG Export Plug-In . SVG Version: 6.00 Build 0)  -->
<svg version="1.1" id="图层_1" xmlns="http://www.w3.org/2000/svg" xmlns:xlink="http://www.w3.org/1999/xlink" x="0px" y="0px"
	 viewBox="0 0 1024 1024" style="enable-background:new 0 0 1024 1024;" xml:space="preserve">
<style type="text/css">
	.st0{fill:#323333;}
</style>
<g>
	<g>
		<path class="st0" d="M698.1,212.8h-36.6c0.2-2.2,0.3-4.4,0.3-6.6c0-58-66.2-105-147.8-105s-147.8,47-147.8,105
			c0,2.2,0.1,4.4,0.3,6.6h-41.4v112.5h373L698.1,212.8L698.1,212.8z M515.1,268.8c-42.8,0-77.6-29.4-77.6-65.6s34.7-65.6,77.6-65.6
			c42.8,0,77.6,29.4,77.6,65.6C592.7,239.4,557.9,268.8,515.1,268.8z M892.5,251.8H736.6v112.3H285.2V250.7l-153.6,1
			c-37.4,0-67.6,29.6-67.6,66v539c0,36.5,30.3,66,67.6,66h760.9c37.4,0,67.6-29.6,67.6-66v-539C960.1,281.4,929.8,251.8,892.5,251.8
			z M477.5,810.8h-271c0,0-30.7-43.5-30.7-84.3c0-58.3,56.1-94.1,146.7-99.4c-43.7-8.3-76.7-46.6-76.7-92.7
			c0-52.1,42.3-94.4,94.4-94.4s94.4,42.3,94.4,94.4c0,45.3-31.9,83.2-74.5,92.3c95,3.5,134.3,45.1,134.3,97
			C494.3,778,477.5,810.8,477.5,810.8z M811.1,735.8H585.3v-75.4h225.8V735.8z M811.1,582.6H585.3v-70.2h225.8V582.6z M360,626.8
			c-4.3-0.2-8.8-0.2-13.4-0.2c-8.3,0-16.4,0.2-24.2,0.7c5.7,1.1,11.6,1.7,17.7,1.7C347,628.8,353.6,628.1,360,626.8z"/>
	</g>
</g>
</svg>
