<?xml version="1.0" encoding="utf-8"?>
<!-- Generator: Adobe Illustrator 22.0.0, SVG Export Plug-In . SVG Version: 6.00 Build 0)  -->
<svg version="1.1" id="图层_1" xmlns="http://www.w3.org/2000/svg" xmlns:xlink="http://www.w3.org/1999/xlink" x="0px" y="0px"
	 viewBox="0 0 1024 1024" style="enable-background:new 0 0 1024 1024;" xml:space="preserve">
<style type="text/css">
	.st0{fill:#323333;}
</style>
<g>
	<g>
		<path class="st0" d="M886.5,362.9L886.5,362.9c-0.3,0-0.6,0-0.9,0H886.5z M886.5,438.8v185c19.3-0.5,34.8-17,34.8-37.3V476.1
			C921.3,455.8,905.8,439.3,886.5,438.8z M886.5,177.8v185c19.3-0.5,34.8-17,34.8-37.3V215.1C921.3,194.8,905.8,178.3,886.5,177.8z
			 M885.6,438.8c0.3,0,0.6,0,0.9,0l0,0H885.6z M885.6,177.8c0.3,0,0.6,0,0.9,0l0,0H885.6z M886.5,885L886.5,885c-0.3,0-0.6,0-0.9,0
			H886.5z M777.8,64.2H173.6c-38.5,0-70.8,32.8-70.8,73.2l1.2,749.2c0,40.4,31.2,73.2,69.7,73.2H778c38.5,0,69.7-32.8,69.7-73.2
			V137.4C847.5,97,816.3,64.2,777.8,64.2z M289.7,773.5h-38.5v-36.3h38.5V773.5z M289.7,698.7h-38.5v-36.3h38.5V698.7z M289.7,623.9
			h-38.5v-36.3h38.5V623.9z M289.7,549.1h-38.5v-36.3h38.5V549.1z M289.7,474.3h-38.5V438h38.5V474.3z M289.7,399.5h-38.5v-36.3
			h38.5V399.5z M289.7,324.6h-38.5v-36.3h38.5V324.6z M364.3,773.5h-38.4v-36.3h38.5v36.3H364.3z M364.3,698.7h-38.4v-36.3h38.5
			v36.3H364.3z M364.3,623.9h-38.4v-36.3h38.5v36.3H364.3z M364.3,549.1h-38.4v-36.3h38.5v36.3H364.3z M364.3,474.3h-38.4V438h38.5
			v36.3H364.3z M364.3,399.5h-38.4v-36.3h38.5v36.3H364.3z M364.3,324.6h-38.4v-36.3h38.5v36.3H364.3z M399.9,251h-74.3v-37.4h74.3
			V251z M438.9,773.5h-38.5v-36.3h38.5V773.5z M438.9,698.7h-38.5v-36.3h38.5V698.7z M438.9,623.9h-38.5v-36.3h38.5V623.9z
			 M438.9,549.1h-38.5v-36.3h38.5V549.1z M438.9,474.3h-38.5V438h38.5V474.3z M438.9,399.5h-38.5v-36.3h38.5V399.5z M438.9,324.6
			h-38.5v-36.3h38.5V324.6z M474.2,213.6h75.5V251h-75.5V213.6z M513.5,773.5H475v-36.3h38.5V773.5z M513.5,698.7H475v-36.3h38.5
			V698.7z M513.5,623.9H475v-36.3h38.5V623.9z M513.5,549.1H475v-36.3h38.5V549.1z M513.5,474.3H475V438h38.5V474.3z M513.5,399.5
			H475v-36.3h38.5V399.5z M513.5,324.6H475v-36.3h38.5V324.6z M588,698.7h-38.5v-36.3H588V698.7z M588,623.9h-38.5v-36.3H588V623.9z
			 M588,549.1h-38.5v-36.3H588V549.1z M588,474.3h-38.5V438H588V474.3z M588,399.5h-38.5v-36.3H588V399.5z M588,324.6h-38.5v-36.3
			H588V324.6z M622.7,213.6h75.5V251h-75.5V213.6z M661.7,698.7h-38.5v-36.3h38.5V698.7z M661.7,623.9h-38.5v-36.3h38.5V623.9z
			 M661.7,549.1h-38.5v-36.3h38.5V549.1z M661.7,474.3h-38.5V438h38.5V474.3z M661.7,399.5h-38.5v-36.3h38.5V399.5z M661.7,324.6
			h-38.5v-36.3h38.5V324.6z M736.3,698.7h-38.5v-36.3h38.5V698.7z M736.3,623.9h-38.5v-36.3h38.5V623.9z M736.3,549.1h-38.5v-36.3
			h38.5V549.1z M736.3,474.3h-38.5V438h38.5V474.3z M736.3,399.5h-38.5v-36.3h38.5V399.5z M736.3,324.6h-38.5v-36.3h38.5V324.6z
			 M886.5,623.9L886.5,623.9c-0.3,0-0.6,0-0.9,0H886.5z M885.6,699.9c0.3,0,0.6,0,0.9,0l0,0H885.6z M886.5,699.9v185
			c19.3-0.5,34.8-17,34.8-37.3V737.2C921.3,716.9,905.8,700.4,886.5,699.9z"/>
	</g>
</g>
</svg>
