<?xml version="1.0" encoding="utf-8"?>
<!-- Generator: Adobe Illustrator 22.0.0, SVG Export Plug-In . SVG Version: 6.00 Build 0)  -->
<svg version="1.1" id="图层_1" xmlns="http://www.w3.org/2000/svg" xmlns:xlink="http://www.w3.org/1999/xlink" x="0px" y="0px"
	 viewBox="0 0 1024 1024" style="enable-background:new 0 0 1024 1024;" xml:space="preserve">
<style type="text/css">
	.st0{fill:#323333;}
</style>
<g>
	<g>
		<path class="st0" d="M892.5,176.3h-157V250H623.8v-72.7h-73.2V250H437v-74.8l-74.4,1.1V250H250.2v-74.8l-118.7,1.1
			c-37.4,0-67.6,29.9-67.6,66.8v612.9c0,36.9,30.3,66.8,67.6,66.8h760.9c37.4,0,67.6-29.9,67.6-66.8V243
			C960.1,206.3,929.8,176.3,892.5,176.3z M362.2,324.8h38.1v37.7h-38.1V324.8z M212.8,324.8h38.1v37.7h-38.1V324.8z M138.1,324.8
			h38.1v37.7h-38.1L138.1,324.8L138.1,324.8z M252.4,811h-76.8v-37.4h76.8V811z M252.4,736.2h-76.8v-37.5h76.8V736.2z M252.4,661.3
			h-76.8v-37.5h76.8V661.3z M252.4,586.5h-76.8V549h76.8V586.5z M252.4,511.6h-76.8v-37.4h76.8V511.6z M287.5,324.8h38.1v37.7h-38.1
			V324.8z M401.4,811h-76.8v-37.4h76.8V811z M401.4,736.2h-76.8v-37.5h76.8V736.2z M401.4,661.3h-76.8v-37.5h76.8V661.3z
			 M401.4,586.5h-76.8V549h76.8V586.5z M401.4,511.6h-76.8v-37.4h76.8V511.6z M436.9,324.8h38v37.7h-38V324.8z M772.8,885.5
			c0,0-29-31.1-78.7-57.5c-18.5-9.8-40-19-63.9-25.7c-87.9-24.5-150.5-49.1-154.4-92.9c-2.4-26.9,26.1-31.8,61.8-22
			c35.6,9.8,68.9,44,80.8,26.9c11.9-17.1-40.4-97.8-90.3-171.2s-63.6-130.6-46.9-140.4c16.6-9.8,59.1,9,78.2,50.6
			c19,41.6,59,75.1,63.8,84.9c4.8,9.8-7.1-58.7,26.1-61.1c33.3-2.4,49.9,44,49.9,44s-16.6-45.7,14.3-48.1c29.8-2.4,57,41.4,57,41.4
			s-7.6-52.3,28.3-38.5c38,14.7,24,50.1,59.6,108.8c10.9,17.9,21.1,41.3,30,65.1c20.4,54.3,34.1,111,34.1,111L772.8,885.5z
			 M510.4,101.1h-35.6v111.7h35.6V101.1z M697.1,101.1h-35.6v111.7h35.6V101.1z M323.7,101.1h-35.6v111.7h35.6V101.1z"/>
	</g>
</g>
</svg>
