<?xml version="1.0" encoding="utf-8"?>
<!-- Generator: Adobe Illustrator 22.0.0, SVG Export Plug-In . SVG Version: 6.00 Build 0)  -->
<svg version="1.1" id="图层_1" xmlns="http://www.w3.org/2000/svg" xmlns:xlink="http://www.w3.org/1999/xlink" x="0px" y="0px"
	 viewBox="0 0 1024 1024" style="enable-background:new 0 0 1024 1024;" xml:space="preserve">
<style type="text/css">
	.st0{fill:#303333;}
</style>
<g>
	<g>
		<path class="st0" d="M940,844.7L767.1,671.9c43.9-62.7,69.7-139,69.7-221.4c0-213.4-173-386.3-386.3-386.3S64.2,237.1,64.2,450.5
			s173,386.3,386.3,386.3c82.3,0,158.6-25.7,221.3-69.6L844.6,940c26.3,26.3,69,26.3,95.3,0C966.3,913.7,966.3,871,940,844.7z
			 M183,454.6c0-148.4,120.3-268.7,268.8-268.7c148.4,0,268.8,120.3,268.8,268.7S600.3,723.3,451.8,723.3S183,603,183,454.6z"/>
	</g>
</g>
</svg>
