<?xml version="1.0" encoding="utf-8"?>
<!-- Generator: Adobe Illustrator 22.0.0, SVG Export Plug-In . SVG Version: 6.00 Build 0)  -->
<svg version="1.1" id="图层_1" xmlns="http://www.w3.org/2000/svg" xmlns:xlink="http://www.w3.org/1999/xlink" x="0px" y="0px"
	 viewBox="0 0 1024 1024" style="enable-background:new 0 0 1024 1024;" xml:space="preserve">
<style type="text/css">
	.st0{fill:#323333;}
</style>
<g>
	<g>
		<path class="st0" d="M719.4,63.9H115.5c-28.5,0-51.6,23.2-51.6,51.8v792.6c0,28.6,23.1,51.8,51.6,51.8h793
			c28.5,0,51.6-23.2,51.6-51.8V305.4L719.4,63.9z M860.8,592.9H386.3c0,0,5,145.9,109.9,145.9c114.9,0,124.9-85.5,124.9-85.5h209.8
			c0,0-40,246.5-324.7,246.5c-334.6,0-344.6-316.9-344.6-316.9s-49.9-407.4,339.6-407.4C890.7,175.4,860.8,592.9,860.8,592.9z
			 M506.1,351.4c-124.9,0-99.9,140.8-99.9,140.8H621C621,492.3,651,351.4,506.1,351.4z"/>
	</g>
</g>
</svg>
