<?xml version="1.0" encoding="utf-8"?>
<!-- Generator: Adobe Illustrator 22.0.0, SVG Export Plug-In . SVG Version: 6.00 Build 0)  -->
<svg version="1.1" id="图层_1" xmlns="http://www.w3.org/2000/svg" xmlns:xlink="http://www.w3.org/1999/xlink" x="0px" y="0px"
	 viewBox="0 0 1024 1024" style="enable-background:new 0 0 1024 1024;" xml:space="preserve">
<style type="text/css">
	.st0{fill:#323333;}
</style>
<g>
	<g>
		<path class="st0" d="M697.3,214.1h-36.5c0.2-2.2,0.3-4.4,0.3-6.6c0-57.7-65.9-104.5-147.2-104.5s-147.1,46.7-147.1,104.5
			c0,2.2,0.1,4.4,0.3,6.6h-41.2v112.1h371.4L697.3,214.1L697.3,214.1z M515,269.7c-42.7,0-77.2-29.2-77.2-65.3s34.6-65.3,77.2-65.3
			c42.6,0,77.2,29.2,77.2,65.3S557.7,269.7,515,269.7z M890.8,252.8H734l1.5,111.9H289.1V251.8l-156,1c-37.2,0-67.3,29.4-67.3,65.7
			v536.8c0,36.3,30.2,65.7,67.3,65.7h757.7c37.2,0,67.3-29.4,67.3-65.7V318.6C958.2,282.3,928,252.8,890.8,252.8z M288.9,437.3
			h519.9v37.2H288.9V437.3z M288.9,511.7h519.9v37.2H288.9V511.7z M288.9,586.1h519.9v37.2H288.9V586.1z M623.8,660.4v37.2H288.9
			v-37.2H623.8z M213.9,846.6h-36.8V400.4h36.8V846.6z M809.3,772H288.9v-37.2h520.3V772z"/>
	</g>
</g>
</svg>
