<?xml version="1.0" encoding="utf-8"?>
<!-- Generator: Adobe Illustrator 22.0.0, SVG Export Plug-In . SVG Version: 6.00 Build 0)  -->
<svg version="1.1" id="图层_1" xmlns="http://www.w3.org/2000/svg" xmlns:xlink="http://www.w3.org/1999/xlink" x="0px" y="0px"
	 viewBox="0 0 1024 1024" style="enable-background:new 0 0 1024 1024;" xml:space="preserve">
<style type="text/css">
	.st0{fill:#323333;}
</style>
<g>
	<g>
		<path class="st0" d="M363.7,886h74.8V735.5h-74.8V886z M550,886h74.8V660.8H550V886z M886.5,436.9v449h73.6V437L886.5,436.9
			L886.5,436.9z M213.5,886h74.8v-77h-74.8L213.5,886L213.5,886z M700.2,886h74.7V511.6h-74.8L700.2,886L700.2,886z M924.2,196.4
			l-309.6,167h104.3L531.4,547.6h-90.5L138.3,748V138H63.9V886h74.4V841L484,622.3h105.6l230.5-263.6h105.5L924.2,196.4z"/>
	</g>
</g>
</svg>
