<?xml version="1.0" encoding="utf-8"?>
<!-- Generator: Adobe Illustrator 22.0.0, SVG Export Plug-In . SVG Version: 6.00 Build 0)  -->
<svg version="1.1" id="图层_1" xmlns="http://www.w3.org/2000/svg" xmlns:xlink="http://www.w3.org/1999/xlink" x="0px" y="0px"
	 viewBox="0 0 1024 1024" style="enable-background:new 0 0 1024 1024;" xml:space="preserve">
<style type="text/css">
	.st0{fill:#2F3333;}
</style>
<g>
	<g>
		<path class="st0" d="M213.5,736.6h186.9v-38.3H213.5V736.6z M325.2,214.2H288v73.6h-74.5v38.3H288v75h37.2v-75h75.2v-38.3h-75.2
			V214.2z M64.2,64.2v895.6h895.6V64.2H64.2z M475.2,818.8c0,36.8-29.7,66.6-66.4,66.6H205.4c-36.7,0-66.4-29.8-66.4-66.6V615.5
			c0-36.8,29.7-66.6,66.4-66.6h203.4c36.7,0,66.4,29.8,66.4,66.6L475.2,818.8L475.2,818.8z M475.2,408.4c0,36.8-29.7,66.6-66.4,66.6
			H205.4c-36.7,0-66.4-29.8-66.4-66.6V205c0-36.8,29.7-66.6,66.4-66.6h203.4c36.7,0,66.4,29.8,66.4,66.6L475.2,408.4L475.2,408.4z
			 M885.1,708.4c0,36.1-33.4,65.4-74.6,65.4h-187c-41.2,0-74.6-29.3-74.6-65.4V316.3c0-36.1,33.4-65.4,74.6-65.4h187
			c41.2,0,74.6,29.3,74.6,65.4V708.4z M623.4,474.2h186.9v-37H623.4V474.2z M623.4,548.8h186.9v-37H623.4V548.8z"/>
	</g>
</g>
</svg>
