<?xml version="1.0" encoding="utf-8"?>
<!-- Generator: Adobe Illustrator 22.0.0, SVG Export Plug-In . SVG Version: 6.00 Build 0)  -->
<svg version="1.1" id="图层_1" xmlns="http://www.w3.org/2000/svg" xmlns:xlink="http://www.w3.org/1999/xlink" x="0px" y="0px"
	 viewBox="0 0 1024 1024" style="enable-background:new 0 0 1024 1024;" xml:space="preserve">
<style type="text/css">
	.st0{fill:#303333;}
</style>
<path class="st0" d="M933.8,572.9c14.2,0,25.7-11.6,25.7-25.7v-70.3c0-14.2-11.6-25.8-25.7-25.8h-61.3c-14.2,0-29-11.2-33-24.7
	l-35.3-85.8c-6.8-12.3-4.2-30.7,5.8-40.7l43.2-43.3c10.1-10,10.1-26.4,0-36.4l-49.7-49.8c-10-9.9-26.4-9.9-36.4,0l-43.3,43.4
	c-10,10-28.4,12.6-40.8,5.8l-85.6-35.3c-13.5-4-24.6-18.9-24.6-33.1V89.9c0-14.2-11.6-25.8-25.8-25.8h-70.2
	c-14.2,0-25.7,11.6-25.7,25.8v61.3c0,14.2-11.2,29.1-24.7,33.1l-85.6,35.3c-12.4,6.8-30.7,4.2-40.8-5.8l-43.2-43.3
	c-10-10-26.4-10-36.4,0l-49.8,49.7c-10,10-10,26.4,0,36.4l43.2,43.3c10,10,12.7,28.4,5.9,40.7l-35.2,85.7
	c-4.1,13.6-18.9,24.7-33.1,24.7H90.2c-14.1,0-25.7,11.6-25.7,25.8v70.4c0,14.1,11.6,25.7,25.7,25.7h61.3c14.1,0,29,11.1,33.1,24.7
	l35.2,85.7c6.8,12.4,4.1,30.7-5.8,40.8l-43.3,43.3c-10,10-10,26.5,0,36.4l49.7,49.8c10,9.9,26.4,9.9,36.4-0.1l43.2-43.3
	c10-10,28.4-12.6,40.8-5.8l85.6,35.3c13.5,4,24.7,18.9,24.7,33.1v61.3c0,14.1,11.6,25.8,25.7,25.8H547c14.2,0,25.8-11.6,25.8-25.8
	v-61.3c0-14.2,11.1-29.1,24.6-33.1l85.6-35.3c12.4-6.8,30.8-4.2,40.8,5.8l43.3,43.4c10,10,26.4,10,36.4,0l49.7-49.8
	c10.1-10,10.1-26.4,0-36.4l-43.3-43.3c-10-10-12.6-28.4-5.8-40.8l35.2-85.7c4-13.6,18.9-24.7,33-24.7L933.8,572.9L933.8,572.9z
	 M512,681.3c-93.4,0-169.2-75.8-169.2-169.3S418.5,342.7,512,342.7c93.5,0,169.2,75.8,169.2,169.3S605.5,681.3,512,681.3z"/>
</svg>
