<?xml version="1.0" encoding="utf-8"?>
<!-- Generator: Adobe Illustrator 22.0.0, SVG Export Plug-In . SVG Version: 6.00 Build 0)  -->
<svg version="1.1" id="图层_1" xmlns="http://www.w3.org/2000/svg" xmlns:xlink="http://www.w3.org/1999/xlink" x="0px" y="0px"
	 viewBox="0 0 1024 1024" style="enable-background:new 0 0 1024 1024;" xml:space="preserve">
<style type="text/css">
	.st0{fill:#323333;}
</style>
<g>
	<g>
		<path class="st0" d="M879.7,426.9c-10.6-3.7-13.2-10.6,0-14.2c13.2-3.5,46.1-33.7,46.1-33.7l-34.6-55l-47.8,26.6
			c0,0-54.4-174-184.6-174h-290c-39.6,0-141.7,25.1-197.8,168.7L124.9,324L87,382.5l54.4,31.9c0,0-1.6,14.2-14.8,19.5
			c-13.3,5.4-62.7,63.8-62.7,180.8s38.2,106.3,38.2,157.7s-0.9,75-0.9,75h188v-75l447.3-1.3V847h186.1c0,0,0-35.5,0-79.8
			S960,733.5,960,614.7C960.1,496,910.6,437.6,879.7,426.9z M283.9,586H180.4c-20.3,0-36.8-12.3-36.8-34.1
			c0-21.8,16.5-42.2,36.8-42.2h103.5c20.3,0,36.8,20.4,36.8,42.2C320.6,573.7,304.2,586,283.9,586z M574.8,341.8L555,435.1H454.5
			L438,341.8H325.9l-16.5,93.3h-97.2c36.3-117,87.3-185.8,146.7-185.8h293.4c108.8,0,143.4,187.6,143.4,187.6h-89l-21.4-95.1
			L574.8,341.8L574.8,341.8z M835.6,586H732.2c-20.3,0-36.8-12.3-36.8-34.1c0-21.8,16.5-42.2,36.8-42.2h103.4
			c20.3,0,36.8,20.4,36.8,42.2S855.9,586,835.6,586z"/>
	</g>
</g>
</svg>
