<?xml version="1.0" encoding="utf-8"?>
<!-- Generator: Adobe Illustrator 22.0.0, SVG Export Plug-In . SVG Version: 6.00 Build 0)  -->
<svg version="1.1" id="图层_1" xmlns="http://www.w3.org/2000/svg" xmlns:xlink="http://www.w3.org/1999/xlink" x="0px" y="0px"
	 viewBox="0 0 1024 1024" style="enable-background:new 0 0 1024 1024;" xml:space="preserve">
<style type="text/css">
	.st0{fill:#303333;}
</style>
<g>
	<g>
		<path class="st0" d="M423.6,63.9H115.5c-28.4,0-51.4,23.1-51.4,51.6V423c0,28.4,23,51.5,51.4,51.5h308.2
			c28.4,0,51.4-23.1,51.4-51.5V115.5C475,87,452,63.9,423.6,63.9z M908.4,63.9H600.3c-28.4,0-51.4,23-51.4,51.4v308.2
			c0,28.4,23,51.4,51.4,51.4h308.2c28.4,0,51.4-23,51.4-51.4V115.3C959.8,86.9,936.8,63.9,908.4,63.9z M908.4,548.7H600.3
			c-28.4,0-51.4,23-51.4,51.4v308.2c0,28.4,23,51.4,51.4,51.4h308.2c28.4,0,51.4-23,51.4-51.4V600
			C959.8,571.7,936.8,548.7,908.4,548.7z M423.6,548.7H115.5c-28.4,0-51.4,23-51.4,51.3v308.2c0,28.4,23,51.4,51.4,51.4h308.2
			c28.4,0,51.4-23,51.4-51.4V600C475,571.7,452,548.7,423.6,548.7z"/>
	</g>
</g>
</svg>
