<?xml version="1.0" encoding="utf-8"?>
<!-- Generator: Adobe Illustrator 22.0.0, SVG Export Plug-In . SVG Version: 6.00 Build 0)  -->
<svg version="1.1" id="图层_1" xmlns="http://www.w3.org/2000/svg" xmlns:xlink="http://www.w3.org/1999/xlink" x="0px" y="0px"
	 viewBox="0 0 1024 1024" style="enable-background:new 0 0 1024 1024;" xml:space="preserve">
<style type="text/css">
	.st0{fill:none;}
	.st1{fill:#323333;}
</style>
<g>
	<g>
		<path class="st1" d="M511.6,100.8H362.1v711.6h149.5V100.8z M698.3,213H550.8v599.5h147.5V213z M324.9,100.8H175.4v711.6h149.5
			V100.8z M885.4,551.2c0,0,0.1,93.6,0.1,135.2v87.8c0,41.6-33.7,75.3-75.2,75.3H213.7c-41.6,0-75.2-33.7-75.2-75.3v-87.8
			c0-41.6,0.1-135.2,0.1-135.2c-41.2,0-74.7,33.4-74.7,74.7v222.5c0,41.3,33.4,74.8,74.7,74.8h746.8c41.2,0,74.7-33.5,74.7-74.8
			V625.9C960.1,584.6,926.6,551.2,885.4,551.2z M847.7,213h-111v599.5h111V213z"/>
	</g>
</g>
</svg>
