<?xml version="1.0" encoding="utf-8"?>
<!-- Generator: Adobe Illustrator 16.0.0, SVG Export Plug-In . SVG Version: 6.00 Build 0)  -->
<!DOCTYPE svg PUBLIC "-//W3C//DTD SVG 1.1//EN" "http://www.w3.org/Graphics/SVG/1.1/DTD/svg11.dtd">
<svg version="1.1" id="图形" xmlns="http://www.w3.org/2000/svg" xmlns:xlink="http://www.w3.org/1999/xlink" x="0px" y="0px"
	 width="1000.637px" height="1000.678px" viewBox="15.167 -16.333 1000.637 1000.678"
	 enable-background="new 15.167 -16.333 1000.637 1000.678" xml:space="preserve">
<path fill-rule="evenodd" clip-rule="evenodd" d="M568.066,595.19l53.067,50.932c17.518,16.834,45.718,16.834,63.235,0
	c17.519-16.749,17.519-43.923,0-60.672l-52.853-50.931l52.853-50.76c0,0-200.132-82.12-208.335-85.069
	c-4.402-1.581-8.973-2.436-13.672-2.436c-21.192,0-38.284,16.236-38.284,36.403c0,4.701,0.896,9.058,2.563,13.075
	c3.076,7.52,88.572,200.389,88.572,200.389L568.066,595.19z M77.692,763.748c0,38.668,32.601,70.029,72.934,70.029h729.175
	c40.334,0,72.936-31.361,72.936-70.029V116.223c0-38.71-32.602-69.987-72.936-69.987H150.626c-40.333,0-72.934,31.276-72.934,69.987
	V763.748z M208.949,291.233h612.529c22.263,0,40.121,17.175,40.121,38.498v378.003c0,21.363-17.858,38.538-40.121,38.538H208.949
	c-22.261,0-40.122-17.175-40.122-38.538V329.73C168.827,308.408,186.688,291.233,208.949,291.233z M168.827,177.493
	c0-24.183,20.424-43.752,45.59-43.752c25.165,0,45.589,19.57,45.589,43.752c0,24.098-20.424,43.752-45.589,43.752
	C189.251,221.246,168.827,201.591,168.827,177.493z M332.898,177.493c0-24.183,20.424-43.752,45.59-43.752
	c25.165,0,45.589,19.57,45.589,43.752c0,24.098-20.424,43.752-45.589,43.752C353.322,221.246,332.898,201.591,332.898,177.493z
	 M496.968,177.493c0-24.183,20.425-43.752,45.59-43.752c25.166,0,45.59,19.57,45.59,43.752c0,24.098-20.424,43.752-45.59,43.752
	C517.393,221.246,496.968,201.591,496.968,177.493z"/>
</svg>
