<?xml version="1.0" encoding="utf-8"?>
<!-- Generator: Adobe Illustrator 16.0.0, SVG Export Plug-In . SVG Version: 6.00 Build 0)  -->
<!DOCTYPE svg PUBLIC "-//W3C//DTD SVG 1.1//EN" "http://www.w3.org/Graphics/SVG/1.1/DTD/svg11.dtd">
<svg version="1.1" id="图形" xmlns="http://www.w3.org/2000/svg" xmlns:xlink="http://www.w3.org/1999/xlink" x="0px" y="0px"
	 width="1000.637px" height="1000.678px" viewBox="15.167 -16.333 1000.637 1000.678"
	 enable-background="new 15.167 -16.333 1000.637 1000.678" xml:space="preserve">
<path fill="#272636" d="M683.323,646.456"/>
<g>
	<path fill="#020202" d="M553.663,779.116H135.15V319.435h287.303V204.515H77.691v632.061h540.28
		c-28.519-23.996-56.208-41.35-78.505-49.093L553.663,779.116z"/>
	<path fill="#020202" d="M946.697,545.988C823.732,607.212,745.75,790.881,745.75,790.881l-47.986-90.373l-98.968,58.306
		c41.983,14.577,101.97,61.228,152.958,122.452c35.986-64.141,146.956-195.335,200.939-206.995
		C931.7,627.625,943.695,589.722,946.697,545.988z"/>
	<path fill="#020202" d="M936.35,46.235H499.036v450.479H936.35V46.235z M873.007,433.37H562.379V109.577h310.628V433.37z"/>
</g>
</svg>
