<?xml version="1.0" encoding="utf-8"?>
<!-- Generator: Adobe Illustrator 16.0.0, SVG Export Plug-In . SVG Version: 6.00 Build 0)  -->
<!DOCTYPE svg PUBLIC "-//W3C//DTD SVG 1.1//EN" "http://www.w3.org/Graphics/SVG/1.1/DTD/svg11.dtd">
<svg version="1.1" id="图形" xmlns="http://www.w3.org/2000/svg" xmlns:xlink="http://www.w3.org/1999/xlink" x="0px" y="0px"
	 width="1000.637px" height="1000.678px" viewBox="15.167 -16.333 1000.637 1000.678"
	 enable-background="new 15.167 -16.333 1000.637 1000.678" xml:space="preserve">
<path fill-rule="evenodd" clip-rule="evenodd" d="M762.439,921.268H218.024c-42.979,0-77.802-35.613-77.802-79.556V125.8
	c0-43.945,34.823-79.555,77.802-79.555h77.762h38.882h233.367l0,0h116.645l0,0h77.76c42.979,0,77.801,35.61,77.801,79.555v715.912
	C840.24,885.655,805.417,921.268,762.439,921.268z M295.786,125.8h-77.762v715.912h77.762V125.8z M762.439,125.8h-77.76v159.087
	l-58.32-59.666l-58.324,59.666V125.8H334.668v715.912h427.771V125.8z"/>
</svg>
