<?xml version="1.0" encoding="utf-8"?>
<!-- Generator: Adobe Illustrator 17.0.0, SVG Export Plug-In . SVG Version: 6.00 Build 0)  -->
<!DOCTYPE svg PUBLIC "-//W3C//DTD SVG 1.1//EN" "http://www.w3.org/Graphics/SVG/1.1/DTD/svg11.dtd">
<svg version="1.1" id="图形" xmlns="http://www.w3.org/2000/svg" xmlns:xlink="http://www.w3.org/1999/xlink" x="0px" y="0px"
	 width="1000.637px" height="1000.678px" viewBox="15.167 -16.333 1000.637 1000.678"
	 enable-background="new 15.167 -16.333 1000.637 1000.678" xml:space="preserve">
<g>
	<path fill="#272636" d="M793.512,364.401h-79.54v-79.54c0-131.816-106.843-238.62-238.62-238.62
		c-131.776,0-238.62,106.804-238.62,238.62v79.54h-79.54c-43.924,0-79.541,35.574-79.541,79.539v397.701
		c0,43.887,35.616,79.54,79.541,79.54h636.319c43.926,0,79.54-35.653,79.54-79.54V443.94
		C873.052,399.975,837.438,364.401,793.512,364.401z M316.272,284.861c0-87.852,71.231-159.08,159.08-159.08
		c87.853,0,159.079,71.229,159.079,159.08v79.54H316.272V284.861z M793.512,841.641H157.193V443.94h636.319V841.641z"/>
	<path fill="#272636" d="M435.583,722.33c0,21.944,17.789,39.77,39.77,39.77c21.982,0,39.769-17.825,39.769-39.77
		c0-21.983-17.787-39.771-39.769-39.771C453.372,682.56,435.583,700.347,435.583,722.33z"/>
	<path fill="#272636" d="M475.353,682.56c43.925,0,79.54-35.653,79.54-79.54c0-43.966-35.614-79.539-79.54-79.539
		c-43.924,0-79.54,35.573-79.54,79.539C395.812,646.907,431.429,682.56,475.353,682.56z"/>
</g>
</svg>
