<?xml version="1.0" encoding="utf-8"?>
<!-- Generator: Adobe Illustrator 16.0.0, SVG Export Plug-In . SVG Version: 6.00 Build 0)  -->
<!DOCTYPE svg PUBLIC "-//W3C//DTD SVG 1.1//EN" "http://www.w3.org/Graphics/SVG/1.1/DTD/svg11.dtd">
<svg version="1.1" id="图形" xmlns="http://www.w3.org/2000/svg" xmlns:xlink="http://www.w3.org/1999/xlink" x="0px" y="0px"
	 width="1000.637px" height="1000.678px" viewBox="15.167 -16.333 1000.637 1000.678"
	 enable-background="new 15.167 -16.333 1000.637 1000.678" xml:space="preserve">
<g>
	<path d="M851.763,853.973H750.795V113.545h100.968V853.973z M885.421,46.233H717.14c-18.569,0-33.655,15.12-33.655,33.656v807.74
		c0,18.538,15.086,33.655,33.655,33.655h168.281c18.536,0,33.654-15.117,33.654-33.655V79.889
		C919.076,61.353,903.958,46.233,885.421,46.233"/>
	<path d="M548.861,853.973H447.895V315.48h100.966V853.973z M582.518,248.168h-168.28c-18.57,0-33.655,15.12-33.655,33.656v605.805
		c0,18.538,15.085,33.655,33.655,33.655h168.28c18.537,0,33.654-15.117,33.654-33.655V281.824
		C616.172,263.287,601.055,248.168,582.518,248.168"/>
	<path d="M111.335,921.284c-18.57,0-33.656-15.117-33.656-33.655V483.76c0-18.537,15.085-33.656,33.656-33.656h168.279
		c18.538,0,33.657,15.12,33.657,33.656v403.87c0,18.538-15.119,33.655-33.657,33.655H111.335z"/>
</g>
</svg>
