<?xml version="1.0" encoding="utf-8"?>
<!-- Generator: Adobe Illustrator 16.0.0, SVG Export Plug-In . SVG Version: 6.00 Build 0)  -->
<!DOCTYPE svg PUBLIC "-//W3C//DTD SVG 1.1//EN" "http://www.w3.org/Graphics/SVG/1.1/DTD/svg11.dtd">
<svg version="1.1" id="图形" xmlns="http://www.w3.org/2000/svg" xmlns:xlink="http://www.w3.org/1999/xlink" x="0px" y="0px"
	 width="1000.637px" height="1000.678px" viewBox="15.167 -16.333 1000.637 1000.678"
	 enable-background="new 15.167 -16.333 1000.637 1000.678" xml:space="preserve">
<g>
	<path d="M515.15,233.756c-287.024,0-437.5,211.47-437.5,245c0,33.531,150.476,245,437.5,245c287.007,0,437.5-211.469,437.5-245
		C952.65,445.225,802.157,233.756,515.15,233.756z M515.15,667.222c-107.393,0-194.448-84.373-194.448-188.466
		c0-104.094,87.056-188.458,194.448-188.458s194.448,84.364,194.448,188.458C709.598,582.849,622.542,667.222,515.15,667.222z
		 M515.15,478.756c-17.807-19.551,29.019-94.233,0-94.233c-53.696,0-97.224,42.195-97.224,94.233s43.528,94.234,97.224,94.234
		c53.678,0,97.223-42.195,97.223-94.234C612.373,454.847,530.292,495.367,515.15,478.756z"/>
</g>
</svg>
