<?xml version="1.0" encoding="utf-8"?>
<!-- Generator: Adobe Illustrator 17.0.0, SVG Export Plug-In . SVG Version: 6.00 Build 0)  -->
<!DOCTYPE svg PUBLIC "-//W3C//DTD SVG 1.1//EN" "http://www.w3.org/Graphics/SVG/1.1/DTD/svg11.dtd">
<svg version="1.1" id="图形" xmlns="http://www.w3.org/2000/svg" xmlns:xlink="http://www.w3.org/1999/xlink" x="0px" y="0px"
	 width="1000.637px" height="1000.678px" viewBox="15.167 -16.333 1000.637 1000.678"
	 enable-background="new 15.167 -16.333 1000.637 1000.678" xml:space="preserve">
<g>
	<path fill="#333333" d="M919.231,46.614H111.739c-18.532,0-33.646,15.114-33.646,33.646v807.492
		c0,18.532,15.114,33.646,33.646,33.646h807.492c18.532,0,33.646-15.114,33.646-33.646V80.26
		C952.876,61.728,937.763,46.614,919.231,46.614z M885.585,854.106H145.384V113.905h740.201V854.106z"/>
	<path fill="#333333" d="M212.675,551.297h33.646c8.924,0,17.481-3.545,23.791-9.854l25.271-25.271l19.233,76.932
		c3.674,14.695,16.715,25.124,31.858,25.477c0.265,0.006,0.526,0.009,0.789,0.009c14.821-0.001,27.943-9.722,32.22-23.978
		l47.508-158.358l21.276,319.156c1.069,16.043,13.342,29.088,29.29,31.134c1.443,0.186,2.879,0.275,4.303,0.275
		c14.308-0.001,27.273-9.135,31.897-23.008l75.25-225.75l30.965,61.93c5.699,11.398,17.35,18.599,30.094,18.599
		s24.395-7.2,30.094-18.599l24.346-48.692h113.788c18.582,0,33.646-15.063,33.646-33.646s-15.063-33.646-33.646-33.646H683.713
		c-12.744,0-24.395,7.2-30.094,18.599l-3.552,7.104l-37.197-74.396c-6.086-12.172-18.918-19.474-32.479-18.514
		c-13.574,0.965-25.23,10.012-29.534,22.921l-46.828,140.485L481.765,246.25c-1.083-16.235-13.628-29.37-29.796-31.195
		c-16.174-1.825-31.327,8.18-36.002,23.765l-65.76,219.2l-3.955-15.819c-2.939-11.76-11.978-21.029-23.659-24.265
		c-11.686-3.237-24.201,0.062-32.772,8.634l-57.437,57.437h-19.709c-18.582,0-33.646,15.063-33.646,33.646
		S194.093,551.297,212.675,551.297z"/>
</g>
</svg>
