<?xml version="1.0" encoding="utf-8"?>
<!-- Generator: Adobe Illustrator 16.0.0, SVG Export Plug-In . SVG Version: 6.00 Build 0)  -->
<!DOCTYPE svg PUBLIC "-//W3C//DTD SVG 1.1//EN" "http://www.w3.org/Graphics/SVG/1.1/DTD/svg11.dtd">
<svg version="1.1" id="图形" xmlns="http://www.w3.org/2000/svg" xmlns:xlink="http://www.w3.org/1999/xlink" x="0px" y="0px"
	 width="1000.637px" height="1000.678px" viewBox="15.167 -16.333 1000.637 1000.678"
	 enable-background="new 15.167 -16.333 1000.637 1000.678" xml:space="preserve">
<g>
	<g>
		<path fill="#333333" d="M873.16,46.239H157.241c-43.964,0-79.558,35.612-79.558,79.556v715.918
			c0,43.942,35.593,79.558,79.558,79.558H873.16c43.964,0,79.557-35.615,79.557-79.558V125.795
			C952.716,81.851,917.124,46.239,873.16,46.239z M873.16,841.713H157.241V125.795H873.16V841.713z M664.913,654.871
			c46.527-43.26,69.813-100.788,69.813-172.57c0-68.789-23.286-123.628-69.813-164.495
			c-46.571-40.869-104.937-61.313-175.134-61.313H357.584v463.278h127.409C558.397,719.772,618.341,698.131,664.913,654.871z
			 M417.401,666.834V309.73h69.984c55.246,0,99.808,14.569,133.733,43.666c33.839,29.117,50.801,72.57,50.801,130.4
			c0,57.829-16.491,102.779-49.476,134.886c-33.029,32.109-78.917,48.152-137.708,48.152H417.401z"/>
	</g>
</g>
</svg>
