<?xml version="1.0" encoding="utf-8"?>
<!-- Generator: Adobe Illustrator 16.0.0, SVG Export Plug-In . SVG Version: 6.00 Build 0)  -->
<!DOCTYPE svg PUBLIC "-//W3C//DTD SVG 1.1//EN" "http://www.w3.org/Graphics/SVG/1.1/DTD/svg11.dtd">
<svg version="1.1" id="图形" xmlns="http://www.w3.org/2000/svg" xmlns:xlink="http://www.w3.org/1999/xlink" x="0px" y="0px"
	 width="1000.637px" height="1000.678px" viewBox="15.167 -16.333 1000.637 1000.678"
	 enable-background="new 15.167 -16.333 1000.637 1000.678" xml:space="preserve">
<g>
	<path fill="#020202" d="M947.819,321.865c-3.346-13.937-9.168-27.641-17.105-39.649c-5.022-7.729-10.86-14.835-17.519-21.315
		l-7.686-13.275l-1.115,5.666c-4.359-3.526-8.931-6.893-13.896-9.967c-1.946-1.246-4.146-2.566-4.707-2.784l-22.813-13.218v-0.271
		c0-6.228-0.586-12.864-1.733-19.873c-9.73-57.515-59.114-99.251-117.427-99.251h-87.691l-75.033-43.343l-7.589-4.108
		c-35.018-18.821-81.243-19.31-118.536,0.523l-81.326,46.928h-88.134c-58.276,0-107.654,41.736-117.448,99.387
		c-1.089,6.795-1.671,13.43-1.671,19.737v0.545l-28.222,16.349c-15.571,9.481-29.156,22.676-39.201,38.035
		c-7.904,11.967-13.471,24.914-16.894,38.442c-4.481,9.342-4.461,19.6-4.403,28.941v360.924c0,21.643,5.803,51.951,21.471,70.674
		c22.831,40.234,53.936,48.799,76.104,48.799h679.01c22.91,0,54.524-8.507,75.429-47.805c21.509-23.025,22.014-49.361,22.188-70.186
		V350.048C953.448,342.846,953.254,333.522,947.819,321.865z M862.978,296.736c7.159,5.024,13.077,11.09,17.694,18.217
		c3.403,5.117,6.01,10.664,7.841,16.371c-0.406,1.418-0.774,2.843-1.264,4.202c-0.567,1.501-1.11,2.98-1.794,4.436
		c-1.031,2.298-2.295,4.482-3.597,6.643c-0.781,1.262-1.483,2.586-2.34,3.811c-1.632,2.315-3.502,4.441-5.371,6.504
		c-0.781,0.854-1.477,1.807-2.334,2.607c-2.728,2.688-5.721,5.099-8.836,7.201V296.736z M226.186,227.056
		c0-3.39,0.349-6.777,0.872-9.891c4.848-28.648,29.453-49.441,58.456-49.441h458.305c29.04,0,53.624,20.793,58.449,49.286
		c0.526,3.27,0.914,6.657,0.914,10.047v174.282L580.745,529.703l-0.058-0.039l-13.256,7.726l-20.651,11.912
		c-20.009,10.57-44.343,10.727-64.486-0.212c-0.469-0.275-0.973-0.545-1.462-0.819l-17.577-10.14l-14.283-8.292l-0.043,0.019
		L247.947,413.791l-21.761-12.593V227.056z M148.929,314.855c4.792-7.338,11-13.624,17.46-18.04v69.333
		c-2.804-1.971-5.57-4.011-8.02-6.364c-0.078-0.083-0.233-0.198-0.35-0.295c-2.958-2.863-5.564-5.994-7.938-9.305
		c-0.702-0.976-1.23-2.024-1.87-3.038c-1.521-2.392-2.958-4.843-4.126-7.414c-0.664-1.322-1.167-2.709-1.715-4.068
		c-0.547-1.4-0.934-2.864-1.36-4.301C142.797,325.642,145.427,320.13,148.929,314.855z M137.464,709.804V418.872l7.79,4.52
		l21.135,12.239v0.114l58.958,34.044l0.839,0.491l151.021,87.192l11.968,6.91l-207.878,120.02l-43.13,24.977
		C137.935,709.51,137.697,709.665,137.464,709.804z M854.253,769.969H175.248c-4.751,0-8.898-1.421-12.753-4.363
		c1.967-1.614,3.875-3.42,5.997-4.703L448.894,598.94l5.216,2.914c18.492,10.005,39.415,15.262,60.571,15.262
		c21.063,0,41.207-4.986,59.875-14.83c1.519-0.74,2.899-1.523,3.854-2.159l2.412-1.329l276.47,159.589l2.394,1.619
		c2.861,1.71,5.312,3.933,7.808,6.035C864.03,768.548,859.84,769.969,854.253,769.969z M892.077,709.723
		c-0.141-0.074-0.294-0.17-0.41-0.249c-2.2-1.535-4.438-2.806-5.876-3.501L640.557,564.25l162.624-93.836l2.181-1.262l57.616-33.246
		v-0.039l29.099-16.834V709.723z"/>
	<polygon fill="#020202" points="288.781,252.609 740.547,252.609 740.547,312.406 288.781,312.406 288.781,252.609 	"/>
	<polygon fill="#020202" points="288.781,349.775 740.547,349.775 740.547,409.568 288.781,409.568 288.781,349.775 	"/>
</g>
<path fill="#272636" d="M283.716,381.195"/>
</svg>
