<?xml version="1.0" encoding="utf-8"?>
<!-- Generator: Adobe Illustrator 17.0.0, SVG Export Plug-In . SVG Version: 6.00 Build 0)  -->
<!DOCTYPE svg PUBLIC "-//W3C//DTD SVG 1.1//EN" "http://www.w3.org/Graphics/SVG/1.1/DTD/svg11.dtd">
<svg version="1.1" id="图形" xmlns="http://www.w3.org/2000/svg" xmlns:xlink="http://www.w3.org/1999/xlink" x="0px" y="0px"
	 width="1000.637px" height="1000.678px" viewBox="15.167 -16.333 1000.637 1000.678"
	 enable-background="new 15.167 -16.333 1000.637 1000.678" xml:space="preserve">
<g>
	<path fill="#333333" d="M213.653,826.082c-37.397,0-67.78-30.382-67.78-67.78V182.174c0-37.398,30.382-67.78,67.78-67.78
		l213.137-0.132c24.424,6.222,24.092,36.272,24.092,66.323v103.259c0,18.667,15.223,33.89,33.89,33.89h101.67
		c33.822,0,67.78,0.166,67.78,33.89v128.311c21.313-8.869,44.084-14.857,67.78-17.87v-144.33c0-36.008-33.493-70.559-92.669-128.544
		c-8.273-8.14-16.745-16.413-25.085-24.821c-8.408-8.34-16.681-16.813-24.821-25.085c-57.986-59.175-92.536-92.669-128.544-92.669
		H213.653c-74.731,0-135.56,60.829-135.56,135.56v576.128c0,74.731,60.829,135.56,135.56,135.56h338.865
		c-16.911-20.256-30.813-43.057-41.105-67.78H213.653z"/>
	<path fill="#333333" d="M755.891,527.427c-108.787,0-196.985,88.198-196.985,196.985c0,108.817,88.198,196.985,196.985,196.985
		s196.985-88.168,196.985-196.985C952.876,615.626,864.678,527.427,755.891,527.427z M857.561,758.302h-67.78v67.78h-67.78v-67.78
		h-67.78v-67.78h67.78v-67.78h67.78v67.78h67.78V758.302z"/>
</g>
</svg>
