<?xml version="1.0" encoding="utf-8"?>
<!-- Generator: Adobe Illustrator 16.0.0, SVG Export Plug-In . SVG Version: 6.00 Build 0)  -->
<!DOCTYPE svg PUBLIC "-//W3C//DTD SVG 1.1//EN" "http://www.w3.org/Graphics/SVG/1.1/DTD/svg11.dtd">
<svg version="1.1" id="图形" xmlns="http://www.w3.org/2000/svg" xmlns:xlink="http://www.w3.org/1999/xlink" x="0px" y="0px"
	 width="1000.637px" height="1000.678px" viewBox="15.167 -16.333 1000.637 1000.678"
	 enable-background="new 15.167 -16.333 1000.637 1000.678" xml:space="preserve">
<path fill-rule="evenodd" clip-rule="evenodd" d="M873.196,783.899H157.239c-43.946,0-79.557-34.309-79.557-76.567v-459.4
	c0-42.301,35.611-76.568,79.557-76.568h715.957c43.924,0,79.536,34.267,79.536,76.568v459.4
	C952.732,749.59,917.12,783.899,873.196,783.899z M833.417,707.331L605.403,515.316l-90.197,77.166l-90.194-77.166L197.018,707.331
	H833.417z M157.239,669.049L380.98,477.631L157.239,286.213V669.049z M197.018,247.931l318.188,267.982l318.211-267.982H197.018z
	 M873.196,286.213L649.454,477.631l223.742,191.418V286.213z"/>
</svg>
