<?xml version="1.0" encoding="utf-8"?>
<!-- Generator: Adobe Illustrator 17.0.0, SVG Export Plug-In . SVG Version: 6.00 Build 0)  -->
<!DOCTYPE svg PUBLIC "-//W3C//DTD SVG 1.1//EN" "http://www.w3.org/Graphics/SVG/1.1/DTD/svg11.dtd">
<svg version="1.1" id="图形" xmlns="http://www.w3.org/2000/svg" xmlns:xlink="http://www.w3.org/1999/xlink" x="0px" y="0px"
	 width="1000.637px" height="1000.678px" viewBox="15.167 -16.333 1000.637 1000.678"
	 enable-background="new 15.167 -16.333 1000.637 1000.678" xml:space="preserve">
<path fill-rule="evenodd" clip-rule="evenodd" fill="#272636" d="M824.587,174.367C653.74,3.521,376.69,3.521,205.801,174.367
	c-170.848,170.848-170.848,447.94,0,618.787c170.89,170.847,447.939,170.847,618.787,0
	C995.476,622.308,995.476,345.216,824.587,174.367z M738.567,204.15l-57.434,57.434c-98.436-73.646-233.398-73.646-331.837,0
	l-56.45-56.495C423.114,101.062,608.382,99.868,738.567,204.15z M655.831,624.357c-77.657,77.742-203.573,77.742-281.231,0
	c-77.7-77.659-77.7-203.532,0-281.275c77.659-77.659,203.574-77.659,281.231,0C733.533,420.824,733.533,546.698,655.831,624.357z
	 M236.565,261.412l56.45,56.409c-73.603,98.479-73.603,233.401,0,331.881l-57.431,57.432
	C131.343,576.908,132.537,391.639,236.565,261.412z M292.846,762.349l56.45-56.409c98.439,73.645,233.402,73.645,331.837,0
	l57.434,57.433C608.382,867.655,423.114,866.461,292.846,762.349z M793.823,706.112l-56.449-56.409
	c73.644-98.481,73.644-233.402,0-331.881l57.43-57.433C899.087,390.616,897.892,575.884,793.823,706.112z"/>
</svg>
