<?xml version="1.0" encoding="utf-8"?>
<!-- Generator: Adobe Illustrator 16.0.0, SVG Export Plug-In . SVG Version: 6.00 Build 0)  -->
<!DOCTYPE svg PUBLIC "-//W3C//DTD SVG 1.1//EN" "http://www.w3.org/Graphics/SVG/1.1/DTD/svg11.dtd">
<svg version="1.1" id="图形" xmlns="http://www.w3.org/2000/svg" xmlns:xlink="http://www.w3.org/1999/xlink" x="0px" y="0px"
	 width="1000.637px" height="1000.678px" viewBox="15.167 -16.333 1000.637 1000.678"
	 enable-background="new 15.167 -16.333 1000.637 1000.678" xml:space="preserve">
<g>
	<polygon points="293.985,383.034 815.457,383.034 815.457,338.142 294.889,338.142 294.889,306.281 209.034,306.281 
		209.034,424.676 293.985,424.676 	"/>
	<polygon points="294.889,552.431 815.457,552.431 815.457,513.224 295.795,513.224 295.795,474.047 209.034,474.047 
		209.034,589.985 294.889,589.985 	"/>
	<polygon points="294.889,723.865 815.457,723.865 815.457,684.668 294.889,684.668 294.889,646.296 209.034,646.296 
		209.034,762.24 294.889,762.24 	"/>
	<path d="M125.624,46.256H77.687v875.037h47.938h827.098V46.256H125.624z M903.434,871.684h-777.81V192.113h777.81V871.684z"/>
</g>
</svg>
