<?xml version="1.0" encoding="utf-8"?>
<!-- Generator: Adobe Illustrator 17.0.0, SVG Export Plug-In . SVG Version: 6.00 Build 0)  -->
<!DOCTYPE svg PUBLIC "-//W3C//DTD SVG 1.1//EN" "http://www.w3.org/Graphics/SVG/1.1/DTD/svg11.dtd">
<svg version="1.1" id="图形" xmlns="http://www.w3.org/2000/svg" xmlns:xlink="http://www.w3.org/1999/xlink" x="0px" y="0px"
	 width="1000.637px" height="1000.678px" viewBox="15.167 -16.333 1000.637 1000.678"
	 enable-background="new 15.167 -16.333 1000.637 1000.678" xml:space="preserve">
<g>
	<path fill="#333333" d="M603.508,581.329c0-119.862,141.187-287.04,141.187-369.182c0-89.403-72.482-161.919-161.919-161.919
		s-161.919,72.516-161.919,161.919c0,89.436,141.187,248.893,141.187,369.182H603.508z M511.609,212.147
		c0-39.295,31.869-71.167,71.167-71.167c39.298,0,71.167,31.872,71.167,71.167c0,39.298-31.869,71.17-71.167,71.17
		C543.478,283.317,511.609,251.445,511.609,212.147z"/>
	<path fill="#333333" d="M779.753,133.161c8.509,21.16,13.603,43.995,14.851,67.85l90.981-45.509v623.364l-136.752,68.374
		l-40.331-17.28c-28.165-156.919-120.239-185.021-193.017-185.021c-18.269,0-32.562,21.227-67.291,1.676
		c-58.651-33.02-39.823-123.674-134.582-128.963c-56.081-56.081-127.107-67.289-168.227-68.534v-300.45l141.711,60.72
		c8.479,3.647,17.513,5.454,26.516,5.454c10.316,0,20.635-2.365,30.096-7.096l27.599-13.801c2.796-32.562,12.98-62.92,28.851-89.665
		l-86.546,43.271L78.093,46.614V450.36v370.1l235.518,100.937l201.873-100.937L716.47,906.61c0-0.004,0-0.009-0.001-0.013
		l34.534,14.8l201.873-100.937V46.614L779.753,133.161z"/>
</g>
</svg>
