<?xml version="1.0" encoding="utf-8"?>
<!-- Generator: Adobe Illustrator 16.0.0, SVG Export Plug-In . SVG Version: 6.00 Build 0)  -->
<!DOCTYPE svg PUBLIC "-//W3C//DTD SVG 1.1//EN" "http://www.w3.org/Graphics/SVG/1.1/DTD/svg11.dtd">
<svg version="1.1" id="图形" xmlns="http://www.w3.org/2000/svg" xmlns:xlink="http://www.w3.org/1999/xlink" x="0px" y="0px"
	 width="1000.637px" height="1000.678px" viewBox="15.167 -16.333 1000.637 1000.678"
	 enable-background="new 15.167 -16.333 1000.637 1000.678" xml:space="preserve">
<path fill-rule="evenodd" clip-rule="evenodd" d="M908.958,546.303H383.89c-24.144,0-43.756-19.592-43.756-43.756
	c0-24.163,19.612-43.755,43.756-43.755h525.067c24.14,0,43.756,19.592,43.756,43.755
	C952.713,526.711,933.097,546.303,908.958,546.303z M908.958,240.013H383.89c-24.144,0-43.756-19.592-43.756-43.755
	c0-24.165,19.612-43.756,43.756-43.756h525.067c24.14,0,43.756,19.592,43.756,43.756
	C952.713,220.421,933.097,240.013,908.958,240.013z M165.111,896.35c-48.332,0-87.512-39.184-87.512-87.514
	c0-48.326,39.18-87.51,87.512-87.51c48.327,0,87.511,39.184,87.511,87.51C252.623,857.166,213.438,896.35,165.111,896.35z
	 M165.111,590.059c-48.332,0-87.512-39.184-87.512-87.512c0-48.327,39.18-87.511,87.512-87.511
	c48.327,0,87.511,39.184,87.511,87.511C252.623,550.875,213.438,590.059,165.111,590.059z M165.111,283.769
	c-48.332,0-87.512-39.184-87.512-87.511c0-48.328,39.18-87.512,87.512-87.512c48.327,0,87.511,39.184,87.511,87.512
	C252.623,244.585,213.438,283.769,165.111,283.769z M383.89,765.082h525.067c24.14,0,43.756,19.592,43.756,43.754
	c0,24.164-19.616,43.758-43.756,43.758H383.89c-24.144,0-43.756-19.594-43.756-43.758
	C340.134,784.674,359.746,765.082,383.89,765.082z"/>
</svg>
