<?xml version="1.0" encoding="utf-8"?>
<!-- Generator: Adobe Illustrator 16.0.0, SVG Export Plug-In . SVG Version: 6.00 Build 0)  -->
<!DOCTYPE svg PUBLIC "-//W3C//DTD SVG 1.1//EN" "http://www.w3.org/Graphics/SVG/1.1/DTD/svg11.dtd">
<svg version="1.1" id="图形" xmlns="http://www.w3.org/2000/svg" xmlns:xlink="http://www.w3.org/1999/xlink" x="0px" y="0px"
	 width="1000.637px" height="1000.678px" viewBox="15.167 -16.333 1000.637 1000.678"
	 enable-background="new 15.167 -16.333 1000.637 1000.678" xml:space="preserve">
<g>
	<path d="M898.032,46.24H624.58c-30.206,0-54.688,24.482-54.688,54.69v273.473c0,30.164,24.482,54.69,54.688,54.69h273.452
		c30.208,0,54.69-24.527,54.69-54.69V100.93C952.722,70.721,928.24,46.24,898.032,46.24z M866.124,306.128
		c0,16.408-13.318,29.75-29.75,29.75H687.619c-16.434,0-29.75-13.342-29.75-29.75V157.361c0-16.433,13.316-29.751,29.75-29.751
		h148.755c16.432,0,29.75,13.318,29.75,29.751V306.128z"/>
	<path d="M405.819,46.24H132.368c-30.208,0-54.69,24.482-54.69,54.69v273.473c0,30.164,24.482,54.69,54.69,54.69h273.452
		c30.208,0,54.69-24.527,54.69-54.69V100.93C460.509,70.721,436.028,46.24,405.819,46.24z M370.148,306.128
		c0,16.408-13.318,29.75-29.751,29.75H191.643c-16.433,0-29.75-13.342-29.75-29.75V157.361c0-16.433,13.317-29.751,29.75-29.751
		h148.755c16.433,0,29.751,13.318,29.751,29.751V306.128z"/>
	<path d="M405.819,538.474H132.368c-30.208,0-54.69,24.44-54.69,54.69v273.451c0,30.164,24.482,54.69,54.69,54.69h273.452
		c30.208,0,54.69-24.526,54.69-54.69V593.164C460.509,562.914,436.028,538.474,405.819,538.474z M371.148,805.609
		c0,16.408-13.318,29.75-29.751,29.75H192.643c-16.433,0-29.75-13.342-29.75-29.75V656.842c0-16.433,13.317-29.751,29.75-29.751
		h148.755c16.433,0,29.751,13.318,29.751,29.751V805.609z"/>
	<path d="M898.032,538.474H624.58c-30.206,0-54.688,24.44-54.688,54.69v273.451c0,30.164,24.482,54.69,54.688,54.69h273.452
		c30.208,0,54.69-24.526,54.69-54.69V593.164C952.722,562.914,928.24,538.474,898.032,538.474z M866.124,805.609
		c0,16.408-13.318,29.75-29.751,29.75H687.618c-16.433,0-29.75-13.342-29.75-29.75V656.842c0-16.433,13.317-29.751,29.75-29.751
		h148.755c16.433,0,29.751,13.318,29.751,29.751V805.609z"/>
</g>
</svg>
