<?xml version="1.0" encoding="utf-8"?>
<!-- Generator: Adobe Illustrator 16.0.0, SVG Export Plug-In . SVG Version: 6.00 Build 0)  -->
<!DOCTYPE svg PUBLIC "-//W3C//DTD SVG 1.1//EN" "http://www.w3.org/Graphics/SVG/1.1/DTD/svg11.dtd">
<svg version="1.1" id="图形" xmlns="http://www.w3.org/2000/svg" xmlns:xlink="http://www.w3.org/1999/xlink" x="0px" y="0px"
	 width="1000.637px" height="1000.678px" viewBox="15.167 -16.333 1000.637 1000.678"
	 enable-background="new 15.167 -16.333 1000.637 1000.678" xml:space="preserve">
<g>
	<path fill="#333333" d="M442.869,47.04H173.87c-18.518,0-33.625,15.137-33.625,33.624v806.998
		c0,18.518,15.107,33.624,33.625,33.624h268.999c18.521,0,33.625-15.106,33.625-33.624V80.664
		C476.494,62.177,461.389,47.04,442.869,47.04z M241.119,147.913h134.5v336.249h-134.5V147.913z M308.37,857.516
		c-57.629,0-104.323-46.693-104.323-104.354c0-57.597,46.694-104.356,104.323-104.356c57.628,0,104.322,46.76,104.322,104.356
		C412.691,810.823,365.998,857.516,308.37,857.516z"/>
	<path fill="#333333" d="M904.062,847.599L801.509,74.458c-2.33-17.764-18.748-30.309-36.48-27.943L507.328,80.73
		c-17.766,2.331-30.309,18.75-27.978,36.384l102.548,773.237c2.334,17.667,18.719,30.277,36.484,27.912l257.732-34.151
		C893.849,881.75,906.392,865.398,904.062,847.599z M584.56,168.799l128.852-17.109l42.721,322.161l-128.885,17.142L584.56,168.799z
		 M739.156,840.112c-55.232,7.356-105.934-31.523-113.254-86.688c-7.291-55.232,31.523-105.997,86.721-113.287
		c55.199-7.356,105.898,31.523,113.221,86.755C833.164,782.057,794.322,832.757,739.156,840.112z"/>
</g>
</svg>
