<?xml version="1.0" encoding="utf-8"?>
<!-- Generator: Adobe Illustrator 17.0.0, SVG Export Plug-In . SVG Version: 6.00 Build 0)  -->
<!DOCTYPE svg PUBLIC "-//W3C//DTD SVG 1.1//EN" "http://www.w3.org/Graphics/SVG/1.1/DTD/svg11.dtd">
<svg version="1.1" id="图形" xmlns="http://www.w3.org/2000/svg" xmlns:xlink="http://www.w3.org/1999/xlink" x="0px" y="0px"
	 width="1000.637px" height="1000.678px" viewBox="15.167 -16.333 1000.637 1000.678"
	 enable-background="new 15.167 -16.333 1000.637 1000.678" xml:space="preserve">
<g>
	<path fill="#333333" d="M481.772,591.645c34.305,34.039,33.844,34.204,68.014,0l101.922-101.986
		c18.926-18.926,12.553-22.475-7.294-22.475h-61.639V366.247c0-18.532-15.114-33.646-33.646-33.646h-67.291
		c-18.532,0-33.646,15.114-33.646,33.646v100.937h-61.05c-21.685,0-26.021,3.55-7.426,22.475L481.772,591.645z"/>
	<path fill="#333333" d="M851.94,198.019H448.194c0-55.724-45.209-100.937-100.936-100.937H179.03
		c-55.724,0-100.937,45.213-100.937,100.937v100.936v33.646v437.392c0,55.727,45.213,100.936,100.937,100.936h672.91
		c55.727,0,100.936-45.209,100.936-100.936V298.956C952.876,243.232,907.667,198.019,851.94,198.019z M885.585,769.993
		c0,18.566-15.08,33.645-33.646,33.645H179.03c-18.566,0-33.646-15.08-33.646-33.645V298.956c0-18.566,15.08-33.646,33.646-33.646
		h672.91c18.566,0,33.646,15.08,33.646,33.646V769.993z"/>
	<path fill="#333333" d="M650.067,635.411c0,18.566-15.08,33.646-33.646,33.646H414.548c-18.566,0-33.645-15.08-33.645-33.646
		v-33.646h-67.291v33.646c0,55.727,45.213,100.937,100.936,100.937h201.873c55.727,0,100.936-45.209,100.936-100.937v-33.646
		h-67.291V635.411z"/>
</g>
</svg>
