<?xml version="1.0" encoding="utf-8"?>
<!-- Generator: Adobe Illustrator 16.0.0, SVG Export Plug-In . SVG Version: 6.00 Build 0)  -->
<!DOCTYPE svg PUBLIC "-//W3C//DTD SVG 1.1//EN" "http://www.w3.org/Graphics/SVG/1.1/DTD/svg11.dtd">
<svg version="1.1" id="图形" xmlns="http://www.w3.org/2000/svg" xmlns:xlink="http://www.w3.org/1999/xlink" x="0px" y="0px"
	 width="1000.637px" height="1000.678px" viewBox="15.167 -16.333 1000.637 1000.678"
	 enable-background="new 15.167 -16.333 1000.637 1000.678" xml:space="preserve">
<g>
	<polygon points="686.618,872.792 686.618,872.792 686.623,872.792 	"/>
	<polygon points="357.098,872.792 357.103,872.792 357.103,872.792 	"/>
	<path d="M772.306,614.379c0.019-0.005,0.039-0.01,0.056-0.013c-38.501-29.178-82.075-55.914-125.917-82.247
		c66.161-68.289,104.604-180.39,104.604-254.398c0-112.525-88.446-231.477-228.953-231.477c-0.078,0-0.157,0.003-0.235,0.003
		c-0.077,0-0.156-0.003-0.234-0.003c-140.508,0-228.955,118.952-228.955,231.477c0,74.008,38.443,186.11,104.604,254.398
		c-43.842,26.333-87.416,53.069-125.917,82.247c0.018,0.003,0.037,0.008,0.055,0.013
		c-75.572,56.859-131.274,122.854-131.274,215.418c0,93.375,69.427,91.518,69.427,91.518h106.008h412.571h106.008
		c0,0,69.428,1.857,69.428-91.518C903.581,737.234,847.88,671.24,772.306,614.379z M809.482,872.356l-122.808,0.536
		c-0.019-0.033-0.038-0.066-0.057-0.1l-89.977,0.483l-49.108-206.774L597.185,562.4c0,0-0.897,0.681-2.552,1.813l0.865-1.813
		c0,0-31.996,25.66-73.639,26.005c-36.525-0.304-65.624-20.074-72.224-24.932c-0.472-0.359-0.942-0.704-1.414-1.073l0.866,1.813
		c-1.655-1.133-2.552-1.813-2.552-1.813l49.653,104.102l-49.109,206.774l-89.977-0.483c-0.019,0.033-0.039,0.066-0.057,0.1
		l-122.809-0.536c0,0-48.331,6.3-48.331-69.165c0-116.502,164.308-178.352,291.601-273.533
		c-59.343-33.619-107.296-113.67-125.628-183.91c-4.436-19.741-6.723-38.843-6.723-56.265c0-91.338,67.278-193.077,176.705-193.486
		c109.428,0.409,176.705,102.148,176.705,193.486c0,17.417-2.285,36.515-6.722,56.25c-18.328,70.243-66.283,150.303-125.629,183.924
		c127.292,95.182,291.6,157.031,291.6,273.533C857.814,878.656,809.482,872.356,809.482,872.356z"/>
</g>
</svg>
