<?xml version="1.0" encoding="utf-8"?>
<!-- Generator: Adobe Illustrator 16.0.0, SVG Export Plug-In . SVG Version: 6.00 Build 0)  -->
<!DOCTYPE svg PUBLIC "-//W3C//DTD SVG 1.1//EN" "http://www.w3.org/Graphics/SVG/1.1/DTD/svg11.dtd">
<svg version="1.1" id="图形" xmlns="http://www.w3.org/2000/svg" xmlns:xlink="http://www.w3.org/1999/xlink" x="0px" y="0px"
	 width="1000.637px" height="1000.678px" viewBox="15.167 -16.333 1000.637 1000.678"
	 enable-background="new 15.167 -16.333 1000.637 1000.678" xml:space="preserve">
<g>
	<path fill="#333333" d="M822.491,46.217H145.376c-37.337,0-67.712,30.375-67.712,67.711v739.828
		c0,37.337,30.375,67.711,67.712,67.711h677.115c37.339,0,67.713-30.374,67.713-67.711V113.928
		C890.204,76.592,859.83,46.217,822.491,46.217z M145.376,853.756V113.928h677.115l0.016,739.828H145.376z"/>
	<rect x="246.944" y="283.207" fill="#333333" width="67.711" height="67.711"/>
	<rect x="382.367" y="283.207" fill="#333333" width="338.558" height="67.711"/>
	<rect x="382.367" y="452.487" fill="#333333" width="338.558" height="67.711"/>
	<rect x="382.367" y="621.766" fill="#333333" width="338.558" height="67.712"/>
	<rect x="246.944" y="452.487" fill="#333333" width="67.711" height="67.711"/>
	<rect x="246.944" y="621.766" fill="#333333" width="67.711" height="67.712"/>
</g>
</svg>
