<?xml version="1.0" encoding="utf-8"?>
<!-- Generator: Adobe Illustrator 17.0.0, SVG Export Plug-In . SVG Version: 6.00 Build 0)  -->
<!DOCTYPE svg PUBLIC "-//W3C//DTD SVG 1.1//EN" "http://www.w3.org/Graphics/SVG/1.1/DTD/svg11.dtd">
<svg version="1.1" id="图形" xmlns="http://www.w3.org/2000/svg" xmlns:xlink="http://www.w3.org/1999/xlink" x="0px" y="0px"
	 width="1000.637px" height="1000.678px" viewBox="15.167 -16.333 1000.637 1000.678"
	 enable-background="new 15.167 -16.333 1000.637 1000.678" xml:space="preserve">
<path fill-rule="evenodd" clip-rule="evenodd" fill="#272636" d="M748.683,604.057c0,0,81.525,269.159,42.146,308.539
	c-39.379,39.379-274.042-132.062-274.042-132.062S278.893,951.975,239.514,912.596c-39.379-39.38,45.417-308.539,45.417-308.539
	S42.616,400.66,81.995,361.279c39.379-39.379,291.503-42.764,291.503-42.764S479.022,46.242,516.788,46.242
	c37.763,0,143.289,272.273,143.289,272.273s248.892,3.385,288.273,42.764C987.73,400.66,748.683,604.057,748.683,604.057z
	 M623.466,400.66c-39.38-39.381-91.065-236.278-108.295-236.278c-17.228,0-68.914,196.897-108.293,236.278
	c0,0-206.744,0-206.744,19.689c0,19.69,157.519,98.451,157.519,157.516c0,59.072-59.069,216.592-39.379,236.279
	c19.689,19.691,139.06-118.137,196.897-118.137c57.841,0,177.208,137.828,196.9,118.137
	c19.688-19.688-39.381-177.207-39.381-236.279c0-59.065,157.518-137.826,157.518-157.516
	C830.208,400.66,623.466,400.66,623.466,400.66z"/>
</svg>
