<?xml version="1.0" encoding="utf-8"?>
<!-- Generator: Adobe Illustrator 16.0.0, SVG Export Plug-In . SVG Version: 6.00 Build 0)  -->
<!DOCTYPE svg PUBLIC "-//W3C//DTD SVG 1.1//EN" "http://www.w3.org/Graphics/SVG/1.1/DTD/svg11.dtd">
<svg version="1.1" id="图形" xmlns="http://www.w3.org/2000/svg" xmlns:xlink="http://www.w3.org/1999/xlink" x="0px" y="0px"
	 width="1000.637px" height="1000.678px" viewBox="15.167 -16.333 1000.637 1000.678"
	 enable-background="new 15.167 -16.333 1000.637 1000.678" xml:space="preserve">
<g>
	<path fill="#333333" d="M429.624,693.049L300.481,822.192c-16.133,16.103-24.119,60.793-2.397,82.416
		c21.654,21.688,61.285,16.037,81.099-3.745l129.143-129.145L429.624,693.049z"/>
	<path fill="#333333" d="M952.539,180.486V79.867c0-18.535-15.114-33.65-33.647-33.65H111.302c-18.535,0-33.65,15.116-33.65,33.65
		v100.947c0,0,0.032,0.035,0.032,0.067v370.078c0,37.066,30.167,67.299,67.301,67.299h320.36c18.566,0,33.649-15.05,33.649-33.65
		c0-18.599-15.083-33.648-33.649-33.648h-320.36V214.465h740.287v336.495H767.499c-18.598,0-33.649,15.05-33.649,33.648
		c0,18.601,15.052,33.65,33.649,33.65h117.773c37.101,0,67.301-30.232,67.301-67.299V180.814
		C952.573,180.683,952.539,180.584,952.539,180.486z"/>
	<path fill="#333333" d="M229.077,349.062h269.195c18.599,0,33.647-15.083,33.647-33.65c0-18.6-15.049-33.649-33.647-33.649H229.077
		c-18.567,0-33.65,15.05-33.65,33.649C195.426,333.979,210.51,349.062,229.077,349.062z"/>
	<path fill="#333333" d="M801.117,349.062c18.598,0,33.649-15.083,33.649-33.65c0-18.6-15.052-33.649-33.649-33.649h-134.6
		c-18.6,0-33.647,15.05-33.647,33.649c0,18.566,15.048,33.65,33.647,33.65H801.117z"/>
	<path fill="#333333" d="M229.077,450.01h269.195c18.599,0,33.647-15.083,33.647-33.648c0-18.599-15.049-33.65-33.647-33.65H229.077
		c-18.567,0-33.65,15.051-33.65,33.65C195.426,434.927,210.51,450.01,229.077,450.01z"/>
	<path fill="#333333" d="M536.85,663.804c3.284,3.285,7.59,4.928,11.896,4.928c4.303,0,8.608-1.643,11.896-4.928l235.545-235.547
		c6.575-6.573,6.575-17.22,0-23.792c-6.571-6.571-17.217-6.571-23.789,0L536.85,640.012
		C530.276,646.584,530.276,657.232,536.85,663.804z"/>
	<path fill="#333333" d="M564.356,733.733l-135.52,134.595c-10.581,10.518-10.616,27.539-0.133,38.055
		c5.259,5.324,12.159,7.953,19.091,7.953c6.869,0,13.704-2.563,18.962-7.822l135.518-134.598
		c10.548-10.448,10.613-27.471,0.133-38.055C591.958,723.281,574.872,723.281,564.356,733.733z"/>
</g>
</svg>
