<?xml version="1.0" encoding="utf-8"?>
<!-- Generator: Adobe Illustrator 17.0.0, SVG Export Plug-In . SVG Version: 6.00 Build 0)  -->
<!DOCTYPE svg PUBLIC "-//W3C//DTD SVG 1.1//EN" "http://www.w3.org/Graphics/SVG/1.1/DTD/svg11.dtd">
<svg version="1.1" id="图形" xmlns="http://www.w3.org/2000/svg" xmlns:xlink="http://www.w3.org/1999/xlink" x="0px" y="0px"
	 width="1000.637px" height="1000.678px" viewBox="15.167 -16.333 1000.637 1000.678"
	 enable-background="new 15.167 -16.333 1000.637 1000.678" xml:space="preserve">
<g>
	<path fill="#333333" d="M343.795,758.311c-146.885,0-265.968-65.545-266.634-146.554c-0.034,30.936-0.068,58.007-0.068,58.007
		c0,81.344,119.384,147.22,266.702,147.22s266.702-65.876,266.702-147.22v-58.673C610.498,692.435,491.114,758.311,343.795,758.311z
		"/>
	<path fill="#333333" d="M343.795,860.724c-146.885,0-265.968-65.545-266.634-146.554c-0.034,30.936-0.068,58.007-0.068,58.007
		c0,81.344,119.384,147.22,266.702,147.22s266.702-65.876,266.702-147.22v-58.673C610.498,794.849,491.114,860.724,343.795,860.724z
		"/>
	<path fill="#333333" d="M685.174,690.035c-8.569,0-17.035-0.27-25.402-0.703c-0.369,2.536-0.27,5.168-0.768,7.701
		c1.734,5.134,2.7,10.702,2.7,16.472v34.537c7.736,0.399,15.536,0.666,23.47,0.666c147.319,0,266.702-65.876,266.702-147.22v-58.673
		C951.876,624.159,832.493,690.035,685.174,690.035z"/>
	<path fill="#333333" d="M685.174,587.621c-8.569,0-17.035-0.27-25.402-0.703c-0.369,2.536-0.27,5.168-0.768,7.702
		c1.734,5.168,2.7,10.702,2.7,16.471v34.537c7.736,0.399,15.536,0.666,23.47,0.666c147.319,0,266.702-65.876,266.702-147.22v-58.673
		C951.876,521.746,832.493,587.621,685.174,587.621z"/>
	<path fill="#333333" d="M685.174,382.794c-146.885,0-265.968-65.545-266.634-146.554c-0.034,30.936-0.068,58.007-0.068,58.007
		c0,34.739,21.937,66.61,58.376,91.814c36.903,10.067,69.71,24.269,97.044,41.87c33.906,8.603,71.512,13.536,111.283,13.536
		c147.319,0,266.702-65.876,266.702-147.22v-58.673C951.876,316.918,832.493,382.794,685.174,382.794z"/>
	<path fill="#333333" d="M685.174,485.208c-17.936,0-35.439-1-52.374-2.868c13.536,18.701,22.671,39.071,26.57,60.806
		c8.504,0.468,17.103,0.734,25.805,0.734c147.319,0,266.702-65.876,266.702-147.22v-58.673
		C951.876,419.332,832.493,485.208,685.174,485.208z"/>
	<path fill="#333333" d="M685.174,339.053c147.319,0,266.702-65.876,266.702-147.22S832.493,44.614,685.174,44.614
		s-266.702,65.876-266.702,147.22S537.856,339.053,685.174,339.053z"/>
	<path fill="#333333" d="M343.795,420.131c-147.319,0-266.702,65.876-266.702,147.22s119.384,147.22,266.702,147.22
		s266.702-65.876,266.702-147.22S491.114,420.131,343.795,420.131z"/>
</g>
</svg>
