<?xml version="1.0" encoding="utf-8"?>
<!-- Generator: Adobe Illustrator 16.0.0, SVG Export Plug-In . SVG Version: 6.00 Build 0)  -->
<!DOCTYPE svg PUBLIC "-//W3C//DTD SVG 1.1//EN" "http://www.w3.org/Graphics/SVG/1.1/DTD/svg11.dtd">
<svg version="1.1" id="图形" xmlns="http://www.w3.org/2000/svg" xmlns:xlink="http://www.w3.org/1999/xlink" x="0px" y="0px"
	 width="1000.637px" height="1000.678px" viewBox="15.167 -16.333 1000.637 1000.678"
	 enable-background="new 15.167 -16.333 1000.637 1000.678" xml:space="preserve">
<path fill="#333333" d="M883.745,524.953c-0.812-1.589-8.155-16.467-11.651-40.562c-4.897-33.759-0.338-68.948,13.551-104.588
	c0.01-0.023,0.016-0.046,0.025-0.069c0.066-0.173,0.124-0.347,0.188-0.52c0.213-0.578,0.409-1.159,0.588-1.741
	c0.059-0.189,0.118-0.378,0.174-0.569c0.217-0.747,0.409-1.495,0.572-2.246c0.01-0.046,0.018-0.093,0.027-0.139
	c0.168-0.793,0.304-1.586,0.414-2.381c0.005-0.037,0.011-0.073,0.017-0.109c0.344-2.558,0.388-5.115,0.149-7.628
	c-0.004-0.05-0.01-0.101-0.015-0.151c-0.159-1.609-0.434-3.198-0.818-4.757c-0.04-0.162-0.079-0.323-0.121-0.485
	c-0.189-0.718-0.396-1.43-0.632-2.133c-0.053-0.158-0.111-0.313-0.166-0.47c-0.207-0.593-0.433-1.18-0.672-1.76
	c-0.072-0.174-0.141-0.351-0.216-0.524c-0.291-0.671-0.606-1.33-0.94-1.98c-0.088-0.172-0.18-0.342-0.271-0.513
	c-0.368-0.687-0.753-1.364-1.165-2.025c-0.006-0.008-0.01-0.015-0.014-0.022c-0.718-1.956-4.026-13.111,3.507-36.15
	c5.794-17.72-3.873-36.782-21.593-42.576c-17.714-5.793-36.78,3.873-42.576,21.593c-9.794,29.952-9.366,52.701-6.041,68.544
	L558.11,679.571L170.144,560.591c-1.573-0.482-3.178-0.85-4.803-1.098c-0.969-0.289-4.564-1.628-8.375-6.349
	c-7.514-9.309-11.652-26.414-11.652-48.167c0-17.325,4.102-29.604,12.193-36.499c6.517-5.554,16.376-8.305,27.81-7.929
	l354.719,106.996c2.637,0.725,5.309,1.021,7.944,1.021c9.033,0,17.835-4.022,23.67-11.177L881.026,191.96
	c6.756-8.241,8.735-19.433,5.208-29.471c-3.461-10.086-12.032-17.587-22.384-19.811L441.208,46.881
	c-10.911-2.257-22.285,1.452-29.636,9.957L109.745,392.782c-6.923,7.862-32.083,43.432-32.083,97.295c0,0,0.005,9.241,0.14,14.9
	c0,35.665,7.705,64.416,22.937,85.758c-11.66,17.136-22.937,41.756-22.937,72.902c0,49.966,17.88,80.557,32.879,97.417
	c17.201,19.339,35.209,26.178,38.646,27.354c0.212,0.072,0.425,0.143,0.639,0.211l409.754,131.035
	c3.383,1.083,6.848,1.606,10.277,1.606c9.933,0,19.571-4.392,26.097-12.341l284.19-346.23
	C889.212,551.812,890.783,537.119,883.745,524.953z M377.091,199.08l23.24-27.642c6.428-7.599,21.46-11.373,33.393-8.537
	l216.679,52.727c11.899,2.867,16.417,11.505,10.055,19.103l-23.274,27.543c-6.46,7.63-21.459,11.405-33.394,8.602l-216.678-52.793
	C375.179,215.218,370.663,206.646,377.091,199.08z M170.529,724.316c-0.073-0.023-0.103-0.034-0.101-0.034
	c0.011,0,0.942,0.255,0.835,0.27L170.529,724.316z M558.451,848.369L171.752,724.706c-4.234-1.979-26.438-14.574-26.438-61.068
	c0-15.442,6.27-27.922,12.223-36.298l402.568,123.458c3.263,1.001,6.594,1.484,9.893,1.484c10.014-0.001,19.721-4.465,26.239-12.516
	l207.78-256.612c2.193,21.823,6.889,39.595,11.262,52.32L558.451,848.369z"/>
</svg>
