<?xml version="1.0" encoding="utf-8"?>
<!-- Generator: Adobe Illustrator 16.0.0, SVG Export Plug-In . SVG Version: 6.00 Build 0)  -->
<!DOCTYPE svg PUBLIC "-//W3C//DTD SVG 1.1//EN" "http://www.w3.org/Graphics/SVG/1.1/DTD/svg11.dtd">
<svg version="1.1" id="图形" xmlns="http://www.w3.org/2000/svg" xmlns:xlink="http://www.w3.org/1999/xlink" x="0px" y="0px"
	 width="1000.637px" height="1000.678px" viewBox="15.167 -16.333 1000.637 1000.678"
	 enable-background="new 15.167 -16.333 1000.637 1000.678" xml:space="preserve">
<path fill-rule="evenodd" clip-rule="evenodd" d="M762.396,921.174H217.978c-42.96,0-77.78-35.633-77.78-79.554V125.727
	c0-43.964,34.82-79.553,77.78-79.553h544.418c42.98,0,77.801,35.589,77.801,79.553V841.62
	C840.197,885.541,805.376,921.174,762.396,921.174z M762.396,125.727H217.978V841.62h544.418V125.727z M412.417,284.791H295.758
	v-79.554h116.659V284.791z M412.417,443.855H295.758v-79.553h116.659V443.855z M684.636,602.962H295.758v-79.555h388.878V602.962z
	 M684.636,762.068H295.758v-79.553h388.878V762.068z M490.197,205.238h194.439v238.617H490.197V205.238z"/>
</svg>
