<?xml version="1.0" encoding="utf-8"?>
<!-- Generator: Adobe Illustrator 16.0.0, SVG Export Plug-In . SVG Version: 6.00 Build 0)  -->
<!DOCTYPE svg PUBLIC "-//W3C//DTD SVG 1.1//EN" "http://www.w3.org/Graphics/SVG/1.1/DTD/svg11.dtd">
<svg version="1.1" id="图形" xmlns="http://www.w3.org/2000/svg" xmlns:xlink="http://www.w3.org/1999/xlink" x="0px" y="0px"
	 width="1000.637px" height="1000.678px" viewBox="15.167 -16.333 1000.637 1000.678"
	 enable-background="new 15.167 -16.333 1000.637 1000.678" xml:space="preserve">
<g>
	<path fill="#333333" d="M680.859,642.615c2.465-5.918,1.084-12.82-3.418-17.354L527.129,456.46c-6.18-6.195-16.304-6.195-22.467,0
		L353.07,625.261c-3.073,3.023-4.684,7.098-4.684,11.24c0,2.038,0.395,4.143,1.217,6.114c2.449,5.917,8.234,9.465,14.708,9.465
		h83.192c0,140.879-24.159,217.498-184.708,264.072c268.804,0,321.46-155.472,321.46-264.072h81.943
		C672.609,652.08,678.393,648.532,680.859,642.615"/>
	<path fill="#333333" d="M851.811,46.236H178.65c-55.73,0-100.975,45.195-100.975,100.975V685.74
		c0,55.746,45.245,100.975,100.975,100.975h168.29v-67.316H178.65c-18.539,0-33.659-15.12-33.659-33.658V281.843h740.477V685.74
		c0,18.538-15.118,33.658-33.657,33.658H649.863v67.316h201.948c55.747,0,100.975-45.229,100.975-100.975V147.211
		C952.786,91.431,907.558,46.236,851.811,46.236 M214.937,192.948c0,13.395-10.814,24.208-24.208,24.208H166.57
		c-13.395,0-24.208-10.814-24.208-24.208v-24.159c0-13.394,10.814-24.208,24.208-24.208h24.159
		c13.394,0,24.208,10.814,24.208,24.208V192.948z M315.911,192.948c0,13.395-10.814,24.208-24.208,24.208h-24.159
		c-13.395,0-24.208-10.814-24.208-24.208v-24.159c0-13.394,10.814-24.208,24.208-24.208h24.159
		c13.394,0,24.208,10.814,24.208,24.208V192.948z M885.468,214.526H346.94v-67.315h538.528V214.526z"/>
</g>
</svg>
