<?xml version="1.0" encoding="utf-8"?>
<!-- Generator: Adobe Illustrator 17.0.0, SVG Export Plug-In . SVG Version: 6.00 Build 0)  -->
<!DOCTYPE svg PUBLIC "-//W3C//DTD SVG 1.1//EN" "http://www.w3.org/Graphics/SVG/1.1/DTD/svg11.dtd">
<svg version="1.1" id="图形" xmlns="http://www.w3.org/2000/svg" xmlns:xlink="http://www.w3.org/1999/xlink" x="0px" y="0px"
	 width="1000.637px" height="1000.678px" viewBox="15.167 -16.333 1000.637 1000.678"
	 enable-background="new 15.167 -16.333 1000.637 1000.678" xml:space="preserve">
<g>
	<path fill="#333333" d="M851.94,198.019H448.194c0-55.724-45.209-100.937-100.936-100.937H179.03
		c-55.724,0-100.937,45.213-100.937,100.937v100.936v33.646v437.392c0,55.727,45.213,100.936,100.937,100.936h672.91
		c55.727,0,100.936-45.209,100.936-100.936V298.956C952.876,243.232,907.667,198.019,851.94,198.019z M885.585,769.993
		c0,18.566-15.08,33.645-33.646,33.645H179.03c-18.566,0-33.646-15.08-33.646-33.645V298.956c0-18.566,15.08-33.646,33.646-33.646
		h672.91c18.566,0,33.646,15.08,33.646,33.646V769.993z"/>
	<path fill="#333333" d="M629.656,416.545c-3.883-3.601-7.924-7.17-11.868-10.835c-4.008-3.662-7.86-7.359-11.714-10.928
		c-27.43-25.865-49.947-51.826-67.045-51.826H428.3c-35.354,0-64.133,26.586-64.133,59.153v266.493
		c0,32.567,28.78,59.153,64.133,59.153h192.4c35.354,0,64.133-26.586,64.133-59.153V488.759
		C684.833,473.069,657.589,441.849,629.656,416.545z M652.831,666.659c0,16.283-14.436,29.53-32.131,29.53H428.3
		c-17.694,0-32.067-13.247-32.067-29.53V404.145c0-16.283,14.372-29.53,32.067-29.53l98.204-0.061
		c24.55,0,30.03,14.497,30.03,31.534v50.04c0,8.11,7.202,14.751,16.097,14.751H620.7c15.969,0,32.131,15.376,32.131,32.41V666.659z"
		/>
</g>
</svg>
