<?xml version="1.0" encoding="utf-8"?>
<!-- Generator: Adobe Illustrator 16.0.0, SVG Export Plug-In . SVG Version: 6.00 Build 0)  -->
<!DOCTYPE svg PUBLIC "-//W3C//DTD SVG 1.1//EN" "http://www.w3.org/Graphics/SVG/1.1/DTD/svg11.dtd">
<svg version="1.1" id="图形" xmlns="http://www.w3.org/2000/svg" xmlns:xlink="http://www.w3.org/1999/xlink" x="0px" y="0px"
	 width="1000.637px" height="1000.678px" viewBox="15.167 -16.333 1000.637 1000.678"
	 enable-background="new 15.167 -16.333 1000.637 1000.678" xml:space="preserve">
<g>
	<g>
		<path fill="#333333" d="M873.173,46.247H157.236c-43.965,0-79.557,35.635-79.557,79.557V841.74
			c0,43.924,35.592,79.558,79.557,79.558h715.938c43.963,0,79.557-35.634,79.557-79.558V125.804
			C952.73,81.882,917.136,46.247,873.173,46.247z M873.173,841.74H157.236V125.804h715.938V841.74z M239.742,547.35l58.665,11.749
			c2.947,8.503,6.411,16.708,10.256,24.697l-33.2,49.819c-10.17,15.167-8.119,35.422,4.785,48.325l36.831,36.787
			c7.392,7.436,17.178,11.238,27.09,11.238c7.349,0,14.697-2.137,21.193-6.452l49.819-33.2c7.99,3.889,16.237,7.307,24.695,10.256
			l11.752,58.664c3.546,17.945,19.268,30.807,37.554,30.807h52.043c18.285,0,34.011-12.861,37.558-30.807l11.749-58.664
			c8.504-2.949,16.705-6.409,24.699-10.256l49.816,33.2c6.495,4.315,13.847,6.452,21.195,6.452c9.911,0,19.698-3.803,27.089-11.238
			l36.828-36.787c12.904-12.903,14.956-33.158,4.786-48.325l-33.199-49.819c3.887-7.989,7.307-16.237,10.255-24.697l58.665-11.749
			c17.945-3.589,30.805-19.313,30.805-37.558v-52.041c0-18.244-12.859-33.968-30.805-37.558L732,408.444
			c-2.948-8.503-6.409-16.707-10.255-24.697l33.199-49.82c10.17-15.167,8.118-35.419-4.786-48.28l-36.828-36.832
			c-7.391-7.434-17.178-11.237-27.089-11.237c-7.349,0-14.7,2.137-21.195,6.452l-49.816,33.199
			c-7.994-3.888-16.238-7.306-24.699-10.253l-11.749-58.666c-3.547-17.945-19.272-30.807-37.558-30.807h-52.043
			c-18.287,0-34.008,12.862-37.554,30.807l-11.752,58.666c-8.458,2.948-16.705,6.408-24.695,10.253l-49.819-33.199
			c-6.497-4.315-13.844-6.452-21.193-6.452c-9.912,0-19.698,3.803-27.09,11.237l-36.831,36.832
			c-12.904,12.861-14.955,33.113-4.785,48.28l33.2,49.82c-3.89,7.99-7.309,16.237-10.256,24.697l-58.665,11.75
			c-17.946,3.59-30.807,19.313-30.807,37.558v52.041C208.935,528.036,221.796,543.761,239.742,547.35z M305.927,446.001
			c13.287-2.649,24.182-12.178,28.625-24.953c2.479-7.093,5.342-13.929,8.59-20.594c5.895-12.22,4.912-26.619-2.651-37.942
			l-33.198-49.819l36.831-36.83l49.822,33.24c6.407,4.231,13.799,6.41,21.234,6.41c5.726,0,11.408-1.281,16.665-3.802
			c6.664-3.205,13.501-6.11,20.593-8.587c12.818-4.443,22.303-15.339,24.952-28.627l11.792-58.708h52.043l11.749,58.708
			c2.649,13.288,12.18,24.184,24.955,28.627c7.048,2.478,13.928,5.34,20.593,8.545c5.256,2.563,10.981,3.844,16.709,3.844
			c7.431,0,14.824-2.179,21.188-6.41l49.862-33.24l36.831,36.83l-33.198,49.819c-7.52,11.323-8.543,25.722-2.647,37.942
			c3.247,6.623,6.109,13.501,8.588,20.553c4.443,12.816,15.339,22.303,28.628,24.952l58.662,11.792l0.045,52.041l-58.707,11.75
			c-13.289,2.649-24.185,12.178-28.628,24.953c-2.479,7.093-5.341,13.929-8.588,20.594c-5.896,12.221-4.915,26.62,2.647,37.941
			l33.198,49.82l-36.831,36.831l-49.862-33.241c-6.364-4.23-13.758-6.409-21.188-6.409c-5.728,0-11.41,1.28-16.666,3.803
			c-6.667,3.204-13.502,6.108-20.595,8.589c-12.816,4.443-22.306,15.338-24.953,28.626l-11.792,58.707h-52.043l-11.749-58.707
			c-2.691-13.288-12.176-24.183-24.951-28.626c-7.051-2.48-13.929-5.342-20.597-8.546c-5.297-2.565-10.979-3.846-16.705-3.846
			c-7.436,0-14.827,2.179-21.234,6.409l-49.822,33.241l-36.831-36.831l33.198-49.82c7.522-11.321,8.546-25.721,2.651-37.941
			c-3.248-6.622-6.11-13.458-8.59-20.55c-4.444-12.819-15.339-22.306-28.625-24.955l-58.665-11.792l-0.042-52.041L305.927,446.001z
			 M515.203,617.764c73.963,0,133.993-59.988,133.993-133.991c0-74.005-60.03-133.992-133.993-133.992
			c-73.959,0-133.991,59.987-133.991,133.992C381.211,557.776,441.244,617.764,515.203,617.764z M515.203,366.528
			c64.734,0,117.244,52.513,117.244,117.245c0,64.731-52.51,117.243-117.244,117.243c-64.73,0-117.24-52.512-117.24-117.243
			C397.962,419.041,450.473,366.528,515.203,366.528z M515.203,560.339c42.3,0,76.569-34.267,76.569-76.566
			c0-42.3-34.27-76.568-76.569-76.568c-42.299,0-76.565,34.268-76.565,76.568C438.637,526.073,472.903,560.339,515.203,560.339z
			 M515.203,426.346c31.703,0,57.426,25.721,57.426,57.426c0,31.703-25.723,57.424-57.426,57.424
			c-31.701,0-57.425-25.721-57.425-57.424C457.778,452.067,483.501,426.346,515.203,426.346z"/>
	</g>
</g>
</svg>
