<?xml version="1.0" encoding="utf-8"?>
<!-- Generator: Adobe Illustrator 16.0.0, SVG Export Plug-In . SVG Version: 6.00 Build 0)  -->
<!DOCTYPE svg PUBLIC "-//W3C//DTD SVG 1.1//EN" "http://www.w3.org/Graphics/SVG/1.1/DTD/svg11.dtd">
<svg version="1.1" id="图形" xmlns="http://www.w3.org/2000/svg" xmlns:xlink="http://www.w3.org/1999/xlink" x="0px" y="0px"
	 width="1000.637px" height="1000.678px" viewBox="15.167 -16.333 1000.637 1000.678"
	 enable-background="new 15.167 -16.333 1000.637 1000.678" xml:space="preserve">
<g>
	<path fill="#333333" d="M517.55,58.754l-21.17-7.66l-19.399,7.66l-399.2,157.63v452.288l505.043,248.246l370.365-248.246V231.869
		v-15.485L517.55,58.754z M582.824,835.804l-5.194,3.481l-0.382-0.188L145.12,626.748V274.931v-0.104L582.824,445.5V835.804z
		 M602.958,417.213l-0.333-0.13L175.041,250.358l120.176-47.443l0.163-0.064l411.172,159.541L602.958,417.213z M885.849,267.505
		l-100.544,53.209l-0.334-0.13L387.632,166.431l109.609-43.271l0.19-0.075l388.417,140.531V267.505z"/>
	<polygon fill="#333333" points="414.055,642.274 447.719,655.062 447.719,551.856 480.593,562.717 430.789,464.012 
		380.096,529.515 414.055,540.735 	"/>
	<polygon fill="#333333" points="279.434,584.414 313.098,597.236 313.098,503.238 346.893,514.392 296.168,417.478 
		246.345,481.206 279.434,492.127 	"/>
	<polygon fill="#333333" points="481.383,709.173 245.739,597.959 245.739,639.579 481.383,750.793 	"/>
</g>
</svg>
