<?xml version="1.0" encoding="utf-8"?>
<!-- Generator: Adobe Illustrator 16.0.0, SVG Export Plug-In . SVG Version: 6.00 Build 0)  -->
<!DOCTYPE svg PUBLIC "-//W3C//DTD SVG 1.1//EN" "http://www.w3.org/Graphics/SVG/1.1/DTD/svg11.dtd">
<svg version="1.1" id="图形" xmlns="http://www.w3.org/2000/svg" xmlns:xlink="http://www.w3.org/1999/xlink" x="0px" y="0px"
	 width="1000.637px" height="1000.678px" viewBox="15.167 -16.333 1000.637 1000.678"
	 enable-background="new 15.167 -16.333 1000.637 1000.678" xml:space="preserve">
<g>
	<path fill="#272636" d="M937.793,830.469l-89.945-89.94c23.707-36.985,37.862-80.705,37.862-127.891
		c0-131.338-106.472-237.814-237.817-237.814c-131.342,0-237.813,106.476-237.813,237.814
		c0,131.346,106.471,237.812,237.813,237.812c47.193,0,90.903-14.151,127.887-37.853l89.94,89.94
		c19.899,19.903,52.17,19.903,72.073,0C957.693,882.638,957.693,850.373,937.793,830.469 M647.893,782.507
		c-93.814,0-169.867-76.054-169.867-169.869c0-93.813,76.052-169.863,169.867-169.863c93.817,0,169.871,76.05,169.871,169.863
		C817.764,706.453,741.71,782.507,647.893,782.507 M189.192,153.026l274.214-0.671l1.918,167.585h273.685L516.875,46.254H77.512
		v875.042h276.137V810.841H189.192V153.026z"/>
</g>
</svg>
