<?xml version="1.0" encoding="utf-8"?>
<!-- Generator: Adobe Illustrator 16.0.0, SVG Export Plug-In . SVG Version: 6.00 Build 0)  -->
<!DOCTYPE svg PUBLIC "-//W3C//DTD SVG 1.1//EN" "http://www.w3.org/Graphics/SVG/1.1/DTD/svg11.dtd">
<svg version="1.1" id="图形" xmlns="http://www.w3.org/2000/svg" xmlns:xlink="http://www.w3.org/1999/xlink" x="0px" y="0px"
	 width="1000.637px" height="1000.678px" viewBox="15.167 -16.333 1000.637 1000.678"
	 enable-background="new 15.167 -16.333 1000.637 1000.678" xml:space="preserve">
<g>
	<path fill="#333333" d="M512.028,248.153c-130.123,0-235.594,105.471-235.594,235.593s105.471,235.593,235.594,235.593
		c130.122,0,235.592-105.471,235.592-235.593S642.15,248.153,512.028,248.153z M512.028,652.029
		c-92.784,0-168.28-75.498-168.28-168.282s75.496-168.281,168.28-168.281c92.783,0,168.281,75.497,168.281,168.281
		S604.811,652.029,512.028,652.029z"/>
	<path fill="#333333" d="M512.028,214.497c18.587,0,33.655-15.068,33.655-33.656V79.872c0-18.588-15.068-33.656-33.655-33.656
		c-18.587,0-33.656,15.068-33.656,33.656v100.969C478.372,199.429,493.44,214.497,512.028,214.497z"/>
	<path fill="#333333" d="M512.028,752.995c-18.587,0-33.656,15.069-33.656,33.656v100.97c0,18.587,15.069,33.656,33.656,33.656
		c18.587,0,33.655-15.069,33.655-33.656v-100.97C545.683,768.065,530.615,752.995,512.028,752.995z"/>
	<path fill="#333333" d="M915.903,450.09H814.932c-18.587,0-33.656,15.068-33.656,33.656c0,18.587,15.069,33.655,33.656,33.655
		h100.971c18.588,0,33.656-15.068,33.656-33.655C949.559,465.158,934.491,450.09,915.903,450.09z"/>
	<path fill="#333333" d="M242.778,483.746c0-18.588-15.068-33.656-33.656-33.656H108.153c-18.588,0-33.656,15.068-33.656,33.656
		c0,18.587,15.068,33.655,33.656,33.655h100.969C227.709,517.402,242.778,502.333,242.778,483.746z"/>
	<path fill="#333333" d="M145.456,310.955l87.427,50.484c5.302,3.062,11.087,4.516,16.798,4.516c11.63,0,22.944-6.037,29.178-16.833
		c9.295-16.097,3.781-36.681-12.316-45.976l-87.428-50.484c-16.097-9.295-36.68-3.781-45.976,12.316
		C123.844,281.077,129.358,301.661,145.456,310.955z"/>
	<path fill="#333333" d="M878.628,656.535l-87.461-50.485c-16.093-9.289-36.68-3.774-45.973,12.324
		c-9.292,16.099-3.774,36.682,12.323,45.975l87.459,50.483c5.3,3.06,11.085,4.513,16.794,4.513c11.632,0,22.947-6.037,29.181-16.836
		C900.244,686.411,894.727,665.828,878.628,656.535z"/>
	<path fill="#333333" d="M646.655,250.564c5.301,3.06,11.086,4.514,16.797,4.514c11.63,0,22.944-6.038,29.177-16.834l50.483-87.444
		c9.294-16.098,3.778-36.681-12.319-45.975c-16.096-9.293-36.681-3.778-45.975,12.32l-50.483,87.444
		C625.041,220.686,630.557,241.27,646.655,250.564z"/>
	<path fill="#333333" d="M377.4,716.913c-16.099-9.291-36.682-3.773-45.974,12.323l-50.483,87.459
		c-9.293,16.1-3.776,36.682,12.323,45.975c5.3,3.059,11.085,4.513,16.794,4.513c11.632,0,22.947-6.038,29.18-16.836l50.484-87.46
		C399.016,746.789,393.499,726.206,377.4,716.913z"/>
	<path fill="#333333" d="M278.863,618.378c-9.29-16.1-29.874-21.621-45.973-12.33l-87.427,50.451
		c-16.099,9.29-21.619,29.872-12.33,45.973c6.234,10.801,17.549,16.839,29.183,16.839c5.708,0,11.492-1.452,16.79-4.511
		l87.427-50.449C282.633,655.06,288.154,634.478,278.863,618.378z"/>
	<path fill="#333333" d="M745.195,349.119c6.234,10.799,17.546,16.836,29.18,16.836c5.711,0,11.495-1.455,16.793-4.514
		l87.461-50.484c16.099-9.292,21.615-29.875,12.323-45.974c-9.294-16.099-29.876-21.616-45.975-12.323l-87.459,50.483
		C741.42,312.437,735.903,333.02,745.195,349.119z"/>
	<path fill="#333333" d="M331.389,238.235c6.233,10.802,17.548,16.842,29.184,16.842c5.707,0,11.49-1.453,16.788-4.509
		c16.101-9.289,21.622-29.871,12.333-45.972l-50.451-87.444c-9.29-16.1-29.872-21.623-45.972-12.333
		c-16.1,9.289-21.622,29.871-12.333,45.972L331.389,238.235z"/>
	<path fill="#333333" d="M692.625,729.228c-9.295-16.095-29.881-21.607-45.977-12.309c-16.096,9.297-21.607,29.882-12.31,45.977
		l50.518,87.46c6.233,10.794,17.544,16.826,29.174,16.826c5.712,0,11.501-1.455,16.803-4.518
		c16.097-9.297,21.608-29.882,12.31-45.978L692.625,729.228z"/>
</g>
</svg>
