<?xml version="1.0" encoding="utf-8"?>
<!-- Generator: Adobe Illustrator 22.0.0, SVG Export Plug-In . SVG Version: 6.00 Build 0)  -->
<svg version="1.1" id="图层_1" xmlns="http://www.w3.org/2000/svg" xmlns:xlink="http://www.w3.org/1999/xlink" x="0px" y="0px"
	 viewBox="0 0 1024 1024" style="enable-background:new 0 0 1024 1024;" xml:space="preserve">
<style type="text/css">
	.st0{fill:#323333;}
</style>
<g>
	<g>
		<path class="st0" d="M64.7,959.6l111.4,0.1V847.6H64.7V959.6z M64.7,774.4h111.4V64.9L64.7,64.8V774.4z M250.2,65v709.4h709v73.1
			h-709v112.2l709.2,0.6V65.5L250.2,65z M282.2,620.6h-1.4l1.4-1.5V620.6z M282.2,552h-1.4l1.4-1.5V552z M810.1,554.3v107.5H660.7
			V546.1H548.6v115.7H399V553h1.6l204.2-202.3L809.1,553h1v1l0.3,0.3L810.1,554.3L810.1,554.3z M802.3,494.4l-201-212.2l-201,212.2
			h-65l266-280.8l266,280.8H802.3z"/>
	</g>
</g>
</svg>
