<?xml version="1.0" encoding="utf-8"?>
<!-- Generator: Adobe Illustrator 22.0.0, SVG Export Plug-In . SVG Version: 6.00 Build 0)  -->
<svg version="1.1" id="图层_1" xmlns="http://www.w3.org/2000/svg" xmlns:xlink="http://www.w3.org/1999/xlink" x="0px" y="0px"
	 viewBox="0 0 1024 1024" style="enable-background:new 0 0 1024 1024;" xml:space="preserve">
<style type="text/css">
	.st0{fill:#303333;}
</style>
<g>
	<g>
		<path class="st0" d="M512,64.2C265.5,64.2,65.6,264.6,65.6,512c0,247.3,199.8,447.8,446.4,447.8c246.5,0,446.4-200.5,446.4-447.8
			C958.4,264.6,758.5,64.2,512,64.2z M507.9,879.5c-202.3,0-366.3-164.5-366.3-367.4s164-367.4,366.3-367.4s366.3,164.5,366.3,367.4
			S710.2,879.5,507.9,879.5z M609.8,290l-85.7,185h-19.9l-85.7-185H288.6l85.7,185h-47.5v75.3h110.7V624H326.8v75.3h110.7v74.6
			h149.3v-74.6h112.6V624H586.7v-73.7h112.6V475h-49.6l85.7-185H609.8z"/>
	</g>
</g>
</svg>
