<?xml version="1.0" encoding="utf-8"?>
<!-- Generator: Adobe Illustrator 22.0.0, SVG Export Plug-In . SVG Version: 6.00 Build 0)  -->
<svg version="1.1" id="图层_1" xmlns="http://www.w3.org/2000/svg" xmlns:xlink="http://www.w3.org/1999/xlink" x="0px" y="0px"
	 viewBox="0 0 1024 1024" style="enable-background:new 0 0 1024 1024;" xml:space="preserve">
<style type="text/css">
	.st0{fill:#323333;}
</style>
<g>
	<g>
		<path class="st0" d="M855.5,362.2c0,0-74.7,0-258.7,0C513,362.2,546,476.9,482,476.9H115.1l32.4-240.3h-16.6
			c-37.5,0-67.9,30.3-67.9,67.6v552c0,37.3,30.4,67.6,67.9,67.6h724.6c37.5,0,67.9-30.3,67.9-67.6V429.8
			C923.3,392.4,892.9,362.2,855.5,362.2z M622.5,811.5v-74.6H437.1v-113h185.4v-73.6l175.7,130.6L622.5,811.5z M213.8,100.2
			l-54.3,337.3c0,0,55.9-2,288.7-2c64,0,31-112.3,114.9-112.3c184.3,0,306.4,0,306.4,0c37.5,0,58.9-12.3,58.9,25L961,194.5
			L213.8,100.2z"/>
	</g>
</g>
</svg>
