<?xml version="1.0" encoding="utf-8"?>
<!-- Generator: Adobe Illustrator 22.0.0, SVG Export Plug-In . SVG Version: 6.00 Build 0)  -->
<svg version="1.1" id="图层_1" xmlns="http://www.w3.org/2000/svg" xmlns:xlink="http://www.w3.org/1999/xlink" x="0px" y="0px"
	 viewBox="0 0 1024 1024" style="enable-background:new 0 0 1024 1024;" xml:space="preserve">
<style type="text/css">
	.st0{fill:#2F3333;}
</style>
<path class="st0" d="M722,336.7c-37.9-43.8-110.6-112.5-210-132.2c-159.6-32.1-244,0-444.9,136.7c0,0,113.2-273.5,444.9-273.5
	c172.7,0,269.6,68,342.2,136.7l102.7-103.4v376.2H580.7L722,336.7z M302,687.3c37.9,43.8,110.6,112.5,210,132.2
	c159.6,32.1,244,0,444.9-136.7c0,0-113.2,273.5-444.9,273.5c-172.7,0-269.6-68-342.2-136.7L67.1,922.9V546.7h376.2
	C443.3,546.7,302,687.3,302,687.3z"/>
</svg>
