<?xml version="1.0" encoding="utf-8"?>
<!-- Generator: Adobe Illustrator 22.0.0, SVG Export Plug-In . SVG Version: 6.00 Build 0)  -->
<svg version="1.1" id="图层_1" xmlns="http://www.w3.org/2000/svg" xmlns:xlink="http://www.w3.org/1999/xlink" x="0px" y="0px"
	 viewBox="0 0 1024 1024" style="enable-background:new 0 0 1024 1024;" xml:space="preserve">
<style type="text/css">
	.st0{fill:#2F3333;}
</style>
<g>
	<g>
		<path class="st0" d="M138.8,505.6l11.1,33.7l256.1-81.7l-119.6-60.4c50.1-89.1,146.4-149.4,256.9-149.4
			c162.2,0,293.6,129.7,293.6,289.8c0,160-131.5,289.8-293.6,289.8C424.6,827.5,322.4,758,276.1,658l-115.8,49.6
			c65.4,142.7,210.9,241.9,379.8,241.9c230.1,0,416.7-184.1,416.7-411.2S770.3,127.1,540.2,127.1c-157.6,0-294.8,86.3-365.5,213.7
			L67.1,286.6l61.4,187.5 M445.9,316.8v317H509v-0.1h189.9v-62.8H508.9V316.8H445.9z"/>
	</g>
</g>
</svg>
