<?xml version="1.0" encoding="utf-8"?>
<!-- Generator: Adobe Illustrator 22.0.0, SVG Export Plug-In . SVG Version: 6.00 Build 0)  -->
<svg version="1.1" id="图层_1" xmlns="http://www.w3.org/2000/svg" xmlns:xlink="http://www.w3.org/1999/xlink" x="0px" y="0px"
	 viewBox="0 0 1024 1024" style="enable-background:new 0 0 1024 1024;" xml:space="preserve">
<style type="text/css">
	.st0{fill:#323333;}
</style>
<g>
	<g>
		<path class="st0" d="M891.8,252.2H736.1v112.1H285.5V251.2l-153.3,1c-37.3,0-67.5,29.5-67.5,65.9v538.1
			c0,36.4,30.2,65.9,67.5,65.9h759.5c37.3,0,67.5-29.5,67.5-65.9V318.1C959.3,281.7,929,252.2,891.8,252.2z M363.8,812.3
			c-104.8,0-189.8-84.6-189.8-189s85-189,189.8-189s189.8,84.6,189.8,189H363.8L363.8,812.3z M432.6,848.2l5.8-189h184
			C622.5,763.6,537.5,848.2,432.6,848.2z M847.5,772.1l-149.7,1.1v-36.3l149.7-1.1V772.1z M847.5,697.6l-149.7,1.1v-36.3l149.7-1.1
			V697.6z M847.5,623l-149.7,1.1v-36.3l149.7-1.1V623z M847.5,548.5l-149.7,1.1v-36.3l149.7-1.1V548.5z M697.6,213.3H661
			c0.2-2.2,0.3-4.4,0.3-6.6c0-57.9-66.1-104.8-147.5-104.8s-147.5,46.9-147.5,104.8c0,2.2,0.1,4.4,0.3,6.6h-41.3v112.3h372.3V213.3z
			 M515,269.1c-42.8,0-77.4-29.3-77.4-65.5s34.7-65.5,77.4-65.5c42.8,0,77.4,29.3,77.4,65.5S557.8,269.1,515,269.1z"/>
	</g>
</g>
</svg>
