<?xml version="1.0" encoding="utf-8"?>
<!-- Generator: Adobe Illustrator 22.0.0, SVG Export Plug-In . SVG Version: 6.00 Build 0)  -->
<svg version="1.1" id="图层_1" xmlns="http://www.w3.org/2000/svg" xmlns:xlink="http://www.w3.org/1999/xlink" x="0px" y="0px"
	 viewBox="0 0 1024 1024" style="enable-background:new 0 0 1024 1024;" xml:space="preserve">
<style type="text/css">
	.st0{fill:#323333;}
</style>
<g>
	<g>
		<path class="st0" d="M284.6,698.4c11.5,0,20.9-7.7,20.9-17.3c0-3.9-1.6-7.5-4.2-10.4c-4.3,0.4-8.6,0.6-13,0.6
			c-6.6,0-13.2-0.5-19.6-1.3c-3.1,3-4.9,6.9-4.9,11.1C263.7,690.7,273,698.4,284.6,698.4z M284.6,701.3c-10,0-18.1,8.4-18.1,18.7
			v57.7c0,10.3,8.1,18.7,18.1,18.7s18.1-8.4,18.1-18.7V720C302.7,709.7,294.6,701.3,284.6,701.3z M696.2,103h-35.5v111.2h35.5V103z
			 M324.4,103h-35.5v111.2h35.5V103z M510.3,103h-35.5v111.2h35.5V103z M890.7,177.9H734.4v73.4H623.3v-72.4h-72.9v72.4H437.3v-74.5
			l-74.1,1v73.4H251.3v-74.5l-118.2,1c-37.2,0-67.3,29.8-67.3,66.5v610.3c0,36.7,30.2,66.5,67.3,66.5h757.7
			c37.2,0,67.4-29.8,67.4-66.5V244.4C958.1,207.7,927.9,177.9,890.7,177.9z M400.1,753.6c0,51.8-49.3,93.7-110,93.7
			c-60.8,0-110-42-110-93.7c0-39.8,29.1-73.7,70.1-87.3c-63.7-17.4-110.7-77.4-110.7-148.8c0-85,66.6-153.9,148.8-153.9
			s148.8,68.9,148.8,153.9c0,70.7-46,130.2-108.8,148.3C370.2,678.9,400.1,713.3,400.1,753.6z M893.8,737.6
			c-93.7,0-284.8-0.1-383-0.1c-41.9,0-45.1-33.4-25.6-61.9c54-78.9,133.9-227.4,181-309.2c19-33.1,46.4-34.8,65.6-0.8
			c46.5,82.5,128.8,231.2,181.3,311.2C923.9,693.2,937.2,737.6,893.8,737.6z M700.3,656.5c-17.8,0-32.3,14.5-32.3,32.3
			s14.5,32.3,32.3,32.3s32.3-14.5,32.3-32.3S718.1,656.5,700.3,656.5z M358.1,522.2c-12.3,0-22.2,10.3-22.2,22.9
			c0,12.7,9.9,22.9,22.2,22.9s22.2-10.3,22.2-22.9C380.3,532.4,370.3,522.2,358.1,522.2z M250.1,666.2c6,1.6,12.2,2.9,18.5,3.8
			c3.8-3.8,9.6-6.2,16-6.2c6.8,0,12.8,2.7,16.7,6.9c9.3-0.8,18.3-2.5,27-5c-11.9-3.8-24.8-5.8-38.2-5.8
			C276,659.9,262.5,662.1,250.1,666.2z M218.9,522.2c-12.3,0-22.2,10.3-22.2,22.9c0,12.7,9.9,22.9,22.2,22.9s22.2-10.3,22.2-22.9
			C241,532.4,231.1,522.2,218.9,522.2z M700.8,420.3c-17.8,0-32.3,14.5-32.3,32.3V600c0,17.8,14.5,32.3,32.3,32.3
			s32.3-14.5,32.3-32.3V452.6C733.1,434.8,718.6,420.3,700.8,420.3z"/>
	</g>
</g>
</svg>
