<?xml version="1.0" encoding="utf-8"?>
<!-- Generator: Adobe Illustrator 22.0.0, SVG Export Plug-In . SVG Version: 6.00 Build 0)  -->
<svg version="1.1" id="图层_1" xmlns="http://www.w3.org/2000/svg" xmlns:xlink="http://www.w3.org/1999/xlink" x="0px" y="0px"
	 viewBox="0 0 1024 1024" style="enable-background:new 0 0 1024 1024;" xml:space="preserve">
<style type="text/css">
	.st0{fill:#323333;}
</style>
<g>
	<g>
		<path class="st0" d="M478.3,566.7c0,18.5,14.7,33.5,32.8,33.5s32.8-15,32.8-33.5s-14.7-33.5-32.8-33.5S478.3,548.2,478.3,566.7z
			 M698.8,773.4h149.4v-37.3H698.8V773.4z M495.3,362.6v74.7h31.4v-74.7H495.3z M495.3,317.7v0.5c5.5,0.9,11.2,1.4,17,1.4
			c4.9,0,9.7-0.4,14.4-1v-0.9H495.3z M511,169.2c-24.7,0-44.8,20.4-44.8,45.7c0,25.2,20,45.6,44.8,45.6c24.7,0,44.8-20.4,44.8-45.6
			C555.7,189.6,535.7,169.2,511,169.2z M408.8,214.1c0-58.3,46.3-105.6,103.5-105.6s103.5,47.3,103.5,105.6
			c0,53.3-38.8,97.4-89.2,104.6v44h358.8c41.2,0,74.7-33.4,74.7-74.7V138.6c0-41.2-33.4-74.7-74.7-74.7H138.7
			C97.4,63.9,64,97.3,64,138.6V288c0,41.2,33.4,74.7,74.7,74.7h356.6v-44.4C446.2,309.9,408.8,266.5,408.8,214.1z M495.3,451v-13.7
			H138.7c-41.2,0-74.7-31.9-74.7-74.7v522.8c0,41.2,33.4,74.7,74.7,74.7h746.8c41.2,0,74.7-33.4,74.7-74.7V362.6
			c0,49.8-33.4,74.7-74.7,74.7H526.7V451H495.3z M662,698.5h223v187.3H662V698.5z M588,566.1c0,42.8-34,77.4-75.9,77.4
			s-75.9-34.7-75.9-77.4c0-42.8,34-77.4,75.9-77.4S588,523.3,588,566.1z M698.8,848h149.4v-37.3H698.8V848z"/>
	</g>
</g>
</svg>
