<?xml version="1.0" encoding="utf-8"?>
<!-- Generator: Adobe Illustrator 22.0.0, SVG Export Plug-In . SVG Version: 6.00 Build 0)  -->
<svg version="1.1" id="图层_1" xmlns="http://www.w3.org/2000/svg" xmlns:xlink="http://www.w3.org/1999/xlink" x="0px" y="0px"
	 viewBox="0 0 1024 1024" style="enable-background:new 0 0 1024 1024;" xml:space="preserve">
<style type="text/css">
	.st0{fill:#303333;}
</style>
<g>
	<g>
		<path class="st0" d="M824.5,198.7c0,0-21.6-15.4-62.3-14.2c-27.9,0.9-59.4,24-67,54.3s12.2,69.7,12.2,69.7
			c56.9,52.4,92.5,127.3,92.5,210.4c0,158.4-129.2,286.9-288.7,286.9S222.5,677.4,222.5,519c0-85.6,37.7-162.5,97.6-215
			c0,0,48.4-47.9,15.4-95.9c-33.1-48-88.6-52.3-131.9-13.3C118.4,275.6,65.3,389.6,65.3,515.9c0,245.2,200,443.9,446.7,443.9
			s446.7-198.7,446.7-443.9C958.7,391.6,907.3,279.3,824.5,198.7z M514,586.6c40.5,0,73.3-37.6,73.3-84V148.2
			c0-46.4-32.8-84-73.3-84s-73.3,37.6-73.3,84v354.4C440.7,549,473.5,586.6,514,586.6z"/>
	</g>
</g>
</svg>
