<?xml version="1.0" encoding="utf-8"?>
<!-- Generator: Adobe Illustrator 22.0.0, SVG Export Plug-In . SVG Version: 6.00 Build 0)  -->
<svg version="1.1" id="图层_1" xmlns="http://www.w3.org/2000/svg" xmlns:xlink="http://www.w3.org/1999/xlink" x="0px" y="0px"
	 viewBox="0 0 1024 1024" style="enable-background:new 0 0 1024 1024;" xml:space="preserve">
<style type="text/css">
	.st0{fill:#323333;}
</style>
<g>
	<g>
		<path class="st0" d="M641.4,507.6c68.1,0,123.3-55.2,123.3-123.3S709.5,261,641.4,261S518,316.2,518,384.3
			S573.3,507.6,641.4,507.6z M642.8,485.8c-11.9,0-21.5-9.6-21.5-21.5s9.6-21.5,21.5-21.5s21.5,9.6,21.5,21.5
			C664.3,476.2,654.7,485.8,642.8,485.8z M696.7,328.3c10.3-5.9,23.4-2.4,29.3,7.9c5.9,10.3,2.4,23.4-7.9,29.3
			c-10.3,5.9-23.4,2.4-29.3-7.9C682.9,347.4,686.4,334.3,696.7,328.3z M688.5,410.9c5.9-10.3,19.1-13.8,29.3-7.9
			c10.3,5.9,13.8,19.1,7.9,29.3c-5.9,10.3-19.1,13.8-29.3,7.9C686.1,434.3,682.6,421.2,688.5,410.9z M642.8,287.8
			c11.9,0,21.5,9.6,21.5,21.5s-9.6,21.5-21.5,21.5s-21.5-9.6-21.5-21.5C621.3,297.5,630.9,287.8,642.8,287.8z M642.1,354.8
			c18.7,0,33.8,15.1,33.8,33.8c0,18.7-15.1,33.8-33.8,33.8s-33.8-15.1-33.8-33.8C608.3,370,623.4,354.8,642.1,354.8z M588.9,440.1
			c-10.3,5.9-23.4,2.4-29.3-7.9c-5.9-10.3-2.4-23.4,7.9-29.3c10.3-5.9,23.4-2.4,29.3,7.9S599.1,434.2,588.9,440.1z M559.3,336.3
			c5.9-10.3,19.1-13.8,29.3-7.9c10.3,5.9,13.8,19.1,7.9,29.3c-5.9,10.3-19.1,13.8-29.3,7.9C556.8,359.7,553.3,346.6,559.3,336.3z
			 M307.3,511.8c113,0,204.6-91.6,204.6-204.6s-91.6-204.6-204.6-204.6s-204.6,91.6-204.6,204.6
			C102.6,420.2,194.3,511.8,307.3,511.8z M309.7,466c-19.7,0-35.6-16-35.6-35.6s16-35.6,35.6-35.6s35.6,16,35.6,35.6
			S329.3,466,309.7,466z M399,214.3c17-9.8,38.8-4,48.7,13s4,38.8-13,48.7c-17,9.8-38.8,4-48.7-13C376.1,245.9,382,224.1,399,214.3z
			 M385.5,351.3c9.8-17,31.6-22.9,48.7-13c17,9.8,22.9,31.6,13,48.7c-9.8,17-31.6,22.9-48.7,13C381.5,390.2,375.7,368.4,385.5,351.3
			z M309.7,147.2c19.7,0,35.6,16,35.6,35.6c0,19.7-16,35.6-35.6,35.6s-35.6-16-35.6-35.6C274,163.1,290,147.2,309.7,147.2z
			 M308.4,258.3c31,0,56.1,25.1,56.1,56.1s-25.1,56.1-56.1,56.1s-56.1-25.1-56.1-56.1C252.3,283.4,277.5,258.3,308.4,258.3z
			 M220.2,399.8c-17,9.8-38.8,4-48.7-13c-9.8-17-4-38.8,13-48.7c17-9.8,38.8-4,48.7,13C243.1,368.2,237.2,390,220.2,399.8z
			 M171,227.5c9.8-17,31.6-22.9,48.7-13c17,9.8,22.9,31.6,13,48.7c-9.8,17-31.6,22.9-48.7,13C167,266.4,161.2,244.6,171,227.5z
			 M809.8,611.6v-139c0-10.3-4.3-19.6-11.1-26.2c-25.3,60.6-85.1,103.2-154.9,103.2c-63.9,0-119.5-35.8-147.8-88.4
			c-44.7,55-112.9,90.2-189.3,90.2c-87.4,0-164-46-207-115.1c-19.4,0.5-35,16.5-35,36.2v412.3c0,20.2,16.1,36.7,36,36.7h673.2
			c19.9,0,36-16.4,36-36.7v-63.6l149.4,68.5V514.8L809.8,611.6z M364.1,823.8L363,578l195.7,122L364.1,823.8z"/>
	</g>
</g>
</svg>
