<?xml version="1.0" encoding="utf-8"?>
<!-- Generator: Adobe Illustrator 22.0.0, SVG Export Plug-In . SVG Version: 6.00 Build 0)  -->
<svg version="1.1" id="图层_1" xmlns="http://www.w3.org/2000/svg" xmlns:xlink="http://www.w3.org/1999/xlink" x="0px" y="0px"
	 viewBox="0 0 1024 1024" style="enable-background:new 0 0 1024 1024;" xml:space="preserve">
<style type="text/css">
	.st0{fill:#2F3333;}
</style>
<g>
	<g>
		<path class="st0" d="M891.9,742.5c-46.5-31.2-209.3-78.1-209.3-78.1s15.5-54.7-38.8-93.7c0,0-46.5,70.3-131.8,70.3
			s-131.7-70.3-131.7-70.3c-54.3,39-38.8,93.7-38.8,93.7s-162.8,46.9-209.3,78.1c-46.4,31.3-69.7,218.8-69.7,218.8h899.1
			C961.5,961.3,938.4,773.8,891.9,742.5z M362.6,295.7l37.1,31.2c0,0,115.9-124.1,131.4-139.8c15.5-15.6,45.9-22.7,58.8,5.9
			c19.4,43,70.3,132.8,70.3,132.8v166.6c0,0,84.3-101.5,84.3-242.2c0-140.6-124-187.5-232.5-187.5v0.4
			c-108.4,0.2-232.5,46.7-232.5,187.3s83.1,242.2,83.1,242.2V295.7z"/>
	</g>
</g>
</svg>
