<?xml version="1.0" encoding="utf-8"?>
<!-- Generator: Adobe Illustrator 22.0.0, SVG Export Plug-In . SVG Version: 6.00 Build 0)  -->
<svg version="1.1" id="图层_1" xmlns="http://www.w3.org/2000/svg" xmlns:xlink="http://www.w3.org/1999/xlink" x="0px" y="0px"
	 viewBox="0 0 1024 1024" style="enable-background:new 0 0 1024 1024;" xml:space="preserve">
<style type="text/css">
	.st0{fill:#323333;}
</style>
<g>
	<g>
		<path class="st0" d="M398.1,420c-52.8,0-95.6,42.8-95.6,95.6s42.8,95.6,95.6,95.6s95.6-42.8,95.6-95.6S450.9,420,398.1,420z
			 M718.8,248.4L493.2,451.7l303.4-43.2L718.8,248.4z M702,378.6c-16.2,0-29.3-13.1-29.3-29.3S685.8,320,702,320
			s29.3,13.1,29.3,29.3S718.1,378.6,702,378.6z M901.7,177.6H122.3c-31.3,0-56.6,25.3-56.6,56.5v555.8c0,31.2,25.3,56.5,56.6,56.5
			h779.3c31.3,0,56.6-25.3,56.6-56.5V234.1C958.3,202.9,932.9,177.6,901.7,177.6z M139.7,213.2c20.6,0,37.3,16.7,37.3,37.3
			s-16.7,37.3-37.3,37.3s-37.3-16.7-37.3-37.3C102.4,229.9,119.1,213.2,139.7,213.2z M139.7,808.3c-20.6,0-37.3-16.7-37.3-37.3
			s16.7-37.3,37.3-37.3S177,750.4,177,771C176.9,791.7,160.3,808.3,139.7,808.3z M659.8,512.3c0,143.4-116.3,259.7-259.7,259.7
			S140.4,655.7,140.4,512.3s116.3-259.7,259.7-259.7c73.8,0,140.5,30.8,187.7,80.3l141.9-117.1L823,424.1l-170,28.8
			C657.4,472,659.8,491.9,659.8,512.3z M883.4,808.3c-20.6,0-37.3-16.7-37.3-37.3s16.7-37.3,37.3-37.3s37.3,16.7,37.3,37.3
			C920.7,791.7,904,808.3,883.4,808.3z M883.4,287.7c-20.6,0-37.3-16.7-37.3-37.3s16.7-37.3,37.3-37.3s37.3,16.7,37.3,37.3
			S904,287.7,883.4,287.7z"/>
	</g>
</g>
</svg>
