<?xml version="1.0" encoding="utf-8"?>
<!-- Generator: Adobe Illustrator 22.0.0, SVG Export Plug-In . SVG Version: 6.00 Build 0)  -->
<svg version="1.1" id="图层_1" xmlns="http://www.w3.org/2000/svg" xmlns:xlink="http://www.w3.org/1999/xlink" x="0px" y="0px"
	 viewBox="0 0 1024 1024" style="enable-background:new 0 0 1024 1024;" xml:space="preserve">
<style type="text/css">
	.st0{fill:#323333;}
</style>
<g>
	<g>
		<path class="st0" d="M883.8,682.4l23-13.3l-20.6-35.8l-23.4,13.5c-8-10.2-17.3-19.2-27.7-27l13.8-23.9l-35.8-20.7l-14,24.4
			c-11.7-4.6-24-7.8-36.9-9.3v-28.8h-41.4v29.6c-12.6,1.9-24.6,5.3-36,10.1l-15-26L634,595.9l15.3,26.6
			c-9.6,7.7-18.1,16.6-25.6,26.4l-27-15.6l-20.6,35.8l27.2,15.8c-4.4,11.2-7.5,23-9.2,35.3h-31.7v41.4h31.7
			c1.7,12.3,4.8,24.1,9.2,35.3l-27.2,15.8l20.6,35.8l27-15.6c7.5,9.8,16,18.7,25.6,26.4L634,885.9l35.8,20.7l15-26
			c11.3,4.8,23.4,8.1,36,10.1v29.6h41.3v-28.8c12.9-1.5,25.2-4.7,36.9-9.3l14,24.4l35.8-20.7L835,862c10.3-7.8,19.6-16.9,27.7-27
			l23.4,13.5l20.6-35.8l-23-13.3c5-11.9,8.3-24.6,10.1-37.8h26.5v-41.4h-26.5C892.1,706.9,888.7,694.3,883.8,682.4z M741.3,830.4
			c-49.4,0-89.4-40.1-89.4-89.7c0-49.5,40-89.7,89.4-89.7s89.4,40.1,89.4,89.7C830.8,790.2,790.7,830.4,741.3,830.4z M888.8,231.8
			c-15.6-39.5-55-78.7-96.4-96.4s-148.7-33.5-293.5-33.5c-137.4,0-231.8,21.7-271.2,33.5s-82.6,43.2-96.4,96.4
			c-13.7,53.1-29.5,155.5-29.5,303.2c0,133.8,11.8,214.1,29.5,261.3c17.7,47.3,70.8,88.5,96.4,96.4s137.7,29.5,277.1,29.5
			c36.9,0,70.2-1.1,100.3-2.8l4.9-8.6c-13.7-11-26-23.8-36.7-37.8l-38.5,22.5l-29.6-51.3l39-22.6c-4.5-11.4-8.1-23.3-10.6-35.6
			h-55.5v32.7c-83.8-2.9-143.3-12.6-176.8-21.3c-39.9-10.3-63.5-42.7-72.4-72.2c-8.2-27.1-22.6-89.2-24.8-179h33.8v-68.3h-33.5
			c2.7-86.1,13-149.2,24.5-175.8c13.3-31,41.3-64.9,72.4-72.2c27.1-6.5,89.8-20.8,176.8-24.3v32.8h68.3v-33.1
			c87.9,2.6,145.3,16.6,178.7,24.6c37,8.9,62,30.9,72.4,72.2c9,36,19.1,91.4,21.6,175.8h-33.8V528c13.5,2.5,26.5,6.3,39,11.2
			l20.1-34.9l51.2,29.6l-19.8,34.2c14.8,11.2,28.1,24.1,39.6,38.7l5.3-3.1c1-25.5,1.5-53.5,1.5-84.4
			C922.2,376.4,914.4,296.8,888.8,231.8z M478.3,273.3v204.2h-172v67.4h163.4c7.7,21.1,28.8,36.2,53.7,36.2
			c31.4,0,56.8-24,56.8-53.6c0-22.2-14.3-41.3-34.7-49.4V273.3H478.3z M741.5,705.8c-19,0-34.3,15.4-34.3,34.4s15.4,34.4,34.3,34.4
			c19,0,34.3-15.4,34.3-34.4S760.4,705.8,741.5,705.8z"/>
	</g>
</g>
</svg>
