<?xml version="1.0" encoding="utf-8"?>
<!-- Generator: Adobe Illustrator 22.0.0, SVG Export Plug-In . SVG Version: 6.00 Build 0)  -->
<svg version="1.1" id="图层_1" xmlns="http://www.w3.org/2000/svg" xmlns:xlink="http://www.w3.org/1999/xlink" x="0px" y="0px"
	 viewBox="0 0 1024 1024" style="enable-background:new 0 0 1024 1024;" xml:space="preserve">
<style type="text/css">
	.st0{fill:#323333;}
</style>
<g>
	<g>
		<path class="st0" d="M323.6,101.1H288v111.7h35.6V101.1z M697,101.1h-35.6v111.7H697V101.1z M510.4,101.1h-35.6v111.7h35.6V101.1z
			 M892.4,176.3h-157V250H623.8v-72.7h-73.2V250H437v-74.8l-74.4,1.1V250H250.2v-74.8l-118.7,1.1c-37.4,0-67.6,29.9-67.6,66.8v612.9
			c0,36.9,30.3,66.8,67.6,66.8h760.9c37.4,0,67.6-29.9,67.6-66.8V243C960,206.3,929.8,176.3,892.4,176.3z M313.1,287.9
			c28.4,0,51.4,23,51.4,51.4s-23,51.4-51.4,51.4s-51.4-23-51.4-51.4C261.6,310.9,284.6,287.9,313.1,287.9z M341.9,887.6
			c-112.3,0-203.3-91-203.3-203.3c0-73.7,39.2-138.2,97.9-173.9l10.5,60.7c-32.1,27.2-52.5,67.7-52.5,113c0,81.7,66.3,148,148,148
			s148-66.3,148-148c0-4.4-0.2-8.8-0.6-13.1l6.9,1.5l42,61.9C516.5,822.5,436.9,887.6,341.9,887.6z M643.5,786.5
			c-13.2,9.5-31.4,6.9-40.6-5.8L502.4,641.5H339.1c-3.3,1.1-6.8,1.9-10.4,2.4c-26.9,3.1-51.2-16.2-54.3-43.2L259,466
			c-3.1-26.9,16.2-51.2,43.2-54.3c26.9-3.1,51.2,16.2,54.3,43.2l4.8,41.8h100.6c12.5,0,22.6,10.1,22.6,22.6
			c0,12.5-10.1,22.6-22.6,22.6h-95.4l3.2,28H499c5.9-1.8,12.1-1.8,17.7,0h2v0.7c4.7,1.9,9,5.1,12.1,9.5l120.1,166
			C660,758.9,656.8,777,643.5,786.5z M885.4,623.3H661.6V585h223.8V623.3z M885.4,548.9H661.6v-38.2h223.8V548.9z M885.4,474.5
			H661.6v-38.2h223.8V474.5z M885.4,400.1H661.6v-38.2h223.8V400.1z"/>
	</g>
</g>
</svg>
