<?xml version="1.0" encoding="utf-8"?>
<!-- Generator: Adobe Illustrator 22.0.0, SVG Export Plug-In . SVG Version: 6.00 Build 0)  -->
<svg version="1.1" id="图层_1" xmlns="http://www.w3.org/2000/svg" xmlns:xlink="http://www.w3.org/1999/xlink" x="0px" y="0px"
	 viewBox="0 0 1024 1024" style="enable-background:new 0 0 1024 1024;" xml:space="preserve">
<style type="text/css">
	.st0{fill:#303333;}
</style>
<g>
	<g>
		<path class="st0" d="M959.5,563.5V460.2h-66.3c-4.5-32.9-12.9-64.6-25.3-94.3l57.5-33.2l-51.6-89.5L815.4,277
			c-20.1-25.4-43.4-47.9-69.2-67.4l34.4-59.6l-89.4-51.7l-35.1,60.9c-29.2-11.4-60.1-19.4-92.3-23.2V64.2H460.4V138
			c-31.4,4.8-61.7,13.1-90,25.2L333,98.4L243.4,150l38.3,66.4c-24,19.3-45.4,41.4-64.1,65.9l-67.5-39l-51.6,89.5l68.1,39.3
			c-11.1,27.9-18.8,57.4-23,88.1H64.4v103.3h79.2c4.2,30.7,11.9,60.2,23,88.1L98.5,691l51.6,89.5l67.5-39
			c18.7,24.5,40.1,46.7,64.1,65.9l-38.3,66.4l89.4,51.7l37.4-64.8c28.3,12.1,58.6,20.3,90,25.2v73.8h103.3V888
			c32.2-3.8,63.1-11.8,92.3-23.2l35.1,60.9l89.4-51.7l-34.4-59.6c25.8-19.5,49.1-42.1,69.2-67.4l58.5,33.8l51.7-89.7l-57.5-33.2
			c12.4-29.7,20.8-61.3,25.3-94.3H959.5z M511.6,735.5c-123.6,0-223.8-100.2-223.8-223.8s100.2-223.8,223.8-223.8
			s223.8,100.2,223.8,223.8S635.3,735.5,511.6,735.5z M511.9,424.5c-47.4,0-85.9,38.5-85.9,85.9s38.4,85.9,85.9,85.9
			c47.4,0,85.9-38.5,85.9-85.9S559.4,424.5,511.9,424.5z"/>
	</g>
</g>
</svg>
