<?xml version="1.0" encoding="utf-8"?>
<!-- Generator: Adobe Illustrator 22.0.0, SVG Export Plug-In . SVG Version: 6.00 Build 0)  -->
<svg version="1.1" id="图层_1" xmlns="http://www.w3.org/2000/svg" xmlns:xlink="http://www.w3.org/1999/xlink" x="0px" y="0px"
	 viewBox="0 0 1024 1024" style="enable-background:new 0 0 1024 1024;" xml:space="preserve">
<style type="text/css">
	.st0{fill:#323333;}
</style>
<g>
	<g>
		<path class="st0" d="M534.4,471.5c30.8-9.3,53.3-37.8,53.3-71.5c0-41.3-33.7-74.7-75.2-74.7s-75.2,33.4-75.2,74.7
			c0,35.2,24.5,64.6,57.4,72.6c9.1-0.9,18.5-1.4,28.4-1.4C526.9,471.1,530.7,471.3,534.4,471.5z M959.8,511.5l-146.1-150v77.7h-77
			v145.4h77v77L959.8,511.5z M584.5,736.7H439.1v77h-77.7l150,146.1l150-146.1h-77L584.5,736.7L584.5,736.7z M210.3,439.1v-77.7
			L64.2,511.5l146.1,150v-77h77V439.1H210.3z M439.1,287.4h145.4v-77h77l-150-146.1l-150,146.1h77.7v77H439.1z M534.4,471.5
			c-6.9,2.1-14.3,3.2-21.9,3.2c-6.1,0-12.1-0.7-17.8-2.1c-82,8.1-132.6,52-132.6,122.6c0,50.4,28.9,104.3,28.9,104.3h255.3
			c0,0,15.8-40.6,15.8-107.8C662.2,527,624.8,475.4,534.4,471.5z"/>
	</g>
</g>
</svg>
