<?xml version="1.0" encoding="utf-8"?>
<!-- Generator: Adobe Illustrator 22.0.0, SVG Export Plug-In . SVG Version: 6.00 Build 0)  -->
<svg version="1.1" id="图层_1" xmlns="http://www.w3.org/2000/svg" xmlns:xlink="http://www.w3.org/1999/xlink" x="0px" y="0px"
	 viewBox="0 0 1024 1024" style="enable-background:new 0 0 1024 1024;" xml:space="preserve">
<style type="text/css">
	.st0{fill:#323333;}
</style>
<g>
	<g>
		<path class="st0" d="M573.8,399.8H401.3l-0.3,0.4l-0.3-0.4H93.3c-15.7,0-28.4,16.7-28.4,37.4c0,20.6,12.7,37.4,28.4,37.4h387.3
			L573.8,399.8z M523.1,534.6c9.1,13.7,27.7,17.4,41.5,8.4l374.6-246.2c13.8-9.1,17.6-27.5,8.4-41.2c-9.1-13.7-27.7-17.4-41.5-8.4
			L531.5,493.5C517.7,502.5,514,521,523.1,534.6z M930.8,399.8h-81.6l-97.3,74.7h178.8c15.7,0,28.4-16.7,28.4-37.4
			C959.1,416.5,946.4,399.8,930.8,399.8z M852.6,512H723.2c0,0-140.2,76.2-149.4,79.1c-13.9,4.4-32.3,4.6-49.6,1.6
			c11.6,5.2,19.7,16.3,19.7,29.3v198.5c0,17.9-15.2,32.4-34,32.4c-18.8,0-34-14.5-34-32.4V622c0-17.9,15.2-32.4,34-32.4
			c0.4,0,0.8,0,1.2,0c-15.7-4.5-29-11.7-34.9-20.9c-17.7-27.7-6.3-56.8-6.3-56.8H167.2c-37.6,0-68.1,29-68.1,64.7l45.4,280.5
			c0,35.7,30.5,64.7,68.1,64.7h594.6c37.6,0,68.1-29,68.1-64.7l45.4-280.5C920.7,541,890.2,512,852.6,512z M249.4,852
			c-18.7,2-35.5-10.8-37.6-28.6l-25.4-218.7c-2.1-17.8,11.4-33.8,30.1-35.7c18.7-2,35.5,10.9,37.6,28.6l25.4,218.7
			C281.6,834.1,268.1,850.1,249.4,852z M407.7,820.5c0,17.9-15.2,32.4-34,32.4s-34-14.5-34-32.4v-220c0-17.9,15.2-32.4,34-32.4
			s34,14.5,34,32.4V820.5z M680.1,820.5c0,17.9-15.2,32.4-34,32.4c-18.8,0-34-14.5-34-32.4v-220c0-17.9,15.2-32.4,34-32.4
			c18.8,0,34,14.5,34,32.4V820.5z M828.8,604.8l-25.4,218.7c-2.1,17.8-18.9,30.6-37.6,28.6c-18.7-2-32.2-18-30.1-35.7l25.4-218.7
			c2.1-17.8,18.9-30.6,37.6-28.6C817.3,570.9,830.8,586.9,828.8,604.8z M511.1,589.8c4.2,1.2,8.7,2.2,13.1,3
			C520.2,590.9,515.8,589.9,511.1,589.8z M550.7,213.7h-76.1V102.2H326v111.4h-74.7l149.5,186.1h0.6L550.7,213.7z"/>
	</g>
</g>
</svg>
