<?xml version="1.0" encoding="utf-8"?>
<!-- Generator: Adobe Illustrator 22.0.0, SVG Export Plug-In . SVG Version: 6.00 Build 0)  -->
<svg version="1.1" id="图层_1" xmlns="http://www.w3.org/2000/svg" xmlns:xlink="http://www.w3.org/1999/xlink" x="0px" y="0px"
	 viewBox="0 0 1024 1024" style="enable-background:new 0 0 1024 1024;" xml:space="preserve">
<style type="text/css">
	.st0{fill:#323333;}
</style>
<g>
	<g>
		<path class="st0" d="M922.5,64.2l-821.3,0.4l0.3,895.2l821.3-0.4L922.5,64.2z M737.5,176.3l36.7,0.1l-0.1,36.3l-36.7-0.1
			L737.5,176.3z M737.3,251.2l36.7,0.1l-0.1,36.3l-36.7-0.1L737.3,251.2z M737.2,326.1l36.7,0.1l-0.1,36.3l-36.7-0.1L737.2,326.1z
			 M737,401l36.7,0.1l-0.1,36.3l-36.7-0.1L737,401z M662.8,176.3l36.7,0.1l-0.1,36.3l-36.7-0.1L662.8,176.3z M662.6,251.2l36.7,0.1
			l-0.1,36.3l-36.7-0.1L662.6,251.2z M662.4,326.1l36.7,0.1l-0.1,36.3l-36.7-0.1L662.4,326.1z M662.3,401l36.7,0.1l-0.1,36.3
			l-36.7-0.1L662.3,401z M588,176.3l36.7,0.1l-0.1,36.3l-36.7-0.1L588,176.3z M587.9,251.2l36.7,0.1l-0.1,36.3l-36.7-0.1
			L587.9,251.2z M587.7,326.1l36.7,0.1l-0.1,36.3l-36.7-0.1L587.7,326.1z M587.5,401l36.7,0.1l-0.1,36.3l-36.7-0.1L587.5,401z
			 M513.3,176.3l36.7,0.1l-0.1,36.3l-36.7-0.1L513.3,176.3z M513.2,251.2l36.7,0.1l-0.1,36.3l-36.7-0.1L513.2,251.2z M513,326.1
			l36.7,0.1l-0.1,36.3l-36.7-0.1L513,326.1z M512.8,401l36.7,0.1l-0.1,36.3l-36.7-0.1L512.8,401z M438.6,176.3l36.7,0.1l-0.1,36.3
			l-36.7-0.1L438.6,176.3z M438.4,251.2l36.7,0.1l-0.1,36.3l-36.7-0.1L438.4,251.2z M438.3,326.1l36.7,0.1l-0.1,36.3l-36.7-0.1
			L438.3,326.1z M438.1,401l36.7,0.1l-0.1,36.3l-36.7-0.1L438.1,401z M363.9,176.3l36.7,0.1l-0.1,36.3l-36.7-0.1L363.9,176.3z
			 M363.7,251.2l36.7,0.1l-0.1,36.3l-36.7-0.1L363.7,251.2z M363.5,326.1l36.7,0.1l-0.1,36.3l-36.7-0.1L363.5,326.1z M363.4,401
			l36.7,0.1l-0.1,36.3l-36.7-0.1L363.4,401z M363.2,475.9l36.7,0.1l-0.1,36.3l-36.7-0.1L363.2,475.9z M363,550.8l36.7,0.1l-0.1,36.3
			l-36.7-0.1L363,550.8z M289.2,176.3l36.7,0.1l-0.1,36.3l-36.7-0.1L289.2,176.3z M289,251.2l36.7,0.1l-0.1,36.3l-36.7-0.1
			L289,251.2z M288.8,326.1l36.7,0.1l-0.1,36.3l-36.7-0.1L288.8,326.1z M250.2,587.2l-36.7-0.1l0.1-36.3l36.7,0.1L250.2,587.2z
			 M250.4,512.3l-36.7-0.1l0.1-36.3l36.7,0.1L250.4,512.3z M250.5,437.4l-36.7-0.1l0.1-36.3l36.7,0.1L250.5,437.4z M250.7,362.5
			l-36.7-0.1l0.1-36.3l36.7,0.1L250.7,362.5z M250.9,287.6l-36.7-0.1l0.1-36.3l36.7,0.1L250.9,287.6z M251,212.7l-36.7-0.1l0.1-36.3
			l36.7,0.1L251,212.7z M324.9,587.2l-36.7-0.1l0.1-36.3l36.7,0.1L324.9,587.2z M325.1,512.3l-36.7-0.1l0.1-36.3l36.7,0.1
			L325.1,512.3z M325.3,437.4l-36.7-0.1l0.1-36.3l36.7,0.1L325.3,437.4z M535.3,886.5c-70-68.4-152.3-120.6-209.9-136.8l135.8-65.2
			l65.8,101c0,0,107-205.3,275.7-273.7c-4.1,48.9-20.6,91.2,8.2,143.4C736.9,668.2,584.7,814.8,535.3,886.5z"/>
	</g>
</g>
</svg>
