<?xml version="1.0" encoding="utf-8"?>
<!-- Generator: Adobe Illustrator 22.0.0, SVG Export Plug-In . SVG Version: 6.00 Build 0)  -->
<svg version="1.1" id="图层_1" xmlns="http://www.w3.org/2000/svg" xmlns:xlink="http://www.w3.org/1999/xlink" x="0px" y="0px"
	 viewBox="0 0 1024 1024" style="enable-background:new 0 0 1024 1024;" xml:space="preserve">
<style type="text/css">
	.st0{fill:#323333;}
</style>
<g>
	<g>
		<path class="st0" d="M750.8,482v42.3c19,2.3,37.3,7,54.5,13.7l20.8-36l52.9,30.6l-20.4,35.3c15.3,11.5,29,24.9,40.9,39.9l34.6-20
			l1.2,2l-0.9-390.5h-68.6l0.7,283.1L750.8,482z M735,407.3l94.4,1.4V114.1L617.7,291.6L735,407.3z M511.9,375.8L435,316.4
			l-98.6,94.7l350.8,0.1l-103-95.5L511.9,375.8z M788.7,92.5H231.6L512,344.3L788.7,92.5z M935.3,657.7l-4.7,2.7
			c1.7,4.1,3.3,8.4,4.8,12.6L935.3,657.7z M405.7,291.6L194,114.1c0,0,0,157.3,0,232.2c0,23.4,0,63.6,0,63.6l94.3,1.4L405.7,291.6z
			 M866.8,685.8l23.7-13.7l-21.3-37l-24.1,14c-8.3-10.5-17.9-19.8-28.6-27.9l14.2-24.7l-36.9-21.4l-14.5,25.2
			c-12.1-4.7-24.8-8-38.1-9.6V561h-42.6v30.5c-13,2-25.4,5.4-37.1,10.4l-15.4-26.8l-36.9,21.4l15.8,27.5c-9.9,8-18.7,17.1-26.4,27.3
			l-28-16.2l-21.3,37l28.1,16.3c-4.6,11.5-7.8,23.7-9.5,36.4h-32.7v42.8h32.7c1.7,12.7,4.9,24.9,9.5,36.4l-28.1,16.3l21.3,37
			l27.9-16.1c7.7,10.1,16.5,19.3,26.4,27.3L609.1,896l36.9,21.4l15.4-26.8c11.7,5,24.2,8.4,37.1,10.4v30.5h42.6v-29.7
			c13.3-1.6,26-4.9,38.1-9.6l14.5,25.2l36.9-21.4l-14.2-24.7c10.7-8.1,20.3-17.4,28.6-27.9l24.1,14l21.3-37l-23.7-13.7
			c5.1-12.3,8.6-25.4,10.4-39h27.5V725h-27.4C875.3,711.2,871.8,698.1,866.8,685.8z M719.8,838.7c-51,0-92.4-41.5-92.4-92.6
			s41.4-92.6,92.4-92.6s92.4,41.4,92.4,92.6C812.1,797.2,770.8,838.7,719.8,838.7z M506.5,587.8l39.9,23.1
			c11-14.5,23.7-27.6,37.9-39l-22.6-39.3l52.9-30.6l22.1,38.4c16.8-7.1,34.6-12,53.2-14.9v-43.7l-532.1-1.9V199.3H90.1l-1.5,484.4
			c0,24.4,20.2,44.2,45,44.2h322.2v-11.6h46.8c2.5-18.2,7.1-35.7,13.6-52.2L476,640.8L506.5,587.8z M719.8,710.1
			c-19.6,0-35.4,15.9-35.4,35.5s15.9,35.5,35.4,35.5c19.6,0,35.4-15.9,35.4-35.5C755.3,726,739.5,710.1,719.8,710.1z"/>
	</g>
</g>
</svg>
