<?xml version="1.0" encoding="utf-8"?>
<!-- Generator: Adobe Illustrator 22.0.0, SVG Export Plug-In . SVG Version: 6.00 Build 0)  -->
<svg version="1.1" id="图层_1" xmlns="http://www.w3.org/2000/svg" xmlns:xlink="http://www.w3.org/1999/xlink" x="0px" y="0px"
	 viewBox="0 0 1024 1024" style="enable-background:new 0 0 1024 1024;" xml:space="preserve">
<style type="text/css">
	.st0{fill:#323333;}
</style>
<g>
	<g>
		<path class="st0" d="M588.2,361.6v-74.5H437.7v524.7h150.5V444.6l134,389.8l127.9-39.5L690.2,330.1L588.2,361.6z M891.2,100.5
			H132.8c-38,0-68.9,30.7-68.9,68.6V855c0,37.9,30.9,68.6,68.9,68.6h758.3c38.1,0,68.9-30.7,68.9-68.6V169.1
			C960.1,131.2,929.2,100.5,891.2,100.5z M886.6,781.2c0,37.4-30.7,67.7-68.5,67.7h-611c-37.8,0-68.5-30.3-68.5-67.7V243.3
			c0-37.4,30.7-67.7,68.5-67.7h611c37.8,0,68.5,30.3,68.5,67.7V781.2z M251,811h149.7V213.2H251V811z"/>
	</g>
</g>
</svg>
