<?xml version="1.0" encoding="utf-8"?>
<!-- Generator: Adobe Illustrator 22.0.0, SVG Export Plug-In . SVG Version: 6.00 Build 0)  -->
<svg version="1.1" id="图层_1" xmlns="http://www.w3.org/2000/svg" xmlns:xlink="http://www.w3.org/1999/xlink" x="0px" y="0px"
	 viewBox="0 0 1024 1024" style="enable-background:new 0 0 1024 1024;" xml:space="preserve">
<style type="text/css">
	.st0{fill:#323333;}
</style>
<g>
	<g>
		<path class="st0" d="M923,177.8c0.3,0,0.6,0,0.9,0l0,0H923z M923.9,438.8v185c19.3-0.5,34.8-17,34.8-37.3V476.1
			C958.7,455.8,943.2,439.3,923.9,438.8z M923.9,362.9L923.9,362.9c-0.3,0-0.6,0-0.9,0H923.9z M923.9,177.8v185
			c19.3-0.5,34.8-17,34.8-37.3V215.1C958.7,194.8,943.2,178.3,923.9,177.8z M177,214.9H65.3v37.2H177L177,214.9L177,214.9z
			 M177,773.9H65.3v37.2H177L177,773.9L177,773.9z M177,363.9H65.3v37.2H177L177,363.9L177,363.9z M177,624.8H65.3V662H177
			L177,624.8L177,624.8z M923.9,885L923.9,885c-0.3,0-0.6,0-0.9,0H923.9z M923.9,699.9v185c19.3-0.5,34.8-17,34.8-37.3V737.3
			C958.7,716.9,943.2,700.4,923.9,699.9z M815.2,64.2H211c-38.5,0-70.8,32.8-70.8,73.2v39.1l75.2,0.5l-1,111h-74.2v38.3h74.3v111.5
			h-74.4v149.9h74.4V698h-74.2l1.1,38.3h73.1v111.5h-74.2l1.1,38.7c0,40.4,31.2,73.2,69.7,73.2h604.3c38.5,0,69.7-32.8,69.7-73.2
			v-749C884.9,97,853.7,64.2,815.2,64.2z M363.2,773.8h-38.5v-37.2h38.5V773.8z M437.7,773.8h-38.5v-37.2h38.5V773.8z M512.2,773.8
			h-38.5v-37.2h38.5V773.8z M586.8,773.8h-38.5v-37.2h38.5V773.8z M661.3,773.8h-38.5v-37.2h38.5V773.8z M735.8,773.8h-38.5v-37.2
			h38.5V773.8z M773.3,616.1c0,24.6-20,44.6-44.6,44.6H333.6c-24.7,0-44.6-19.9-44.6-44.6V221.8c0-24.6,20-44.6,44.6-44.6h395.1
			c24.7,0,44.6,19.9,44.6,44.6V616.1z M548.3,483.3c0,7.8-8,14.2-17.8,14.2s-17.8-6.4-17.8-14.2c0-3.5,1.6-6.7,4.2-9.1
			c-5.3-0.7-10.6-1.7-15.7-3.1c-34.8,11.2-59.5,39-59.5,71.6c0,42.4,41.8,76.8,93.5,76.8c51.6,0,93.5-34.4,93.5-76.8
			c0-33-25.4-61.2-61-72c-7.4,2.1-15.1,3.5-23,4.1C546.9,477.1,548.3,480.1,548.3,483.3z M545.9,562.5c0,8.5-6.9,15.4-15.4,15.4
			s-15.4-6.9-15.4-15.4v-47.3c0-8.5,6.9-15.4,15.4-15.4s15.4,6.9,15.4,15.4V562.5z M660.1,349.1c0-69.7-56.6-126.2-126.4-126.2
			s-126.4,56.5-126.4,126.2c0,58.5,39.9,107.7,94.1,122c10.5-3.4,22-5.2,33.9-5.2c11.4,0,22.4,1.7,32.5,4.8
			C621,455.8,660.1,407,660.1,349.1z M483.6,390.6c-15.2,0-27.6-12.3-27.6-27.5s12.3-27.5,27.6-27.5c15.2,0,27.5,12.3,27.5,27.5
			S498.8,390.6,483.6,390.6z M582,390.6c-15.2,0-27.6-12.3-27.6-27.5s12.3-27.5,27.6-27.5s27.6,12.3,27.6,27.5
			C609.5,378.3,597.2,390.6,582,390.6z M923,699.9c0.3,0,0.6,0,0.9,0l0,0H923z M923.9,623.9L923.9,623.9c-0.3,0-0.6,0-0.9,0H923.9z
			 M544.7,474.8c-3.2-3.4-8.4-5.6-14.2-5.6c-5.5,0-10.3,2-13.6,5c5.5,0.7,11,1.1,16.7,1.1C537.4,475.3,541,475.1,544.7,474.8z
			 M923,438.8c0.3,0,0.6,0,0.9,0l0,0H923z"/>
	</g>
</g>
</svg>
