<?xml version="1.0" encoding="utf-8"?>
<!-- Generator: Adobe Illustrator 22.0.0, SVG Export Plug-In . SVG Version: 6.00 Build 0)  -->
<svg version="1.1" id="图层_1" xmlns="http://www.w3.org/2000/svg" xmlns:xlink="http://www.w3.org/1999/xlink" x="0px" y="0px"
	 viewBox="0 0 1024 1024" style="enable-background:new 0 0 1024 1024;" xml:space="preserve">
<style type="text/css">
	.st0{fill:none;}
	.st1{fill:#323333;}
</style>
<g>
	<path class="st0" d="M729.4,560.4v10.4c1.1,0,2-0.9,2-2.1v-6.2C731.4,561.4,730.5,560.4,729.4,560.4z M729.4,560.4L729.4,560.4
		L729.4,560.4L729.4,560.4z M729.4,575.5v10.4c1.1,0,2-0.9,2-2.1v-6.2C731.4,576.5,730.5,575.6,729.4,575.5z M729.4,570.8
		L729.4,570.8L729.4,570.8L729.4,570.8z M689.5,592.5h-6v2h6V592.5z M689.5,562.5h-6v2h6V562.5z M689.5,584.5h-6v2h6V584.5z
		 M689.5,570.5h-6v2h6V570.5z M708,579c0,0.4-0.4,0.8-1,0.8s-1-0.4-1-0.8c0-0.2,0.1-0.4,0.2-0.5c-0.3,0-0.6-0.1-0.9-0.2
		c-2,0.6-3.4,2.2-3.4,4c0,2.4,2.3,4.3,5.2,4.3s5.2-1.9,5.2-4.3c0-1.9-1.4-3.4-3.4-4c-0.4,0.1-0.8,0.2-1.3,0.2
		C707.9,578.7,708,578.8,708,579z M707.8,583.5c0,0.5-0.4,0.9-0.9,0.9s-0.9-0.4-0.9-0.9v-2.7c0-0.5,0.4-0.9,0.9-0.9s0.9,0.4,0.9,0.9
		V583.5z M729.4,590.1L729.4,590.1L729.4,590.1L729.4,590.1z M729.4,590.1v10.4c1.1,0,2-0.9,2-2.1v-6.2
		C731.4,591.1,730.5,590.2,729.4,590.1z M729.4,600.5L729.4,600.5L729.4,600.5L729.4,600.5z M714.2,571.5c0-3.9-3.2-7.1-7-7.1
		c-3.9,0-7,3.2-7,7.1c0,3.3,2.2,6.1,5.3,6.9c0.6-0.2,1.2-0.3,1.9-0.3c0.6,0,1.2,0.1,1.8,0.3C712,577.5,714.2,574.7,714.2,571.5z
		 M703.9,573.8c-0.6,0-1-0.5-1-1.1s0.5-1.1,1-1.1c0.6,0,1,0.5,1,1.1S704.4,573.8,703.9,573.8z M710.4,573.8c-0.6,0-1-0.5-1-1.1
		s0.5-1.1,1-1.1c0.6,0,1,0.5,1,1.1C711.5,573.3,711,573.8,710.4,573.8z M723.4,554.5h-31.9c-2.3,0-4.1,1.8-4.1,4.1v1.8h4.1l-0.1,6
		h-4.1v2.2h4v5.9h-3.9v6.1h3.9v7.9h-4.1l0.1,2.2h4v5.8h-4.1l0.1,2c0,2.3,2.2,4.1,4.4,4.1h31.6c2.3,0,4.1-1.8,4.1-4.1v-39.7
		C727.5,556.4,725.7,554.5,723.4,554.5z M699.6,596.5h-2.1v-2h2.1V596.5z M703.6,596.5h-2.1v-2h2.1V596.5z M707.5,596.5h-2.1v-2h2.1
		V596.5z M711.5,596.5h-2.1v-2h2.1V596.5z M715.5,596.5h-2.1v-2h2.1V596.5z M698.1,590.5c-1.4,0-2.6-1.2-2.6-2.6v-24.8
		c0-1.4,1.2-2.6,2.6-2.6h18.8c1.4,0,2.6,1.2,2.6,2.6v24.8c0,1.4-1.2,2.6-2.6,2.6H698.1z M719.5,596.5h-2.1v-2h2.1V596.5z
		 M729.4,585.9L729.4,585.9L729.4,585.9L729.4,585.9z M707.7,578.5c-0.2-0.2-0.4-0.3-0.8-0.3c-0.3,0-0.6,0.1-0.7,0.3
		c0.3,0,0.6,0.1,0.9,0.1C707.3,578.6,707.5,578.5,707.7,578.5z M729.4,575.5L729.4,575.5L729.4,575.5L729.4,575.5z"/>
</g>
<g>
	<g>
		<path class="st1" d="M512.1,139.6C265.4,139.6,65.4,275,65.4,442.1c0,142.9,146.5,262.7,343.3,294.2c-16,53.5-42.8,116.5-84.7,148
			c80.8,0.1,160.5-74.5,215.1-140.4c234.1-9.5,419.6-141,419.6-301.9C958.8,275,758.8,139.6,512.1,139.6z M288.8,513.6
			c-41.1,0-74.5-33.7-74.5-75.4c0-41.6,33.3-75.4,74.5-75.4c41.1,0,74.5,33.7,74.5,75.4S329.9,513.6,288.8,513.6z M512.2,513.6
			c-41.1,0-74.5-33.7-74.5-75.4c0-41.6,33.3-75.4,74.5-75.4c41.1,0,74.5,33.7,74.5,75.4S553.4,513.6,512.2,513.6z M735.7,513.6
			c-41.1,0-74.5-33.7-74.5-75.4c0-41.6,33.3-75.4,74.5-75.4c41.1,0,74.5,33.7,74.5,75.4C810.1,479.9,776.8,513.6,735.7,513.6z"/>
	</g>
</g>
</svg>
