<?xml version="1.0" encoding="utf-8"?>
<!-- Generator: Adobe Illustrator 22.0.0, SVG Export Plug-In . SVG Version: 6.00 Build 0)  -->
<svg version="1.1" id="图层_1" xmlns="http://www.w3.org/2000/svg" xmlns:xlink="http://www.w3.org/1999/xlink" x="0px" y="0px"
	 viewBox="0 0 1024 1024" style="enable-background:new 0 0 1024 1024;" xml:space="preserve">
<style type="text/css">
	.st0{fill:#323333;}
</style>
<g>
	<g>
		<path class="st0" d="M511.4,101.7h-35.6v111.6h35.6V101.7z M324.9,101.7h-35.6v111.6h35.6V101.7z M697.8,101.7h-35.6v111.6h35.6
			V101.7z M893,176.9H736.1v73.6H624.7v-72.6h-73.1v72.6H438.1v-74.7l-74.3,1.1v73.6H251.6v-74.7L133,176.9
			c-37.3,0-67.6,29.8-67.6,66.7v612.1c0,36.8,30.2,66.7,67.6,66.7h760c37.3,0,67.6-29.9,67.6-66.7V243.5
			C960.5,206.7,930.3,176.9,893,176.9z M363.4,325.1h38v37.7h-38V325.1z M214.2,325.1h38v37.7h-38V325.1z M139.6,325.1h38v37.7h-38
			V325.1z M253.7,810.5H177v-37.4h76.7V810.5z M253.7,735.9H177v-37.4h76.7V735.9z M253.7,661.2H177v-37.4h76.7V661.2z M253.7,586.5
			H177V549h76.7V586.5z M253.7,511.8H177v-37.4h76.7V511.8z M288.8,325.1h38v37.7h-38V325.1z M402.5,810.5h-76.7v-37.4h76.7V810.5z
			 M402.5,735.9h-76.7v-37.4h76.7V735.9z M402.5,661.2h-76.7v-37.4h76.7V661.2z M402.5,586.5h-76.7V549h76.7V586.5z M402.5,511.8
			h-76.7v-37.4h76.7V511.8z M438,325.1h38v37.7h-38V325.1z M551.4,735.9h-76.7v-37.4h76.7V735.9z M551.4,661.2h-76.7v-37.4h76.7
			V661.2z M551.4,586.5h-76.7V549h76.7V586.5z M551.4,511.8h-76.7v-37.4h76.7V511.8z M700.2,735.9h-76.7v-37.4h76.7V735.9z
			 M700.2,661.2h-76.7v-37.4h76.7V661.2z M700.2,586.5h-76.7V549h76.7V586.5z M700.2,511.8h-76.7v-37.4h76.7V511.8z M849,735.9
			h-76.7v-37.4H849V735.9z M849,661.2h-76.7v-37.4H849V661.2z M849,586.5h-76.7V549H849V586.5z M849,511.8h-76.7v-37.4H849V511.8z"
			/>
	</g>
</g>
</svg>
