<?xml version="1.0" encoding="utf-8"?>
<!-- Generator: Adobe Illustrator 22.0.0, SVG Export Plug-In . SVG Version: 6.00 Build 0)  -->
<svg version="1.1" id="图层_1" xmlns="http://www.w3.org/2000/svg" xmlns:xlink="http://www.w3.org/1999/xlink" x="0px" y="0px"
	 viewBox="0 0 1024 1024" style="enable-background:new 0 0 1024 1024;" xml:space="preserve">
<style type="text/css">
	.st0{fill:#323333;}
</style>
<g>
	<g>
		<path class="st0" d="M393.6,62.7H145.1c-44.8,0-81.2,36.5-81.2,81.4v248.8c0,45,36.3,81.4,81.2,81.4h248.5
			c44.8,0,81.2-36.5,81.2-81.4V144.2C474.7,99.2,438.4,62.7,393.6,62.7z M400.2,287.3H287.5v112.4h-36.9V287.3H138.3v-36.9h112.3
			V137.8h36.9v112.6h112.7V287.3z M393.6,548.3H145.1c-44.8,0-81.2,36.6-81.2,81.7v249.5c0,45.1,36.3,81.7,81.2,81.7h248.5
			c44.8,0,81.2-36.6,81.2-81.7V629.9C474.7,584.8,438.4,548.3,393.6,548.3z M400.2,772.8H138.3v-36.9h261.9V772.8z M868.9,175.9
			H640.4c-50.4,0-91.2,37.6-91.2,84v504c0,46.4,40.8,84,91.2,84h228.5c50.4,0,91.2-37.6,91.2-84v-504
			C960.1,213.5,919.3,175.9,868.9,175.9z M885.4,586.8H623.5v-37.4h261.9V586.8z M885.4,474.6H623.5v-37.4h261.9V474.6z"/>
	</g>
</g>
</svg>
