<?xml version="1.0" encoding="utf-8"?>
<!-- Generator: Adobe Illustrator 22.0.0, SVG Export Plug-In . SVG Version: 6.00 Build 0)  -->
<svg version="1.1" id="图层_1" xmlns="http://www.w3.org/2000/svg" xmlns:xlink="http://www.w3.org/1999/xlink" x="0px" y="0px"
	 viewBox="0 0 1024 1024" style="enable-background:new 0 0 1024 1024;" xml:space="preserve">
<style type="text/css">
	.st0{fill:#323333;}
</style>
<g>
	<g>
		<path class="st0" d="M510.4,101.1h-35.6v111.7h35.6V101.1z M323.6,101.1H288v111.7h35.6V101.1z M892.3,176.3h-157V250H623.8v-72.7
			h-73.2V250H437v-74.8l-74.4,1.1V250H250.2v-74.8l-118.7,1.1c-37.4,0-67.6,29.9-67.6,66.8v612.9c0,36.9,30.3,66.8,67.6,66.8h760.9
			c37.4,0,67.6-29.9,67.6-66.8V243C960,206.3,929.8,176.3,892.3,176.3z M708,691.6c8.2,29.5,22,64.3,43.6,81.6
			c-41.6,0.1-82.5-41.1-110.6-77.4c-87.4-3.8-161.7-43.1-195.8-98.3c-24,37-75.6,63.3-136.4,65.8c-19.6,24.5-48.2,52.3-77.3,52.2
			c15.1-11.7,24.7-35.2,30.4-55.1c-70.7-11.8-123.3-56.3-123.3-109.5c0-62.2,71.8-112.6,160.5-112.6c55.5,0,104.4,19.7,133.2,49.8
			c25.3-72.2,115.4-125.6,222.6-125.6c126.9,0,229.7,74.7,229.7,166.8C884.5,608.2,809.3,674.2,708,691.6z M697,101.1h-35.6v111.7
			H697V101.1z"/>
	</g>
</g>
</svg>
