<?xml version="1.0" encoding="utf-8"?>
<!-- Generator: Adobe Illustrator 22.0.0, SVG Export Plug-In . SVG Version: 6.00 Build 0)  -->
<svg version="1.1" id="图层_1" xmlns="http://www.w3.org/2000/svg" xmlns:xlink="http://www.w3.org/1999/xlink" x="0px" y="0px"
	 viewBox="0 0 1024 1024" style="enable-background:new 0 0 1024 1024;" xml:space="preserve">
<style type="text/css">
	.st0{fill:#333333;}
</style>
<g>
	<g>
		<path class="st0" d="M533.2,554.5l38.7,22.4c10.7-14.1,23-26.8,36.7-37.9l-22-38.1l51.3-29.7l21.5,37.2
			c16.3-6.9,33.6-11.7,51.6-14.5v-14c-34.7-3.4-61.9-33-61.9-69c0-38.3,30.7-69.3,68.5-69.3s68.5,31,68.5,69.3
			c0,16.9-6,32.4-15.9,44.4v37.4c18.5,2.2,36.2,6.8,52.9,13.3l20.1-35l51.3,29.7L874.7,535c1.6,1.2,3.3,2.5,4.9,3.8
			c27.7-37.4,43.3-79.7,43.3-124.4c0-153.7-184-278.3-410.9-278.3c-227,0.2-411,124.8-411,278.5c0,131.5,134.8,241.6,315.9,270.7
			c-14.7,49.2-39.3,107.2-77.9,136.2c55.6,0.1,110.6-38.2,155.8-82.9h-10.8v-59.4h45.4c2.4-17.6,6.8-34.6,13.2-50.6L503.6,606
			L533.2,554.5z M306.6,480.4c-37.8,0-68.5-31-68.5-69.3s30.7-69.3,68.5-69.3s68.5,31,68.5,69.3S344.4,480.4,306.6,480.4z
			 M443.6,411.1c0-38.3,30.7-69.3,68.5-69.3s68.5,31,68.5,69.3s-30.7,69.3-68.5,69.3C474.3,480.4,443.6,449.4,443.6,411.1z
			 M882.8,649.7l23-13.3l-20.7-35.9l-23.4,13.6c-8-10.2-17.4-19.2-27.7-27.1l13.8-23.9L812,542.3l-14.1,24.4
			c-11.7-4.6-24.1-7.8-37-9.3v-28.8h-41.4v29.6c-12.6,1.9-24.7,5.3-36,10.1l-15-26L632.7,563l15.3,26.6
			c-9.6,7.7-18.2,16.6-25.7,26.4l-27-15.6l-20.7,35.9l27.3,15.8c-4.4,11.2-7.5,23-9.2,35.4H561V729h31.7c1.7,12.3,4.8,24.2,9.2,35.4
			l-27.3,15.8l20.7,35.9l27-15.6c7.5,9.8,16.1,18.7,25.7,26.4l-15.3,26.6l35.8,20.7l15-26c11.4,4.8,23.5,8.2,36,10.1v29.6h41.4
			v-28.8c12.9-1.5,25.3-4.7,37-9.3l14.1,24.4l35.8-20.7L834,829.6c10.3-7.8,19.7-16.9,27.7-27.1l23.4,13.6l20.7-35.9l-23-13.3
			c5-11.9,8.3-24.6,10.1-37.8h26.6v-41.5h-26.6C891.2,674.3,887.8,661.6,882.8,649.7z M740.2,797.9c-49.5,0-89.6-40.2-89.6-89.8
			s40.1-89.8,89.6-89.8s89.6,40.2,89.6,89.8C829.8,757.7,789.7,797.9,740.2,797.9z M740.3,673.2c-19,0-34.4,15.4-34.4,34.5
			c0,19,15.4,34.5,34.4,34.5s34.4-15.4,34.4-34.5C774.7,688.6,759.3,673.2,740.3,673.2z"/>
	</g>
</g>
</svg>
