<?xml version="1.0" encoding="utf-8"?>
<!-- Generator: Adobe Illustrator 22.0.0, SVG Export Plug-In . SVG Version: 6.00 Build 0)  -->
<svg version="1.1" id="图层_1" xmlns="http://www.w3.org/2000/svg" xmlns:xlink="http://www.w3.org/1999/xlink" x="0px" y="0px"
	 viewBox="0 0 1024 1024" style="enable-background:new 0 0 1024 1024;" xml:space="preserve">
<style type="text/css">
	.st0{fill:#323333;}
</style>
<g>
	<g>
		<path class="st0" d="M923.4,205.8c-17-43.2-60.1-85.9-105.3-105.3c-45.2-19.4-162.4-36.6-320.5-36.6c-150,0-253.2,23.7-296.2,36.6
			s-90.2,47.2-105.3,105.3C81.1,263.9,63.9,375.7,63.9,537c0,146.2,12.9,233.9,32.3,285.5s77.3,96.7,105.3,105.3
			s150.4,32.3,302.7,32.3c156.1,0,253.8-17.2,314.1-32.3c60.2-15.1,84.2-54.2,105.3-105.3c25.8-62.4,36.6-150.4,36.6-302.7
			C960.1,363.8,951.4,276.8,923.4,205.8z M823.8,744.8c-6.5,21-40.3,64.4-79,78.9c-36.6,13.7-97.2,23.1-196.1,24.1v-36.6H475V847
			c-91.6-3.2-156.6-13.8-193.1-23.2c-43.6-11.3-69.4-46.7-79-78.9c-8.9-29.6-24.6-97.4-27.1-195.5h37v-74.6h-36.6
			c2.9-94,14.2-163,26.7-192c14.5-33.8,45.1-70.8,79-78.9c29.6-7,98.1-22.7,193.1-26.5V213h74.6v-36.2c96,2.9,158.8,18.2,195.2,26.9
			c40.4,9.7,67.7,33.8,79,78.9c9.8,39.3,20.9,99.9,23.6,192h-36.9v74.6h37.1C844.8,648.5,829.7,725.8,823.8,744.8z M548.6,474.8
			V251.2h-73.5v223H287.3v73.6h178.5c8.4,23,31.5,39.5,58.7,39.5c34.3,0,62.1-26.2,62.1-58.6C586.6,504.5,570.8,483.7,548.6,474.8z"
			/>
	</g>
</g>
</svg>
