<?xml version="1.0" standalone="no"?>
<!DOCTYPE svg PUBLIC "-//W3C//DTD SVG 1.1//EN" "http://www.w3.org/Graphics/SVG/1.1/DTD/svg11.dtd" >
<!--
2013-9-30: Created.
-->
<svg>
<metadata>
Created by iconfont
</metadata>
<defs>

<font id="ActionIcon" horiz-adv-x="1024" >
  <font-face
    font-family="ActionIcon"
    font-weight="500"
    font-stretch="normal"
    units-per-em="1024"
    ascent="896"
    descent="-128"
  />
    <missing-glyph />
    
    <glyph glyph-name="sort" unicode="&#58978;" d="M512 29.799999999999955L224.2 309.29999999999995l-48-46.7L464-17l-0.1-0.1 48-46.7 0.1 0.1 335.8 326.3-48 46.7L512 29.799999999999955z m-287.8 429L512 738.4l287.8-279.7 48 46.7L512 831.7l-0.1 0.1-48-46.7 0.1-0.1-287.8-279.7 48-46.5z"  horiz-adv-x="1024" />

    
    <glyph glyph-name="sortdown" unicode="&#58912;" d="M213.53733565 146.59150838999994H80.00878467l228.4040997-197.65739443v878.47730596H213.53733565v-680.81991152zM476.20205 779.09516865h657.97950234v-87.40849219H476.20205zM476.20205 450.10541748h657.97950234v-87.40849219H476.20205zM476.20205 90.36896016000003h657.97950234v-87.40849131H476.20205z"  horiz-adv-x="1235" />

    
    <glyph glyph-name="top" unicode="&#58997;" d="M515.08990502 445.79809547L212.2792356 146.07733178l-46.34857177 46.34857178L516.63485718 538.49523902l336.79962182-346.06933546-46.34857178-46.34857178zM156.66094947 601.83828735h710.67810106v-64.88800048H156.66094947z"  horiz-adv-x="1024" />

    
    <glyph glyph-name="copy" unicode="&#59078;" d="M902.61286 832.609251H455.027939c-30.899754 0-55.948243-25.048489-55.948243-55.948243V329.075063c0-30.899754 25.048489-55.948243 55.948243-55.948243h447.584921c30.899754 0 55.948243 25.048489 55.948244 55.948243V776.661008c0 30.899754-25.047466 55.948243-55.948244 55.948243z m-55.948243-447.585945H510.976182V720.712765h335.689459v-335.689459zM510.976182 49.33487100000002H175.286724V385.023306h111.896486V496.919792H119.34462c-30.905894 0-55.95336-25.047466-55.953359-55.948243v-447.584921c0-30.899754 25.048489-55.948243 55.953359-55.948243h447.579805c30.899754 0 55.948243 25.048489 55.948243 55.948243V161.231357H510.976182v-111.896486z"  horiz-adv-x="1024" />

    
    <glyph glyph-name="fix" unicode="&#59079;" d="M820.297087 515.593084c-11.159154-11.125385-48.526203-9.883091-48.526204-9.883091s-99.134835 11.159154-113.449865 25.405623c-14.246469 14.31503-24.125467 117.851105-24.125467 117.851105s-2.691295 28.932959 11.558244 43.251059C660.035056 706.464249 765.989203 812.387697 765.989203 812.387697s13.679557 15.322987-6.045693 15.388479c-63.581084 0.237407-192.82568-1.207501-255.394714-63.84919l-12.903891-12.83533c-81.592296-82.09474-79.375815-210.126718 0.805342-290.744827l97.117898-97.084129c80.246649-80.549547 207.91126-82.833567 289.805432-0.839111l12.835329 12.870122c60.656475 60.621682 62.504566 188.758038 62.772672 253.478062 0.168846 20.632923-14.920828 7.325849-14.920827 7.325849S831.418378 526.749168 820.297087 515.593084zM615.913163 452.012l-35.116799 35.082006c-29.100782 29.170366-76.31613 29.170366-105.417935 0l-368.840486-333.689918c-29.101805-29.101805-67.411319-108.273982 0-175.685301s146.549727-29.067013 175.61674 0c0 0 239.530398 262.080997 260.029268 284.997939 20.49887 22.951735 9.779737 46.947242 9.779738 46.947242s-42.174542 58.873876-64.88887 94.093005c-12.367679 19.218714-6.520507 21.640879 11.022031 10.416234 48.38908-30.918173 104.84693-66.402339 114.657367-71.072709l3.158946 3.527336c29.100782 29.068036 29.100782 76.282361 0 105.384166zM203.989439 15.219888999999966c-34.008558 0-61.564148 27.556613-61.564147 61.564147 0 34.008558 27.556613 61.564148 61.564147 61.564148s61.564148-27.556613 61.564148-61.564148c0.001023-34.007535-27.555589-61.564148-61.564148-61.564147z"  horiz-adv-x="1024" />

    
    <glyph glyph-name="doc" unicode="&#59080;" d="M855.375 831.376167H166.782026c-57.022715 0-103.289458-46.231951-103.289458-103.288434v-688.592974c0-57.025785 46.266743-103.289458 103.289458-103.289458h688.592974c57.025785 0 103.289458 46.26265 103.289457 103.289458v688.592974c0 57.056484-46.263673 103.288434-103.289457 103.288434z m34.43016-791.882432c0-18.96391-15.46625-34.43016-34.43016-34.43016H166.782026c-18.96391 0-34.429137 15.46625-34.429137 34.43016V659.227412h757.452271v-619.733677zM235.641323 383.79022199999997h68.859298v-68.859297h-68.859298zM235.641323 280.50178800000003h68.859298v-68.859298h-68.859298zM373.359918 383.79022199999997h413.155784v-68.859297H373.359918zM373.359918 280.50178800000003h413.155784v-68.859298H373.359918zM235.641323 177.21232999999995h68.859298v-68.859297h-68.859298zM373.359918 177.21232999999995h413.155784v-68.859297H373.359918zM751.462349 555.938977H270.071484c-18.96391 0-34.43016-15.46625-34.430161-34.43016v-34.429137c0-18.96391 15.465227-34.43016 34.430161-34.43016h481.391888c18.96391 0 34.43016 15.46625 34.43016 34.43016v34.429137c-0.001023 18.96391-15.467273 34.43016-34.431183 34.43016z"  horiz-adv-x="1024" />

    
    <glyph glyph-name="print" unicode="&#59081;" d="M200.991152 385.022283v-344.29751c0-56.95313 46.335305-103.286388 103.289458-103.286388h413.155784c56.95313 0 103.286388 46.332235 103.286388 103.286388V385.022283H200.991152z m550.873356-344.29751c0-18.98233-15.445784-34.429137-34.429137-34.429137H304.279586c-18.9854 0-34.431184 15.445784-34.431183 34.429137V316.161962h482.016105v-275.437189zM339.380012 247.30368799999997h344.296487v-68.859297H339.380012zM339.380012 144.01423h241.00703v-68.859297H339.380012zM855.824231 557.1700149999999h-35.102472V729.317747c0 56.95313-46.332235 103.290481-103.286388 103.290481H304.279586c-56.95313 0-103.289458-46.336328-103.289457-103.290481V557.1700149999999h-33.758872c-57.022715 0-103.289458-46.266743-103.289458-103.288435v-206.577892c0-57.025785 46.266743-103.288434 103.289458-103.288434h33.757848V316.16298500000005h619.733677v-172.147731h35.101449c57.025785 0 103.289458 46.26265 103.289458 103.288434V453.88158c0 57.021691-46.26265 103.288434-103.289458 103.288435z m-585.975828 172.147732c0 18.9854 15.445784 34.43016 34.431183 34.43016h413.155785c18.98233 0 34.429137-15.44476 34.429137-34.43016v-172.146709H269.848403V729.317747z m542.780027-330.025459c-34.755572 0-62.930261 28.17469-62.930261 62.930261s28.17469 62.930261 62.930261 62.930261 62.930261-28.17469 62.930261-62.930261-28.175713-62.930261-62.930261-62.930261z"  horiz-adv-x="1024" />

    
    <glyph glyph-name="clock" unicode="&#59082;" d="M512 851.5C253.7 851.5 44.5 642.2 44.5 384S253.7-83.5 512-83.5 979.5 125.70000000000005 979.5 384 770.2 851.5 512 851.5z m0-868.3c-221.3 0-400.7 179.4-400.7 400.7S290.6 784.7 512 784.7 912.7 605.3 912.7 384 733.3-16.799999999999955 512-16.799999999999955zM524.8 369.4l161.3-131.9c16.8-13.7 19.5-38.3 6.2-55.3l-0.6-0.7c-13.2-17-37.7-20-54.6-6.8-0.2 0.2-0.5 0.4-0.7 0.6L466.9 313.9c-0.5 0.4-1 0.9-1.5 1.3-12.5 7.1-20.2 20.3-20.1 34.6V615.7c0 22 17.8 39.8 39.8 39.8 22 0 39.8-17.8 39.8-39.8v-246.3z"  horiz-adv-x="1024" />

    
    <glyph glyph-name="console" unicode="&#59083;" d="M856.295975 767.656937H167.703001c-57.022715 0-103.288434-46.231951-103.288434-103.289458v-550.874379c0-57.025785 46.266743-103.289458 103.288434-103.289458h688.592974c57.025785 0 103.288434 46.26265 103.288435 103.289458V664.368502c0 57.056484-46.26265 103.288434-103.288435 103.288435z m34.429137-654.162814c0-18.96391-15.46625-34.43016-34.43016-34.43016H167.703001c-18.96391 0-34.429137 15.46625-34.429137 34.43016V595.5092050000001h757.452272v-482.015082zM511.999488 251.212718c-18.96391 0-34.429137 15.46625-34.429137 34.43016s15.46625 34.43016 34.429137 34.43016h172.148755c18.96391 0 34.429137-15.46625 34.429138-34.43016s-15.46625-34.43016-34.429138-34.43016H511.999488zM303.672766 492.219747h-87.789439L336.421634 371.716232 215.91812 251.212718h87.788415l120.504538 120.503514z"  horiz-adv-x="1024" />

    
    <glyph glyph-name="mail" unicode="&#59084;" d="M917.2 720H102.8c-33.4 0-60.5-27.1-60.5-60.5v-553.2c0-33.4 27.1-60.5 60.5-60.5h814.5c33.4 0 60.5 27.1 60.5 60.5V659.6c-0.1 33.4-27.2 60.4-60.6 60.4zM366.8 412.9L109.1 155.20000000000005V597l257.7-184.1zM152.5 650.8h719L512 392.5 152.5 650.8z m271.4-278.7l87.9-62.8 0.2 0.3 0.2-0.3 94.1 67.2 266.3-266.3H162l261.9 261.9z m239.5 45.2L911 594.2v-424.5L663.4 417.3z"  horiz-adv-x="1024" />

    
    <glyph glyph-name="save" unicode="&#59085;" d="M722.7 853.3h-680v-934.6h934.6V598L722.7 853.3z m-616.5-63.5h608.3v-216.9H106.2V789.8z m806.7-805.7H106.2V509.4h806.7v-525.3zM777.7 572.9V725.8l142.8-152.9H777.7z m72.9-250.7H723V449.8h127.6v-127.6z"  horiz-adv-x="1024" />

    
    <glyph glyph-name="cut" unicode="&#59093;" d="M344.441285 373.28086800000005c0 70.070892-52.315506 111.896486-139.870608 111.896486-87.61957 0-139.870608-41.825594-139.870608-111.896486 0-90.577948 74.440409-126.353756 225.473241-111.896487 16.980743 1.614777 31.471782 4.675486 53.05638 6.996345 6.087649 26.155706 12.845563 54.567803 19.838838 83.718727-19.904329-2.086521-18.627243 11.833513-18.627243 21.181415z m-139.870608-55.948244c-83.922365 0-83.922365 42.09677-83.922365 55.948244 0 13.854543 0 55.948243 83.922365 55.948243s83.922365-42.0937 83.922365-55.948243c0-13.851473 0-55.948243-83.922365-55.948244zM618.064153 436.05661c-19.501146-55.276954-40.010249-86.983073-56.856939-111.528096-7.698333-11.230786-14.793938-21.921265-21.587668-34.597983 126.45711 15.265682 220.397642 27.402093 220.397642 27.402093 144.845922 27.26804 195.818851 167.844729 195.818851 167.84473s-336.325955-48.88743-337.771886-49.120744zM482.091318 226.888729c-9.950629 1.177825-25.922393 7.529487-18.22406 30.459733 29.92659 89.606831 73.300446 82.779332 111.896486 210.27919L665.271314 820.865789S519.615956 786.8081119999999 475.501226 646.197654c0 0-81.095993-322.577836-110.918205-459.993532-32.17684-148.275022-5.447059-226.447429 84.525092-237.106186 69.599148-8.270361 117.311823 38.733163 127.633912 125.682467 10.32209 87.012749-25.085328 143.834896-94.650707 152.108326z m-43.842531 117.746728c15.297404 0 27.706015-12.43931 27.706016-27.706015 0-15.297404-12.408611-27.706015-27.706016-27.706015-15.265682 0-27.706015 12.408611-27.706015 27.706015 0 15.266705 12.43931 27.706015 27.706015 27.706015z m82.913385-263.267009c-9.885138-83.316567-51.67901-78.341253-65.429175-76.726475-13.752212 1.614777-55.576783 6.590092-45.692668 89.940428 9.885138 83.316567 51.709709 78.341253 65.460897 76.726476 13.72049-1.614777 55.54506-6.589069 45.660946-89.940429z"  horiz-adv-x="1024" />

    
    <glyph glyph-name="chat" unicode="&#59095;" d="M890.7 832.1H133c-49.1 0-88.8-39.8-88.8-88.8v-494.8c0-49.9 40.5-90.4 90.4-90.4h38.1v-178.3c0-24.2 28.5-37.3 46.9-21.5l224.8 192.9c5.1 4.4 11.7 6.8 18.5 6.8h427.9c49.1 0 88.8 39.8 88.8 88.8V743.2c-0.1 49.1-39.9 88.9-88.9 88.9z m22.1-569.6c0-22.1-18.1-40.3-40.3-40.3H434.7c-6.8 0-13.3-2.4-18.5-6.8L247.8 70.89999999999998c-3.3-2.8-8.4-0.5-8.4 3.9V199.20000000000005c0 12.7-10.3 23.1-23.1 23.1h-65.1c-22.2 0-40.4 18.2-40.4 40.4V722.5c0 22.2 18.2 40.4 40.4 40.4h721.1c22.2 0 40.4-18.2 40.4-40.4v-460zM255.415498 445.188138a62 62 0 1 1 87.779127 87.583246 62 62 0 1 1-87.779127-87.583246ZM467.911504 445.189795a62 62 0 1 1 87.779127 87.583246 62 62 0 1 1-87.779127-87.583246ZM680.407803 445.190746a62 62 0 1 1 87.779127 87.583245 62 62 0 1 1-87.779127-87.583245Z"  horiz-adv-x="1024" />

    
    <glyph glyph-name="zoomin" unicode="&#59097;" d="M977.3 3.7000000000000455c0-85-85-85-85-85l-243 243.1c-63-45.8-140.4-73.1-224.3-73.1-211.1-0.1-382.3 171.1-382.3 382.3C42.7 682.1 213.9 853.3 425 853.3c211.2 0 382.4-171.2 382.4-382.4 0-83.9-27.3-161.2-73.1-224.3l243-242.9zM425 768.4c-164.2 0-297.4-133.1-297.4-297.4 0-164.2 133.1-297.4 297.4-297.4 164.2 0 297.4 133.1 297.4 297.4 0 164.2-133.1 297.4-297.4 297.4zM615 505.6H458.5V662.1h-67v-156.5H235v-67h156.5v-156.5h67V438.6H615z"  horiz-adv-x="1024" />

    
    <glyph glyph-name="minuscircle" unicode="&#59098;" d="M508.9 854.4c-258.3 0-467.5-209.3-467.5-467.5s209.2-467.5 467.5-467.5 467.5 209.2 467.5 467.5S767.1 854.4 508.9 854.4z m0-868.3c-221.3 0-400.7 179.4-400.7 400.7s179.3 400.8 400.7 400.8 400.7-179.4 400.7-400.7-179.4-400.8-400.7-400.8zM219.4 426.9h579V347h-579z"  horiz-adv-x="1024" />

    
    <glyph glyph-name="remove" unicode="&#59102;" d="M845.9 661.3l-56.6 56.6L512 440.6 234.7 717.9l-56.6-56.6L455.4 384 178.1 106.70000000000005l56.6-56.6L512 327.4l277.3-277.3 56.6 56.6L568.6 384z"  horiz-adv-x="1024" />

    
    <glyph glyph-name="upload" unicode="&#59103;" d="M865.5 387.6V85h-707V387.6h-80V5h867V387.6zM699.6 576.1L512.7 763l-0.7-0.7-0.7 0.7-186.9-186.9 56.5-56.5 88.3 88.2v-366.1h80V613.4l93.9-93.8z"  horiz-adv-x="1024" />

    
    <glyph glyph-name="unlock" unicode="&#59104;" d="M882.8 498.7H308.1v86.4c0 107.7 91.3 195 203.9 195 101.5 0 185.6-68.4 201.3-160.7 3.1-18 18.7-31.2 37-31.2 23.3 0 40.9 21 36.9 44C765.2 758 650.4 851.9 512 851.9c-154.1 0-279-119.4-279-266.8v-86.4h-91.8c-33.9 0-61.4-27.5-61.4-61.4v-457.9c0-33.9 27.5-61.4 61.4-61.4h741.6c33.9 0 61.4 27.5 61.4 61.4v458c0 33.9-27.5 61.3-61.4 61.3z m-6.4-503.1c0-6.7-5.5-12.2-12.2-12.2H159.8c-6.7 0-12.2 5.5-12.2 12.2V416.3c0 6.7 5.5 12.2 12.2 12.2h704.4c6.7 0 12.2-5.5 12.2-12.2v-420.7zM512 325c-33.5 0-60.6-27.1-60.6-60.6 0-16.8 6.8-32 17.9-43v-86.9c0-23.5 19.2-42.7 42.7-42.7 23.5 0 42.7 19.2 42.7 42.7v86.9c11 11 17.9 26.2 17.9 43 0 33.5-27.1 60.6-60.6 60.6z"  horiz-adv-x="1024" />

    
    <glyph glyph-name="lock" unicode="&#59106;" d="M882.8 498.7H791v89.4 1.5c-0.9 146.7-125.5 262.3-279 262.3-154.1 0-279-119.4-279-266.8v-86.4h-91.8c-33.9 0-61.4-27.5-61.4-61.4v-457.9c0-33.9 27.5-61.4 61.4-61.4h741.6c33.9 0 61.4 27.5 61.4 61.4v458c0 33.9-27.5 61.3-61.4 61.3zM512 780.1c112.6 0 203.9-84.3 203.9-192v-89.4H308.1v86.4c0 107.8 91.3 195 203.9 195z m364.4-784.5c0-6.7-5.5-12.2-12.2-12.2H159.8c-6.7 0-12.2 5.5-12.2 12.2V416.3c0 6.7 5.5 12.2 12.2 12.2h704.4c6.7 0 12.2-5.5 12.2-12.2v-420.7zM512 325c-33.5 0-60.6-27.1-60.6-60.6 0-16.8 6.8-32 17.9-43v-86.9c0-23.5 19.2-42.7 42.7-42.7 23.5 0 42.7 19.2 42.7 42.7v86.9c11 11 17.9 26.2 17.9 43 0 33.5-27.1 60.6-60.6 60.6z"  horiz-adv-x="1024" />

    
    <glyph glyph-name="zoomout" unicode="&#59109;" d="M977.3 3.7000000000000455c0-85-85-85-85-85l-243 243.1c-63-45.8-140.4-73.1-224.3-73.1-211.1-0.1-382.3 171.1-382.3 382.3C42.7 682.1 213.9 853.3 425 853.3c211.2 0 382.4-171.2 382.4-382.4 0-83.9-27.3-161.2-73.1-224.3l243-242.9zM425 768.4c-164.2 0-297.4-133.1-297.4-297.4 0-164.2 133.1-297.4 297.4-297.4 164.2 0 297.4 133.1 297.4 297.4 0 164.2-133.1 297.4-297.4 297.4zM235 505.6h380v-67H235z"  horiz-adv-x="1024" />

    
    <glyph glyph-name="addsquare" unicode="&#59110;" d="M845.8 851.7H178.2c-74.1 0-134.2-60-134.2-134.1V50c0-74.1 60.1-134.2 134.2-134.2h667.6c74.1 0 134.2 60.1 134.2 134.2V717.6c0 74.1-60.1 134.1-134.2 134.1z m67.6-759.6c0-60.6-49.1-109.8-109.8-109.8H220.4c-60.6 0-109.8 49.1-109.8 109.8V685.3c0 55.2 44.7 99.9 99.9 99.9h593.1c60.6 0 109.8-49.1 109.8-109.8v-583.3zM511.3 588h1.5c21.7 0 39.2-17.6 39.2-39.2v-329.5c0-21.7-17.6-39.2-39.2-39.2h-1.5c-21.7 0-39.2 17.6-39.2 39.2V548.8c-0.1 21.6 17.5 39.2 39.2 39.2zM308 383.29999999999995v1.5c0 21.7 17.6 39.2 39.2 39.2h329.5c21.7 0 39.2-17.6 39.2-39.2v-1.5c0-21.7-17.6-39.2-39.2-39.2H347.2c-21.6-0.1-39.2 17.5-39.2 39.2z"  horiz-adv-x="1024" />

    
    <glyph glyph-name="check" unicode="&#59111;" d="M359.7 159.70000000000005L102.5 416.9l-56.6-56.6 313.8-313.7 43.6 43.6 13 12.9 561.8 561.8-56.6 56.5z"  horiz-adv-x="1024" />

    
    <glyph glyph-name="download" unicode="&#59112;" d="M865.5 387.6V85h-707V387.6h-80V5h867V387.6zM699.6 428.6L512.7 241.70000000000005l-0.7 0.7-0.7-0.7-186.9 186.9 56.5 56.5 88.3-88.2V763h80v-371.7l93.9 93.8z"  horiz-adv-x="1024" />

    
    <glyph glyph-name="backward" unicode="&#59113;" d="M425.183214 764.4826410000001c-9.952676 4.16588-21.516036 1.814322-29.182646-5.783727L75.540975 506.923634c-10.455119-10.386558-10.455119-27.433816 0-37.855166l320.459593-250.563686c5.108345-5.177929 11.969613-7.866155 18.893302-7.866155 3.497661 0 6.995321 0.706081 10.290367 2.016937 10.018168 4.168949 16.001439 13.919011 16.001439 24.74252V387.475148c342.715479 0 492.590951-96.65434 469.796806-404.541593 145.168264 492.555136-133.469827 603.90313-469.796806 603.90313V739.771843c-0.002047 10.82351-5.985318 20.572548-16.002462 24.710798z"  horiz-adv-x="1024" />

    
    <glyph glyph-name="edit" unicode="&#59114;" d="M64 282.70000000000005v-140.8h140.8l422.4 422.4-140.8 140.8L64 282.70000000000005z m668.8 457.6l-70.4 70.4c-19.4 19.4-51 19.4-70.4 0l-35.2-35.2 140.8-140.8 35.2 35.2c19.4 19.4 19.4 50.9 0 70.4zM64 42.299999999999955h896v-99.6H64v99.6z"  horiz-adv-x="1024" />

    
    <glyph glyph-name="addcircle" unicode="&#59115;" d="M509.4 854.2c-258.3 0-467.5-209.3-467.5-467.5s209.2-467.5 467.5-467.5 467.5 209.2 467.5 467.5S767.6 854.2 509.4 854.2z m0-868.3c-221.3 0-400.7 179.4-400.7 400.7S288 787.4 509.4 787.4 910.1 608 910.1 386.7 730.7-14.100000000000023 509.4-14.100000000000023zM549.3 426.6V676.2h-79.9v-249.6H219.9v-79.9h249.5v-249.5h79.9V346.70000000000005h249.6v79.9z"  horiz-adv-x="1024" />

    
    <glyph glyph-name="search" unicode="&#59116;" d="M977.3 3.7000000000000455c0-85-85-85-85-85l-243 243.1c-63-45.8-140.4-73.1-224.3-73.1-211.1-0.1-382.3 171.1-382.3 382.3C42.7 682.1 213.9 853.3 425 853.3c211.2 0 382.4-171.2 382.4-382.4 0-83.9-27.3-161.2-73.1-224.3l243-242.9zM425 768.4c-164.2 0-297.4-133.1-297.4-297.4 0-164.2 133.1-297.4 297.4-297.4 164.2 0 297.4 133.1 297.4 297.4 0 164.2-133.1 297.4-297.4 297.4z"  horiz-adv-x="1024" />

    
    <glyph glyph-name="gear" unicode="&#59118;" d="M511.674077 566.999894c-101.075023 0-183.334515-82.259492-183.334515-183.334515s82.259492-183.334515 183.334515-183.334515c101.072977 0 183.333492 82.259492 183.333492 183.334515s-82.259492 183.334515-183.333492 183.334515z m-0.870834-260.618692c-42.638099 0-77.287247 34.608216-77.287247 77.246315 0 42.674938 34.649148 77.250408 77.287247 77.250408 42.635029 0 77.209476-34.57547 77.209476-77.250408 0-42.637076-34.574447-77.246315-77.209476-77.246315zM959.258998 328.57262000000003V440.465013l-133.180231 21.755489c-7.880481 31.558763-20.264533 61.195757-36.571941 88.362491l77.611636 110.624516-79.136362 79.0985-109.207237-78.518285a321.349869 321.349869 0 0 1-88.835258 36.974099L566.733067 831.284069H454.836581l-21.573341-132.086317c-31.778774-7.809873-61.775972-20.193925-89.088015-36.609803l-108.879779 77.793784-79.139432-79.102592 76.596516-109.534696a324.582493 324.582493 0 0 1-37.152155-89.37761L64.088132 440.465013v-111.892393l131.364887-23.280216c7.918343-31.924083 20.517289-61.887512 37.152155-89.344864l-77.648475-108.590184 79.102593-79.173201 109.680005 76.81141a323.279824 323.279824 0 0 1 89.088014-36.787858l22.00927-132.161019h111.896486l23.496134 132.521223c31.633465 7.992021 61.485353 20.596084 88.615246 37.119409l110.442369-77.503165 79.102592 79.173201-78.808904 109.464087a321.714166 321.714166 0 0 1 36.498263 88.396259l133.180231 23.354918zM511.674077 140.98729100000003c-134.014226 0-242.678088 108.664885-242.678088 242.678088s108.664885 242.678088 242.678088 242.678088c134.01218 0 242.677065-108.664885 242.677065-242.678088s-108.664885-242.678088-242.677065-242.678088z"  horiz-adv-x="1024" />

    
    <glyph glyph-name="forward" unicode="&#59119;" d="M582.924841 739.771843v-152.935158c-336.325955 0-614.964046-111.347994-469.796806-603.90313C90.33389 290.819784 240.209362 387.475148 582.924841 387.475148v-150.077064c0-10.82351 5.983271-20.572548 16.001439-24.74252 3.295046-1.311879 6.792707-2.016937 10.290367-2.016937 6.922666 0 13.783934 2.689249 18.893302 7.866155l320.459593 250.563686c10.455119 10.420327 10.455119 27.468608 0 37.855166L628.108926 758.6989140000001c-7.66661 7.598049-19.22997 9.949606-29.182646 5.783727-10.018168-4.13825-16.001439-13.887288-16.001439-24.710798z"  horiz-adv-x="1024" />

    
    <glyph glyph-name="pause" unicode="&#59121;" d="M845.8 851.7H178.2c-74.1 0-134.2-60-134.2-134.1V50c0-74.1 60.1-134.2 134.2-134.2h667.6c74.1 0 134.2 60.1 134.2 134.2V717.6c0 74.1-60.1 134.1-134.2 134.1z m67.6-759.6c0-60.6-49.1-109.8-109.8-109.8H220.4c-60.6 0-109.8 49.1-109.8 109.8V685.3c0 55.2 44.7 99.9 99.9 99.9h593.1c60.6 0 109.8-49.1 109.8-109.8v-583.3zM392.8 588h1.5c21.7 0 39.2-17.6 39.2-39.2v-329.5c0-21.7-17.6-39.2-39.2-39.2h-1.5c-21.7 0-39.2 17.6-39.2 39.2V548.8c-0.1 21.6 17.5 39.2 39.2 39.2zM629.8 588h1.5c21.7 0 39.2-17.6 39.2-39.2v-329.5c0-21.7-17.6-39.2-39.2-39.2h-1.5c-21.7 0-39.2 17.6-39.2 39.2V548.8c-0.1 21.6 17.5 39.2 39.2 39.2z"  horiz-adv-x="1024" />

    
    <glyph glyph-name="start" unicode="&#59122;" d="M364.2 557.2v-346.9c0-24.9 28.3-39.3 48.4-24.6l234.7 171.2c16.6 12.1 16.7 36.7 0.3 49L412.9 581.6c-20.1 15.1-48.7 0.7-48.7-24.4zM845.8 851.7H178.2c-74.1 0-134.2-60-134.2-134.1V50c0-74.1 60.1-134.2 134.2-134.2h667.6c74.1 0 134.2 60.1 134.2 134.2V717.6c0 74.1-60.1 134.1-134.2 134.1z m67.6-759.6c0-60.6-49.1-109.8-109.8-109.8H220.4c-60.6 0-109.8 49.1-109.8 109.8V685.3c0 55.2 44.7 99.9 99.9 99.9h593.1c60.6 0 109.8-49.1 109.8-109.8v-583.3z"  horiz-adv-x="1024" />

    
    <glyph glyph-name="stop" unicode="&#59123;" d="M845.8 851.7H178.2c-74.1 0-134.2-60-134.2-134.1V50c0-74.1 60.1-134.2 134.2-134.2h667.6c74.1 0 134.2 60.1 134.2 134.2V717.6c0 74.1-60.1 134.1-134.2 134.1z m67.6-759.6c0-60.6-49.1-109.8-109.8-109.8H220.4c-60.6 0-109.8 49.1-109.8 109.8V685.3c0 55.2 44.7 99.9 99.9 99.9h593.1c60.6 0 109.8-49.1 109.8-109.8v-583.3zM622 219H402c-30.4 0-55 24.6-55 55V494c0 30.4 24.6 55 55 55h220c30.4 0 55-24.6 55-55v-220c0-30.4-24.6-55-55-55z"  horiz-adv-x="1024" />

    
    <glyph glyph-name="process" unicode="&#59124;" d="M845.8 851.7H178.2c-74.1 0-134.2-60-134.2-134.1V50c0-74.1 60.1-134.2 134.2-134.2h667.6c74.1 0 134.2 60.1 134.2 134.2V717.6c0 74.1-60.1 134.1-134.2 134.1z m67.6-759.6c0-60.6-49.1-109.8-109.8-109.8H220.4c-60.6 0-109.8 49.1-109.8 109.8V685.3c0 55.2 44.7 99.9 99.9 99.9h593.1c60.6 0 109.8-49.1 109.8-109.8v-583.3zM511.3 588h1.5c21.7 0 39.2-17.6 39.2-39.2v-329.5c0-21.7-17.6-39.2-39.2-39.2h-1.5c-21.7 0-39.2 17.6-39.2 39.2V548.8c-0.1 21.6 17.5 39.2 39.2 39.2z"  horiz-adv-x="1024" />

    
    <glyph glyph-name="info" unicode="&#59134;" d="M510 853.5C251.8 853.5 42.5 644.1 42.5 386S251.8-81.5 510-81.5 977.5 127.79999999999995 977.5 386 768.1 853.5 510 853.5z m0-868.3c-221.3 0-400.7 179.5-400.7 400.7S288.6 786.7 510 786.7 910.7 607.3 910.7 386 731.3-14.799999999999955 510-14.799999999999955zM470 497.2h79.9v-364.5H470zM471.2 652.3h77.5v-77.5h-77.5z"  horiz-adv-x="1024" />

    
    <glyph glyph-name="max" unicode="&#59140;" d="M64.2 831.8v-895.6h895.6V831.8H64.2z m814.2-814.2H145.6V669h732.8v-651.4z"  horiz-adv-x="1024" />

    
    <glyph glyph-name="leftdouble" unicode="&#59141;" d="M572 666.9l-45 47.2L212.1 384l-0.1-0.1 45-47.2 0.1 0.1L527 53.89999999999998l45 47.2L302.1 384 572 666.9z m240 0l-45 47.2L452.1 384l-0.1-0.1 45-47.2 0.1 0.1L767 53.89999999999998l45 47.2L542.1 384 812 666.9z"  horiz-adv-x="1024" />

    
    <glyph glyph-name="radiochecked" unicode="&#59142;" d="M512 831.8C264.7 831.8 64.2 631.3 64.2 384S264.7-63.799999999999955 512-63.799999999999955 959.8 136.70000000000005 959.8 384 759.3 831.8 512 831.8z m0-831.6C300 0.20000000000004547 128.2 172 128.2 384S300 767.8 512 767.8 895.8 596 895.8 384 724 0.20000000000004547 512 0.20000000000004547z m0 575.7c-106 0-191.9-85.9-191.9-191.9S406 192.10000000000002 512 192.10000000000002 703.9 278 703.9 384 618 575.9 512 575.9z"  horiz-adv-x="1024" />

    
    <glyph glyph-name="radio" unicode="&#59144;" d="M513 832.1C266 832.1 65.9 631.9 65.9 385S266-62.10000000000002 513-62.10000000000002 960.1 138 960.1 385 759.9 832.1 513 832.1z m0-830.4c-211.6 0-383.2 171.6-383.2 383.2S301.3 768.2 513 768.2 896.2 596.6 896.2 385 724.6 1.7000000000000455 513 1.7000000000000455z"  horiz-adv-x="1024" />

    
    <glyph glyph-name="error" unicode="&#59146;" d="M510 854.5C251.7 854.5 42.5 645.2 42.5 387S251.7-80.5 510-80.5 977.5 128.70000000000005 977.5 387 768.2 854.5 510 854.5z m0-868.3c-221.3 0-400.7 179.4-400.7 400.7S288.6 787.7 510 787.7 910.7 608.3 910.7 387 731.3-13.799999999999955 510-13.799999999999955zM740.1 566.3l-50.8 50.8L510 437.8 330.7 617.1l-50.8-50.8L459.2 387 279.9 207.70000000000005l50.8-50.8L510 336.20000000000005l179.3-179.3 50.8 50.8L560.8 387z"  horiz-adv-x="1024" />

    
    <glyph glyph-name="back" unicode="&#59147;" d="M332.1 384l45-47.2 0.1 0.1 269.8-283 45 47.2L422.1 384 692 666.9l-45 47.2L332.1 384z"  horiz-adv-x="1024" />

    
    <glyph glyph-name="restore" unicode="&#59148;" d="M42.5 705v-787H850V705H42.5zM787-16.899999999999977H106.7V562H787v-578.9zM213.9 853.4v-66.7H912v-698.3h65.7v765H213.9z"  horiz-adv-x="1024" />

    
    <glyph glyph-name="reload" unicode="&#59150;" d="M821.7 584.5l-46-23.1c-58.3 90.5-160 150.4-275.6 150.4C319 711.8 172.3 565 172.3 384S319 56.200000000000045 500.1 56.200000000000045c50 0 97.3 11.2 139.7 31.2l-34.5 60.3c-32.1-14.3-67.7-22.3-105.2-22.3-142.8 0-258.6 115.8-258.6 258.6s115.8 258.6 258.6 258.6c88.6 0 166.8-44.6 213.4-112.5L677 511.7c-14.3-7.2-15.4-27.1-2.1-35.9l135.4-88.9c13.3-8.8 31.2 0.2 32.1 16.1l9.3 161.7c0.9 16-15.8 27-30 19.8z"  horiz-adv-x="1024" />

    
    <glyph glyph-name="rightdouble" unicode="&#59151;" d="M721.9 384L452 101.10000000000002l45-47.2 269.9 282.9 0.1-0.1 45 47.2-0.1 0.1L497 714.1l-45-47.2L721.9 384z m-240 0L212 101.10000000000002l45-47.2 269.9 282.9 0.1-0.1 45 47.2-0.1 0.1L257 714.1l-45-47.2L481.9 384z"  horiz-adv-x="1024" />

    
    <glyph glyph-name="asce" unicode="&#59152;" d="M512 563.74555493l0.07241965 0.07241964 46.27615213-44.97259855-0.07241966-0.07241966L835.71580601 249.15462398l-46.27615214-44.9001789L512 473.80035782 234.56034612 204.18202542999995l-46.27615213 44.90017892 323.71580601 314.66335058z"  horiz-adv-x="1024" />

    
    <glyph glyph-name="omit" unicode="&#59153;" d="M292.768 446.306c2.491-0.515 4.99-0.987 7.469-1.551 28.956-6.587 48.828-32.893 47.59-62.98-1.187-28.85-23.508-53.387-52.383-57.605-0.904-0.132-1.784-0.433-2.676-0.655H280.21c-0.773 0.21-1.536 0.498-2.323 0.615-26.22 3.891-46.433 23.108-51.662 49.134-0.36 1.793-0.753 3.579-1.13 5.369V391.19c0.233 0.992 0.536 1.973 0.694 2.977 3.902 24.797 21.983 44.51 46.302 50.418 2.688 0.653 5.413 1.151 8.12 1.722 4.185-0.002 8.371-0.002 12.557-0.002zM505.228 323.514c-2.49 0.515-4.99 0.988-7.469 1.55-28.956 6.589-48.828 32.895-47.59 62.981 1.186 28.85 23.507 53.387 52.383 57.604 0.905 0.132 1.785 0.433 2.676 0.656h12.557c2.491-0.515 4.99-0.987 7.47-1.551 28.956-6.587 48.828-32.893 47.59-62.98-1.186-28.85-23.507-53.387-52.383-57.605-0.904-0.132-1.784-0.433-2.676-0.655h-12.558zM729.92 323.514c-2.491 0.515-4.991 0.988-7.47 1.55-28.957 6.589-48.829 32.895-47.59 62.981 1.186 28.85 23.507 53.387 52.383 57.604 0.904 0.132 1.784 0.433 2.676 0.656h12.557c0.774-0.209 1.536-0.498 2.324-0.615 26.22-3.89 46.433-23.108 51.661-49.134 0.361-1.793 0.753-3.58 1.131-5.368v-12.558c-0.234-0.992-0.536-1.973-0.695-2.977-3.902-24.798-21.983-44.51-46.302-50.418-2.688-0.654-5.412-1.152-8.12-1.723-4.184 0.002-8.369 0.002-12.555 0.002z"  horiz-adv-x="1024" />

    
    <glyph glyph-name="front" unicode="&#59154;" d="M692 384L377.1 714.1l-45-47.2L602 384 332 101.10000000000002l45-47.2 269.8 283 0.1-0.1L692 384z"  horiz-adv-x="1024" />

    
    <glyph glyph-name="checkboxchecked" unicode="&#59160;" d="M64.2 831.8v-895.6h895.6V831.8H64.2z m831.6-831.6H128.2V767.8h767.7v-767.6h-0.1zM415.9 145.60000000000002l-0.1 0.1-1.2-1.2-214.1 214 70.4 70.4 143.8-143.8 338.4 338.4 70.4-70.3z"  horiz-adv-x="1024" />

    
    <glyph glyph-name="success" unicode="&#59162;" d="M511 853.5C252.7 853.5 43.5 644.2 43.5 386S252.7-81.5 511-81.5 978.5 127.70000000000005 978.5 386 769.2 853.5 511 853.5z m0-868.3c-221.3 0-400.7 179.4-400.7 400.7S289.6 786.7 511 786.7 911.7 607.3 911.7 386 732.3-14.799999999999955 511-14.799999999999955zM412.3 153.89999999999998L211.6 352.29999999999995l44.8 44.4 155.9-154L762.2 589l44.8-44.4-394.7-390.7z"  horiz-adv-x="1024" />

    
    <glyph glyph-name="date" unicode="&#59165;" d="M900.6-9.200000000000045H115.8V779.4h784.8v-788.6z m75.6 788.6V854h-935v-937.8h935V779.4zM323 245.29999999999995H209.6v-113.4H323V245.29999999999995z m128.5-113.4h113.4V245.29999999999995H451.5v-113.4z m241.9 0h113.4V245.29999999999995H693.4v-113.4zM451.5 355.79999999999995h113.4V469.2H451.5v-113.4z m241.9-0.1h113.4V469.1H693.4v-113.4zM323 469.1H209.6v-113.4H323V469.1z m483.8 173.2H209.6v-67.5h597.1l0.1 67.5z"  horiz-adv-x="1024" />

    
    <glyph glyph-name="deny" unicode="&#59167;" d="M510.5 855.7C252.2 855.7 43 646.4 43 388.2s209.2-467.5 467.5-467.5S978 129.89999999999998 978 388.2 768.7 855.7 510.5 855.7z m0-66.8c90 0 173.1-29.7 240-79.7l-561-561c-50.1 66.9-79.7 149.9-79.7 239.9 0 221.3 179.3 400.8 400.7 400.8z m0-801.5c-102.5 0-196.1 38.5-266.9 101.9l565.8 565.8c63.3-70.9 101.8-164.4 101.8-266.9 0-221.3-179.4-400.8-400.7-400.8z"  horiz-adv-x="1024" />

    
    <glyph glyph-name="checkboxindetermina" unicode="&#59169;" d="M64.2 831.8v-895.6h895.6V831.8H64.2z m831.6-831.6H128.2V767.8h767.7v-767.6zM343.2 552.8h337.5v-337.5H343.2z"  horiz-adv-x="1024" />

    
    <glyph glyph-name="warn" unicode="&#59170;" d="M501.9996875 803.52c-32.58 0-65.16-15.48-83.7-46.38L65.6196875 167.70000000000005c-37.5-62.4 10.5-143.7 83.4-143.7h705.78c73.14 0 121.2 81.3 83.88 143.7L585.6996875 757.14a96.42 96.42 0 0 1-83.7 46.38z m0-59.04c12.42 0 24.84-6.12 32.4-18.3l352.68-589.2c14.76-24.6-1.62-52.98-32.4-52.98H149.140625c-30.54 0-46.92 28.38-32.16 52.98l352.74 589.2a37.74 37.74 0 0 0 32.34 18.3zM471.5196875 564v-300h60V564z m0-360v-60h60v60z"  horiz-adv-x="1024" />

    
    <glyph glyph-name="trash" unicode="&#59171;" d="M738.6-8.799999999999955H255.9V537.3h-64.6v-611.7h633.1V537.3h-65.6v-546.1h-20.2z m-86.9 720.5V842.4H367.4v-130.7H84.9v-63.6h850.3v63.6H651.7zM433 776.8h152.1v-65.1H433v65.1zM367.4 537.1h65.2v-418.6h-65.2V537.1z m201.7 0.2h65.4v-418.5h-65.4V537.3z"  horiz-adv-x="1024" />

    
    <glyph glyph-name="desc" unicode="&#59172;" d="M512 204.25444506999997l-0.07241965-0.07241964-46.27615213 44.97259855 0.07241966 0.07241966L188.28419399 518.84537602l46.27615214 44.9001789L512 294.19964217999996l277.43965388 269.61833239 46.27615213-44.90017892-323.71580601-314.66335058z"  horiz-adv-x="1024" />

    
    <glyph glyph-name="checkbox" unicode="&#59173;" d="M64 832.1v-895.6h895.6V832.1H64z m831.6-831.7H128V768.1h767.7v-767.7z"  horiz-adv-x="1024" />

    
    <glyph glyph-name="confirm" unicode="&#59176;" d="M510.5 855.7C252.2 855.7 43 646.4 43 388.2s209.2-467.5 467.5-467.5S978 129.89999999999998 978 388.2 768.7 855.7 510.5 855.7z m0-868.3c-221.3 0-400.7 179.4-400.7 400.7s179.3 400.8 400.7 400.8 400.7-179.4 400.7-400.7-179.4-400.8-400.7-400.8zM653.3 517.6c0-25.8-6-49.6-17.9-71.4-11.9-21.9-27.8-40.7-47.6-56.5-19.9-15.9-33.8-31.8-41.7-47.6-8-15.9-11.9-26.8-11.9-32.7v-20.8h-53.6v29.8c0 17.9 4.5 35.2 13.4 52.1 8.9 16.8 24.3 35.2 46.1 55.1 15.9 13.9 26.8 28.3 32.7 43.2 6 14.9 8.9 29.2 8.9 43.2 0 25.8-6 45.1-17.9 58-11.9 12.9-28.8 19.3-50.6 19.3-21.9 0-40.2-8.5-55.1-25.3-14.9-16.9-22.3-44.2-22.3-81.8h-68.4c2 55.5 16.8 96.7 44.6 123.5 27.8 26.8 61.5 40.2 101.2 40.2 43.6 0 77.8-11.9 102.7-35.7 25-24.1 37.4-54.9 37.4-92.6z m-113-386.9h-65.5v71.4h65.5v-71.4z"  horiz-adv-x="1024" />

    
    <glyph glyph-name="min" unicode="&#59138;" d="M64.2 447h895.6v-126H64.2V447z"  horiz-adv-x="1024" />

    
    <glyph glyph-name="refresh" unicode="&#59157;" d="M949.2 602.4l-48-24.1c-1.4 2.8-2.7 5.7-4.1 8.5C786 806.1 518.3 893.8 299 782.8 174 719.6 91.7 605.5 64.6 478.4h65.2c26 103.5 95 195.6 197.8 247.6 188 95.1 417.5 20 512.7-168.1 1.4-2.8 2.7-5.6 4.1-8.4l-39.2-19.7c-14.2-7.1-15.3-27-2.1-35.7l134.7-88.5c13.3-8.7 31 0.2 31.9 16.1l9.3 160.9c1 16-15.6 26.9-29.8 19.8zM694.4 41.89999999999998c-188-95.1-417.5-20-512.7 168.1-1.4 2.8-2.7 5.6-4.1 8.4l39.2 19.7c14.2 7.1 15.3 27 2.1 35.7L84.1 362.20000000000005c-13.3 8.7-31-0.2-31.9-16.1l-9.3-160.9c-0.9-15.9 15.7-26.8 29.9-19.6l48 24.1c1.4-2.8 2.7-5.7 4.1-8.5 111.1-219.3 378.8-307 598.1-196 125 63.2 207.2 177.3 234.4 304.4h-65.2c-26-103.6-95.1-195.7-197.8-247.7z"  horiz-adv-x="1024" />

    
    <glyph glyph-name="filter" unicode="&#59107;" d="M834.1 761.9L570.7 434.6v-433.4L453.3 104V434.6L189.9 761.9c-3 3.5-3.5 8.4-1.4 12.5 1.8 4.2 6 6.8 10.6 6.6h626c4.6 0.1 8.8-2.5 10.6-6.7 2-4.1 1.4-9-1.6-12.4M825 851.5H199c-31.9 0-60.4-17.9-74.2-46.7-13.8-28.5-9.9-62.5 10.1-87.1l247.8-307.9v-311.1c0-17 7.3-33.1 20-44.2l140.9-123.3c17.3-15.3 42-18.9 63-9.3 21.1 9.4 34.6 30.4 34.5 53.5V409.8L889 717.7c20 24.6 23.9 58.5 10.1 87.1-13.5 28.6-42.4 46.8-74.1 46.7"  horiz-adv-x="1024" />

    
    <glyph glyph-name="Advancedsearch" unicode="&#59108;" d="M44.3 48.5v-85h935.3v85H44.3z m311.8 369.9H44.3v-76.5h311.8v76.5z m0 377H44.3v-82.2h311.8v82.2z m269-501.4c54.7-11.5 108.7-4 156 17.6l125.6-193.8s55.4-11.6 66.8 44.5L848 356.1c38.4 35.4 66.6 82.7 77.9 138.1 28.5 139.5-59.9 276-197.5 304.9C590.8 828 456.1 738.3 427.6 598.9c-28.5-139.5 59.9-276 197.5-304.9zM483 587.2C505.1 695.7 609.9 765.4 716.9 743c107-22.5 175.8-128.6 153.6-237.1-22.2-108.5-126.9-178.2-233.9-155.7-107 22.4-175.8 128.6-153.6 237z"  horiz-adv-x="1024" />

    
    <glyph glyph-name="left" unicode="&#59117;" d="M420.7 671.2v-570.3l182.5-182.5V853.7L420.7 671.2z m120.1-364.7L483.2 386l57.6 79.5v-159z"  horiz-adv-x="1024" />

    
    <glyph glyph-name="right" unicode="&#59120;" d="M420.7 851.7v-935.4l182.5 182.5V669.2L420.7 851.7z m62.5-547.2v159l57.6-79.5-57.6-79.5z"  horiz-adv-x="1024" />

    
    <glyph glyph-name="CheckBox-" unicode="&#59126;" d="M64.2 831.8v-895.6h895.6V831.8H64.2z m353.7-686.2l-1.3-1.1-214.1 214 70.4 70.4 143.8-143.8 338.4 338.4 70.4-70.4-407.6-407.5z"  horiz-adv-x="1024" />

    
    <glyph glyph-name="an" unicode="&#59127;" d="M512 851.5C253.7 851.5 44.5 642.2 44.5 384S253.7-83.5 512-83.5 979.5 125.70000000000005 979.5 384 770.2 851.5 512 851.5z m0-868.3c-221.3 0-400.7 179.4-400.7 400.7S290.6 784.7 512 784.7 912.7 605.3 912.7 384 733.3-16.799999999999955 512-16.799999999999955zM712 531.7l-200-200-200 200-47.7-47.7 200-200 47.7-47.7 247.7 247.6z"  horiz-adv-x="1024" />

    
    <glyph glyph-name="Packup" unicode="&#59128;" d="M512 851.5C253.7 851.5 44.5 642.2 44.5 384S253.7-83.5 512-83.5 979.5 125.70000000000005 979.5 384 770.2 851.5 512 851.5z m0-868.3c-221.3 0-400.7 179.4-400.7 400.7S290.6 784.7 512 784.7 912.7 605.3 912.7 384 733.3-16.799999999999955 512-16.799999999999955zM712 236.29999999999995l-200 200-200-200-47.7 47.7 200 200 47.7 47.7 247.7-247.6z"  horiz-adv-x="1024" />

    
    <glyph glyph-name="floder" unicode="&#59149;" d="M920.4 679h-466v53.1c0 31.9-26.6 58.5-58.5 58.5H103.6c-31.9 0-58.5-26.6-58.5-58.5v-696.3c0.4-32.2 26.8-58.5 59.1-58.5h815.4c32.5 0 59.1 26.6 59.1 59.1V620.5c0.1 31.9-26.4 58.5-58.3 58.5z"  horiz-adv-x="1024" />

    
    <glyph glyph-name="floderopen" unicode="&#59143;" d="M878.7 35.89999999999998c0-31.9-26.6-58.5-58.5-58.5H86.8L190.4 461c0 31.9 26.6 58.5 58.5 58.5h672.3c31.9 0 58.5-26.6 58.5-58.5l-101-425.1zM203.7 562h659v58.5c0 31.9-26.6 58.5-58.5 58.5H453.5v53.1c0 31.9-26.6 58.5-58.5 58.5H102.8c-31.9 0-58.5-26.6-58.5-58.5v-696.2l103.6 467.7c-2.6 34.5 24 58.4 55.8 58.4z m0 0"  horiz-adv-x="1024" />

    
    <glyph glyph-name="paper" unicode="&#59133;" d="M589.4 784c-5.2 4.3-11.7 6.6-18.5 6.6H228.7c-32.3 0-58.7-26.4-58.7-58.7v-695.7c0-32.3 26.4-58.7 58.7-58.7h562.6c32.3 0 58.7 26.4 58.7 58.7V546.3c0 8.4-3.8 16.4-10.3 21.8L589.4 784z m184.1-740.8h-526c-5.4 0-9.8 5.4-9.8 10.8V717.1c0 5.4 4.4 9.8 9.8 9.8h285.9c6.5 0 11.8-5.3 11.8-11.8l-0.3-155.5c-0.1-23.6 17-42.8 38.1-42.8h191.2c6.1 0 11.1-5 11.1-11.1l-2-452.7c0-5.4-4.4-9.8-9.8-9.8z"  horiz-adv-x="1024" />

    
    <glyph glyph-name="quit" unicode="&#59125;" d="M417.4 262.5c-12.9-12.9-12.9-34.1 0-47 12.9-12.9 34.1-12.9 47 0l145.2 145.2c2.4 2.4 4.4 5.2 5.9 8.1 6.6 12.6 4.6 28.5-5.9 39L464.5 553c-12.9 12.9-34.1 12.9-47 0-12.9-12.9-12.9-34.1 0-47l89.2-89.2H98.2c-18.3 0-33.2-15-33.2-33.2 0-18.3 15-33.2 33.2-33.2h407.2l-88-87.9zM824.9 852H357c-74.1 0-134.2-60.1-134.2-134.2v-155h66.6V685.5c0 55.2 44.7 99.9 99.9 99.9h393.5c60.6 0 109.8-49.1 109.8-109.8v-583.3c0-60.6-49.1-109.8-109.8-109.8H399.2c-60.6 0-109.8 49.1-109.8 109.8V205.79999999999995h-66.6v-155.5c0-74.1 60.1-134.2 134.2-134.2h467.9c74.1 0 134.2 60.1 134.2 134.2V717.8C959.1 791.9 899 852 824.9 852z"  horiz-adv-x="1024" />

    
    <glyph glyph-name="recover" unicode="&#59145;" d="M674.3 569.9H241l94.2 94.2c13.7 13.7 13.7 36 0 49.7-13.7 13.7-36 13.7-49.7 0L132.2 560.4c-11.1-11.1-13.2-28-6.2-41.2 1.6-3.1 3.7-5.9 6.3-8.5l153.4-153.4c13.7-13.7 36-13.7 49.7 0 13.7 13.7 13.7 36 0 49.7l-92.8 92.8h430c100.9-0.2 191.2-90.4 191.2-191.3s-90.3-194.1-191.2-194.3H267.2c-19.3 0-35.1-15.8-35.1-35.1s15.8-35.1 35.1-35.1h415.7v0.4c140.4 5.4 252.6 121 252.6 262.7-0.1 144.5-116.8 261.8-261.2 262.8z"  horiz-adv-x="1024" />

    
    <glyph glyph-name="sortup" unicode="&#59177;" d="M1019.29599766 621.40849161L1152.82454864 621.40849161l-228.40409971 197.65739443 0-878.47730595L1019.29599765-59.41141991999996l1e-8 680.81991152zM756.6312833-11.095168650000005l-657.97950234 0 0 87.4084922L756.63128329 76.31332354000006zM756.6312833 317.89458252l-657.97950234 0 0 87.40849219L756.6312833 405.30307471zM756.6312833 677.63103984l-657.97950234 0 0 87.40849131L756.6312833 765.03953115z"  horiz-adv-x="1235" />

    
    <glyph glyph-name="bottom" unicode="&#59178;" d="M508.91009498 322.20190453L811.7207644 621.92266823l46.34857177-46.34857179L507.36514282 229.50476098000001l-336.79962182 346.06933546 46.34857178 46.34857178zM867.33905053 166.16171265000003l-710.67810106 0 0 64.88800048L867.33905053 231.04971313z"  horiz-adv-x="1024" />

    


  </font>
</defs>
</svg>
