<?xml version="1.0" encoding="utf-8"?>
<!-- Generator: Adobe Illustrator 22.0.0, SVG Export Plug-In . SVG Version: 6.00 Build 0)  -->
<svg version="1.1" id="图层_1" xmlns="http://www.w3.org/2000/svg" xmlns:xlink="http://www.w3.org/1999/xlink" x="0px" y="0px"
	 viewBox="0 0 1024 1024" style="enable-background:new 0 0 1024 1024;" xml:space="preserve">
<style type="text/css">
	.st0{fill:#323333;}
</style>
<g>
	<g>
		<path class="st0" d="M886.5,529.8c0,0,0.1,140.3,0.1,179.9v71.6c0,39.6-26.4,68.3-64.8,68.3H208.1c-38.4,0-69.5-28.6-69.5-68.3
			v-71.6c0-39.6,0.1-179.9,0.1-179.9c-38.1,0-74.8,31.9-74.8,71.2v251.1c0,39.3,30.9,71.2,68.9,71.2h758.3
			c38.1,0,68.9-31.9,68.9-71.2V601C960.1,561.7,924.6,529.8,886.5,529.8z M512.8,100.7H363.1v710.7h149.7V100.7z M699.1,212.7H550.3
			v598.7h148.8V212.7z M325.3,100.7H176.2v710.7h149.1L325.3,100.7L325.3,100.7z M849.3,212.7H737v598.7h112.3L849.3,212.7
			L849.3,212.7z"/>
	</g>
</g>
</svg>
