<?xml version="1.0" encoding="utf-8"?>
<!-- Generator: Adobe Illustrator 22.0.0, SVG Export Plug-In . SVG Version: 6.00 Build 0)  -->
<svg version="1.1" id="图层_1" xmlns="http://www.w3.org/2000/svg" xmlns:xlink="http://www.w3.org/1999/xlink" x="0px" y="0px"
	 viewBox="0 0 1024 1024" style="enable-background:new 0 0 1024 1024;" xml:space="preserve">
<style type="text/css">
	.st0{fill:#323333;}
</style>
<g>
	<g>
		<path class="st0" d="M323.7,101.1h-35.6v111.7h35.6V101.1z M892.4,176.3h-157V250H623.8v-72.7h-73.2V250H437v-74.8l-74.4,1.1V250
			H250.2v-74.8l-118.7,1.1c-37.4,0-67.6,29.9-67.6,66.8v612.9c0,36.9,30.3,66.8,67.6,66.8h760.9c37.4,0,67.6-29.9,67.6-66.8V243
			C960.1,206.3,929.8,176.3,892.4,176.3z M138.2,561.9c0-48.1,45.3-77.7,118.3-82.1c-35.2-6.8-61.9-38.5-61.9-76.5
			c0-43,34.1-77.9,76.1-77.9s76.1,34.9,76.1,77.9c0,37.4-25.8,68.6-60.1,76.2c76.6,2.9,108.3,37.2,108.3,80.1
			c0,44.8-13.6,71.9-13.6,71.9H163C163,631.4,138.2,595.5,138.2,561.9z M666.3,847.8H371.5c0,0-33.4-48.5-33.4-93.8
			c0-64.9,61.1-104.8,159.6-110.7c-47.5-9.2-83.4-51.9-83.4-103.2c0-58,46-105.1,102.7-105.1S619.7,482,619.7,540
			c0,50.4-34.7,92.6-81,102.7c103.3,3.9,146.1,50.2,146.1,108C684.6,811.3,666.3,847.8,666.3,847.8z M871.9,631.4H653.4
			c0,0-24.8-35.9-24.8-69.5c0-48.1,45.3-77.7,118.3-82.1c-35.2-6.8-61.9-38.5-61.9-76.5c0-43,34.1-77.9,76.1-77.9
			s76.1,34.9,76.1,77.9c0,37.4-25.8,68.6-60.1,76.2c76.6,2.9,108.3,37.2,108.3,80.1C885.5,604.4,871.9,631.4,871.9,631.4z
			 M697.1,101.1h-35.6v111.7h35.6V101.1z M510.4,101.1h-35.6v111.7h35.6V101.1z M538.5,642.8c-4.7-0.2-9.6-0.3-14.5-0.3
			c-9.1,0-17.8,0.3-26.3,0.8c6.2,1.2,12.7,1.8,19.2,1.8C524.3,645.2,531.6,644.3,538.5,642.8z M777.2,479.4
			c-3.5-0.1-7.1-0.2-10.7-0.2c-6.7,0-13.2,0.2-19.5,0.6c4.6,0.9,9.3,1.4,14.2,1.4C766.6,481.1,772,480.6,777.2,479.4z M286.7,479.4
			c-3.5-0.1-7.1-0.2-10.7-0.2c-6.7,0-13.2,0.2-19.5,0.6c4.6,0.9,9.3,1.4,14.2,1.4C276.2,481.1,281.6,480.6,286.7,479.4z"/>
	</g>
</g>
</svg>
