<?xml version="1.0" encoding="utf-8"?>
<!-- Generator: Adobe Illustrator 22.0.0, SVG Export Plug-In . SVG Version: 6.00 Build 0)  -->
<svg version="1.1" id="图层_1" xmlns="http://www.w3.org/2000/svg" xmlns:xlink="http://www.w3.org/1999/xlink" x="0px" y="0px"
	 viewBox="0 0 1024 1024" style="enable-background:new 0 0 1024 1024;" xml:space="preserve">
<style type="text/css">
	.st0{fill:none;}
	.st1{fill:#323333;}
</style>
<g>
	<g>
		<path class="st1" d="M228.3,121.6l-58.5,335.9c0,0,23-2.2,273.5-2.2c68.8,0,33.4-111.6,123.6-111.6c198.4,0,292.6,0,292.6,0
			c40.4,0,63.4-13.4,63.4,27.1l35.2-147.1L228.3,121.6z M848.7,380.9c0,0-46.3,0-244.7,0c-90.2,0-54.8,111.6-123.6,111.6H119.1
			l37.8-260.4H139c-40.4,0-73.1,32.8-73.1,73.3v523.7c0,40.5,32.7,73.3,73.1,73.3h709.7c40.4,0,73.1-32.8,73.1-73.3v-375
			C921.8,413.7,889,380.9,848.7,380.9z"/>
	</g>
</g>
</svg>
