<?xml version="1.0" encoding="utf-8"?>
<!-- Generator: Adobe Illustrator 22.0.0, SVG Export Plug-In . SVG Version: 6.00 Build 0)  -->
<svg version="1.1" id="图层_1" xmlns="http://www.w3.org/2000/svg" xmlns:xlink="http://www.w3.org/1999/xlink" x="0px" y="0px"
	 viewBox="0 0 1024 1024" style="enable-background:new 0 0 1024 1024;" xml:space="preserve">
<style type="text/css">
	.st0{fill:#323333;}
</style>
<g>
	<g>
		<path class="st0" d="M661.7,287.1v-74.7c0-82.6-67-149.6-149.6-149.6s-149.6,67-149.6,149.6v74.7H138.1v674h747.8v-674H661.7z
			 M437.3,212.4c0-41.3,33.5-74.8,74.8-74.8c41.3,0,74.8,33.5,74.8,74.8v74.4H437.3V212.4z M674.1,773.4H328.5
			c-16.5,0-78.2-33.5-78.2-106.9c0-73.3,60.7-96.4,111.1-91.1c0,0-7.2-60.8,44.2-77.5c51.4-16.8,83.3,29.3,87.4,34.6
			c0,0,27.1-77.8,127.4-53c66.9,16.5,88.6,62.2,88.6,123.2c0,0,64.8,4.2,64.8,81.7C773.8,761.8,708,773.4,674.1,773.4z"/>
	</g>
</g>
</svg>
