<?xml version="1.0" encoding="utf-8"?>
<!-- Generator: Adobe Illustrator 22.0.0, SVG Export Plug-In . SVG Version: 6.00 Build 0)  -->
<svg version="1.1" id="图层_1" xmlns="http://www.w3.org/2000/svg" xmlns:xlink="http://www.w3.org/1999/xlink" x="0px" y="0px"
	 viewBox="0 0 1024 1024" style="enable-background:new 0 0 1024 1024;" xml:space="preserve">
<style type="text/css">
	.st0{fill:#323333;}
</style>
<g>
	<g>
		<path class="st0" d="M177,214.9H65.3v37.2H177V214.9z M177,363.9H65.3v37.2H177V363.9z M177,624.8H65.3V662H177V624.8z
			 M923.9,623.9L923.9,623.9c-0.3,0-0.6,0-0.9,0H923.9z M815.2,64.2H211c-38.5,0-70.8,32.8-70.8,73.2v39.1l75.2,0.5l-1,111h-74.2
			v38.3h74.3v111.5h-74.4v149.9h74.4V698h-74.2l1.1,38.3h73.1v111.5h-74.2l1.1,38.7c0,40.4,31.2,73.2,69.7,73.2h604.3
			c38.5,0,69.7-32.8,69.7-73.2v-749C884.9,97,853.7,64.2,815.2,64.2z M327.2,773.5h-38.5v-36.3h38.5V773.5z M327.2,698.8h-38.5
			v-36.3h38.5V698.8z M327.2,623.9h-38.5v-36.3h38.5V623.9z M327.2,549.1h-38.5v-36.3h38.5V549.1z M327.2,474.3h-38.5V438h38.5
			V474.3z M327.2,399.5h-38.5v-36.3h38.5V399.5z M327.2,324.6h-38.5v-36.3h38.5V324.6z M401.7,773.5h-38.5v-36.3h38.5V773.5z
			 M401.7,698.8h-38.5v-36.3h38.5V698.8z M401.7,623.9h-38.5v-36.3h38.5V623.9z M401.7,549.1h-38.5v-36.3h38.5V549.1z M401.7,474.3
			h-38.5V438h38.5V474.3z M401.7,399.5h-38.5v-36.3h38.5V399.5z M401.7,324.6h-38.5v-36.3h38.5V324.6z M437.3,251H363v-37.4h74.3
			V251z M476.3,773.5h-38.5v-36.3h38.5V773.5z M476.3,698.8h-38.5v-36.3h38.5V698.8z M476.3,623.9h-38.5v-36.3h38.5V623.9z
			 M476.3,549.1h-38.5v-36.3h38.5V549.1z M476.3,474.3h-38.5V438h38.5V474.3z M476.3,399.5h-38.5v-36.3h38.5V399.5z M476.3,324.6
			h-38.5v-36.3h38.5V324.6z M511.6,213.6h75.5v37.4h-75.5V213.6z M550.9,773.5h-38.5v-36.3h38.5V773.5z M550.9,698.8h-38.5v-36.3
			h38.5V698.8z M550.9,623.9h-38.5v-36.3h38.5V623.9z M550.9,549.1h-38.5v-36.3h38.5V549.1z M550.9,474.3h-38.5V438h38.5V474.3z
			 M550.9,399.5h-38.5v-36.3h38.5V399.5z M550.9,324.6h-38.5v-36.3h38.5V324.6z M625.5,698.8H587v-36.3h38.5V698.8z M625.5,623.9
			H587v-36.3h38.5V623.9z M625.5,549.1H587v-36.3h38.5V549.1z M625.5,474.3H587V438h38.5V474.3z M625.5,399.5H587v-36.3h38.5V399.5z
			 M625.5,324.6H587v-36.3h38.5V324.6z M660.1,213.6h75.5v37.4h-75.5V213.6z M699.1,698.8h-38.4v-36.3h38.4V698.8z M699.1,623.9
			h-38.4v-36.3h38.4V623.9z M699.1,549.1h-38.4v-36.3h38.4V549.1z M699.1,474.3h-38.4V438h38.4V474.3z M699.1,399.5h-38.4v-36.3
			h38.4V399.5z M699.1,324.6h-38.4v-36.3h38.4V324.6z M773.7,698.8h-38.5v-36.3h38.5V698.8z M773.7,623.9h-38.5v-36.3h38.5V623.9z
			 M773.7,549.1h-38.5v-36.3h38.5V549.1z M773.7,474.3h-38.5V438h38.5V474.3z M773.7,399.5h-38.5v-36.3h38.5V399.5z M773.7,324.6
			h-38.5v-36.3h38.5V324.6z M923.9,362.9L923.9,362.9c-0.3,0-0.6,0-0.9,0H923.9z M923,177.8c0.3,0,0.6,0,0.9,0l0,0H923z
			 M923.9,438.8v185c19.3-0.5,34.8-17,34.8-37.3V476.1C958.7,455.8,943.2,439.3,923.9,438.8z M923,699.9c0.3,0,0.6,0,0.9,0l0,0H923z
			 M923,438.8c0.3,0,0.6,0,0.9,0l0,0H923z M923.9,885L923.9,885c-0.3,0-0.6,0-0.9,0H923.9z M923.9,177.8v185
			c19.3-0.5,34.8-17,34.8-37.3V215.1C958.7,194.8,943.2,178.3,923.9,177.8z M923.9,699.9v185c19.3-0.5,34.8-17,34.8-37.3V737.3
			C958.7,716.9,943.2,700.4,923.9,699.9z M177,773.9H65.3v37.2H177V773.9z"/>
	</g>
</g>
</svg>
