<?xml version="1.0" encoding="utf-8"?>
<!-- Generator: Adobe Illustrator 22.0.0, SVG Export Plug-In . SVG Version: 6.00 Build 0)  -->
<svg version="1.1" id="图层_1" xmlns="http://www.w3.org/2000/svg" xmlns:xlink="http://www.w3.org/1999/xlink" x="0px" y="0px"
	 viewBox="0 0 1024 1024" style="enable-background:new 0 0 1024 1024;" xml:space="preserve">
<style type="text/css">
	.st0{fill:#2F3333;}
</style>
<g>
	<g>
		<path class="st0" d="M959.7,64.3L64,64.7l0.4,894.9c0,0,142.7-0.1,314.2-0.1c258.1-0.1,581.5-0.3,581.5-0.3L959.7,64.3z
			 M286.4,242.7l539.7,0.1l-0.1,44.3L286.3,287L286.4,242.7z M243.5,692.1l-91.4-0.2l0.2-88l91.4,0.2L243.5,692.1z M243.5,557.6
			l-91.4-0.2l0.2-88l91.4,0.2L243.5,557.6z M243.5,423.2l-91.4-0.2l0.2-88l91.4,0.2L243.5,423.2z M243.5,288.7l-91.4-0.2l0.2-88
			l91.4,0.2L243.5,288.7z M286.4,377.2l136.4,0.1l-0.1,44.3l-136.4-0.1L286.4,377.2z M869.8,693.5H690.5l-0.2,179l-178.1-0.8
			l0.2-178.2H331.1l0.8-182.6h179.9V331.6h177.9v179.3H576.5h294L869.8,693.5z M512.4,692.3v1.2h178.1V693L512.4,692.3z
			 M576.5,510.9h-64.8l0,0H576.5z"/>
	</g>
</g>
</svg>
