<?xml version="1.0" encoding="utf-8"?>
<!-- Generator: Adobe Illustrator 22.0.0, SVG Export Plug-In . SVG Version: 6.00 Build 0)  -->
<svg version="1.1" id="图层_1" xmlns="http://www.w3.org/2000/svg" xmlns:xlink="http://www.w3.org/1999/xlink" x="0px" y="0px"
	 viewBox="0 0 1024 1024" style="enable-background:new 0 0 1024 1024;" xml:space="preserve">
<style type="text/css">
	.st0{fill:#2F3333;}
</style>
<g>
	<g>
		<path class="st0" d="M880.4,69.9H143.6c-40.7,0-73.7,33-73.7,73.7v736.8c0,40.7,33,73.7,73.7,73.7h736.8c40.7,0,73.7-33,73.7-73.7
			V143.5C954.1,102.8,921.1,69.9,880.4,69.9z M880.6,834.3c0,25.5-20.6,46.2-46,46.2H705.3c-25.4,0-46-20.7-46-46.2V705.8
			c0-25.5,20.6-46.2,46-46.2h27.9V585H548.9v74.6h27.8c25.4,0,46,20.7,46,46.2v128.5c0,25.5-20.6,46.2-46,46.2H447.4
			c-25.4,0-46-20.7-46-46.2V705.8c0-25.5,20.6-46.2,46-46.2h28V585H290.2v74.6h28.6c25.4,0,46,20.7,46,46.2v128.5
			c0,25.5-20.6,46.2-46,46.2H189.5c-25.4,0-46-20.7-46-46.2V705.8c0-25.5,20.6-46.2,46-46.2h28.4V585h-1.3v-72.8h258.8v-37.3h-80.9
			c-37.5,0-67.9-31-67.9-69.2v-193c0-38.2,30.4-69.2,67.9-69.2h234c37.5,0,67.9,31,67.9,69.2v193c0,38.2-30.4,69.2-67.9,69.2H549
			v37.3h257.9V585h-0.2v74.6h27.9c25.4,0,46,20.7,46,46.2L880.6,834.3L880.6,834.3z"/>
	</g>
</g>
</svg>
