<?xml version="1.0" encoding="utf-8"?>
<!-- Generator: Adobe Illustrator 22.0.0, SVG Export Plug-In . SVG Version: 6.00 Build 0)  -->
<svg version="1.1" id="图层_1" xmlns="http://www.w3.org/2000/svg" xmlns:xlink="http://www.w3.org/1999/xlink" x="0px" y="0px"
	 viewBox="0 0 1024 1024" style="enable-background:new 0 0 1024 1024;" xml:space="preserve">
<style type="text/css">
	.st0{fill:#323333;}
</style>
<g>
	<g>
		<path class="st0" d="M922.5,64.2l-821.3,0.4l0.3,895.2l821.3-0.4L922.5,64.2z M737.5,176.3l36.7,0.1l-0.1,36.3l-36.7-0.1
			L737.5,176.3z M737.3,251.2l36.7,0.1l-0.1,36.3l-36.7-0.1L737.3,251.2z M737.2,326.1l36.7,0.1l-0.1,36.3l-36.7-0.1L737.2,326.1z
			 M737,401l36.7,0.1l-0.1,36.3l-36.7-0.1L737,401z M662.8,176.3l36.7,0.1l-0.1,36.3l-36.7-0.1L662.8,176.3z M662.6,251.2l36.7,0.1
			l-0.1,36.3l-36.7-0.1L662.6,251.2z M662.4,326.1l36.7,0.1l-0.1,36.3l-36.7-0.1L662.4,326.1z M662.3,401l36.7,0.1l-0.1,36.3
			l-36.7-0.1L662.3,401z M588,176.3l36.7,0.1l-0.1,36.3l-36.7-0.1L588,176.3z M587.9,251.2l36.7,0.1l-0.1,36.3l-36.7-0.1
			L587.9,251.2z M587.7,326.1l36.7,0.1l-0.1,36.3l-36.7-0.1L587.7,326.1z M587.5,401l36.7,0.1l-0.1,36.3l-36.7-0.1L587.5,401z
			 M513.3,176.3l36.7,0.1l-0.1,36.3l-36.7-0.1L513.3,176.3z M513.2,251.2l36.7,0.1l-0.1,36.3l-36.7-0.1L513.2,251.2z M513,326.1
			l36.7,0.1l-0.1,36.3l-36.7-0.1L513,326.1z M512.8,401l36.7,0.1l-0.1,36.3l-36.7-0.1L512.8,401z M438.6,176.3l36.7,0.1l-0.1,36.3
			l-36.7-0.1L438.6,176.3z M438.4,251.2l36.7,0.1l-0.1,36.3l-36.7-0.1L438.4,251.2z M438.3,326.1l36.7,0.1l-0.1,36.3l-36.7-0.1
			L438.3,326.1z M250.2,587.2l-36.7-0.1l0.1-36.3l36.7,0.1L250.2,587.2z M250.4,512.3l-36.7-0.1l0.1-36.3l36.7,0.1L250.4,512.3z
			 M250.5,437.4l-36.7-0.1l0.1-36.3l36.7,0.1L250.5,437.4z M250.7,362.5l-36.7-0.1l0.1-36.3l36.7,0.1L250.7,362.5z M250.9,287.6
			l-36.7-0.1l0.1-36.3l36.7,0.1L250.9,287.6z M251,212.7l-36.7-0.1l0.1-36.3l36.7,0.1L251,212.7z M324.9,587.2l-36.7-0.1l0.1-36.3
			l36.7,0.1L324.9,587.2z M325.1,512.3l-36.7-0.1l0.1-36.3l36.7,0.1L325.1,512.3z M325.3,437.4l-36.7-0.1l0.1-36.3l36.7,0.1
			L325.3,437.4z M325.4,362.5l-36.7-0.1l0.1-36.3l36.7,0.1L325.4,362.5z M325.6,287.6l-36.7-0.1l0.1-36.3l36.7,0.1L325.6,287.6z
			 M325.8,212.7l-36.7-0.1l0.1-36.3l36.7,0.1L325.8,212.7z M399.6,587.2l-36.7-0.1l0.1-36.3l36.7,0.1L399.6,587.2z M399.8,512.3
			l-36.7-0.1l0.1-36.3l36.7,0.1L399.8,512.3z M400,437.4l-36.7-0.1l0.1-36.3l36.7,0.1L400,437.4z M400.2,362.5l-36.7-0.1l0.1-36.3
			l36.7,0.1L400.2,362.5z M400.3,287.6l-36.7-0.1l0.1-36.3l36.7,0.1L400.3,287.6z M400.5,212.7l-36.7-0.1l0.1-36.3l36.7,0.1
			L400.5,212.7z M474.7,437.4l-36.7-0.1l0.1-36.3l36.7,0.1L474.7,437.4z M782.6,782.8l-5,67.8l-69.2-15.7l-45.7,51.9l-46.4-51.6
			l-69,16.3l-5.9-67.7l-65.9-25.6l36.8-58l-37.7-57.7l65.5-26.1l5-67.8l69.2,15.7l45.7-51.9l46.4,51.6l69-16.3l5.9,67.7l65.9,25.6
			l-36.8,58l37.7,57.7L782.6,782.8z"/>
	</g>
</g>
</svg>
