<?xml version="1.0" encoding="utf-8"?>
<!-- Generator: Adobe Illustrator 22.0.0, SVG Export Plug-In . SVG Version: 6.00 Build 0)  -->
<svg version="1.1" id="图层_1" xmlns="http://www.w3.org/2000/svg" xmlns:xlink="http://www.w3.org/1999/xlink" x="0px" y="0px"
	 viewBox="0 0 1024 1024" style="enable-background:new 0 0 1024 1024;" xml:space="preserve">
<style type="text/css">
	.st0{fill:#323333;}
</style>
<g>
	<g>
		<path class="st0" d="M847.8,101.9H176.1c-61.6,0-111.5,49.8-111.5,111.3v465.7c0,61.5,49.9,131.2,111.5,131.2h418l-86.7,112
			l257-112h83.6c61.6,0,111.5-49.9,111.5-111.4V213.2C959.3,151.7,909.5,101.9,847.8,101.9z M333.2,718.2
			c-87.4,0-158.3-56.5-158.3-126.1c0-62,56.1-113.5,130.1-124.1c-55.2-9-97.2-54.8-97.2-109.9c0-61.6,52.5-111.5,117.2-111.5
			s117.2,49.9,117.2,111.5c0,53-38.9,97.4-91,108.7c78.9,7.1,140.3,60.5,140.3,125.3C491.4,661.8,420.6,718.2,333.2,718.2z
			 M517.7,473.1c-24.5,0-44.3-17.6-44.3-39.4c0-21.7,19.8-39.4,44.3-39.4c24.5,0,44.3,17.6,44.3,39.4
			C562.1,455.5,542.2,473.1,517.7,473.1z M571.8,336.7c-16.3,0-29.5-11-29.5-24.6s13.2-24.6,29.5-24.6c16.3,0,29.6,11,29.6,24.6
			C601.5,325.7,588.2,336.7,571.8,336.7z M747,466.6c-54.6,0-98.8-35.2-98.8-78.7c0-38.7,35.1-70.9,81.3-77.5
			c-34.5-5.6-60.7-34.2-60.7-68.6c0-38.4,32.7-69.6,73.1-69.6c40.4,0,73.1,31.2,73.1,69.6c0,33.1-24.3,60.8-56.8,67.8
			c49.3,4.4,87.6,37.7,87.6,78.2C845.8,431.4,801.6,466.6,747,466.6z M351.2,466.9c-5.9-0.5-11.9-0.8-18-0.8c-9.6,0-19,0.7-28.2,2
			c6.5,1.1,13.2,1.6,20,1.6C334,469.7,342.7,468.7,351.2,466.9z M758.2,309.8c-3.7-0.3-7.4-0.5-11.2-0.5c-6,0-11.8,0.4-17.5,1.2
			c4,0.7,8.2,1,12.4,1C747.5,311.5,753,310.9,758.2,309.8z"/>
	</g>
</g>
</svg>
